<?xml version="1.0" encoding="utf-8"?>
<!-- Generator: Adobe Illustrator 21.1.0, SVG Export Plug-In . SVG Version: 6.00 Build 0)  -->
<svg version="1.1" id="Layer_1" xmlns="http://www.w3.org/2000/svg" xmlns:xlink="http://www.w3.org/1999/xlink" x="0px" y="0px"
	 viewBox="0 0 50 50" style="enable-background:new 0 0 50 50;" xml:space="preserve">
<style type="text/css">
	.st0{fill-rule:evenodd;clip-rule:evenodd;fill:#47A0BE;}
	.st1{fill:none;stroke:#47A0BE;stroke-miterlimit:10;}
</style>
<title>person</title>
<desc>Created with Sketch.</desc>
<g>
	<g>
		<path class="st0" d="M29.5,37c-1-3.7,2.5-9.2,3.4-11.9c0.7-2.1,0.1-3.6,0.1-5.8c0.2-1.9,0.4-3.7,0.5-5.6c-0.9-5-4.3-6.3-10.4-6.2
			c-2.9,1.2-7.1,2.7-6.3,7.3c0.3,1.6,0.8,3.6,0.5,5.7c-0.2,1.6-0.4,3.2,0.2,4.9c0.9,2.4,4.3,8.3,2.9,12c-0.6,1.6-10.2,4.5-12.4,5.2
			c6.9,9.2,27.2,8.9,34.1-0.1C39.8,41.9,30,38.8,29.5,37z"/>
	</g>
</g>
<circle class="st1" cx="25" cy="25" r="24.3"/>
</svg>
