<?xml version="1.0" encoding="utf-8"?>
<!-- Generator: Adobe Illustrator 21.1.0, SVG Export Plug-In . SVG Version: 6.00 Build 0)  -->
<svg version="1.1" id="Layer_1" xmlns="http://www.w3.org/2000/svg" xmlns:xlink="http://www.w3.org/1999/xlink" x="0px" y="0px"
	 viewBox="0 0 316 316" style="enable-background:new 0 0 316 316;" xml:space="preserve">
<style type="text/css">
	.st0{fill:#3C6C7F;}
	.st1{fill:#FFFFFF;}
</style>
<g>
	<path class="st0" d="M196,109.6c-1.5-1.6-8,1-13.7,6.6c-5.8,5.6-12.2,11.9-12.2,11.9l-15.8-2.7l3.8-3.7c1.5-1.5,1.6-4,0.1-5.5
		c-1.5-1.5-4-1.6-5.5-0.1l-7.9,7.7l-22.5-3.8l-8.9,8.6l39.8,15.8c0,0-11.8,11.5-15.8,15.4c-4,3.9-8.6,10.3-8.6,10.3l-19.5-2
		l-4.8,4.8l17.9,7.3l0.2,0.6l-2.2,2.5l-3.5,3.8l0.5-0.4l-0.4,0.5l3.9-3.4l2.6-2.2l0.6,0.2l6.8,18.1l5-4.6l-1.5-19.5
		c0,0,6.5-4.4,10.5-8.3c4-3.9,15.8-15.4,15.8-15.4l14.7,40.2l8.9-8.6l-3.3-22.6l7.9-7.7c1.5-1.5,1.6-4,0.1-5.5s-4-1.6-5.5-0.1
		l-3.8,3.7l-2.3-15.9c0,0,6.5-6.3,12.2-11.9s8.5-12,6.9-13.5C196.3,109.9,196.1,109.6,196,109.6z"/>
</g>
<g>
	<g>
		<path class="st1" d="M231.5,137.7C210,55.8,159.7-2,119.1,8.6C78.6,19.3,63.2,94.4,84.7,176.3c21.5,81.9,71.9,139.7,112.4,129.1
			C237.7,294.7,253.1,219.6,231.5,137.7z M201.9,298.1c-33.6,8.8-78.2-45.3-99.2-125.1C81.8,93.1,92,21.2,125.6,12.4
			c33.6-8.8,77.9,48.7,98.9,128.6C245.6,220.8,235.5,289.2,201.9,298.1z"/>
		<path class="st1" d="M105.2,102.6C44.5,161.7,19,234,48.2,264c29.2,30,102.2,6.5,162.9-52.6C271.8,152.3,297.3,80,268,50
			C238.8,19.9,165.9,43.5,105.2,102.6z M259.3,49.4c24.3,24.9-0.9,90.3-60,147.9s-126.8,84.1-151,59.2c-24.3-24.9,4-91.8,63.2-149.4
			C170.6,49.5,235.1,24.5,259.3,49.4z"/>
		<path class="st1" d="M176.5,83.4C94.3,62.8,19.4,79.2,9.3,119.9c-10.1,40.7,48.3,90.3,130.5,110.8c82.2,20.5,157.1,4.2,167.2-36.5
			C317.1,153.5,258.7,103.9,176.5,83.4z M302.9,186.5c-8.4,33.7-77.3,46.8-157.4,26.8S7.3,149.7,15.7,115.9
			C24.1,82.2,95.9,71,176,91C256.1,111,311.3,152.7,302.9,186.5z"/>
	</g>
</g>
</svg>
