<svg xmlns="http://www.w3.org/2000/svg" width="117" height="130" viewBox="0 0 117 130">
    <path fill="#000" fill-rule="nonzero" d="M40.274 15.372c-1.57 6.74-8.3 10.934-15.03 9.367-6.732-1.568-10.916-8.303-9.346-15.044 1.57-6.74 8.299-10.934 15.03-9.367 6.731 1.568 10.916 8.303 9.346 15.044zM4.477 84.06A4.455 4.455 0 0 1 .02 79.666 237.57 237.57 0 0 1 0 76.613C.007 60.3 1.696 49.782 4.063 42.735c2.35-7.013 5.532-10.72 8.538-12.502 1.449-.864 2.773-1.21 3.71-1.333a4.292 4.292 0 0 1 1.014-.125h21.524c.27 0 .533.029.79.076.342-.016.692.002 1.044.069.719.128 2.158.62 3.775 1.975 1.625 1.355 3.434 3.52 5.22 6.99 2.298 4.492 4.613 11.18 6.439 21.477 1.92-6.939 3.872-12.234 5.752-16.305 3.393-7.325 6.577-10.758 9.128-12.444a9.522 9.522 0 0 1 1.82-.95l.008-.042s4.095-2.071 12.348-2.071c6.494 0 10.402 1.279 11.779 1.826.88.203 1.941.62 3.045 1.387 1.78 1.222 3.684 3.247 5.63 6.588 3.874 6.698 8.061 18.754 11.35 41.748a3.619 3.619 0 0 1-3.588 4.126 3.623 3.623 0 0 1-3.584-3.108c-2.107-14.816-4.607-24.79-6.976-31.392-1.005-2.815-1.989-5.007-2.894-6.709l9.38 48.214h-12.07v33.118a5.568 5.568 0 0 1-5.572 5.564 5.567 5.567 0 0 1-5.57-5.564V90.23h-1.858v33.118a5.568 5.568 0 0 1-5.57 5.564 5.567 5.567 0 0 1-5.572-5.564V90.23h-12.07l9.308-47.843c-3.361 5.855-7.757 17.228-11.605 38.395a3.588 3.588 0 0 1-.76 1.633 4.45 4.45 0 0 1-3.826 2.17 4.456 4.456 0 0 1-4.442-4.111c-1.406-18.407-4.1-29.26-6.554-35.405v77.237c0 3.8-3.084 6.878-6.888 6.878-3.803 0-6.887-3.079-6.887-6.878V75.423h-2.583v46.883c0 3.8-3.084 6.878-6.888 6.878s-6.888-3.079-6.888-6.878V44.157c-2.103 5.446-4.127 15.372-4.106 32.456 0 .956.006 1.935.02 2.938a4.454 4.454 0 0 1-4.4 4.508h-.057zm92.885-68.685c-1.57 6.74-8.3 10.934-15.03 9.366-6.732-1.567-10.916-8.302-9.346-15.043 1.57-6.74 8.299-10.934 15.03-9.367 6.731 1.568 10.916 8.303 9.346 15.044z"/>
</svg>
