<svg xmlns="http://www.w3.org/2000/svg" width="73" height="74" viewBox="0 0 73 74">
    <path fill="#000" fill-rule="nonzero" d="M72.583 10.589a1.428 1.428 0 0 1-2.02 2.02l-2.3-2.3-9.728 9.728-5.57-5.57 9.728-9.73-2.3-2.3A1.427 1.427 0 0 1 62.41.418l10.172 10.17zM42.858 5.923L67.08 30.139l-1.575 1.574-4.843-4.844L27.48 60.05a4.11 4.11 0 0 1-5.812 0l-8.72-8.719a4.11 4.11 0 0 1 0-5.811l3.552-3.552 4.762 4.762a1.028 1.028 0 0 0 1.453-1.453l-4.762-4.762 4.843-4.844 4.763 4.763a1.027 1.027 0 0 0 1.453-1.453l-4.763-4.763 4.844-4.843 4.762 4.762a1.027 1.027 0 0 0 1.453-1.452l-4.762-4.763 4.843-4.844 4.763 4.763a1.027 1.027 0 0 0 1.452-1.454l-4.761-4.761 9.283-9.284-4.843-4.843 1.574-1.575zm-23.19 53.696l-4.156 2.06-2.095-2.095-2.095-2.096 2.06-4.156 6.286 6.287zM0 74.051l.889-2.988 11.22-11.221 1.05 1.05L0 74.05z"/>
</svg>
