<svg xmlns="http://www.w3.org/2000/svg" width="205" height="152" viewBox="0 0 205 152">
    <path fill="#000" fill-rule="nonzero" d="M87.115 52.542s.414 0 .415.461H76.514c0-.461.416-.461.416-.461 2.607 0 3.735-1.847 3.735-1.847.224-.55.378-1.256.484-2.025.395-.17.787-.333 1.186-.51.164-.073.32-.153.474-.239.1 1.058.274 2.05.57 2.774 0 0 1.128 1.847 3.736 1.847zm1.614-30.596s2.525 10.069-3.978 15.663a5.027 5.027 0 0 0-1.04 1.208 5.615 5.615 0 0 0-4.5-1.282c-6.397-5.608-3.897-15.59-3.897-15.59h.003a.43.43 0 0 1 .431-.429h12.547a.43.43 0 0 1 .43.43h.004zM14.502 48.332c2.352-11.024 11.992-16.798 18.94-13.464 3.829 1.819 6.448 5.176 7.794 9.068-3.98-.889-6.138-2.174-6.583-2.454a1.38 1.38 0 0 1-.077-.05 5.61 5.61 0 0 0-7.77 1.209 5.577 5.577 0 0 0 1.165 7.814c.539.403 4.634 3.264 12.342 4.697.433.081.882.156 1.338.228a72.51 72.51 0 0 0 .246 29.031c.35 1.704.453 3.455.34 5.187h28.04a7.695 7.695 0 0 1 7.578 6.3l8.17 44.526c.764 4.174-2.008 8.175-6.193 8.938-.47.086-.935.127-1.395.127-3.647 0-6.888-2.593-7.567-6.3l-7.014-38.226H28.729v.001a7.667 7.667 0 0 1-4.67-1.583c-4.343-2.096-8.188-6.73-9.557-13.154a100.388 100.388 0 0 1 0-41.895zm39.45-29.018c-1.972 8.472-10.421 13.745-18.87 11.777-8.45-1.967-13.7-10.43-11.727-18.902C25.328 3.717 33.777-1.556 42.226.412c8.45 1.968 13.7 10.43 11.727 18.902zm19.404 30.887l-.06.021c-14.067 4.857-24.643 4.83-31.376 3.788-.468-.073-.92-.15-1.351-.23-7.505-1.395-11.347-4.135-11.763-4.446a4.186 4.186 0 0 1 1.122-7.325 4.221 4.221 0 0 1 3.83.555l.042.032.024.015.07.045.013.008c.745.47 3.303 1.905 7.788 2.797.676.135 1.394.258 2.158.363 7.851 1.063 16.852-.128 26.754-3.541 2.512-.868 5.121-1.898 7.756-3.063a4.115 4.115 0 0 1 2.01-.34 4.26 4.26 0 0 1 2.748 1.308c.319.335.588.725.785 1.167a4.187 4.187 0 0 1-1.197 4.947 4.177 4.177 0 0 1-.942.58c-.156.07-.311.133-.467.202a108.028 108.028 0 0 1-7.944 3.117zM7.002 117.345v34.567H0V54.378h7.002v55.984h51.584v6.983h-3.968v34.567h-7.003v-34.567H7.002zm93.972 34.567h-7.002V83.125h-42.13v-6.983h91.262v6.983h-42.13v68.787zm81.19-47.022a7.77 7.77 0 0 1-1.009.074H146.03l-7.015 38.227c-.679 3.706-3.92 6.3-7.568 6.3-.46 0-.927-.042-1.395-.127-4.185-.765-6.955-4.766-6.19-8.94l8.169-44.525a7.697 7.697 0 0 1 7.577-6.3h5.87c1.758-3.32 7.589-14.966 12.332-31.912.245-.874.497-1.702.755-2.505 11.633-.675 18.301-5.11 18.838-5.482a5.23 5.23 0 0 0 1.334-7.287 5.262 5.262 0 0 0-7.28-1.349c-.243.153-3 1.875-7.938 2.925 1.664-2.762 3.1-4.433 3.814-5.362 4.059-5.272 13.403-4.08 16.273.507 1.724 2.755 3.72 11.11-.537 28.147-1.81 7.24 1.241 17.624 4.43 25.65a7.622 7.622 0 0 1 1.225 2.963c2.275 5.297 4.305 8.996 4.305 8.996h-10.864zm15.583 5.472V54.378h7.002v97.534h-7.002v-34.567h-40.613v34.567h-7.003v-34.567h-3.968v-6.983h51.584zm-69.927-57.82s.415 0 .415.461H117.22c0-.461.414-.461.414-.461 2.607 0 3.736-1.847 3.736-1.847.532-1.303.68-3.465.686-5.336.361.367.783.687 1.261.944l.1.05c.051 1.603.228 3.266.667 4.342 0 0 1.128 1.847 3.736 1.847zm-7.823-14.934c-6.502-5.593-3.977-15.662-3.977-15.662h.003a.43.43 0 0 1 .43-.43H129a.43.43 0 0 1 .431.43h.004s2.22 8.853-2.865 14.568a5.25 5.25 0 0 0-5.348 2.628 5.008 5.008 0 0 0-1.225-1.534zm68.078-16.557c-2.601 8.301-11.42 12.927-19.7 10.333-8.278-2.594-12.88-11.426-10.28-19.727 2.602-8.3 11.422-12.927 19.7-10.333 8.279 2.594 12.881 11.426 10.28 19.727zm-62.265 16.8c.64 0 1.253.153 1.822.46 9.738 5.222 19.147 7.873 27.964 7.882 2.634 0 4.964-.241 7-.6 5.547-.98 8.837-2.864 9.605-3.347a3.89 3.89 0 0 1 2.21-.697 3.86 3.86 0 0 1 3.172 1.658 3.837 3.837 0 0 1-.978 5.343c-.288.201-6.508 4.437-17.568 5.205-1.099.076-2.245.12-3.44.12h-.042c-10.089 0-20.711-2.962-31.574-8.802-.21-.112-.4-.243-.58-.386a3.84 3.84 0 0 1-.985-4.817 3.837 3.837 0 0 1 2.705-1.95c.225-.041.455-.07.69-.07z"/>
</svg>
