<svg xmlns="http://www.w3.org/2000/svg" width="90" height="75" viewBox="0 0 90 75">
    <path fill="#000" fill-rule="nonzero" d="M54.375 52.5c5.171 0 9.375-4.207 9.375-9.375V9.375C63.75 4.207 59.546 0 54.375 0h-45C4.204 0 0 4.207 0 9.375v33.75C0 48.293 4.204 52.5 9.375 52.5H15v9.375a1.878 1.878 0 0 0 1.875 1.875c.398 0 .795-.128 1.125-.375L32.501 52.5h21.874zm26.25-41.25h-11.25c-1.035 0-1.875.84-1.875 1.875v30c0 7.237-5.888 13.125-13.125 13.125H34.376a1.87 1.87 0 0 0-1.125.375l-3.108 2.332a1.876 1.876 0 0 0 .034 3.023 9.295 9.295 0 0 0 5.448 1.77h21.874L72 74.625a1.87 1.87 0 0 0 1.965.176A1.878 1.878 0 0 0 75 73.125V63.75h5.625c5.171 0 9.375-4.207 9.375-9.375v-33.75c0-5.168-4.204-9.375-9.375-9.375z"/>
</svg>
