<svg xmlns="http://www.w3.org/2000/svg" width="164" height="102" viewBox="0 0 164 102">
    <g fill="none" fill-rule="evenodd">
        <path fill="#000" fill-rule="nonzero" d="M161.95 13.115c.108-1.526-1.45-1.387-1.773-2.481-.35-1.659-1.066-2.95-1.418-4.607-.88.055-1.097-.557-1.77-.71-.582 1.136-1.187.906-2.482.71-.537 1.115-1.057 2.25-1.418 3.543.822.997-.457 2.039.354 3.19-.833.415-.615 1.464-1.061 2.126-.27.399-1.134.372-1.417.71-.462.553.368 1.587-.709 1.417-.706-.59-.45.033-1.418 0-1.785 1.403-5.198 1.183-7.443 2.127-.908.863-1.302 2.243-2.127 3.189.319 2.918-.632 4.566-2.834 4.961-1.807-.612-3.602-.08-4.96.71-.036 1.099 1.114 1.01.709 2.48-1.108 1.492-2.75 2.45-4.252 3.544-.509.14-.598.427-1.064 0-.516 1.729-2.27 2.217-3.898 2.835-.725-.575-2.323-.276-2.834-1.062.77-.765 1.367-1.702 1.416-3.19.518-.306 1.124-.53 1.064-1.417.207-1.271-.412-1.714-.71-2.48-.622-.56-.736-1.629-1.772-1.773-1.317-.017-.864 1.735-2.127 1.773-.443-1.101.46-1.287.71-1.773.337-.66.494-1.001.708-1.772.395-1.694-1.104-1.495-.709-3.189-1.87-.028-3.632-2.026-5.67-.709.498.093.403.778.709 1.062-1.361.307-.856.827-.71 2.127-1.112.173-.935-1.222-1.77-.355-.717.47-1.07 2.37-.356 3.19-1.685 1.185-.257 4.513.356 5.67-.348 1.898-.208 4.282-2.129 4.605-.845-.926-1.735-1.807-2.125-3.189-.172-4.187.117-7.915 1.416-10.63-1.33-.7-1.197 1.815-1.77.709.434-1.457 1.368-2.411 2.125-3.543 1.135 1.092 1.25-.834 2.483-.711 2.179.29 3.496-.283 4.96-.71.256-2.146-3.055-.723-2.835-2.834-1.05.249-1.542 1.056-3.189.711-.85.328-.938 1.423-2.481 1.062-1.04-.026-1.317-.81-1.771-1.418-.88-.46-1.72.79-1.773 0 .512-.55.745-1.38 1.062-2.127-1.83-.294-1.69 1.382-2.834 1.772-1.882.362-2.448 2.04-4.606 2.127.112-.478.505-.676.355-1.416-1.624.03-2.148 1.158-3.898 1.062 1.157-1.206 2.168-2.555 3.543-3.545 1.211-.56 2.676-.866 3.544-1.771-1.147.324-2.19-.354-2.482-.354-.287 0-.506.405-.709.354-.408-.103-.68-.733-1.063-.709-.5.033-.663.988-1.417.709-1.457-.787-2.865-1.624-4.607-2.127-1.146 1.104-2.166.103-3.897 0-.103-1.078.055-2.418-1.064-2.482-.962-.251.255 1.672-.709 1.417-12.594.026-25.477-1.204-36.145-2.48-5.476-.653-10.641-1.436-14.884-2.482-1.552-.38-3.05-.527-4.253-1.418-.35 1.088-.945-.406-1.418-.354-2.118.116-4.664-.812-7.086-1.416C19.077 1.137 16.619.444 14.174 0c-.718 1.062.156 2.529-.355 3.189-1.918-.562-3.45-1.51-5.316-2.125-1.01 2.57.453 6.848-.709 8.503.53.06 1.307-.126 1.417.354-.822-.11-1.361.057-1.773.356.422 1.958-1.129 1.941-.709 3.898-1.14 1.222-1.836 2.889-2.125 4.962-.82.715-1.894 1.178-2.127 2.481.43 4.561-1.182 7.084-2.477 9.923.064.799.59 1.046.709 1.773.27 1.645-.554 3.218-.709 4.605.358.707.885 1.242 1.416 1.772-.678.04.419 1.188 0 2.128 1.361-.179.236 2.128 1.418 2.127-.524.065-.325.854-.354 1.416 1.22 1.542.902 1.715.709 3.9 1.137 2.506 2.508 4.548 1.772 8.032 2.29.31 3.665 1.438 4.606 3.071h1.418c.282 1.634 2.084 2.384 2.084 4.488v2.482c3.268.075 4.981.828 7.817.709.89.624.438.585.897 1.418 3.903 1.885 7.531 4.138 11.08 6.378 3.414.365 6.422 1.187 9.97 1.416-.052-.879.206-1.47.732-1.771 1.622.384 3.481.546 5.329.71 1.155 3.332 5.38 3.601 4.965 8.504 1.718 1.235 3.285 2.625 5.319 3.543.683-.97 1.222-2.084 2.128-2.832 1.206-.616 2.079.27 3.9 0 1.03 2.04 2.95 3.192 3.189 6.025.472.354 1.07.583 1.418 1.061-.436 1.616 1.243 1.121 1.416 2.127-.782 1.32 1.281 2.366 1.064 4.253 1.142.274 2.093.74 2.833 1.418 1.803-.337 2.98 1.28 3.9.709.23-1.294-.24-2.039-.71-2.632.96-1.144-.523-2.065-.353-3.699h1.062c-.175-1.633 1.872-1.754 2.127-3.391.453.02.49.53 1.062.431 1.078-.625-.967-1.06 0-1.382 1.456.886 1.418-.617 3.189-.335.877-1.013 1.614-2.156 2.127-3.533 1.9 1.158 2.472-.716 3.898-1.057 1.346.542 2.653 1.129 4.607 1.065.748-.315 1.049-1.078 2.127-1.062.544 1.737 4.88 3.199 6.025 1.063.351.81 2.901 1.64 3.189.355-.8-.38-1.559-.804-2.127-1.416.444-.147.723-.458.71-1.064-.825-.647-2.524.35-3.19-1.062.617.028 1.103-.08 1.418-.356-.046.637.353.83 1.062.71 1.537-.604 1.975-1.163 3.898-.71.604-.222.583-1.068 1.063-1.416.456.607.732 1.393 1.773 1.416.737-.443 1.493-.867 2.125-1.416.734 1.156 3.04.74 4.607 1.062.856.442.812 1.788 2.127 1.772.962-.693 1.613-1.694 2.834-2.127 2.412.542 3.217 2.689 5.316 3.545.937 1.07.228 3.79 1.771 4.252-.718.997-.635 1.456-.354 2.835.377.686 1.633.495 2.127 1.062.103 1.196 1.331 1.266 1.063 2.836.67.392 1.673.45 2.48.709-.037 1.338.695 1.905 1.773 2.125.67.08.782-.398 1.416-.354.606-1.521 1.207-3.044 1.064-5.316-2.284-5.747-5.632-10.433-8.15-15.946 1.17-.531-.737-.866-.355-1.773.728-.709 1.312-1.313.709-2.481.987-.665 1.315-1.994 1.772-3.19.505.087.597.584 1.062.71.68-1.329 1.872-2.144 2.835-3.19-.134-1.669.85-2.221 1.418-3.188.478-.111.676-.505 1.416-.355-.038-1.692 1.452-1.857 1.77-3.189 1.14.31.736-.92 1.419-1.061.809.1 1.331-.087 1.418-.711-1.364-.556-.702-.257-.355-1.395-.037-.672-1.168-1.046-1.061-1.046h2.834c-.008-1.633.611-1.062.355-2.146-1.608-.664-.482 1.396-1.771 1.053.02-.452.452-.496.354-1.067-1.197-.566-1.513 1.503-2.127.353.327-.619 1.11-.784 2.127-.712.743-1.284.351-1.683.355-3.71-1.735.198-1.824-.305-2.835-1.94h.71c-.226-1.633-1.567-1.572-.71-3.023-1.602-.29-.71-2.988-1.772-3.816.705-.004.45-.925 1.418-.667-1.025 1.287 1.199 2.346 0 3.918.725.336 1.686.45 1.772 1.43 1.127-.305 1.345.313 1.771.713.68-.856.224-2.846.355-4.25-.958-.342-1.71-.886-1.771-2.124.823.238.947 1.177 1.77 1.418.38-.801.804-1.347 1.419-1.915.096-1.988.07-4.752-.711-4.752h2.127c.521-1.634 2.629-1.126 2.834-2.691-1.72-.521-2.881 1.243-3.897.25 1.95-.884 3.602-2.12 6.024-2.534.06-.53-.125-1.335.355-1.442.742.204 1.011.864 2.127.694-.256-1.085.611-1.05.355-2.134-.683-.853-1.896-1.18-2.482-2.13.322-1.684.836-3.212.74-5.318 1.554.374.876-1.199 2.51-1.063v-2.126c1.633.365.679-.552 1.388-1.063.853-.145.756.647 1.758.354.103-1.43 1.54-1.52 1.763-2.834-.054-.657-1.208-.217-1.425-.709z"/>
        <text fill="#FFF" font-family="IdealSans-Bold, Ideal Sans" font-size="18" font-weight="bold" letter-spacing=".964">
            <tspan x="69.812" y="36">2.2 </tspan> <tspan x="51.176" y="56">million</tspan>
        </text>
    </g>
</svg>
