<svg xmlns="http://www.w3.org/2000/svg" width="195" height="131" viewBox="0 0 195 131">
    <g fill="none" fill-rule="evenodd">
        <path stroke="#000" stroke-width=".5" d="M144.918 80.866a4.354 4.354 0 0 1-4.595-4.1 180.293 180.293 0 0 1-.323-10.45c.008-12.36 1.506-20.546 3.738-26.207 2.205-5.64 5.356-8.822 8.278-10.277 1.82-.92 3.42-1.143 4.407-1.163.085-.005.17-.013.256-.013h20.993c.093 0 .184.008.275.014.988.022 2.58.247 4.386 1.162 1.93.966 4.018 2.71 5.803 5.43 3.572 5.478 6.193 14.59 6.214 31.055 0 3.194-.103 6.667-.322 10.449a4.355 4.355 0 0 1-4.593 4.102c-2.397-.142-4.227-2.206-4.087-4.612.21-3.628.307-6.931.307-9.94.006-10.914-1.283-17.906-2.815-22.167a23.838 23.838 0 0 0-.968-2.312v81.798c0 3.725-3.009 6.744-6.719 6.744-3.71 0-6.718-3.019-6.718-6.744V74.393h-2.519v49.242c0 3.725-3.009 6.744-6.72 6.744-3.709 0-6.718-3.019-6.718-6.744v-81.82c-1.884 3.873-3.802 11.294-3.782 24.5-.001 3.007.096 6.313.307 9.94.14 2.406-1.688 4.47-4.085 4.611zm22.258-55.32c-6.752 0-12.227-5.494-12.227-12.273C154.95 6.495 160.424 1 167.176 1c6.753 0 12.227 5.495 12.227 12.273 0 6.779-5.474 12.274-12.227 12.274z"/>
        <path fill="#000" fill-rule="nonzero" d="M74.918 80.866a4.354 4.354 0 0 1-4.595-4.1A180.293 180.293 0 0 1 70 66.316c.008-12.36 1.506-20.546 3.738-26.207 2.205-5.64 5.356-8.822 8.278-10.277 1.82-.92 3.42-1.143 4.407-1.163.085-.005.17-.013.256-.013h20.993c.093 0 .184.008.275.014.988.022 2.58.247 4.386 1.162 1.93.966 4.018 2.71 5.803 5.43 3.572 5.478 6.193 14.59 6.214 31.055 0 3.194-.103 6.667-.322 10.449a4.355 4.355 0 0 1-4.593 4.102c-2.397-.142-4.227-2.206-4.087-4.612.21-3.628.307-6.931.307-9.94.006-10.914-1.283-17.906-2.815-22.167a23.838 23.838 0 0 0-.968-2.312v81.798c0 3.725-3.009 6.744-6.719 6.744-3.71 0-6.718-3.019-6.718-6.744V74.393h-2.519v49.242c0 3.725-3.009 6.744-6.72 6.744-3.709 0-6.718-3.019-6.718-6.744v-81.82c-1.884 3.873-3.802 11.294-3.782 24.5-.001 3.007.096 6.313.307 9.94.14 2.406-1.688 4.47-4.085 4.611zm22.258-55.32c-6.752 0-12.227-5.494-12.227-12.273C84.95 6.495 90.424 1 97.176 1c6.753 0 12.227 5.495 12.227 12.273 0 6.779-5.474 12.274-12.227 12.274zM4.918 80.866a4.354 4.354 0 0 1-4.595-4.1A180.293 180.293 0 0 1 0 66.316c.008-12.36 1.506-20.546 3.738-26.207 2.205-5.64 5.356-8.822 8.278-10.277 1.82-.92 3.42-1.143 4.407-1.163.085-.005.17-.013.256-.013h20.993c.093 0 .184.008.275.014.988.022 2.58.247 4.386 1.162 1.93.966 4.018 2.71 5.803 5.43 3.572 5.478 6.193 14.59 6.214 31.055 0 3.194-.103 6.667-.322 10.449a4.355 4.355 0 0 1-4.593 4.102c-2.397-.142-4.227-2.206-4.087-4.612.21-3.628.307-6.931.307-9.94.006-10.914-1.283-17.906-2.815-22.167a23.838 23.838 0 0 0-.968-2.312v81.798c0 3.725-3.009 6.744-6.719 6.744-3.71 0-6.718-3.019-6.718-6.744V74.393h-2.519v49.242c0 3.725-3.009 6.744-6.72 6.744-3.709 0-6.718-3.019-6.718-6.744v-81.82c-1.884 3.873-3.802 11.294-3.782 24.5-.001 3.007.096 6.313.307 9.94.14 2.406-1.688 4.47-4.085 4.611zm22.258-55.32c-6.752 0-12.227-5.494-12.227-12.273C14.95 6.495 20.424 1 27.176 1c6.753 0 12.227 5.495 12.227 12.273 0 6.779-5.474 12.274-12.227 12.274z"/>
        <text fill="#FFF" font-family="IdealSans-Bold, Ideal Sans" font-size="36" font-weight="bold" letter-spacing=".964" transform="translate(-53 1)">
            <tspan x="71.43" y="60.415">?</tspan>
        </text>
        <text fill="#FFF" font-family="IdealSans-Bold, Ideal Sans" font-size="36" font-weight="bold" letter-spacing=".964" transform="translate(-53 1)">
            <tspan x="141.43" y="60.415">?</tspan>
        </text>
    </g>
</svg>
