<?xml version="1.0" encoding="utf-8"?>
<!-- Generator: Adobe Illustrator 21.1.0, SVG Export Plug-In . SVG Version: 6.00 Build 0)  -->
<svg version="1.1" id="Layer_1" xmlns="http://www.w3.org/2000/svg" xmlns:xlink="http://www.w3.org/1999/xlink" x="0px" y="0px"
	 viewBox="0 0 32 32" style="enable-background:new 0 0 32 32;" xml:space="preserve">
<style type="text/css">
	.st0{fill:#47A0BE;}
</style>
<title>key</title>
<rect y="0" class="st0" width="32" height="32"/>
<path d="M18.8,8.5c-2.6,0-4.7,2.1-4.7,4.7c0,0.3,0,0.6,0.1,0.9l-5.7,5.7v2.8c0,0.5,0.4,0.9,0.9,0.9h0.9v-0.9h1.9v-1.9h1.9v-1.9H16
	l1.2-1.2c0.5,0.2,1,0.3,1.6,0.3c2.6,0,4.7-2.1,4.7-4.7S21.4,8.5,18.8,8.5z M20.2,13.2c-0.8,0-1.4-0.6-1.4-1.4s0.6-1.4,1.4-1.4
	s1.4,0.6,1.4,1.4C21.6,12.6,21,13.2,20.2,13.2z"/>
</svg>
