<svg width="50" height="50" viewBox="0 0 50 50" xmlns="http://www.w3.org/2000/svg"><title>8DB331B7-C962-489A-B5B5-D00EF2AE1BFA</title><g transform="translate(0 1)" fill="none" fill-rule="evenodd"><ellipse stroke="#000" cx="25.032" cy="24.137" rx="24.217" ry="24.137"/><path d="M35.377 33.523h-4.423v-7.095c0-1.783-.644-3.001-2.24-3.001-1.223 0-1.95.817-2.272 1.606-.109.297-.15.686-.15 1.086v7.404h-4.419c.053-12.023 0-13.27 0-13.27h4.42v1.928h-.028c.579-.91 1.628-2.236 4.017-2.236 2.916 0 5.095 1.903 5.095 5.974v7.604zm-20.388 0v-13.27h4.435v13.27H14.99zm2.22-15.076h-.025c-1.496 0-2.449-1.017-2.449-2.287 0-1.303.994-2.292 2.502-2.292 1.516 0 2.457.99 2.473 2.292.012 1.27-.957 2.287-2.502 2.287z" fill="#000"/></g></svg>