<?xml version="1.0" encoding="utf-8"?>
<!-- Generator: Adobe Illustrator 21.1.0, SVG Export Plug-In . SVG Version: 6.00 Build 0)  -->
<svg version="1.1" id="Layer_1" xmlns="http://www.w3.org/2000/svg" xmlns:xlink="http://www.w3.org/1999/xlink" x="0px" y="0px"
	 viewBox="0 0 32 32" style="enable-background:new 0 0 32 32;" xml:space="preserve">
<style type="text/css">
	.st0{fill:#47A0BE;}
</style>
<title>lock</title>
<rect y="0" class="st0" width="32" height="32"/>
<path d="M23.4,13.4h-0.4V8.2c0-2.9-2.3-5.2-5.2-5.2h-3.5c-2.9,0-5.2,2.3-5.2,5.2v5.2H8.6c-0.7,0-1.3,0.6-1.3,1.3v13
	c0,0.7,0.6,1.3,1.3,1.3h14.7c0.7,0,1.3-0.6,1.3-1.3v-13C24.7,14,24.1,13.4,23.4,13.4z M12.5,8.2c0-1,0.8-1.7,1.7-1.7h3.5
	c1,0,1.7,0.8,1.7,1.7v5.2h-6.9V8.2z"/>
</svg>
