<?xml version="1.0" encoding="utf-8"?>
<!-- Generator: Adobe Illustrator 21.0.0, SVG Export Plug-In . SVG Version: 6.00 Build 0)  -->
<svg version="1.1" id="Layer_1" xmlns="http://www.w3.org/2000/svg" xmlns:xlink="http://www.w3.org/1999/xlink" x="0px" y="0px"
	 viewBox="0 0 436 121" style="enable-background:new 0 0 436 121;" xml:space="preserve">
<style type="text/css">
	.st0{fill:#646569;}
	.st1{fill:#C6093B;}
</style>
<g>
	<g>
		<path class="st1" d="M90.9,2c0-0.2-0.1-0.3-0.3-0.3l0,0l0,0l0,0l0,0c-73.8,7-83.2,57.9-59.1,74.2c-4.2,18.4-0.3,18-0.3,18
			C32,88.4,33,83,34.4,77.6c9.4-35.8,32.7-67.1,56.2-75.2l0,0C90.8,2.3,90.9,2.2,90.9,2z"/>
		<path class="st1" d="M87,13.6c0-0.1-0.1-0.3-0.3-0.3c-0.1,0-0.3,0.1-0.3,0.2c-6.1,12-7.9,29.1-12.5,42.2
			c-5.3,15-14.8,25.1-29.4,24.1v36.5c0,0-39-17.7-39-46V17.1l31.9-2.9l0,0c0.2,0,0.3-0.1,0.3-0.3c0-0.2-0.1-0.3-0.3-0.3l0,0H2v56.7
			c0,31.9,42.5,49.6,42.5,49.6s42.6-18,42.6-49.6L87,13.6L87,13.6z"/>
	</g>
</g>
</svg>
