<svg id="Layer_1" data-name="Layer 1" xmlns="http://www.w3.org/2000/svg" viewBox="0 0 328 328"><defs><style>.cls-1{fill:none;stroke:#fff;stroke-miterlimit:10;stroke-width:12px;}.cls-2{fill:#fff;}</style></defs><title>Logo</title><circle class="cls-1" cx="164" cy="164" r="158"/><path class="cls-2" d="M359.4,363A90.95,90.95,0,1,1,211.93,256.54a94.75,94.75,0,1,0,154.52,109.1C363,363.24,360.2,361.89,359.4,363Z" transform="translate(-147.52 -130.98)"/><path class="cls-2" d="M426.27,246.3c-2.13-1.08-7.91,3.81-11.89,11.65l-8.48,16.67-17.34,2.78,2.65-5.2a4.28,4.28,0,1,0-7.63-3.88l-5.48,10.76-24.71,4-6.13,12.06L394,297.45,383,319a106.21,106.21,0,0,0-5.31,13.66l-20.91,4.75-3.24,6.7,21.14,1.24.46.57-1.43,3.41-2.3,5.21.36-.6-.27.65,2.86-4.93,1.92-3.17.73,0,13.45,16.36,3.5-6.56-8.47-19.69a106.21,106.21,0,0,0,7.91-12.34l11-21.58,29.42,36.41L440,327.09l-11.35-22.31L434.09,294a4.28,4.28,0,1,0-7.63-3.88l-2.65,5.2-8-15.66L424.33,263c4-7.83,4.54-15.39,2.41-16.47Z" transform="translate(-147.52 -130.98)"/><path class="cls-2" d="M332.88,314.76q.16-2.22.17-4.48c0-.47,0-.94,0-1.4,0-.06,0-.12,0-.18s0-.05,0-.08q0-1.32-.13-2.62c0-.08,0-.16,0-.25s0-.22,0-.33a59.6,59.6,0,0,0-1.73-10.27l.05.23c-.08-.29-.16-.57-.24-.86l.17.59q-.58-2.21-1.32-4.35l.32,1v.09q-.51-1.52-1.11-3c0-.09,0-.17-.06-.26l-.3-.74c0,.11.06.21.08.32q-.7-1.69-1.52-3.34l-.09-.28-.43-1c.45.91.91,1.87,1.32,2.75l-.33-.77q-.82-1.79-1.75-3.52l-.16-.3c-1.15-2-1.87-3.2-2.56-4.26l-.31-.48-.24-.35q-.52-.76-1.06-1.5c-.52-.7-1.12-1.47-1.92-2.48l0,0-.67-.84,0,0,.67.86,0,0v.19q-.61-.73-1.26-1.43a5.29,5.29,0,0,0-.28-.49l1.07,1.27-.47-.61,0-.06-.56-.67.6.66-.09-.11-1-1.18.12.14.1.15-.47-.51-.2-.26,0-.05-.7-.74L315,267.46q-1.12-1.1-2.3-2.13l-.81-.7h0l1.08.94-.05,0c-.36-.32-.71-.63-1.08-.94h0a60.07,60.07,0,0,0-6.34-4.68l.07,0-.11-.06a44.43,44.43,0,0,1,6.57,5.43l.83.74,1.68,1.89,2.44,2.29-.72-1.17.88.81.52.51a4.48,4.48,0,0,1,.22.41l-.06-.07.08.1a3.42,3.42,0,0,1,.27.83c-1.21-1.32-2.49-2.57-3.82-3.78l.38.46q1.81,1.67,3.47,3.48A2.44,2.44,0,0,1,318,273l0,.07c.14.24.28.48.41.72,0-.07.07-.13.1-.2l1.08,1.38,1,.92.49,1,.62.95.46.52.4.77.07-.33V278l-1-1.64-.55-.48-.63-.71-1.66-1.57-.16-.21a2.49,2.49,0,0,0,.08-1q1.78,2,3.37,4.16l0,.07.61,1.2.95,1.93-.05.13.42.91,0,.75.73.61.77,1,1.47,3.14a7.59,7.59,0,0,1-.78.89l1.06,2.93.4,1.26-.26.26a62.52,62.52,0,0,0-7-13.08c.08.25.17.49.25.74a62.77,62.77,0,0,1,6.53,12.51,14.4,14.4,0,0,1-5.26,2.55c-.08-.24-.16-.48-.24-.72q-.14.84-.33,1.66l.41-.11a69.1,69.1,0,0,1,3,19.6,57.33,57.33,0,0,1-10,1.72c.06-2.59,0-5.16-.17-7.72l-.59.71c.13,2.34.17,4.7.11,7.06-2.58.23-5.39.36-8.4.4l-1.17.78c3.45,0,6.64-.15,9.54-.41a83.33,83.33,0,0,1-1,10.13A75.93,75.93,0,0,1,311,337l-2.26.17.07-1.15-.73-.76-.65-.86-1.62-.42H304l-1.35-.75-.88-1.32-1-.73-1.08-.69-.49-.66q.18-1,.35-2.06.61-3.84,1-7.71l-.87.43q-.36,3.64-.94,7.26-.1.62-.2,1.24l-1-.6-2.25.63-1.63-.68h-1.86l-.91-1-1.25-.34-2.39.22-.05-1.2-1.83.67-2.85.28-.25.21.09-.57c0-.25.08-.51.12-.76l-1,.14c0,.17-.05.35-.08.52q-.14.89-.29,1.76l-.59.75-1.43.43-1.29-.87-1.48-.52-1.32.27-1.44-.09-1.39-.69-.88-1.06c-.64,0-1.28-.05-1.92-.09l.13.1,1,.9,2,1.49,1.15.88,1.12-.51,1.39-.74,1.45.83.15,1.46.48,1.4v1.42l-.72,1.29-.77.84c-4.56-.57-9.07-1.28-13.46-2.1.35-2.49.73-5.08,1.15-7.76l-.9-.12c-.41,2.67-.79,5.25-1.13,7.72-5.34-1-10.5-2.2-15.34-3.5.24-2.84.6-5.8,1.07-8.86l-.78-.38c-.48,3.12-.84,6.13-1.08,9-4.8-1.31-9.27-2.75-13.27-4.25a84,84,0,0,1,1-9.78c.21-1.29.45-2.58.71-3.86l-.59-.59c-.29,1.39-.56,2.79-.78,4.19a82.31,82.31,0,0,0-1,9.79,77.25,77.25,0,0,1-10.29-4.73,65.37,65.37,0,0,1,.82-9.86,70.31,70.31,0,0,1,2.32-9.88c.74.42,1.53.84,2.35,1.26q-.28-.56-.53-1.13c-.55-.29-1.08-.57-1.59-.86.18-.57.38-1.13.58-1.69-.1-.27-.18-.54-.27-.82-.27.74-.53,1.49-.77,2.24a24.86,24.86,0,0,1-6.4-5,5.81,5.81,0,0,1-1.72-4.31,56.5,56.5,0,0,1,9.64-16.77,4.05,4.05,0,0,0,.5,2.32c.12-.27.24-.55.37-.82a3.88,3.88,0,0,1-.39-2.07,58.12,58.12,0,0,1,5.15-5.31l.47-.57a58.26,58.26,0,0,0-5.59,5.68,3.53,3.53,0,0,1,.54-1.31l-.5.59a3.54,3.54,0,0,0-.52,1.29,56.31,56.31,0,0,0-9.64,16.74c0-.09.05-.18.07-.27l-.27.77c0,.07,0,.14-.05.21-.15.43-.28.86-.42,1.3l.12-.43,0,.08-.15.53q-.26.81-.49,1.63l-.09.35q-.12.41-.22.83-.5,1.95-.87,3.95c.42-1.87.95-4,1.48-6,.2-.67.42-1.33.64-2a5.83,5.83,0,0,0,1.73,4.32,24.93,24.93,0,0,0,6.42,5,69.35,69.35,0,0,0-2.33,9.88,64.74,64.74,0,0,0-.82,9.86,24.91,24.91,0,0,1-6.42-5,6.91,6.91,0,0,1-1.69-3.24q0,.41,0,.81a7,7,0,0,0,1.67,3.17,24.88,24.88,0,0,0,6.4,5,54.76,54.76,0,0,0,3,17.82A21.94,21.94,0,0,1,219,334.5a7.9,7.9,0,0,1-1-1.51l.28.67a7.85,7.85,0,0,0,1,1.49,21.76,21.76,0,0,0,5.61,4.35,45.06,45.06,0,0,0,8.38,14.26,19.1,19.1,0,0,1-3.54-2.55l.58.61a19.33,19.33,0,0,0,3.38,2.41,40.3,40.3,0,0,0,7.67,6.59l.68.42a39.46,39.46,0,0,1-8-6.84,50.44,50.44,0,0,0,6.71,3.08,25.82,25.82,0,0,0,9.76,8l-.57-.23,1.26.52c1.41.53,3,1,4.66,1.49a9.16,9.16,0,0,0,1.35.54l.24.06a8.44,8.44,0,0,1-1.31-.53c1.7.46,3.53.88,5.41,1.23a1.09,1.09,0,0,0,.5.37l.18,0a1,1,0,0,1-.37-.35c1.89.35,3.84.65,5.81.87a2.05,2.05,0,0,1-.81.16l.25,0a2.36,2.36,0,0,0,.89-.15l1.8.17c1.08.09,2.11.16,3.1.19l-.07.06-.1,0h.63l1.2,0h0l.79,0h0l1.33,0,.26,0,1.06-.07h0c-.73,0-1.49.07-2.3.07h0l1.18-.14-.07-.09.08-.14,1.48-.24,1-.35.09-.17.41-.24.69,0,.9-.1.8-.42,1.29-.22,1.15-.12.9-.24.78-.36.16-.3.13-.52h1l.87,0,1.16-.39,1.13-.51.5-.27.58,0a29.76,29.76,0,0,1-12,4.58l.18,0,.26,0a30.5,30.5,0,0,0,12-4.57,37.43,37.43,0,0,0,6.51-1.12,43.74,43.74,0,0,1-8.53,3.63l.82-.25a44.28,44.28,0,0,0,8-3.46,14.9,14.9,0,0,0,2.38-.92l.69-.38a14.93,14.93,0,0,1-2.51,1,47.28,47.28,0,0,0,13-11.11A14.42,14.42,0,0,0,318,349.9c-.32.37-.65.74-1,1.1-.63.67-1.28,1.36-1.9,2l.22-.21.19-.18-.15.15q1.37-1.36,2.65-2.81l-.42.45c.19-.22.39-.42.58-.64l.08-.08.54-.63-.16.16a54.24,54.24,0,0,0,9-15.26l0,.45.88-1.47.27-.39q.3-.76.59-1.52c-.05.12-.1.24-.16.36l.25-.71h0c.07-.13.12-.27.18-.4.58-1.64,1.1-3.32,1.54-5l.07-.29,0-.1c.44-1.77.81-3.56,1.09-5.39C332.6,317.3,332.77,315.86,332.88,314.76Zm-23.43-52.07.19.15.06,0Zm4.64,4c-.89-.79-2.06-1.88-3-2.64l-.2-.16,1.37,1.13.83.71c.55.49,1.06,1,1.55,1.45Zm4.54,5.51a3.21,3.21,0,0,0-.17-.6q1.06,1.17,2.05,2.4l.41.77.6.92Q320.15,273.87,318.63,272.18Zm-55.44,62.24c4.05.76,8.21,1.42,12.4,2l-.17.08-.59.69-1.23.75-1.21,1.23-.41,1.49.78,1-1.78,1.2.31,1.54,1.22,1.26.51,1.13.76,1.05.45,1.09.69,1,.71,1,.32,1,.07.3-.18.61c-4.91-.55-9.78-1.29-14.5-2.17C261.73,346,262.35,340.51,263.19,334.42Zm12.49,18.94a71.82,71.82,0,0,1-4,10.89c-3.68-.41-7.35-1-10.89-1.63-.06-2.93.11-6.78.49-11.41C266,352.08,270.81,352.81,275.68,353.35ZM247,330.76c4.83,1.3,10,2.48,15.3,3.49-.82,6.1-1.4,11.57-1.76,16.27-4.7-.9-9.25-1.94-13.51-3.08A92.94,92.94,0,0,1,247,330.76Zm13.2,31.74c-3.53-.67-6.95-1.45-10.15-2.32a42.32,42.32,0,0,1-3-12.19c4.23,1.14,8.74,2.17,13.41,3.06A102.86,102.86,0,0,0,260.21,362.5ZM233,326.3c4,1.5,8.45,2.93,13.24,4.24a90.13,90.13,0,0,0,.13,16.7c-4.23-1.16-8.16-2.42-11.69-3.75A63.29,63.29,0,0,1,233,326.3Zm-10.92-5a77.09,77.09,0,0,0,10.27,4.72,62.55,62.55,0,0,0,1.76,17.23,68,68,0,0,1-9.06-4.17A55,55,0,0,1,222.07,321.33Zm11.46,32.6a44.73,44.73,0,0,1-8.28-14.2,67.45,67.45,0,0,0,9,4.14,39.68,39.68,0,0,0,6.09,13.19A51,51,0,0,1,233.53,353.94Zm1.29-9.85c3.5,1.32,7.41,2.57,11.6,3.72A41.82,41.82,0,0,0,249.54,360c-3.17-.87-6.13-1.82-8.78-2.81A39.56,39.56,0,0,1,234.81,344.09Zm15.83,21.53a25.15,25.15,0,0,1-9.58-8c2.61,1,5.52,1.92,8.65,2.77a14.48,14.48,0,0,0,5.77,6.76C253.73,366.69,252.11,366.17,250.65,365.62Zm5.13,1.63c-2.23-1.24-4.09-3.53-5.54-6.69,3.15.85,6.52,1.62,10,2.28.15,2.87.53,4.82,1.14,5.69C259.42,368.16,257.54,367.73,255.78,367.25Zm11.92,2.23c-2-.23-4.05-.53-6-.9-.52-.86-.81-2.78-.89-5.64,3.49.65,7.1,1.2,10.73,1.6C270.21,367.2,268.91,368.89,267.7,369.49Zm10.4-4.2-.31.48-.62.55-.69.5-.54.48,0,.32-.22.34-.68.45.56.2-.32.32-.38.27-.51.24-.86.09.12.15-.57.14-.18.07q-1.45-.06-3-.19l-1.87-.18c1.31-.58,2.7-2.27,4.1-4.91q1.67.18,3.33.32l2.66.2Zm3.37-6.6-.55.93-.19.87-.39.83-.52.79-.33.77-.65.71-.42.69-.22.52v0l-2.5-.19q-1.69-.14-3.38-.33a67,67,0,0,0,4.19-10.86l.29,0,1.08.63,1.14.61,1.06.64,1.07.59.57.77.21,1Zm47.68-64.43.6.89,0-.83.16-.73-.63-2.77-.23-.72a3.34,3.34,0,0,0,0-1q.61,1.53,1.14,3.09l.08,1.09.28,2.31-.32.49-.31-.33.32,2.07-.06,1.5.21,2.53a60.51,60.51,0,0,0-2.7-9.51l.22-.22.15.51.88,1.91Zm-1.76-8.64-.1-.47q.79,1.6,1.47,3.25a3.32,3.32,0,0,1,0,.95l-.44-1.22-.53-1.68Zm-13.53,41.76a82.34,82.34,0,0,0,1-10.13,57.46,57.46,0,0,0,10-1.72,66.37,66.37,0,0,1-.82,10.1,62.24,62.24,0,0,1-2.32,9.64,57.56,57.56,0,0,1-10,1.72A74.86,74.86,0,0,0,313.86,327.37Zm-2.39,10.31a57.32,57.32,0,0,0,10-1.72,56.26,56.26,0,0,1-3.77,8.61l.2-.79-.82.13-.47-.51-.29-.74-.61-.43-.89,0-1,.06-1,.07-.57-.93-1.06-.41-.84-.06Q311,339.37,311.48,337.68Zm-2.3.9-.33-.69,2-.15q-.49,1.58-1,3.1l-.52-.59-.63-.71Zm-17.28,26.27,1.08-.54.27-.1-.86.59Zm7.52-1.22h0a38,38,0,0,1-6.61,1.14c.42-.28.84-.57,1.25-.86l.82-.39.91-.5.89-.8,1.1-.88,1.17-.57,1.17-.56,1-.41.86-.27,1.17-.29,1.48-.88,1.19-.83,1-.91,1.09-.92,1-1,.84-1,.54-.67q1.12-.24,2.11-.52A46.92,46.92,0,0,1,299.42,363.64Zm11.19-11.07.51-.79,1.28-1.09.92-.78.86-.81.9-.84.84-.9.57-.69a51.52,51.52,0,0,1-3.72,5.37C312.08,352.22,311.36,352.4,310.6,352.56Zm7.84-3.21a14.51,14.51,0,0,1-5.3,2.57,54,54,0,0,0,8.74-16.09,17.15,17.15,0,0,0,5.77-2.71v.43A54.13,54.13,0,0,1,318.45,349.35Zm10.49-34,.18,1.78c-.21,1.78-.46,4.15-.75,5.91l-.39,1.24,0,1.05-.3,1.4.18,1.15c-.05,1-.07,2.38-.18,3.39l0,1.36a17.86,17.86,0,0,1-5.56,2.54,61.6,61.6,0,0,0,2.33-9.64,65.49,65.49,0,0,0,.81-10.1,22.18,22.18,0,0,0,4-1.56Zm.74-4.12L329.4,313a21.66,21.66,0,0,1-4.14,1.65A68.57,68.57,0,0,0,322.2,295a14.53,14.53,0,0,0,5.3-2.57,60.94,60.94,0,0,1,2.92,10.85l-.07,2.89-.58,3.13Zm.53,17.21c.28-.94.52-1.71.71-2.38C330.7,326.83,330.47,327.6,330.21,328.4Zm.29-35.22q.45,1.43.82,2.88c.18.77.38,1.72.65,2.94C331.56,297.18,331,295.08,330.51,293.18Z" transform="translate(-147.52 -130.98)"/><path class="cls-2" d="M242.62,258.93l.79-.47a3.6,3.6,0,0,0-1.75,2.28,59,59,0,0,0-9.07,6.63l-.47.57a59.33,59.33,0,0,1,9.52-7.06,3.85,3.85,0,0,0,1.14,2.86A16.45,16.45,0,0,0,247,267a71.53,71.53,0,0,0-12.93,14.34,21.79,21.79,0,0,1-5.61-4.35,7.54,7.54,0,0,1-1.12-1.71c-.13.27-.25.55-.37.82a8,8,0,0,0,1,1.48,22,22,0,0,0,5.65,4.38,72.92,72.92,0,0,0-7.92,15.62c.09.27.18.55.27.82a73.56,73.56,0,0,1,8.06-16.2,67.89,67.89,0,0,0,9.06,4.17,94.67,94.67,0,0,0-7.44,18.44A82.53,82.53,0,0,1,227,301q.25.57.53,1.13a86.46,86.46,0,0,0,7.94,3.48q-.79,2.85-1.39,5.76l.59.59q.62-3.08,1.45-6.1c3.86,1.45,8.15,2.84,12.76,4.11l.21.53.17.19c-.71,3.11-1.32,6.27-1.82,9.44,0,.23-.07.46-.1.69l.78.38c0-.29.08-.57.13-.85.47-3,1-6,1.69-8.89l.19.21,1.19,1,1.41.85,1.06,1.23,1.25,1.09,1.59.53,2.36,0,1.52.85.87,1.39.92,1.38,1.41.64.62.23q-.26,1.54-.5,3.08c-.1.65-.2,1.3-.3,1.94l.9.12c.1-.63.19-1.26.3-1.9q.23-1.46.48-2.93l1.4.56,1.09,1.47,1.47.62.58.76-1.23,1.26.9.66c.64,0,1.27.07,1.92.09l-.09-.11L271,325l.5-1.49.72-1.41.37-1.47-.94-1.3-1.83-.18-1.77-.45-1.46-.57.63-.77.68-1.28.95-1.13.3-.49c4.49.78,9.09,1.44,13.72,2-.41,3.19-.87,6.4-1.37,9.59l1-.14c.49-3.12.93-6.24,1.32-9.35q2.21.24,4.42.43l.15,1.09,1.11.8,1.78-.35,1.71-.28-.95-1q4.12.29,7.92.38c-.07,1-.16,1.92-.26,2.87l.87-.43q.11-1.21.21-2.42,2,0,3.86,0l1.17-.78q-2.4,0-5,0a126.15,126.15,0,0,0-.2-19.85,110.29,110.29,0,0,0,11.81-.33,86.85,86.85,0,0,1,1.65,12.74l.59-.71A85.55,85.55,0,0,0,313,296.67a51.74,51.74,0,0,0,8.38-1.41q.19-.83.33-1.66a69,69,0,0,0-8.22-16.77,10.91,10.91,0,0,0,4-1.93c1.13,1.41,2.2,2.86,3.21,4.36-.08-.25-.17-.49-.25-.74q-1.34-1.92-2.82-3.75a3.55,3.55,0,0,0,.74-1c-.13-.24-.27-.48-.41-.72a3.35,3.35,0,0,1-.81,1.1A63,63,0,0,0,307,264.46l0-.15,0-.29v-.26l0-.26-.31-.4-.38-.42L305.1,262l.45.1-.19-.31-.88-.5-1.15-.8-.34-.28a1.35,1.35,0,0,0,0-.32,58.87,58.87,0,0,1,6.78,4.33l-.4-.16.14.45.35.54-.49,0,.67.41,1.19.78.32-.07-.4-.57-.28-.46-.31-.32q2.16,1.66,4.15,3.5l-.38-.46a58.5,58.5,0,0,0-11.35-8,2.56,2.56,0,0,0-.62-1.16,5.51,5.51,0,0,0-.44-.46q2.14,1,4.15,2.27l0,0,.76.56,1.28,1,.1.13,2,1.5,1.82,1.62a44.43,44.43,0,0,0-6.57-5.43l-.36-.2.41.32.41.32q-2-1.2-4.08-2.22a12.86,12.86,0,0,0-2.55-1.68c.4.18.79.38,1.18.58l-1.14-.56-.18-.09-1-.48.45.22a36.89,36.89,0,0,0-15.54-3l-.14-.06a22.57,22.57,0,0,1,9.53.59,21.65,21.65,0,0,0-9.54-.6l-.17-.05a9.38,9.38,0,0,1,5.57-.6l-.31-.08a8.85,8.85,0,0,0-5.27.67l-.2,0c.64-1,1.18-1.45,1.64-1.46l-.2,0c-.39,0-.87.5-1.45,1.5l-.21,0a3.55,3.55,0,0,0-2-2l-.21,0a3.88,3.88,0,0,1,2.17,2H282a13.11,13.11,0,0,0-6-2.32h-.17a13.86,13.86,0,0,1,6.11,2.33h-.17a27.68,27.68,0,0,0-10.49-2.33h-.41a28.51,28.51,0,0,1,10.89,2.32l-.13,0a42.67,42.67,0,0,0-16.94-1.74l.85-.17-.17,0,.21,0,.46-.07-.76.09-.55.09.58-.08-.61.08-.64.13c-.74.09-1.47.2-2.2.33l.51-.1-.3.05-.71.14-.4.08-.4.09.75-.16q1.28-.24,2.57-.39a8.29,8.29,0,0,0-2.37.91,52.4,52.4,0,0,0-15.31,4.75l1.87-.94-.64.3c-.8.39-1.65.83-2.4,1.22l-.86.47h0l1.81-.94q-.92.45-1.81.94h0q-1.14.63-2.24,1.31Zm.79,4.4a3.79,3.79,0,0,1-1.13-2.81,60.45,60.45,0,0,1,18.22-6.93,2.12,2.12,0,0,0,.63,1.57l.73-.2a2.06,2.06,0,0,1-.61-1.52,61.51,61.51,0,0,1,20.31-.45.09.09,0,0,0,0,.06l.09.07a50.34,50.34,0,0,0-17.55,3.61,8.81,8.81,0,0,1-2.26-1.76l-.73.2a9.07,9.07,0,0,0,2.34,1.81,62.11,62.11,0,0,0-15.89,9.59A16.25,16.25,0,0,1,243.41,263.33Zm37.06.24.82,0,.82-.22v.79l.31.45-.78.33,1.09.75.64.09.7.06-.19.92-.67-.3-.81-.17h-.82l.06-.69-.86-.22-.73-.44-.71-.45-1,0L278,264q.36-1.13.71-2.17,1.5.28,3,.51l-.29.17-.66.23-.48.46Zm4.73,19.19.26.1q0,1.18-.06,2.39h-.66l-1-.86-1.37.23-1.15-.5,1.29-.61,1.3-.6Zm-1.06-20.06.55.06c0,.18,0,.35.06.53l-.1,0ZM294.37,260l0-.25h.38l0-.27-.13-.35,0-.22-.11-.27.53.33,0,0,0,.24.79.63-.1.18-.26.07-.14.14-.15.14.56.39.47.47.45.13.37,0,.25-.13.48.06.47.06,1.07.62a20.49,20.49,0,0,1-3.46.59q-.65-.66-1.31-1.3l-.19-.54.14-.34Zm1.12-3.06h-.23l.32.26,0,.14,0,.12h0q-1.56-.72-3.16-1.37l-.07-.08-1.48-.64-.59-.09a60.7,60.7,0,0,0-7.15-2.06.05.05,0,0,0,0,0A61,61,0,0,1,296.93,257h0l-.87-.27-.18.08h-.18l-.32,0Zm-5.25-1.61.24.15.38.34,2,.72-.35-.36q1.52.62,3,1.31a61.26,61.26,0,0,1,6.24,3.39,61.32,61.32,0,0,0-6.24-3.39l-.09,0,.29.28.13.19-.35,0,.31.28-.26,0h-.29v.19l-.26,0,.28.34,0,.07-.84-.51-.05,0h0A52.69,52.69,0,0,0,283,253.31l.08,0A60.49,60.49,0,0,1,290.24,255.36Zm5.86,7.71q.67.73,1.33,1.48l-.09,0-.89-.61-.9-.74-.66-.05-.47.17-.54.11-.48-.13-.58.06-.35.4-.1.73.63.71.82.51-.08.74-.42.49-.08.12q-.81-1.73-1.7-3.32h.28l.12-.5-.53-.06A45.06,45.06,0,0,0,296.1,263.07Zm2.06,5.79h-.93l-.45.62.84.16.69-.1.69.52.75.66,1,.42.66-.13-.73-.64.13-.14,1.14.43,0-.08a66.24,66.24,0,0,1,3.72,6.46l-.81-.83-.18-.66-.81-1.39L302.73,273l-.43,1-.57.61-1.17-.81-.17-1.18-.91-.55-.8-.68-.71-.07-1.19-.19-.23.94,0,1.12-.37,1.2.48.89,0,1h0c-.67-2.2-1.42-4.31-2.23-6.3l.81,0-1.06-.88-.14-.12-.34-.79H294l.56-.22.54-.24-.09-.81-.29-1,.4-.27.57,0,.37-.16,1.06.64,1.12.91.24.78-.41.35Zm2.33-.41.08.11-.07-.07Zm-11.29,19.2-1,.47-.73.77-.72-1.32-.44-1.42-.27.14c0-.19,0-.39,0-.58l1.47,0,1.17.5,1.17,0,.45,1.08Zm.54,2.1-1.26.59-1.41.47-1.11-.38c0-.11,0-.23,0-.34l.7-.41,1.27-.06,1.22-.2Zm-3.64-4.51q0-1.08,0-2.14l.2.07.85,1-.45,1.11Zm5.15,3.1h1.35l.72.33-1.54.46-1.67-.28Zm.7-8.67.14-1.07.1-.51,2.11.12,0,1.18-.37,1.14-1,.56Zm-1,15.11h.72l.82-.71.74-.79,1.07-1,1.1-.52,1.2-.25,1-.56.07-.91.76-1,.53-.26q.56,3.62.89,7.42-4.36-.11-9.22-.51Zm2.51-26.34-.25-.22h.16Zm-.91-2-.53-.06-.65-1.17-.26-.86.14-.52Q291.92,265.06,292.56,266.42Zm-1.33,3.4.63-.17.53-.48.54-.43.08.66-.21.68.81.13.49-.17c.84,2.16,1.61,4.45,2.29,6.86l-.08.15-.73.48-.28.13q-1.67-.06-3.43-.18l-.92-.27-1.14-.62-1-.87-1.08-.64-.91-1-.56-.77.63-.88.75-.77.92-.56,1-.4.79-.55Zm-.36-6.23-.22.49-.3.7-.26.69.41.61-.29.57-.83.47.19-.75-.3-.71-.5.87-.61.27-.68.14-.76-.2-.76-.18-.55-.73v-.1l.78.15.9.2.7-.79-.65-.59.19-.78.23-.67-.77.12-.5.7-.46-.56-.58,0-.13,0q0-.32-.09-.64l1.87.18c1.41.12,2.76.19,4,.23l.09.16ZM285,262.34l-.15-.91h.12l.07.55.52.42Zm.43,23.36c0,.32,0,.64,0,1l-1,.43-.87,1.16-.67,1.3-1.4-.11.43-1.12.61-1.11.89-.89,1.08-.64Zm-4.76-7.51-.85.76-.59-.91.88-.84Zm-4.95-11.33.64-.52.55-.15-.29.9h-.37Zm.08,2.88-.13.43L275,270Zm.58-.23.61-.26,1.12.63-.87.24-.85.22-.23-.06Zm1.31-2.56-.6.11.29-.95.44,0,.64.73Zm0-3.16h-1.14l-.81.05-.77-.06-.51-.15-1.23.23-.5-.36-.35-.47-.43-.38-.59-.2-.16,0q.79-1,1.59-1.88c1.76.47,3.65.91,5.59,1.28Q278,262.76,277.66,263.79Zm-6.81-1.48-.12,0-.6-.17-.51-.25-.4-.48-.57-.31-.64-.16-.75-.06h-.81l-.76-.06-.83.08h-.09q1.42-1.06,2.87-2c1.46.55,3.09,1.07,4.84,1.55Q271.66,261.33,270.85,262.31Zm-6.56-1.39-.24,0-.66-.14-.88.1-1,.94-.77,0-.38-.35-.57-.18-.75,0-1.12.36.41.48.46.44-1,.32-.72-.08-.58-.18-.83-.11-1,0-1.1.18-.84.36a60.15,60.15,0,0,1,11-6,28.07,28.07,0,0,0,3.75,1.73Q265.83,259.79,264.29,260.92Zm-4.67,10.65c-1.61-.51-3.15-1-4.59-1.58q1.93-2.19,4-4.16h.11l.58.32.27.63.7.44.56.59-.27,1-1,1-.23.68-.37.62Zm-7.85-6.89.16.41-1,.23-1.18.3.94.09.94.09,1.1-.1,1.05,0,1.09-.24,1.16-.18.8.19-.67.42.84.14h.92l.45-.06q-1.93,1.85-3.78,3.91a50.25,50.25,0,0,1-6.71-3.08q2.12-1.77,4.36-3.34l0,.45-.76.36ZM234.5,281.61a72,72,0,0,1,12.83-14.4,51.07,51.07,0,0,0,6.81,3.13,84.56,84.56,0,0,0-10.64,15.4A67.57,67.57,0,0,1,234.5,281.61Zm14.81,26-.72,1.43c-4.41-1.23-8.52-2.57-12.24-4a96.35,96.35,0,0,1,7.36-18.47l1.58.58-.24.41-.51,1.61.66,1.08.37,1.24-.32,1.27-.39,1.33-.2,1.31.15,1.89-1,.91.62,1.22.5,1.32-.59.79.6,1.26.79.95-.26-1.37.17-1.46.17-1.46-.08-1.46,0-1.42L246,295l1-.89.85.78-.5,1.23-.15,1.29.55,1.65.41,1.79.22,1.92.78,1.54.25,1.7Zm7-32.49-.4,1,.15,1-1.46,1.33-1.1.94-1.26.72-1.27.67-1.23.75-1.1,1.08-1.27,1-1.12,1.11-.34,1.45-.27.45-1.62-.59a85.62,85.62,0,0,1,10.51-15.46c1.51.57,3.12,1.12,4.81,1.65l-.6.45-.52,1.27-.65.61-.42.64Zm.61,2.65.18-1.58.64.7Zm8.22,36.14-1.29.75-2-.28-1.86-.52-1.42-1.15-.16-.38q3.35.75,6.83,1.42Zm.5-.89q-3.84-.73-7.53-1.57l-.08-.21-.11-1.53.37-1.47.53-1.39.89-1.21,1-.82.14-1.39,1.64-1,1.93-.42,1.51-.49,1.57,0,.33.06C267.13,305.37,266.39,309.19,265.69,313Zm17.55.65-.18-.12-1.69-.88-1.59-1-2.11-.27.64,1,1.62.62,1.37,1,1.37,1,.36.54,0,.16c-4.51-.51-9-1.15-13.38-1.91l0,0,1-1.08-1.56-.62-1.93-.17-.41.43c.64-3.54,1.31-7,2-10.48l.42.08,1.11.63,1.21-.19,1.08-.55,1.65.11,1.74.09,1.26.95,1.18.05,1,1.46-.56,1.76.44,1.43,1,1.05,1.25-1.29-.07-1.45,0-1.42.23-1.42.53-1.29,1.13-.91,1.26-.79C284.24,304.54,283.79,309.09,283.24,313.69ZM300,316.88c-3.46-.09-7.14-.3-11-.62q-2-.17-4-.38l.76-.25-1.17-1.1-.47-.3c.58-4.94,1-9.83,1.37-14.57l.73-.36,1.46-.43,1.32-.61,1.06-.84.34-.92c3.35.28,6.53.46,9.53.53A129.74,129.74,0,0,1,300,316.88Zm.55-20.57c-.25-2.64-.59-5.22-1-7.73l1.05-.44,1-.58,1.4-.06-.83,1.29,1.46-.34.95-.43,1-.42.91-1.41-.91.68-1.12.14-1.05-1-.42-1.33.67-1-.89-.27-.82.14-1.5.36,1.09-.72.67-1,1.1,0,1-.15,1.07,0,.91-.24.72-.64.49-.3.43,1-.13.81-.3.8-.06.87.75.26.75-.12h0a82.47,82.47,0,0,1,3.33,11.4A109.36,109.36,0,0,1,300.58,296.31Zm21-1.88a50.15,50.15,0,0,1-8.73,1.5,81.45,81.45,0,0,0-3.39-11.36l.65,0,.75.56-.23-1-.52-1.1-.77-.25-.89-.83.09-1,0-1-.37-1.15-.86-.73-.14-.16a36.67,36.67,0,0,0,6-1.08A69.4,69.4,0,0,1,321.59,294.43ZM317,274.32a10.72,10.72,0,0,1-3.92,1.9q-1.77-2.56-3.76-4.93l.83.36-.07-.56-.46-.84-.55-.87-.35-1-.85-1.24-.11-.57.17-.32-.14-.53-.73-1h0A63.06,63.06,0,0,1,317,274.32Zm-14-9.24,0-.1.75.69-.09.35.22.62.8.91,1,1,1,1,1,1,1,.63.24,0q2,2.44,3.85,5.1a37.26,37.26,0,0,1-6.46,1.12l-.07,0a65.88,65.88,0,0,0-4.57-7.69l0-.09-.1-.09q-.56-.8-1.14-1.58v-.11l1.29.79.35-.32-.18-.74-1.23-.73-1.23-.63-.31-.82-.77-.49-.61-.31c-.46-.52-.92-1-1.4-1.53a21,21,0,0,0,3.61-.62l.52.39,0,0,.8.89h.26l.62.54h-.11l.37.69Zm-.37-.84h-.19l-.47-.41Zm-.29-4.48-.74-.46-.91-.39-.35-.33-.93-.35-.91-.52,0,0q2,.87,3.88,1.88A1.29,1.29,0,0,1,302.32,259.75Zm-.62-1.42a2.45,2.45,0,0,1,.6,1.13q-2-1.08-4.19-2l-.24-.15-.24-.23-.78-.42-.28,0,.14.14.24.18v0a60.8,60.8,0,0,0-13.81-3.76l0,0,0,0a52.51,52.51,0,0,1,15.67,3.64v.2l.24.11.25.23.64.51.81.27.82.24-1.64-.88-.59-.24-.09-.21-.28-.16q1.2.49,2.35,1A5.09,5.09,0,0,1,301.71,258.34Zm-3-2.16a12.44,12.44,0,0,1,2.47,1.62,51.42,51.42,0,0,0-18.09-4.65l-.09-.06A37.79,37.79,0,0,1,298.71,256.18ZM283,253.31a52.08,52.08,0,0,1,11.18,5.09l-.06,0-.48-.08-.28,0-.27.06,0,.22h-.3l-.12.14-.27,0h-.3l-.2,0a39.45,39.45,0,0,0-9-5.58Zm-.14,0a38.75,38.75,0,0,1,8.9,5.63l-.12.1.11.34.66.54-.5-.14-.65-.32-.37,0v.31l0,.37.84.64.3-.1.43.05.56.28-.28.06-.12.45.64.2.36,0,.26-.14.53.1.07-.18q.57.56,1.13,1.15l-1.09.08-.86,0,.26-.13.6.09,0-.43-.54-.14h-.45l-.24.23-.66,0-.74-.58-.5-.1-.55-.17.12.25.68.33.11.45.83.2.48,0,.22,0q-1.16,0-2.45,0-.57-1-1.17-1.87l.23-.15-.46-.19a27.61,27.61,0,0,0-6.85-7.2Zm-.34,0h.15a28.42,28.42,0,0,1,7.42,8.47l-.2-.07-.54.35.67.24.22-.27.39.68c-1.22,0-2.52-.1-3.89-.22l-.56-.05h.17l.66-.27.61.17.44-.2-.66-.5L287,262l-.54-.11-.56-.38-.56-.49-.52.1a27.76,27.76,0,0,0-2.29-7.82Zm-.3,0,.22,0a29.24,29.24,0,0,1,2,7.91l-.42.17.4.05h0q.06.42.11.85c-2-.22-3.92-.52-5.81-.87A46.93,46.93,0,0,1,282.24,253.29Zm-.22,0,.21,0a41.93,41.93,0,0,0-3.71,8.09c-1.89-.36-3.7-.78-5.41-1.23A27.14,27.14,0,0,1,282,253.24Zm0,0a27.43,27.43,0,0,0-9.18,6.83c-1.69-.46-3.27-1-4.68-1.5a36.88,36.88,0,0,1,13.68-5.39Zm-.19-.06a37.54,37.54,0,0,0-13.9,5.3,27.19,27.19,0,0,1-3.63-1.67,49.73,49.73,0,0,1,17.39-3.7Zm-17.23-2a43.5,43.5,0,0,1,17.1,1.7l-.09,0a55.18,55.18,0,0,0-19.31-.85A8.06,8.06,0,0,1,264.59,251.2Zm-2.39.94a55.71,55.71,0,0,1,19.41.79.07.07,0,0,0,0,0,61.4,61.4,0,0,0-20.3.38A1.93,1.93,0,0,1,262.19,252.15Zm-.71.1a2,2,0,0,0-1,1.26,60.16,60.16,0,0,0-18.21,6.86,3.55,3.55,0,0,1,1.72-2.25A52.87,52.87,0,0,1,261.48,252.25Z" transform="translate(-147.52 -130.98)"/></svg>