<?xml version="1.0" encoding="utf-8"?>
<!-- Generator: Adobe Illustrator 21.1.0, SVG Export Plug-In . SVG Version: 6.00 Build 0)  -->
<svg version="1.1" id="Layer_1" xmlns="http://www.w3.org/2000/svg" xmlns:xlink="http://www.w3.org/1999/xlink" x="0px" y="0px"
	 viewBox="0 0 312 312" style="enable-background:new 0 0 312 312;" xml:space="preserve">
<style type="text/css">
	.st0{fill:#be6d47;}
	.st1{fill:none;stroke:#47A0BE;stroke-width:12;stroke-miterlimit:10;}
</style>
<title>logo-3</title>
<path class="st0" d="M220.5,92.2c-2.2-2.2-11.3,1.4-19.5,9.3l-17.4,16.9l-22.4-3.8l5.4-5.3c2.2-2.1,2.2-5.7,0.1-7.8
	c-2.1-2.2-5.7-2.2-7.9-0.1l-11.2,10.9l-32-5.4l-12.6,12.2l56.4,22.4l-22.5,21.9c-4.4,4.6-8.5,9.4-12.2,14.6l-27.6-2.9l-6.8,6.9
	l25.4,10.4l0.3,0.9l-3.2,3.6l-5,5.4l0.7-0.6l-0.6,0.7l5.6-4.9l3.7-3.1l0.9,0.4l9.7,25.7l7-6.6l-2.2-27.7c5.2-3.6,10.2-7.6,14.9-11.8
	l22.5-21.9l20.9,57l12.6-12.2L199,165l11.2-10.9c2.2-2.1,2.2-5.7,0.1-7.9c-2.1-2.2-5.7-2.2-7.9-0.1l0,0l-5.5,5.3l-3.2-22.5
	l17.4-16.9c8.2-7.9,12-17,9.8-19.2L220.5,92.2z"/>
<circle class="st1" cx="156" cy="156" r="150"/>
</svg>
