<?xml version="1.0" encoding="utf-8"?>
<!-- Generator: Adobe Illustrator 21.1.0, SVG Export Plug-In . SVG Version: 6.00 Build 0)  -->
<svg version="1.1" id="Layer_1" xmlns="http://www.w3.org/2000/svg" xmlns:xlink="http://www.w3.org/1999/xlink" x="0px" y="0px"
	 viewBox="0 0 316 316" style="enable-background:new 0 0 316 316;" xml:space="preserve">
<style type="text/css">
	.st0{fill:#FFFFFF;}
	.st1{font-family:'MyanmarSangamMN';}
	.st2{font-size:180.3797px;}
	.st3{fill:none;stroke:#FFFFFF;stroke-width:12;stroke-miterlimit:10;}
</style>
<title>Untitled-2</title>
<g>
	<text transform="matrix(1 0 0 1 91.1455 288.899)" class="st0 st1 st2">T</text>
	<text transform="matrix(1 0 0 1 167.0947 250.9244)" class="st0 st1 st2">T</text>
	<path class="st0" d="M156.1,51.3c-1.7-1.5-8.2,1.4-13.9,7.5l-12.1,13l-16.6-2l3.8-4.1c1.5-1.6,1.4-4.2-0.2-5.7
		c-1.6-1.5-4.2-1.4-5.7,0.2l-7.8,8.4l-23.6-2.8l-8.7,9.4l42.1,14.4l-15.7,16.8c-3.1,3.5-5.9,7.2-8.4,11.1l-20.3-1.1l-4.7,5.3l19,6.6
		l0.3,0.6l-2.2,2.7l-3.5,4.2l0.5-0.5l-0.4,0.5l3.9-3.8l2.6-2.4l0.7,0.2l8,18.4l4.9-5.1l-2.6-20.2c3.7-2.8,7.2-5.9,10.4-9.2
		l15.7-16.8l17.3,40.9l8.7-9.4l-4.5-23.3l7.8-8.4c1.5-1.6,1.4-4.2-0.2-5.7s-4.2-1.4-5.7,0.2l-3.8,4.1L137.8,79l12.1-13
		c5.7-6.1,8.2-12.9,6.5-14.4L156.1,51.3z"/>
	<circle class="st3" cx="158" cy="156.6" r="150"/>
</g>
</svg>
