<?xml version="1.0" encoding="utf-8"?>
<!-- Generator: Adobe Illustrator 21.0.0, SVG Export Plug-In . SVG Version: 6.00 Build 0)  -->
<svg version="1.1" id="Layer_1" xmlns="http://www.w3.org/2000/svg" xmlns:xlink="http://www.w3.org/1999/xlink" x="0px" y="0px"
	 viewBox="0 0 436 121" style="enable-background:new 0 0 436 121;" xml:space="preserve">
<style type="text/css">
	.st0{fill:#646569;}
	.st1{fill:#C6093B;}
</style>
<g>
	<g>
		<g>
			<path class="st0" d="M165.9,57.7v20.8c-1.4,0.5-4.4,1.4-10,1.4c-13.7,0-22.6-8.1-22.6-20.7c0-12.5,9.1-20.6,23.3-20.6
				c5.3,0,9.5,0.8,13.5,2.6l1.2,0.5l2.6-8.2l-1-0.4c-2.9-1.4-8.9-3-16.1-3c-23.2,0-33.8,15.2-33.8,29.3c0,8.2,3,15.8,8.3,20.7
				c5.8,5.5,13.6,8.2,23.8,8.2c8.8,0,16-2.2,19.6-3.5l0.8-0.3V57.6h-9.6V57.7z"/>
			<path class="st0" d="M192.7,87.7h9.9V30.6h-9.9V87.7z"/>
			<polygon class="st0" points="231.2,79.1 231.2,30.6 221.3,30.6 221.3,87.7 257.2,87.7 257.2,79.1 			"/>
			<polygon class="st0" points="279.4,79.2 279.4,62.2 303.1,62.2 303.1,53.8 279.4,53.8 279.4,39.1 304.5,39.1 304.5,30.6 
				269.6,30.6 269.6,87.7 305.8,87.7 305.8,79.2 			"/>
			<path class="st0" d="M348,30.6h-9.7l-21.5,57.1h10l6.3-17.5H353l6.6,17.5h10.1L348,30.6z M342.9,41.9c0.6,1.7,6,16.1,7.6,20.2
				h-15C335.5,62.1,342.4,43.6,342.9,41.9z"/>
			<path class="st0" d="M425.8,38.1c-5.6-5.3-14.4-8-26.1-8h-18.4v8.2l18.6,0.1c8.5,0,15,2.1,19,6.2c3.3,3.3,4.9,7.9,4.9,13.5
				c0,6.3-2,11.5-5.7,15.3c-4.3,4.3-11.1,6.6-19.6,6.6c-2.6,0-5.4,0-7.5-0.2V53.9h-9.8v33.7l1.1,0.1c4.3,0.4,8.9,0.6,14.8,0.6
				c12.1,0,22.1-3.2,28.1-8.9c5.6-5.5,8.7-13.2,8.7-21.5C434,49.8,431.2,43.2,425.8,38.1z"/>
		</g>
	</g>
	<g>
		<path class="st1" d="M90.9,2c0-0.2-0.1-0.3-0.3-0.3l0,0l0,0l0,0l0,0c-73.8,7-83.2,57.9-59.1,74.2c-4.2,18.4-0.3,18-0.3,18
			C32,88.4,33,83,34.4,77.6c9.4-35.8,32.7-67.1,56.2-75.2l0,0C90.8,2.3,90.9,2.2,90.9,2z"/>
		<path class="st1" d="M87,13.6c0-0.1-0.1-0.3-0.3-0.3c-0.1,0-0.3,0.1-0.3,0.2c-6.1,12-7.9,29.1-12.5,42.2
			c-5.3,15-14.8,25.1-29.4,24.1v36.5c0,0-39-17.7-39-46V17.1l31.9-2.9l0,0c0.2,0,0.3-0.1,0.3-0.3c0-0.2-0.1-0.3-0.3-0.3l0,0H2v56.7
			c0,31.9,42.5,49.6,42.5,49.6s42.6-18,42.6-49.6L87,13.6L87,13.6z"/>
	</g>
</g>
</svg>
