<svg id="Layer_1" data-name="Layer 1" xmlns="http://www.w3.org/2000/svg" viewBox="0 0 312 312"><defs><style>.cls-1{font-size:45.57px;font-family:MyanmarSangamMN, Myanmar Sangam MN;}.cls-1,.cls-3{fill:#fff;}.cls-2{letter-spacing:-0.15em;}.cls-4{fill:none;stroke:#fff;stroke-miterlimit:10;stroke-width:12px;}</style></defs><title>logo-3</title><text class="cls-1" transform="translate(50.62 160.65)"><tspan class="cls-2">T</tspan><tspan x="22.19" y="0">empoTrip</tspan></text><path class="cls-3" d="M222.49,94.23c-2.16-2.22-11.3,1.38-19.46,9.33l-17.36,16.92-22.44-3.82,5.42-5.28a5.55,5.55,0,1,0-7.75-7.95l-11.21,10.92-32-5.45-12.56,12.24,56.4,22.39-22.48,21.9A137.67,137.67,0,0,0,126.84,180l-27.64-2.9-6.77,6.86,25.43,10.35.33.89L115,198.78l-5,5.44.7-.59-.6.68,5.57-4.85,3.67-3.09.88.35,9.68,25.69,7-6.59-2.18-27.7a137.67,137.67,0,0,0,14.86-11.84l22.48-21.9,20.92,57,12.56-12.24L201,167l11.21-10.92a5.55,5.55,0,1,0-7.75-7.95L199,153.39l-3.24-22.54,17.36-16.92c8.16-7.95,12-17,9.83-19.21Z" transform="translate(-2 -2)"/><circle class="cls-4" cx="156" cy="156" r="150"/></svg>