<svg id="Layer_1" data-name="Layer 1" xmlns="http://www.w3.org/2000/svg" xmlns:xlink="http://www.w3.org/1999/xlink" viewBox="0 0 198.07 283.39"><defs><style>.cls-1{fill:none;}.cls-2{fill:#edb22e;}.cls-3{clip-path:url(#clip-path);}.cls-4{fill:#fff;}</style><clipPath id="clip-path" transform="translate(-58.84 -24.61)"><path class="cls-1" d="M256.92,209.08a98.92,98.92,0,1,1-157.16-80c.45-.33-.77-84.85-.31-85.17,4.55-3.2,11.06-22.86,16.12-25.27.68-.33,9.79-9.06,10.49-9.37,12.33-5.52,17.57,8.25,31.95,8.25,14.22,0,27.75,19.84,40,25.25.49.22,1,25.7,1.48,25.92,5.15,2.38,11.75,14.45,16.38,17.65.66.45-.37,42.17.27,42.64A98.79,98.79,0,0,1,256.92,209.08Z"/></clipPath></defs><title>master</title><circle class="cls-2" cx="99.16" cy="184.47" r="98.92"/><g class="cls-3"><path class="cls-4" d="M157.22,24.61c-4.87,0-10.83,14.23-10.83,32.12V94.81l-28.91,21.06V104A8.72,8.72,0,1,0,100,104v24.59l-41.2,30v27.55l87-38.91v49.31c0,12.47,3,29.7,3,29.7l-33.56,27.92.3,15.15L155.1,252l1.36.6.55,7.52.64,11.58.11-1.43.11,1.43.64-11.58.55-7.52,1.36-.6L200,269.31l.3-15.15-33.56-27.92s3-17.23,3-29.7V147.24l87,38.91V158.6l-41.2-30V104A8.72,8.72,0,1,0,198,104v11.89L169.14,94.81V56.73c0-17.9-6-32.12-10.83-32.12Z" transform="translate(-58.84 -24.61)"/></g></svg>