<svg width="33" height="64" viewBox="0 0 33 64" xmlns="http://www.w3.org/2000/svg"><title>42731EF2-5104-41DE-BF16-C8EA974D9030</title><path d="M32.077 31.272c-.108.186-.327.245-.547.304-.367.098-.792-.024-1.09-.258l-7.578-7.163c-1.577 1.444-3.512 2.434-5.564 2.984a13.723 13.723 0 0 1-13.072-3.333C1.588 21.29.039 17.856-.005 14.175c-.117-3.662 1.297-7.184 3.811-9.822 1.72-1.796 3.962-3.104 6.38-3.752A13.723 13.723 0 0 1 23.26 3.934c5.183 4.975 5.633 13.105 1.195 18.537l7.577 7.163c.45.508.48 1.207.046 1.638M21.667 5.618c-2.956-2.823-7.006-3.86-10.891-2.818A11.413 11.413 0 0 0 5.49 5.945c-2.153 2.227-3.265 5.118-3.158 8.153.106 3.036 1.351 5.924 3.559 8.004 2.956 2.822 7.005 3.859 10.89 2.818a11.413 11.413 0 0 0 5.287-3.145c4.287-4.528 4.146-11.797-.401-16.157" fill="#000000" fill-rule="evenodd"/></svg>