<svg width="51" height="50" viewBox="0 0 51 50" xmlns="http://www.w3.org/2000/svg"><title>AB762F5A-AC00-416E-B443-1B1AF0928513</title><g transform="translate(1 1)" fill="none" fill-rule="evenodd"><ellipse stroke="#000" cx="24.395" cy="24.137" rx="24.217" ry="24.137"/><path d="M33.099 19.988c.012.188.012.376.012.565 0 5.713-4.367 12.299-12.346 12.299-2.46 0-4.745-.71-6.667-1.94.35.04.683.053 1.05.053a8.692 8.692 0 0 0 5.384-1.847 4.349 4.349 0 0 1-4.058-2.997c.27.04.54.064.82.064.39 0 .78-.052 1.143-.144a4.334 4.334 0 0 1-3.479-4.246v-.053c.575.32 1.25.521 1.963.55a4.317 4.317 0 0 1-1.935-3.602c0-.802.214-1.539.592-2.184a12.355 12.355 0 0 0 8.947 4.527 5.073 5.073 0 0 1-.108-.99 4.332 4.332 0 0 1 4.343-4.326 4.33 4.33 0 0 1 3.169 1.366 8.602 8.602 0 0 0 2.758-1.046 4.318 4.318 0 0 1-1.91 2.384 8.773 8.773 0 0 0 2.502-.669 9.37 9.37 0 0 1-2.18 2.236" fill="#000"/></g></svg>