<svg width="50" height="50" viewBox="0 0 50 50" xmlns="http://www.w3.org/2000/svg"><title>3AAB7048-A921-4CEF-BE99-A48BC6587C64</title><g transform="translate(0 1)" fill="none" fill-rule="evenodd"><ellipse stroke="#000" cx="24.855" cy="24.137" rx="24.217" ry="24.137"/><path d="M13.93 26.077V22.4c.01-.059.026-.117.03-.176.027-.45.042-.9.08-1.348.064-.779.137-1.56.4-2.3.353-.99 1.055-1.62 2.088-1.838a8.337 8.337 0 0 1 1.288-.148c1.513-.078 3.026-.173 4.54-.195 2.02-.03 4.04-.004 6.06.01 1.709.01 3.413.094 5.114.262 1.27.126 2.303.943 2.584 2.182.17.752.24 1.528.334 2.296.05.404.056.813.081 1.219v3.714c-.01.07-.024.14-.028.212-.028.455-.043.912-.083 1.366-.066.766-.136 1.536-.401 2.263-.357.98-1.057 1.602-2.082 1.822a7.26 7.26 0 0 1-1.144.135c-1.561.08-3.122.182-4.684.207-2.02.032-4.04.004-6.06-.01a55.66 55.66 0 0 1-5.113-.262c-1.333-.132-2.375-1.02-2.62-2.339-.144-.771-.22-1.556-.313-2.336-.042-.35-.048-.705-.07-1.058zm15.571-2.056l-7.181-3.743v7.462l7.181-3.72z" fill="#000"/></g></svg>