<svg version="1.1" id="Layer_1" xmlns="http://www.w3.org/2000/svg" xmlns:xlink="http://www.w3.org/1999/xlink" x="0px" y="0px" viewBox="0 0 1200 760" enable-background="new 0 0 1200 760" xml:space="preserve" preserveAspectRatio="xMidYMid">
<g id="africa">
	<path id="eg" fill="#54565b" stroke="#54565b" stroke-width="1" stroke-miterlimit="10" d="M709.96,424.35l-2.29,1.68l-2.66,0.6
		l-1.93-0.24l-1.93-0.96l-0.36-1.08l-1.93,0.73l-1.44,0.73l-0.6-1.08l-1.81,1.2l-2.41,1.44l-2.05-1.08h-2.53l-2.17-0.96l-2.89-0.85
		l-1.31,0.24l-1.2-0.12l-0.36-0.49l-0.73,0.85l0.12,0.96l0.49,0.85l-0.24,1.44l-0.49,0.73l0.73,2.17l0.24,1.44l-0.12,25.63h18.65
		v-0.85l0.96,0.12v0.85l6.02-0.12l0.73,0.49h1.44l0.85-1.44l1.2-0.24l1.08-1.81l0.96-0.12l1.2-0.96l-0.6-2.29l1.08-0.6l-1.93-1.31
		l-3.01-5.66l-1.08-2.17l-0.12-1.68l-0.96-1.31v-1.19l-2.17-2.53l-0.85-2.76l-0.24-1.44v-1.68l0.96,1.93l0.73,2.17l1.2,2.17
		l2.17,2.17h0.96l0.24-1.44l0.36-1.57l0.96-2.17l0.24-1.08l-0.49-2.66l-1.25-3.01L709.96,424.35L709.96,424.35L709.96,424.35z"/>
	<path id="ly" fill="#54565b" stroke="#54565b" stroke-width="1" stroke-miterlimit="10" d="M680.13,424.09l-2.11-1.14l-3.25-0.54
		l-1.08-1.62l-3.25-1.25l-4.15,0.36l-1.81,2.17v3.25l-0.9,2.17l-2.53,1.81l-2.35-1.99l-6.67-1.25l-2.53-1.25v-2.35l-3.25-1.62
		l-3.25-0.73h-2.53l-2.53-0.91l-0.36,1.81l-3.97,2.53l-0.18,4.15l-1.99,0.36l-0.18,1.25l0.73,2.17l1.08,2.35l-0.36,2.17l0.18,2.17
		v3.07l-1.62,1.99l1.62,1.62l1.62,4.34h1.99l2.17,2.35l1.08,1.44l4.52,1.08l1.62,1.44l5.96-2.35l24.73,12.82l0.54-1.62l3.07,0.36
		l-0.06-6.49l0.12-25.63l-0.6-2.71l-0.36-0.91l0.49-0.73l0.24-1.44l-0.64-1.35l0.09-0.82L680.13,424.09L680.13,424.09z"/>
	<path id="tn" fill="#54565b" stroke="#54565b" stroke-width="1" stroke-miterlimit="10" d="M631.46,428.01l-1.25-6.13l-2.17-1.62
		l-0.54-1.62l-1.81-3.78l2.35-3.43l-0.18-5.42l-0.36-1.08l0.36-0.54l1.62-0.73l1.25-0.73l2.17-0.36l0.9,1.25l1.81,0.91l-0.54,1.25
		l-0.18,1.81l1.62,2.35l-0.9,1.62l-1.81,1.44l-1.62,1.25l1.25,1.08l2.17-0.36l0.73,1.25l0.18,1.08l-0.18,1.25l1.62,0.36l-0.36,1.81
		l-3.97,2.53l-0.18,4.15L631.46,428.01L631.46,428.01z"/>
	<path id="dz" fill="#54565b" stroke="#54565b" stroke-width="1" stroke-miterlimit="10" d="M611.97,467.54l7.77-2.35l19.31-13
		l-2.53-3.07h-1.99l-1.62-4.34l-1.62-1.62l1.62-1.99l-0.18-5.24l0.36-2.17l-1.81-4.52l0.18-1.25l-1.25-6.13l-2.17-1.62l-2.35-5.42
		l2.35-3.43l-0.18-5.42l-0.36-1.08l-1.44-0.91l-2.53-0.36l-2.17,0.18l-2.17,0.36h-3.07l-2.35-0.54l-2.35,0.73l-2.7,0.54l-2.71,0.36
		l-2.35,0.73l-2.53,2.17h-2.53l-3.07,2.7l1.25,2.17l0.54,5.6l1.25,0.91l-0.36,2.17l-4.15,0.73l-1.25,1.08l-2.17,0.54l0.18,2.35
		l-3.97,2.17l-1.62,1.99l-2.71,0.91l-1.08,1.44l-1.62-0.73l-3.25,1.81l-1.99,1.08l0.18,4.69l32.49,22.39l0.73,1.25l3.78,1.44
		L611.97,467.54L611.97,467.54z"/>
	<path id="ma" fill="#54565b" stroke="#54565b" stroke-width="1" stroke-miterlimit="10" d="M574.41,437.76l-13.37-0.18l4.34-1.81
		l1.99-1.81l2.71-1.08l0.73-3.78v-3.97l1.08-2.17l1.25-1.25l-0.36-0.91l2.53-2.89l2.53-1.25l3.07-1.81l1.25-2.71l0.9-3.61l0.9-0.36
		l1.44,1.62l1.44,0.91l2.17-0.18l1.62,0.18l1.99,0.18h2.89l1.25,2.17l0.54,5.6l1.25,0.91l-0.36,2.17l-4.15,0.73l-1.81,1.25
		l-1.62,0.36l0.18,2.35l-3.97,2.17l-1.62,1.99l-2.71,0.91l-1.08,1.44l-1.62-0.73l-5.24,2.89L574.41,437.76L574.41,437.76z"/>
	<path id="eh" fill="#54565b" stroke="#54565b" stroke-width="1" stroke-miterlimit="10" d="M549.14,460.32l12.09-0.54l-0.73-4.87
		l1.08-1.81l2.53-0.36l0.36-8.84h10.11l-0.18-6.13l-13.37-0.18l-1.25,2.7l-1.08,1.81l-2.17,0.91l-0.54,2.53l-0.9,2.35l-1.81,2.17
		l-1.99,2.35l-1.08,3.97l-1.25,1.44L549.14,460.32L549.14,460.32z"/>
	<path id="mr" fill="#54565b" stroke="#54565b" stroke-width="1" stroke-miterlimit="10" d="M571.17,479.82l1.81-0.91l1.62,0.36
		l11.01-0.18l0.18-2.17l-1.08-0.54L582,447.5l3.61-0.18l-10.84-7.59l-0.18,4.15h-10.11l-0.36,8.84l-2.53,0.36l-1.08,1.81l0.73,4.87
		l-12.09,0.54v1.25l0.73,2.89l-0.18,1.44l0.54,1.62l1.08,1.25v2.53l-0.54,2.53l-0.73,2.35l2.89-0.18l2.35-0.18l1.44,1.25l1.99,0.36
		l1.25,1.62l3.07,2.89l1.44-0.73l1.62-2.17l1.62,0.91l1.62-0.73L571.17,479.82L571.17,479.82z"/>
	<path id="ml" fill="#54565b" stroke="#54565b" stroke-width="1" stroke-miterlimit="10" d="M563.95,483.24l1.99,1.62l0.54,1.62
		l0.36,2.89l3.25,1.44l1.81-1.62h1.44l1.99,2.35l-0.18,2.17l2.7,1.25l2.71,0.54l1.44-1.44l0.73,1.44l1.81-1.08l0.18-1.99l0.73-1.81
		l1.99-1.25l1.08-2.7l1.25-1.44l1.44,0.18l3.78-1.99l4.15-3.25h4.15l5.24,0.36l4.34-0.91l0.73-1.81l1.44-3.78l0.18-0.54l0.18-6.85
		l-3.43,0.91l-0.18-2.71l-3.78-1.44l-0.73-1.25l-21.66-14.8l-3.61,0.18l2.7,28.88l1.08,0.54l-0.73,2.17h-11.19l-0.9-0.18l-2.35,1.08
		l-1.25-0.73l-2.17,0.91l-1.08-1.08l-1.62,2.17l-1.44,0.73L563.95,483.24L563.95,483.24z"/>
	<path id="ne" fill="#54565b" stroke="#54565b" stroke-width="1" stroke-miterlimit="10" d="M603.11,481.08l0.18,3.25l1.44,1.44
		l0.54,1.44l3.78,1.44l0.18,0.73l1.08,0.18l2.17,1.81l0.36-2.7l2.17-2.53l0.73-1.81l6.31,0.36l1.44,1.99l3.61-0.54l3.97,1.81
		l3.97-1.62l3.43-0.54l2.53,0.54l3.07-1.99l1.44-3.61l4.34-5.78l0.18-7.95l1.62-3.25l-2.35-4.52l-0.54-4.52l-2.89,0.73l-1.62-1.44
		l-4.52-1.08l-0.73-0.73l-19.31,13l-4.34,1.44l-0.18,6.85l-2.35,6.13l-3.78,0.91l-5.78-0.36L603.11,481.08L603.11,481.08z"/>
	<path id="td" fill="#54565b" stroke="#54565b" stroke-width="1" stroke-miterlimit="10" d="M644.44,484.87l1.62,1.99l1.25,0.73
		l1.25,3.43l0.36,3.25l1.25,1.62l-4.34,0.73l0.36,2.35l2.71,1.62l1.62,3.25l2.89,0.18l1.08,0.36l6.13-1.62l0.36-2.53l3.78-0.54
		l2.35-1.81l1.62-2.35l1.99-1.99l3.25-0.36l-1.62-1.62l-0.36-3.43l-2.17-0.73l1.81-2.35l-0.36-1.99l1.99-2.7l0.73-2.17l2.53,0.18
		v-12.45l-24.73-12.82l-3.07,1.62l0.54,4.52l2.35,4.52l-1.62,3.25l-0.18,7.95l-4.34,5.78l-1.44,3.61L644.44,484.87L644.44,484.87z"
		/>
	<path id="er" fill="#54565b" stroke="#54565b" stroke-width="1" stroke-miterlimit="10" d="M716.11,482.7l1.99-0.18l1.54,0.99
		l1.25-1.25l1.25,0.99l2.35-0.54l0.99,0.73l1.9,0.54l2.08,1.81l1.25,0.99l1.25-0.09l2.63,1.81l1.35-0.36l-2.63-2.45l-1.81-1.72
		l-2.71-2.45L727,480.7l-0.46-1.08l-0.99-0.36l-0.99-2.89l-1.08-3.88l-1.25-1.54l-2.53,1.99l-0.73,0.46l-0.54,0.36l-2.08,6.49
		L716.11,482.7L716.11,482.7z"/>
	<path id="et" fill="#54565b" stroke="#54565b" stroke-width="1" stroke-miterlimit="10" d="M712.49,511.4l1.9,0.54l0.28,2.35
		h3.43l3.25,2.53l4.87,0.64l0.64-1.44l2.53-1.62l0.82,1.35l2.08,0.36l1.44-0.99l1.62-0.28l2.45-1.72l4.34-0.28l10.02-9.75
		l-3.34,0.18l-9.84-3.88l-3.16-3.43l0.09-2.71l-1.72-0.09l-0.73,0.54l-0.46-2.89l0.82-2.53l-1.81-1.62l-1.25,0.09l-3.43-2.53
		l-1.81-0.82l-0.99-0.73l-2.35,0.54l-1.25-0.99l-1.25,1.25l-1.54-0.99l-1.99,0.18l-0.73,4.69l-1.62,0.54l-1.99,3.43l-0.36,2.53
		l-2.35,0.54l-1.25,6.85l-1.72,0.36v2.17l1.72,0.73l2.98,3.34L712.49,511.4L712.49,511.4z"/>
	<path id="dj" fill="#54565b" stroke="#54565b" stroke-width="1" stroke-miterlimit="10" d="M736.95,492.37l-1.08,0.91l-1.72-0.09
		l-0.73,0.54l-0.28-2.63l0.64-2.8l0.82,0.18l1.35-0.36l0.99,1.72l-0.09,1.99L736.95,492.37L736.95,492.37z"/>
	<path id="so" fill="#54565b" stroke="#54565b" stroke-width="1" stroke-miterlimit="10" d="M737.67,493.17l1.17,1.54l2.35,1.25
		l2.53-0.28l1.81-1.08l2.45,0.28l2.08-1.54l1.62,0.18l2.45-0.36l3.88-0.46l1.81-1.62l2.17,0.36l-0.36,1.25v2.26l0.82,0.82
		l-1.44,0.54l-0.18,1.81l-0.54,2.26l-0.99,0.36l-1.9,3.16l-1.99,3.61l-1.35,3.25l-2.17,2.08l-0.28,1.81l-6.58,6.4l-3.43,1.9
		l-4.24,3.16l-2.45,3.07l-2.89,3.78l-1.81-2.8l0.28-11.47l1.81-1.54v-1.08l1.44-0.99l1.62-0.28l1.99-1.54l4.51-0.36l10.29-9.84
		l-3.34,0.18l-9.84-3.88l-3.16-3.43l0.09-2.7l1.08-0.91L737.67,493.17L737.67,493.17L737.67,493.17z"/>
	<path id="ke" fill="#54565b" stroke="#54565b" stroke-width="1" stroke-miterlimit="10" d="M709.43,516.54l0.46,1.99l1.25,2.53
		v2.7l-3.34,3.61l0.09,3.78l12.27,6.67v1.54l4.69,3.16l2.08-3.25l2.35-4.34l2.71-1.99l-1.81-2.8l0.36-11.19l1.72-1.81v-1.08
		l-2.08-0.36l-0.82-1.35l-2.53,1.62l-0.64,1.44l-4.87-0.64l-3.25-2.53h-3.43l-0.28-2.35l-1.9-0.54l-4.06,3.52L709.43,516.54
		L709.43,516.54z"/>
	<path id="ug" fill="#54565b" stroke="#54565b" stroke-width="1" stroke-miterlimit="10" d="M694.81,532.42l2.17-0.99l10.65-0.46
		l0.18-3.61l3.34-3.61l0.09-2.35l-1.44-2.63l-0.36-2.26l-0.99-1.62L706,516.6l-7.03,0.54l-0.82,0.09l0.09,3.16l1.54,0.64l-0.82,1.17
		l-4.43,4.6L694.81,532.42L694.81,532.42z"/>
	<path id="rw" fill="#54565b" stroke="#54565b" stroke-width="1" stroke-miterlimit="10" d="M693.17,533.51l-0.54,1.72l0.54,2.17
		l0.9-0.18l0.73,0.09l0.82-1.62l2.63-0.28v-2.08l-1.25-1.9l-2.26,1.25L693.17,533.51L693.17,533.51z"/>
	<path id="bi" fill="#54565b" stroke="#54565b" stroke-width="1" stroke-miterlimit="10" d="M692.99,538.48l0.9,3.7l1.25-0.09
		l2.8-2.8l-0.09-1.35l-0.36-0.91l0.73-1.62l-2.63,0.28l-0.82,1.62l-0.73-0.09l-0.9,0.18L692.99,538.48L692.99,538.48z"/>
	<path id="tz" fill="#54565b" stroke="#54565b" stroke-width="1" stroke-miterlimit="10" d="M693.73,543.71l0.73,2.53l0.09,1.99
		l2.35,2.35l1.25,3.7l3.43,2.08l3.34,0.64l3.7,1.35l0.99,1.62l0.73,3.78h2.26l2.17-0.46l0.54,0.82l4.6-0.28l0.99-1.25l1.25,0.91
		l1.81-0.91l4.6-0.91l-2.53-2.63l-0.09-2.26l-1.17-2.26l-0.09-3.16l0.82-1.44l-2.53-2.08l0.9-2.53l0.99-2.8l-4.69-3.16v-1.54
		l-12.54-6.85L697,531.42l1.25,1.9v2.08l-0.73,1.62l0.46,2.26l-2.8,2.8l-1.25,0.09L693.73,543.71L693.73,543.71z"/>
	<path id="cf" fill="#54565b" stroke="#54565b" stroke-width="1" stroke-miterlimit="10" d="M650.17,504.36l-1.68,2.89l-0.96,1.93
		h-0.73l0.96,2.89l1.57,2.76l0.36,2.29l2.89,2.53l2.29-3.61l4.82,0.36l0.6-1.57l2.29-3.01l3.84,1.68l5.9,1.31l1.2-1.93l2.89,0.73
		l2.05-1.44l1.08,0.49l2.76-1.08l1.68,0.73l2.05-0.49l2.83,1.19l-0.36-1.99l-2.7-2.17l-0.73-2.53l-3.25-1.08l-1.31-1.02l-0.67-1.86
		l-2.17-0.36l-0.36-1.81l-1.25-0.36v-3.61l-1.9-1.62l-0.39-1.57l-2.66,0.36l-2.76,3.01l-1.57,1.81l-1.93,1.44l-3.78,0.54l-0.36,2.53
		l-6.13,1.62l-1.37-0.49l-2.17,0.12L650.17,504.36L650.17,504.36z"/>
	<path id="sn" fill="#54565b" stroke="#54565b" stroke-width="1" stroke-miterlimit="10" d="M550.17,477.65l-0.12,1.93l-2.05,1.44
		l1.57,3.84h3.37l2.05-0.73l1.44,1.31l1.57,0.24l-0.12,0.49h-2.29l-1.2-0.49l-3.37,0.85l-1.93,0.24l-0.24,2.41l3.97-0.24l1.81-1.08
		l5.54,0.12l2.29,0.85l4.4,0.54l-0.18-2.23l-0.73-2.29l-1.68-1.2l-1.2-1.68l-3.49-3.01l-0.73-1.2l-1.81-0.6l-1.75-1.31l-5.24,0.36
		L550.17,477.65L550.17,477.65z"/>
	<path id="gw" fill="#54565b" stroke="#54565b" stroke-width="1" stroke-miterlimit="10" d="M549.57,489.8l2.05,0.73l1.31,0.6
		l0.6,2.76l1.08-0.96l1.44-1.68l2.05-0.36l-0.12-1.31l0.96-1.44l-4.34-0.24l-1.81,1.08l-3.97,0.24L549.57,489.8L549.57,489.8
		L549.57,489.8z"/>
	<path id="gm" fill="#54565b" stroke="#54565b" stroke-width="1" stroke-miterlimit="10" d="M549.57,484.87l-0.49,1.93l4.93-1.08
		l1.93,0.36l1.93,0.12l0.12-0.49l-1.57-0.24l-1.44-1.31l-1.44,0.73h-3.96v-0.01h-0.01L549.57,484.87L549.57,484.87z"/>
	<path id="gn" fill="#54565b" stroke="#54565b" stroke-width="1" stroke-miterlimit="10" d="M554.14,494.26l1.08-0.6l0.73,1.68
		l1.57,1.68l1.31,0.73l0.49,1.44l1.93,0.24l1.2-1.68l1.08-1.08l1.44,0.24l1.2-0.96l0.6,0.36l1.57,3.73l-0.24,1.81l1.81-0.73
		l1.31,0.12l1.08,2.41l0.12,1.08h1.44l1.57-1.08l1.08-1.08l0.24-1.44l1.2-0.49l-0.85-3.01l-0.49-1.68l0.73-0.73l-2.23-1.5l0.18-2.17
		l-1.99-2.35h-1.44l-1.81,1.62l-3.25-1.44l-4.4-0.54l-2.29-0.85l-1.2,0.12l-0.96,1.44l0.12,1.31l-2.05,0.36l-2.53,2.66
		L554.14,494.26L554.14,494.26z"/>
	<path id="sl" fill="#54565b" stroke="#54565b" stroke-width="1" stroke-miterlimit="10" d="M565.21,507.25l1.44-2.66l1.68-1.19
		l0.85-0.85l0.12-0.96h-1.08l0.12-1.57l-1.57-3.73l-0.6-0.36l-1.31,1.2l-1.31-0.49l-1.08,1.08l-1.2,1.68h-1.44v1.93l0.85,1.44
		l0.96,0.49l0.49,1.93L565.21,507.25L565.21,507.25z"/>
	<path id="bf" fill="#54565b" stroke="#54565b" stroke-width="1" stroke-miterlimit="10" d="M586.15,495.94l2.53,1.31l0.6-0.6
		l2.53,0.24l1.31,1.44l-0.12-5.18l7.46-0.24l1.08-0.24l1.57,0.49l2.05,0.12l1.31-1.2l1.68-0.24l1.2-1.93l-0.31-1.25l-3.78-1.44
		l-0.54-1.44l-1.44-1.44l-0.31-4.15h-3.84l-3.84,3.25l-4.09,1.99l-1.44-0.18l-1.2,1.19l-1.2,3.25l-1.93,0.96l-0.73,1.81l-0.18,1.99
		L586.15,495.94L586.15,495.94L586.15,495.94z"/>
	<path id="lr" fill="#54565b" stroke="#54565b" stroke-width="1" stroke-miterlimit="10" d="M574.72,507.84l2.41,0.96l1.93,1.68
		l-0.6,3.13l-0.36,1.08l-4.69-1.68l-2.29-2.17l-2.41-1.93l-1.68-0.85l-1.81-0.85l1.44-2.66l2.53-2.05l0.12-0.96l1.93-0.36l1.08,2.41
		l0.12,1.08h1.44l1.2-0.73l0.6,2.05l-0.12,1.08L574.72,507.84L574.72,507.84z"/>
	<path id="ci" fill="#54565b" stroke="#54565b" stroke-width="1" stroke-miterlimit="10" d="M580.14,514.46l4.57-2.17l5.05-0.12
		l2.53-0.24l0.96-0.24l-0.12-1.81l-1.2-2.89l1.2-3.49l0.73-2.76l-0.73-2.41l-0.96-1.31l-2.89-0.36l-0.6,0.6l-4.15-2.83l-1.81,1.08
		l-0.73-1.44l-1.75,1.5l-2.89-0.36l-0.73,0.73l1.31,4.69l-1.2,0.49l-0.24,1.44l-1.44,1.44l0.6,2.05l-0.12,1.08l-0.85,0.73l4.34,2.29
		l-0.96,4.57L580.14,514.46L580.14,514.46L580.14,514.46z"/>
	<path id="gh" fill="#54565b" stroke="#54565b" stroke-width="1" stroke-miterlimit="10" d="M602.74,495.21l-0.24,3.13l0.85-0.12
		v2.89l0.36,3.49l0.24,2.17l1.68,2.05l-1.08,1.2l-3.01,0.36l-2.76,1.44l-2.17,0.73l-1.81,0.85l-1.2-0.73l-2.17-0.6l1.81-0.36
		l-0.12-1.81l-1.2-2.89l1.93-6.26l-0.73-2.41l-0.12-5.18l7.46-0.24l1.08-0.24l0.49,1.2L602.74,495.21L602.74,495.21z"/>
	<path id="tg" fill="#54565b" stroke="#54565b" stroke-width="1" stroke-miterlimit="10" d="M604.44,494.61l1.81,2.76l0.73,3.73
		l0.49,5.54l0.36,1.44l-2.17,0.73l-1.68-2.05l-0.6-8.07l-0.85-0.36l0.36-2.89l-1.31-2.76l3.01,0.73L604.44,494.61L604.44,494.61z"/>
	<path id="bj" fill="#54565b" stroke="#54565b" stroke-width="1" stroke-miterlimit="10" d="M610.69,507.73l-0.12-8.54l2.17-2.41
		l0.73-2.53h0.36l-1.31-2.89l-2.17-1.81l-1.08-0.18l-0.73,2.35l-2.05,0.36l-1.44,1.57l-0.49-0.24l-0.12,1.19l1.81,2.76l0.6,3.01
		l0.6,6.02l0.36,1.68L610.69,507.73L610.69,507.73z"/>
	<path id="ng" fill="#54565b" stroke="#54565b" stroke-width="1" stroke-miterlimit="10" d="M615.15,508.09l2.76,2.66l0.6,3.84
		l4.2,0.12l4.2-0.96l0.99-0.6l1.4-0.86l0.73-2.89l3.97-3.61l3.37,1.68l3.01-5.66l1.57-1.93l1.2-2.53l0.96-2.17l1.08-2.17l1.68-1.08
		l-0.36-2.41l-0.6-3.01l-2.05-1.81l-2.89,1.57l-2.53-0.54l-3.37,0.91l-3.97,1.57l-4.02-2.11l-3.31,0.42l-1.75-1.86l-6.31-0.36
		l-0.71,1.8l-2.17,2.53l-0.36,2.7l1.2,2.41l-0.96,3.01l-1.81,2.17l-0.24,8.78L615.15,508.09L615.15,508.09z"/>
	<path id="cm" fill="#54565b" stroke="#54565b" stroke-width="1" stroke-miterlimit="10" d="M631.99,517.72l0.12,3.25l15.29,0.12
		l3.13,0.85l1.93,0.96l-0.12-1.57l0.24-1.68l-2.89-2.53l-0.24-1.93l-2.66-6.02h0.73l3.07-5.36l-1.5-2.94l-2.83-1.93l-0.36-2.35
		l4.34-0.73l-1.25-1.62l-0.49-3.73l-1.14-2.94l-1.14-0.42l0.73,4.82l-1.68,1.08l-3.25,7.22l-1.57,1.57l-3.01,5.66l-3.01-1.57
		l-4.34,3.49l-0.73,2.89l-1.68,1.08l0.73,1.44l0.6-0.49l0.85,1.57l1.93-0.49l-0.49,1.68L631.99,517.72L631.99,517.72z"/>
	<path id="gq" fill="#54565b" stroke="#54565b" stroke-width="1" stroke-miterlimit="10" d="M637.41,521.1l-0.49,4.09l-3.49-0.36
		l-0.49,0.96l-1.08-0.73l-1.2-0.49l1.44-3.61L637.41,521.1L637.41,521.1z"/>
	<path id="ga" fill="#54565b" stroke="#54565b" stroke-width="1" stroke-miterlimit="10" d="M643.19,521.1l0.24,3.25l3.37-0.49
		l-0.12,1.81l-0.85,1.31l-0.49,1.31l0.36,1.31l1.57,0.49l-0.36,4.34l-1.2,1.31l-1.44-0.49h-1.81l-1.81-1.44l-0.12,1.81l-1.68-0.36
		l-0.96,0.73l0.49,1.81l0.96,0.36l-0.6,1.81l-1.57-0.12l-0.85,0.73l-6.13-6.49l-1.57-3.37l1.68-0.96l-0.12-3.25l1.68-1.44l0.73,0.73
		l0.85-0.96l3.49,0.36l0.49-4.09h5.8v-0.01L643.19,521.1L643.19,521.1L643.19,521.1L643.19,521.1L643.19,521.1z"/>
	<path id="cd" fill="#54565b" stroke="#54565b" stroke-width="1" stroke-miterlimit="10" d="M659.67,516.39l-0.12,1.93l-1.57,4.69
		l-1.2,3.13v3.01l-4.93,5.78l-0.12,4.34l-3.49,3.61l-1.57-1.44l-1.81,1.08l-1.44,0.85h-1.08l-1.08,1.57l-1.31,1.31v1.68l2.76-1.08
		l0.85-1.08l2.05,0.96l7.83-0.12l1.08,4.46l2.41,1.93l5.66-0.12l0.12-1.31l-0.24-1.19l3.61-0.6v1.57l3.97-0.24l-0.24,1.57l0.6,2.89
		l-0.96,2.17l1.93,3.13l0.12,1.2l5.18,0.6h1.2l0.36,0.73l1.81-0.73l1.68,1.31l3.37,1.31l1.2-1.2l2.05,1.57l0.96,0.73l1.2,1.19
		l1.93,1.68l2.05,0.24l0.73-0.6l-0.36-3.25l-2.17,1.2l-1.68-1.44l-0.49-1.68l0.73-2.76l0.12-2.17l-0.24-1.2l1.31-2.41l5.05-1.2
		l0.7,0.33l-1.25-3.7l-2.35-2.35l-0.09-1.99l-0.73-2.53l0.18-1.54l-0.9-3.7l0.18-1.08l-0.54-2.17l0.49-1.37l1.6-1.14l0.09-5.96
		l4.97-5.69l-1.22-0.7l-0.24-2.76l0.36-0.6l-3.66-3.25l-3.31,0.96l-5.66-2.89l-2.05,0.49l-1.68-0.73l-2.76,1.08l-1.08-0.49
		l-2.05,1.44l-2.89-0.73l-1.2,1.93l-5.9-1.31l-3.97-1.44l-2.17,2.76L659.67,516.39L659.67,516.39z"/>
	<path id="cg" fill="#54565b" stroke="#54565b" stroke-width="1" stroke-miterlimit="10" d="M654.86,516.03l4.46,0.36l0.24,1.93
		l-2.76,8.18v2.66l-4.93,5.78l-0.12,4.34l-3.49,3.61l-1.93-1.44l-2.89,1.93h-1.08v-1.2l-1.08-0.12l-2.29,1.81l-1.08-1.68l-1.57-1.57
		l0.85-0.73l1.57,0.12l0.49-1.57l-0.85-0.6l-0.49-1.81l0.96-0.73l1.68,0.36l0.49-1.68l1.31,0.96l1.93,0.36l1.44,0.49l1.2-1.31
		l0.36-4.34l-1.57-0.49l-0.36-1.31l0.49-1.31l0.85-1.31l0.12-1.81l-3.37,0.49l-0.24-3.25h4.2l3.13,0.85l1.93,0.96l-0.12-1.57
		l0.24-1.68L654.86,516.03L654.86,516.03z"/>
	<path id="zm" fill="#54565b" stroke="#54565b" stroke-width="1" stroke-miterlimit="10" d="M676.27,562.6v2.53l0.24,1.93
		l-0.36,1.44l-5.78-0.24l0.24,11.19l1.68,1.31l1.57,1.08l0.49,0.96l4.93-0.24l0.85,0.96l5.29,0.85l4.34-3.84l1.68-0.49l0.73-2.53
		l3.61-1.2l-0.36-1.19l9.51-3.49l-0.49-1.68l0.6-2.29l0.96-0.73v-3.73l1.31-1.81l-2.41-4.43l-3.34-0.64l-4.12-2.41l-5.05,1.2
		l-1.31,2.41l0.24,1.68v2.53l-0.85,1.93l0.49,1.31l1.68,1.81l2.05-0.85l0.49,2.89l-0.6,0.36h-2.17l-3.13-2.89l-3.01-2.29l-1.2,1.2
		l-3.37-1.31l-1.68-1.31l-1.81,0.73l-0.36-0.73L676.27,562.6L676.27,562.6L676.27,562.6z"/>
	<path id="mw" fill="#54565b" stroke="#54565b" stroke-width="1" stroke-miterlimit="10" d="M709.49,573.43l0.36,2.66l-0.49,2.53
		l1.81,2.05l0.6,1.19l0.73-2.89l0.96-1.08l0.6-4.09l-3.25-3.61l-1.2-2.17l0.73-4.28l-0.73-3.78l-0.99-1.62l-3.7-1.35l2.05,4.06
		l-0.96,2.17v3.73l-0.96,0.73l-0.6,2.29l0.49,1.68l1.44,1.08l0.73,1.08l1.2-0.49L709.49,573.43L709.49,573.43z"/>
	<path id="mz" fill="#54565b" stroke="#54565b" stroke-width="1" stroke-miterlimit="10" d="M696.49,576.55l0.85,1.57l2.89,0.12
		l2.17,1.2l1.68,0.73l0.73,2.76v3.49l-1.08,1.2l1.08,1.68l0.12,2.05l-1.44,2.53l-1.08,2.29l-2.66,3.73l1.57,2.41l-0.24,1.93
		l1.81,5.29l-0.49,2.29l0.24,2.76l1.93-0.24l-0.24-1.93l-0.49-0.12l0.73-1.68l3.37-1.08l3.37-2.17l0.73-3.84l0.36-5.29l-1.44-0.96
		l-0.12-2.66l-1.44-1.93l0.73-1.93l2.53-1.08l1.68-2.05l1.93-0.12l0.6-2.89l3.73-1.81l3.49-1.08l1.68-1.68l2.05-2.41l1.68-2.41
		l-0.24-2.05l-0.49-1.08l-0.36-6.13l-0.24-2.41l0.42-1.9l-4.6,0.91l-1.81,0.91l-1.25-0.91l-0.99,1.25l-4.87,0.09l-0.28-0.64
		l-2.17,0.46h-2.26l-0.73,4.28l1.2,2.17l3.25,3.61l-0.6,4.46l-0.96,1.08l-0.73,2.53l-1.08-1.44l-1.31-1.81l0.49-2.53l-0.36-2.66
		l-1.2-0.12l-1.2,0.49l-0.73-1.08l-1.44-1.08l-9.14,3.61v1.08L696.49,576.55L696.49,576.55z"/>
	<path id="mg" fill="#54565b" stroke="#54565b" stroke-width="1" stroke-miterlimit="10" d="M755.58,565.73l-1.81,2.76l-0.36,1.44
		l-2.89,0.36l0.24,2.53l-1.2,1.68l-1.31,1.57l-2.17,0.96l0.96,1.81l-2.17-0.73l-3.37,0.6l-1.08,0.6l0.24,1.31l-1.68,2.05l0.24,3.25
		l0.73,2.53l1.08,2.41l-1.08,2.29l-1.08,1.68l-0.96,1.44l-1.2,1.57l0.6,4.34l1.57,1.57l-0.96,1.93l1.81,2.53l1.68,1.19l1.68,1.68
		l1.81-1.44l2.41-0.24l2.29-2.29l1.68-6.26l2.53-8.78l2.53-6.97l0.24-2.89l0.6-1.93l-0.12-2.53l0.49-0.85l0.73,1.2l0.85-1.57
		l-0.24-2.76l-0.36-3.37l-1.68-3.13L755.58,565.73L755.58,565.73z"/>
	<path id="zw" fill="#54565b" stroke="#54565b" stroke-width="1" stroke-miterlimit="10" d="M680.85,584.02l0.36,1.44l0.85,0.6
		l1.31,3.13l0.85,1.44l2.05,0.73l1.44,1.2l1.08,0.85l0.12,1.81l2.66,1.68l1.57,1.2l2.89,0.12l3.73,1.68l3.01-4.2l2.17-4.34
		l-0.12-2.05l-1.08-1.68l1.08-1.68v-3.01l-0.73-2.76l-3.84-1.93l-2.89-0.12l-0.85-1.57l-0.73-0.24l-3.61,1.2l-0.73,2.53l-1.68,0.49
		l-4.34,3.84L680.85,584.02L680.85,584.02z"/>
	<path id="na" fill="#54565b" stroke="#54565b" stroke-width="1" stroke-miterlimit="10" d="M638.38,582.21l2.76-0.49l2.17-0.24
		l2.41,1.08h12.77l3.37,1.31l8.43,0.49l4.09-1.57l4.93-0.24l1.57,1.44h-1.57l-1.31,0.6l-2.41,1.57l-1.31-1.2l-6.02,0.96l-0.6,0.24
		v11.68l-2.89,0.24l0.12,22.26l-1.93,0.49l-0.49,0.85h-3.01l-3.01-0.36l-1.31-1.81h-0.73l-1.2,1.68l-3.37-3.49l-1.44-3.84
		l-0.85-3.37l-0.12-2.66l-0.85-2.89l-0.12-3.25l0.12-1.19l-1.2-2.41l-1.31-1.44l-2.17-5.05l-0.85-2.66l-2.53-2.53L638.38,582.21
		L638.38,582.21z"/>
	<g id="ao">
		<path id="path4103" fill="#54565b" stroke="#54565b" stroke-width="1" stroke-miterlimit="10" d="M644.86,561.75l-0.73,4.34
			l-1.44,2.53l-2.17,2.66l-1.31,5.05l-1.31,3.84l0.49,2.05l4.57-0.73l2.76,1.08h12.77l3.37,1.31l8.43,0.49l4.09-1.57l-0.49-0.96
			l-3.01-2.05l-0.49-11.55l5.78,0.24l0.36-1.44l-0.24-4.46l-4.82-0.6l-0.12-1.2l-1.93-3.13l0.96-2.17l-0.6-2.89l0.24-1.57h-3.73
			l-0.24-1.31l-3.61,0.6l0.24,1.19l-0.12,1.31l-4.93,0.12L654.5,551l-1.08-4.46l-7.83,0.12l-2.05-0.96l-0.85,1.08l-2.76,1.08
			l1.93,2.89l0.24,1.68l1.31,2.66l-1.08,2.05l0.73,3.37L644.86,561.75L644.86,561.75z"/>
		<path id="path4105" fill="#54565b" stroke="#54565b" stroke-width="1" stroke-miterlimit="10" d="M638.98,543.83l0.96,2.41
			l1.68-1.93l0.73-0.96v-1.2l-1.08-0.12L638.98,543.83L638.98,543.83z"/>
	</g>
	<path id="bw" fill="#54565b" stroke="#54565b" stroke-width="1" stroke-miterlimit="10" d="M664.84,608.51l1.99,2.35v2.7
		l0.18,1.25l4.51-0.54l0.54-1.99l2.35-2.89l0.9,0.54l4.15,0.73h2.53l1.44-3.07l1.08-0.36l1.62-3.61l3.25-3.07l2.17-1.62l1.57-0.85
		l-4.2-2.89l-0.12-1.81l-2.53-2.05l-2.05-0.73l-2.17-4.57l-0.85-0.6l-0.36-1.44h-1.57l-3.73,2.17l-1.31-1.19l-6.61,1.19v11.68
		l-2.89,0.24L664.84,608.51L664.84,608.51z"/>
	<path id="za" fill="#54565b" stroke="#54565b" stroke-width="1" stroke-miterlimit="10" d="M670.62,640.99h3.25l1.81-0.54
		l3.25,1.08l1.99-1.25l1.44-0.91l3.25-0.36l2.35-1.44l1.99-1.81l3.43-3.07l2.53-2.89l4.15-6.67l3.25-3.25l1.25-5.54l-1.93,0.24
		l-0.96,1.86l-3.43-0.54l-0.18-2.53l1.08-2.35h3.07l0.67-1.5l-1.37-5l-0.73-1.08l0.54-1.14l-1.57-2.41l-3.73-1.68l-2.89-0.12
		l-6.97,5.54l-1.62,3.61l-1.08,0.36l-1.44,3.07l-3.78-0.18l-2.89-0.54l-0.9-0.54l-2.35,2.89l-0.54,1.99l-4.51,0.54l-0.18-3.97
		l-1.99-2.35v11.85l-1.93,0.49l-0.49,0.85h-3.01l-3.01-0.36l-1.31-1.81h-0.73l-1.2,1.68l1.2,3.01l0.9,3.61l1.99,2.7l1.08,2.53
		l-0.18,3.25l-1.44,0.36l1.44,2.35l1.81,2.53l2.53,1.81l0.9,0.54l2.89-1.25l2.89-0.18L670.62,640.99L670.62,640.99L670.62,640.99z"
		/>
	<path id="ls" fill="#54565b" stroke="#54565b" stroke-width="1" stroke-miterlimit="10" d="M691.02,620.86l-1.25,0.91l-1.25,0.36
		l-2.17,2.17l0.54,1.35l1.08,1.72l1.25,0.91l0.64-1.35l1.54-0.73l1.25-0.64l0.18-1.62l0.36-1.17l-1.08-0.99L691.02,620.86
		L691.02,620.86z"/>
	<path id="sz" fill="#54565b" stroke="#54565b" stroke-width="1" stroke-miterlimit="10" d="M702.4,612.47l0.28-1.81l-3.25,0.28
		l-1.17,1.99v2.98l3.52,0.28l0.88-1.6L702.4,612.47L702.4,612.47z"/>


	<path id="sd" fill="#54565b" stroke="#54565b" stroke-width="1" stroke-miterlimit="10" d="M677.76,501.53l1.21-3.03l0.13-1.27
		l1.35-1.97l2.54-0.25l1.26,2.27l0.22,0.6l1.57,0.17l0.88-0.43l2.5,0.3l0.62,0.56l2.19,0.04l0.75-0.9l1.57,0.13l-0.44-1.49
		l2.02-0.77l3.23,2.01l1.26-0.52l2.15-2.9l1.39-1.02l-0.53-0.77v-1.8l-0.53-0.9l1.88,0.04l-0.04-0.69l1.79,0.13l-0.49,1.45
		l0.31,3.29l2.45,2.31l-0.22-0.09l0.35-2.1l2.39-0.54l0.37-2.42l2.17-3.57l1.51-0.52l0.77-6.83l1.49-3.67l1.15-3.33l1.49-0.91
		l1.9-1.37l-3.26-2.48l-0.39-6.11l-0.5-2.39l-0.73-2.14l-2.41-1.79l-0.88-1.06l-0.51-0.45l-0.84,0.58l-1.07,0.3l-1.09,1.86
		l-1.26,0.24l-0.88,1.49l-1.57,0.07l-0.98-0.54l-6.25-0.13l-0.15-0.62l-0.28-0.09l0.04,0.82l-19.1-0.09l0.04,6.61l-3.26-0.43
		l-0.46,1.33l0.02,13.13l-2.71-0.54l-0.6,1.88l-2.03,2.7l0.37,2.01l-1.66,2.05l1.95,0.62l0.39,3.57l1.68,1.58l0.04,1.47l1.99,1.6
		v3.57l1.21,0.34L677.76,501.53L677.76,501.53z"/>
	<path id="ss" fill="#54565b" stroke="#54565b" stroke-width="1" stroke-miterlimit="10" d="M677.75,501.49l1.21-3.03l0.13-1.27
		l1.35-1.97l2.54-0.25l1.26,2.27l0.22,0.6l1.57,0.17l0.88-0.43l2.5,0.3l0.62,0.56l2.19,0.04l0.75-0.9l1.57,0.13l-0.44-1.49
		l2.02-0.78l3.23,2.01l1.26-0.52l2.15-2.9l1.39-1.02l-0.53-0.77v-1.8l-0.53-0.9l1.88,0.04l-0.04-0.69l1.79,0.13l-0.49,1.45
		l0.31,3.29l2.45,2.31l-0.17,0.32l-1.02,5.3l-1.88-0.02l0.94,2.58l0.9,0.37l2.97,3.4l1.84,3.52l-6.45,5.51l-6.9,0.54l-4.04-3.46
		l-3.8,0.73l-2.28-1.25l-0.35-1.94l-2.8-2.16l-0.79-2.66l-3.42-1.09l-1.2-1.33l-0.81-1.56l-2.13-0.39L677.75,501.49L677.75,501.49z"
		/>
</g>

</svg>
