<svg version="1.1" id="Layer_1" xmlns="http://www.w3.org/2000/svg" xmlns:xlink="http://www.w3.org/1999/xlink" x="0px" y="0px" viewBox="0 0 1200 760" enable-background="new 0 0 1200 760" xml:space="preserve">
<g id="asia">
	<path id="lk" fill="#54565b" stroke="#FFFFFF" stroke-width="1" stroke-miterlimit="10" d="M852.32,497.73l-0.24,3.25l-0.85,2.17
		l0.49,2.76l0.24,2.53l0.6,0.96l3.49-0.36l1.68-1.19l0.36-3.37l-1.44-1.2l-0.49-1.44l-1.2-1.68l-0.73-1.2l-1.2-0.6L852.32,497.73
		L852.32,497.73z"/>
	<path id="kr" fill="#54565b" stroke="#54565b" stroke-width="1" stroke-miterlimit="10" d="M997.92,414.12l-0.85-2.76l1.31-3.01
		l-1.08-2.05l0.49-1.14l-1.08-0.18l1.68-1.2l-0.54-1.57l0.31-1.5l1.5-0.31l1.08,0.12l1.62-1.5l0.36-1.37l2.47,3.31l1.57,3.31
		l-0.12,3.43l0.67-0.12l-0.73,2.11l-2.83,2.11l-1.93,0.24l-1.5,0.49l0.12,0.96l-1.14-0.18L997.92,414.12L997.92,414.12z"/>
	<path id="kp" fill="#54565b" stroke="#54565b" stroke-width="1" stroke-miterlimit="10" d="M1002.73,397.63l-1.14-2.11
		l-1.14-0.54l0.49-1.02l0.18-1.37l3.37-2.17l3.01-1.81l0.36-2.47l-0.24-0.73l1.57-2.59l1.44-0.67l-1.14-1.2l-0.49-1.31l-1.44,0.24
		l0.31,1.37l-1.31,1.14l-1.68,1.57l-2.05-0.31l0.78,1.68h-2.23l-1.31-0.42l-0.85-0.85l-0.96,1.68l-2.94,2.53l-2.94,2.17l-1.25,1.81
		l0.49,0.73l2.17,0.49l0.85,0.96l-0.06,1.25l-0.49,1.44l-1.62,2.05l0.67,0.49l0.73,0.6l0.6,0.67l1.02-0.73l1.2,0.73l1.2,0.31
		l0.49-0.73h2.23l1.68-1.19L1002.73,397.63L1002.73,397.63L1002.73,397.63z"/>
	<g id="jp" transform="translate(-0.1495753,-0.00918063)">
		<path id="path3677" fill="#54565b" stroke="#54565b" stroke-width="1" stroke-miterlimit="10" d="M1011.73,414.92l1.25-1.54
			l3.52-2.26l0.9-1.54l2.53,0.28l4.24-0.28h2.45l0.91-1.35l1.35-2.26l0.73-1.99l0.09-1.35l1.9-0.73l-0.82,1.54l-0.18,1.08l1.54-0.18
			l3.07-1.72l2.98-3.78l1.54-3.16l0.18-0.99l0.36-1.72l-0.64-1.17l0.28-1.99l0.99-1.62l0.28-0.99h0.99l0.28,1.17l0.82-0.28
			l0.54-0.82l-0.82-0.18l-0.46-0.73l0.64-0.73l1.54,0.64l-0.18,1.99l0.18,1.54l1.54,1.72l0.09,2.26l-0.46,2.35l-1.17,1.54
			l-0.28,1.72l-0.99-0.73v1.9l0.09,2.7l-0.54,1.08l-1.08,1.17l0.36,2.26l0.64,1.25l-1.72,1.9l-1.44,0.82l-0.46,0.91l-0.36-1.25
			l-0.18-0.64l1.08-0.36v-1.08l-0.73-0.64l-0.73,1.35l-0.64,0.99l-0.54,0.73l-0.18,1.35l-0.99,0.18l-0.36-1.17l0.18-0.99l-1.08,1.54
			l-0.82,0.64l-2.98-0.18l-0.64-0.54l-0.54-1.17l-0.54,1.62l0.82,0.99l-0.99,1.08l-0.99,1.08l-0.91,1.44l-1.54-0.46l-0.9-0.99
			l-0.46-1.08l1.08-0.73l0.28-1.25l-1.08-0.46h-1.81l-1.54,0.82l-0.46,0.46l-1.9-0.28l-0.64,0.64l-2.35,0.36l-0.09,0.91h-2.35
			l-1.35-0.09L1011.73,414.92L1011.73,414.92z"/>
		<path id="path3679" fill="#54565b" stroke="#54565b" stroke-width="1" stroke-miterlimit="10" d="M1011.55,415.74l-1.35,0.54
			l-0.64,0.91l-1.54,0.36l-0.64,1.08l0.36,1.35l0.64,0.73l0.73-0.54l0.73,0.36v-1.54l0.73,1.17v1.62l-0.9,0.36l-0.99,0.91l0.54,1.08
			l0.82,0.18l-0.73,1.08l1.35,0.82l0.73-1.17l-0.18-1.08l0.9,1.35l-0.09,0.99l1.08-1.25l0.46-1.54l-0.28-1.35l1.44-1.81l0.64-1.08
			l-1.17-1.08l-1.08,0.09l0.64-0.91l-1.25-0.46L1011.55,415.74L1011.55,415.74z"/>
		<path id="path3681" fill="#54565b" stroke="#54565b" stroke-width="1" stroke-miterlimit="10" d="M1015.42,417.82l1.17,0.54
			l0.28,1.17l1.35,0.82l0.46-1.72l0.54-0.82l1.99,0.09l0.82-0.54l0.99-1.08l0.18-1.08l-0.36-1.17l-1.81,0.09l-1.08,0.46l-0.36,1.17
			l-1.35,0.36l-1.25,0.28l-0.54,0.99L1015.42,417.82L1015.42,417.82z"/>
		<path id="path3683" fill="#54565b" stroke="#54565b" stroke-width="1" stroke-miterlimit="10" d="M1040.15,386.23v-1.35
			l0.18-1.17l-0.73-0.73v-1.35l0.99-1.25l1.08-0.64l-0.28-2.45l1.08,1.44l1.44,0.28l1.08-1.81l-0.64-0.91l1.17-1.08l-0.46-1.25
			l0.73-1.81l-0.64-2.45l1.44-1.62l1.25,0.18v1.44l0.46,1.62l1.72,1.72l2.53,1.25l0.99,0.82l0.46,0.54l1.62-0.28l1.17-1.17
			l0.28,1.44l-0.55,1.37l0.36,0.91l0.82-0.46l-0.46,1.17l-1.9,0.82l-1.44,0.82l-1.25-0.18l-1.44,0.64l-0.64,1.54l-0.46,1.9
			l-3.07-1.72l-0.82-0.64l-1.25-0.91l-0.99,0.99l-0.91,0.54l-1.35-0.73l-0.99,0.54l1.08,0.73l1.35,0.91l0.82,1.08l-1.35,0.36
			l-0.91-0.18l-0.64,0.91l-0.82,0.64L1040.15,386.23L1040.15,386.23z"/>
		<path id="path3685" fill="#54565b" stroke="#54565b" stroke-width="1" stroke-miterlimit="10" d="M1007.94,435.5l-2.08,0.28
			l-0.18,0.99l1.17,0.54L1007.94,435.5L1007.94,435.5z"/>
		<path id="path3687" fill="#54565b" stroke="#54565b" stroke-width="1" stroke-miterlimit="10" d="M1003.33,441.2l-1.62,0.91
			l-0.28,0.73l1.35-0.28L1003.33,441.2L1003.33,441.2z"/>
	</g>
	<g id="cn" transform="translate(-2037.3478,-20.766514)">
		<path id="path3691" fill="#54565b" stroke="#54565b" stroke-width="1" stroke-miterlimit="10" d="M3014.82,354.61l1.93-3.13
			l2.41-0.36l3.49-0.12l3.13-0.73l2.89,1.31l1.93,1.44l0.36-0.73l2.29,2.05l0.85,2.29l1.44,3.25l1.68,3.84l1.19,2.53v2.05l0.96,0.96
			l3.01,0.49l1.93,0.36l1.08,2.17l1.43,1.57l0.85-0.24l-0.36,1.57l0.85,0.96l0.24,2.17l0.85,0.85l2.17-0.12l1.93-0.49l2.17-0.96
			l2.29-0.6l1.81-0.36l2.41-0.85l-0.96,1.93l-0.36,2.17l-1.08,1.19l-0.49,1.81l-0.36,1.57l-1.2,2.29l-0.96,2.76l-1.08,1.08
			l0.12,1.19l-1.44-0.6l-2.29-0.73l-0.73,0.6l-1.08,1.81h-0.6l0.49,2.66l-0.12,2.17l-0.49,1.44l-0.12,1.08l-1.31,0.96l-1.08,0.54
			l-0.49-1.31l-1.44,0.24l0.36,1.02l-0.96,1.31l-2.11,1.75l-2.05-0.31l0.54,1.19l-1.68,0.36l-1.68-0.6l-0.96-0.85l-1.08,1.93
			l-1.93,2.05l-2.29,1.68l-1.81,1.57l-0.85,1.25l-0.85,0.42h-2.41l-1.93,0.49l-1.68,1.19l-0.36,1.2l-0.6,0.73l-1.31-0.36l0.24-1.2
			l-0.85-0.24l-0.12-0.96l0.36-0.73l1.57-0.73l0.73-1.19l0.24-1.2l-0.12-0.49l-1.2-0.73h-1.68l-1.08,0.49l-0.73,1.44l-1.08,0.85
			l-1.93,0.85l-1.43,0.96l0.24,1.44l-1.44,0.85h-1.43l-1.2-0.36l-0.85,0.85l-0.6,1.57l0.24,1.44l0.96,0.6l0.73,0.85l1.08-0.24
			l1.08,0.73l0.12,1.08l0.36,1.08l0.6,0.73l0.85-1.2l0.49,1.2l1.08-1.2l0.85-0.85l1.44-0.85l1.19,0.49l0.73,0.96l0.96,0.36
			l0.96-0.49l1.08,0.36l1.31-0.12l-0.73,1.08l-0.12,1.19l-1.44-0.36l-1.57,0.24l-1.31,0.96l-0.85,0.85l-1.08,0.85l-1.08,0.12
			l-0.6,1.81l-1.31,0.96l-0.36,1.19l-0.73,0.85l1.93,1.19l1.31,0.6l0.73,1.2l0.36,1.93l0.96,1.2v1.19l0.12,0.96l1.81,1.2l0.24,1.19
			l1.44,1.08l-0.24,0.73l-1.31,0.24l0.85,0.85l1.2,0.96l-0.96,0.73l-2.29,0.24l-0.96,1.08l-0.12,1.08l2.76-0.24l1.08,1.31l0.49,0.49
			l-1.44,1.93v1.08l0.12,1.2l-0.6,1.31l-1.57,0.12l-1.19,1.08v1.44l-1.08,0.96l-1.31,0.49l-0.6,1.44v1.81l-1.31,1.2l1.57,1.08
			l-2.05,0.85l-1.68,1.68l-1.43,1.08l-0.73,1.19l-1.81,1.31l-1.57,1.2l-1.2,1.44h-2.21l-2.66,0.73l-1.57,0.49l-1.68-0.36l-1.08-1.31
			l-0.73,1.68l1.31,0.85l-1.08,0.85l-1.81,0.12l-2.05,0.73l-1.81,0.85h-1.93l-1.57,0.96l-0.12,1.57l0.49,1.31h-1.31l-1.2-1.57v-1.44
			l0.85-0.73l-1.44-0.73l-1.31,0.73l-1.44-0.36l-1.2-0.36l-0.73,0.12l-2.53-1.44l-1.57-1.2l0.36-1.57l-1.44-0.73l-2.53-0.49
			l-0.96-0.73l-1.68,0.85l-0.6,0.6l-2.17,0.12l-0.96,0.85l-1.31-0.24l-1.93-0.24l-0.6,1.31l-1.31,0.49v1.81l0.24,1.08l-2.05-0.24
			l-0.73-0.73h-2.05l-2.17-2.29l-0.73-0.49l0.24-1.81l-0.85-1.19l-0.85-3.13l-1.68,0.24l-2.17,0.36l-0.12-1.68l0.73-1.93l2.05-3.25
			l0.12-5.05l-1.68-0.6l-0.36-2.29l-3.49-0.12l-1.68-0.6l-0.24-0.96l-0.24-1.2l-0.12-0.85h-2.29l-0.85,0.6l-3.84,0.73l-1.68,2.05
			l-2.17,1.68l-1.44,0.49l-1.68-0.6l-2.89-0.85h-2.05l-1.57,0.85l-1.31,1.57l-0.36-1.57l-2.17,0.49l-2.66,0.12l-1.68-1.2l-1.31-1.44
			l-3.25-0.12l-0.96-1.44l-1.44-0.6l-1.31-0.6l-1.68,0.12l-1.08-1.31l-2.29-1.08l-1.68-1.2l-1.93-0.12h-1.08l-2.41-1.68l-1.43-0.73
			l-0.36-1.19l-1.43,0.12l-0.96-1.68l-0.36-1.19l-1.08-0.6v-0.6h2.05l0.36-2.89l-2.29-2.29l0.12-2.29l-1.2-1.57l-1.08-2.41
			l-1.93-1.57l-2.29-0.49l-1.44-1.68l-1.81-2.29l-2.53-0.12l0.73-2.53l-0.24-2.29l-1.43-1.44l-1.57,0.12l-0.73-2.89l0.36-2.17
			l2.41-0.96l2.76-1.93l1.68,0.85l2.89-2.66l3.25-0.49l1.68-1.31l2.76-1.44l1.68-0.49l1.08-1.93l0.24-2.76l0.49-0.85v-2.66
			l-0.73-1.93l0.85-1.31l-1.31-1.81l1.81-0.6l2.05-0.49l3.25,0.36l0.96-0.85l-0.96-2.53l1.57-3.73l1.81-2.76l2.53,0.36l1.31,0.49
			l2.66-0.73l0.6-2.53v-3.97l1.81-0.12l2.05-1.19l0.24-2.41h1.57l1.68,0.36l0.12,2.05l2.17,2.53l0.73,1.68l1.44-0.36l1.19,0.49
			l1.57-0.12l1.81,3.25l1.08,2.17l-0.12,3.37l-0.73,1.81l0.24,1.81l2.89,1.57l5.78-0.49l3.37,2.89l2.17,2.29l2.05,3.73l3.13,0.96
			h2.17l2.53,0.96l5.78-0.73l3.73,0.24l1.57,1.57l2.76,0.6l1.31,1.31l2.89-0.24l1.68,0.85l3.37-2.05l4.93-1.31l6.73-0.24l1.31-1.31
			l5.18-4.2l-0.36-1.2l-0.96-1.08l0.96-2.89l1.68-0.24l3.01,0.96l1.08,1.2l1.81-1.93l2.41-1.2l2.89-1.08l1.2-1.68l1.2-2.05h1.81
			l1.93-1.31l3.25-0.12l3.01-1.19l-1.31-1.81l-1.93-2.05l-2.53-1.44l-2.29,1.31l-1.68-0.73l-2.76,0.6l-0.24-2.05l1.81-3.01
			l1.08-3.01l0.85-1.81l1.81,0.96l0.96,0.96l1.81-2.17l2.29-0.85v-1.68l1.31-3.61l2.17-2.53l0.85-3.13l-0.96-1.19L3014.82,354.61
			L3014.82,354.61L3014.82,354.61z"/>
		<path id="path3693" fill="#54565b" stroke="#54565b" stroke-width="1" stroke-miterlimit="10" d="M2986.38,485.87l-3.52-0.46
			l-2.45,0.54l-0.18,1.08l-1.35,1.25l0.46,1.81l2.17,0.91l2.08-0.28l1.17-1.54l0.36-1.72l1.44-0.73L2986.38,485.87L2986.38,485.87z"
			/>
	</g>
	<path id="tw" fill="#54565b" stroke="#54565b" stroke-width="1" stroke-miterlimit="10" d="M982.57,447.27l-2.17,0.6l-1.57,2.7
		l-1.25,1.93l-0.12,1.81l0.73,1.5l1.25,1.31v1.08l0.6-0.18l0.31-1.37l1.02-1.37l0.49-2.11l0.18-1.93l1.08-1.5l0.06-2.35
		L982.57,447.27L982.57,447.27z"/>
	<path id="mn" fill="#54565b" stroke="#54565b" stroke-width="1" stroke-miterlimit="10" d="M877.6,349.85l1.93-1.68l2.17-0.12
		l0.85-1.93l2.05,0.49l1.31-1.68h2.66l1.68-1.44l1.2,0.24l0.36-0.73l1.57,1.57l4.09-0.12l1.44,1.81l1.31,0.73l2.89-0.24l4.82,1.19
		l1.44-0.49l0.49-3.61l-1.31-0.6l-0.24-2.53l1.08-3.37l1.31,0.96l0.85-2.53l2.29,1.2l2.76,1.08l2.53,0.6l0.6,1.08l2.29,0.12v2.41
		l1.2,2.41l2.17,0.6h2.41l1.81-0.73l3.37,0.36l1.31,0.49h1.93l3.01,2.41l2.53,1.2l5.18,1.19h3l2.41-0.73l2.05-0.85l2.17-1.08
		l1.08-2.05l2.53-1.2l2.05,0.12l0.85,1.81l0.36,0.96l2.05-0.49h0.85l2.05,0.73l-1.68,3.49l-0.73,1.81l-1.2,2.17l0.12,2.41l2.17-0.73
		l1.08,0.49h1.81l1.68-0.96l1.93,0.96l1.57,1.68l2.05,2.05l0.24,0.6l-2.29,0.85l-1.57,0.73l-2.41-0.24l-1.93,1.31h-1.81l-2.41,3.73
		l-5.29,2.29l-1.68,1.57l-1.68-1.08l-2.53-0.73l-1.68,0.24l-0.96,2.89l0.96,1.08v1.08l-6.13,5.66l-6.36,0.12l-5.29,1.44l-3.37,2.05
		l-1.68-0.85l-2.89,0.24l-1.31-1.31l-2.76-0.6l-1.57-1.57l-4.09-0.12l-5.42,0.6l-2.53-0.96h-2.17l-3.13-0.96l-1.68-3.49l-5.9-5.42
		l-5.78,0.49l-2.89-1.57l-0.24-1.81l0.73-1.81l0.12-3.37l-2.53-5.42l-2.53,0.24l-0.96-0.85l-1.08,0.6l-0.73-1.68l-2.17-2.53
		L877.6,349.85L877.6,349.85L877.6,349.85z"/>
	<g id="ph" transform="translate(-0.1495753,-0.00918063)">
		<path id="path3699" fill="#54565b" stroke="#54565b" stroke-width="1" stroke-miterlimit="10" d="M979.14,469.43l1.44,0.18
			l0.28-0.54l1.81,1.08l1.35-0.46l0.64,0.18l-0.46,0.91l-0.46,0.64l0.73,1.62l0.73,0.99v1.54l-1.08,0.91l0.18,0.64l-1.81,1.08
			l-0.09,1.62l-0.64,0.64l1.08,0.54l0.73,0.73v0.99l-1.17-0.28l0.28,1.17l0.99,0.9l1.35-1.08h1.62l0.54,1.35l0.82-0.91l1.54,1.17
			l-0.82,0.82l0.73,1.08l1.17,0.82l-0.36,1.17l-1.9-0.99l-1.17-1.62l-1.62-1.25l0.36,1.9l-1.44-1.08l-1.35-0.46l-0.99,0.09
			l-1.62,0.28l-0.64-0.73l-0.82-0.18l0.46-1.81l0.46-0.91l-1.08-0.54l-0.73,0.91l-0.64-0.54v-1.9l-1.17-2.53v-0.99l1.44,1.08
			l0.9-0.46l-0.18-1.25l0.09-1.25l0.18-0.91l-0.46-0.99l0.36-1.25l0.46-1.54L979.14,469.43L979.14,469.43L979.14,469.43z"/>
		<path id="path3701" fill="#54565b" stroke="#54565b" stroke-width="1" stroke-miterlimit="10" d="M975.71,492.81l-0.82,1.17
			l-1.08,0.18l0.82,0.82l-0.36,0.64l-0.73,0.82l-0.82,0.91l-1.72,1.9l-1.72,0.99l-1.08,1.72l-0.46,1.17l1.35-1.17l1.44-0.64
			l0.99-1.35l1.35-0.99l0.82-1.54l-0.09-0.64l1.25,0.28l0.9-0.9l1.17-0.73l0.73-0.54l-1.35-0.09l-0.54-0.46l0.54-1.54h-0.63l0,0
			h0.03v-0.01L975.71,492.81L975.71,492.81z"/>
		<path id="path3703" fill="#54565b" stroke="#54565b" stroke-width="1" stroke-miterlimit="10" d="M981.58,486.96l-1.08-0.73
			l-1.17-0.28l-1.35,0.36l1.54,0.91l0.36,1.08l0.09,1.25l0.99,0.73l1.25-0.91l0.09-1.17l-0.54-0.73L981.58,486.96L981.58,486.96z"/>
		<path id="path3705" fill="#54565b" stroke="#54565b" stroke-width="1" stroke-miterlimit="10" d="M987.8,492.29l-2.45,0.36
			l-0.46-0.99l-1.25-0.54l0.09,1.81l0.09,1.08l-1.35,1.08l1.08,0.64l1.72-1.44l1.35-0.54l0.64-0.73L987.8,492.29L987.8,492.29z"/>
		<path id="path3707" fill="#54565b" stroke="#54565b" stroke-width="1" stroke-miterlimit="10" d="M990.87,489.02l0.36,1.35
			l1.17,0.73l0.82,0.82l-0.36,0.99l0.99,0.73l1.35,0.09l-0.54-1.54l-0.64-1.35l0.36-0.99l-1.35-0.91l-1.17-0.09L990.87,489.02
			L990.87,489.02z"/>
		<path id="path3709" fill="#54565b" stroke="#54565b" stroke-width="1" stroke-miterlimit="10" d="M987.9,494.27l-0.82,0.09
			l-0.46,0.64l-0.28,1.81l-1.08,0.36l-0.54,0.46l1.17,1.08l0.73,0.64l0.18,0.91l1.25-0.54l-0.64-1.08l-0.18-1.81l1.25-0.99
			l0.09-1.25L987.9,494.27L987.9,494.27z"/>
		<path id="path3711" fill="#54565b" stroke="#54565b" stroke-width="1" stroke-miterlimit="10" d="M989.89,493.72l-0.9,0.82
			l0.36,1.08l-0.54,0.99l-0.9,0.64l0.28,0.99l1.08-0.09l0.54-0.64l0.46,0.46l1.44-0.28l0.09-0.99l-1.54-0.18l-0.09-0.99l0.09-1.08
			L989.89,493.72L989.89,493.72z"/>
		<path id="path3713" fill="#54565b" stroke="#54565b" stroke-width="1" stroke-miterlimit="10" d="M991.6,491.73l-0.82,0.54
			l0.36,1.17l-0.18,1.62l0.73-0.18l0.54,0.73l0.36,1.35l0.9-0.54l0.64-0.36l-0.54-1.62l-0.09-0.91l-1.44-0.91L991.6,491.73
			L991.6,491.73z"/>
		<path id="path3715" fill="#54565b" stroke="#54565b" stroke-width="1" stroke-miterlimit="10" d="M988.35,501.13l-1.25,0.82
			l-0.99,0.28l0.64,1.17l-1.9,0.09l-1.08,0.82l-0.09,1.99l0.28,0.73l-1.62,0.54l1.54,1.25l1.25-0.91l-0.54-0.82l-0.18-0.54
			l0.73-1.08l0.64-1.08l0.82,0.99l1.08-0.09l0.82,0.09l-0.36-1.17l0.82-0.28l1.08,1.25l0.73,1.08l-0.64,1.17l1.08,1.9l1.25,0.28
			l1.62-0.46l-0.28,0.99l0.9,0.28l0.36-1.25l-0.54-1.54l0.28-0.91l0.54-0.64l0.82,0.91l0.82,0.82l0.54-1.35l0.36-1.35l-0.46-1.81
			l-0.28-0.73l0.28-1.35l-0.09-1.44l-0.73-0.64l-0.54-0.54l-0.18-0.99l-1.62,0.18l-0.46,1.44l0.9,0.91l-0.73,0.09l-1.81-0.09
			l-0.18,0.73l0.36,1.35l-0.9-0.64l-0.73,0.54l-0.54,0.91l-0.64-0.09l-0.09-1.54L988.35,501.13L988.35,501.13z"/>
		<path id="path3717" fill="#54565b" stroke="#54565b" stroke-width="1" stroke-miterlimit="10" d="M981.31,509.69l-1.25-0.28
			l-1.08,0.54l0.82,1.17l0.9-0.73L981.31,509.69L981.31,509.69z"/>
		<path id="path3719" fill="#54565b" stroke="#54565b" stroke-width="1" stroke-miterlimit="10" d="M987.26,488.85l-0.28,1.08
			v0.82l1.62-0.36l1.17,0.64l-0.36-1.25l-1.25-0.54L987.26,488.85L987.26,488.85z"/>
		<path id="path3721" fill="#54565b" stroke="#54565b" stroke-width="1" stroke-miterlimit="10" d="M990.61,484.16l0.09,1.08
			l0.46,0.54l1.25-0.82l-0.9-1.17L990.61,484.16L990.61,484.16z"/>
	</g>
	<path id="vn" fill="#54565b" stroke="#54565b" stroke-width="1" stroke-miterlimit="10" d="M921.74,456.46l1.44,0.96l0.96,1.08
		l0.12,1.57l0.73,1.44l3.49-0.24l0.49,1.08l0.49,1.31l0.96,0.49l-1.44,0.85l-1.44,0.36v1.81l1.44,1.08l1.57,1.2l2.29,3.25l2.05,1.44
		l1.08,1.68l1.44,1.57v1.68l0.36,1.31l0.12,1.68v1.44l0.49,1.81l0.12,2.89l-0.73,1.31l-1.93,1.08l-1.93,0.49l0.24,1.44l0.85,1.19
		l-1.31-0.12l-1.93-0.24l-1.31,0.96l-1.57,0.49l-0.96,0.12l-0.74,0.54l1.57,0.49l0.73,0.73l1.08,0.12l-0.85,1.93l-0.12,1.19v1.31
		l-0.36,0.49l1.81-0.73l0.96-1.31l1.31-1.31l1.81-0.36l-0.36-1.2l0.96-1.31l0.85-0.49l1.93,0.6l1.68-0.24l-0.24-0.85l1.31-1.08
		l1.57-0.96l0.49-1.68l0.12-1.81l0.6-0.96l-0.36-2.17l-0.12-0.96l-0.49-3.13l-1.44-1.81l-1.68-2.41l-1.2-1.44l-1.68-0.85l-1.31-2.17
		L934.8,472l-0.12-0.85l-0.96-1.44l-2.05-2.41l0.85-1.57l1.44-1.08l1.57-1.19l0.12-1.31l1.93-1.2l2.17-1.57l-4.09-2.66l0.36-1.57
		l-2.17-0.96l-1.81-0.24l-0.96-0.73l-1.57,0.49l-0.36,0.96l-1.08,0.12h-1.08l-1.31,0.85l-2.89-0.49L921.74,456.46L921.74,456.46
		L921.74,456.46z"/>
	<path id="la" fill="#54565b" stroke="#54565b" stroke-width="1" stroke-miterlimit="10" d="M917.9,458.87l-0.85,1.31l-1.44,0.24
		l0.12,1.44l-0.85,0.73v0.96l1.68-0.36l0.12,1.81l1.68,0.6l0.49,2.29l-0.36,1.93l-0.73,2.53l3.61-1.93l1.57,0.73l1.2-0.12l0.49-1.31
		l1.2,0.36l1.2,1.31l1.68,0.85l1.2,2.17l0.12,2.29l1.81,2.17l0.6,2.53l-0.96,1.08l1.93,1.2l1.68-1.31l1.57,0.36l1.2-0.6l-0.49-3.01
		v-1.68l-2.53-3.25l-2.41-1.57l-1.93-3.13l-3.01-2.29v-1.81l2.41-1.08l-0.49-0.6l-0.96-2.41l-3.49,0.24l-0.73-1.44l-0.12-1.57
		l-2.41-2.05l-1.31,0.49l0.24,2.89l-1.2-0.12l-0.85-0.12L917.9,458.87L917.9,458.87z"/>
	<path id="kh" fill="#54565b" stroke="#54565b" stroke-width="1" stroke-miterlimit="10" d="M931.49,482.46l-3.01-0.12l-2.76,0.36
		l-1.93,0.49l-0.73,2.41l0.49,1.93l0.24,2.05l-0.24,2.29l0.96,2.17l1.31-0.49l-0.36,1.57l0.24,0.85l1.44-0.49l1.2-0.6l3.37-1.44
		l2.76,0.24l-0.6-2.53l3.84-1.57l0.73-1.72l-0.49-3.1l-0.12-2.66l-1.2,0.6l-1.57-0.36l-1.68,1.31L931.49,482.46L931.49,482.46z"/>
	<path id="th" fill="#54565b" stroke="#54565b" stroke-width="1" stroke-miterlimit="10" d="M914.47,507.6l0.99,0.09l0.82-0.99
		l0.9,0.91l1.17,0.18l-0.18,1.62l2.08-0.64l0.64-0.09l-2.08-2.26l-1.17,0.18l-0.99-0.82l-1.08-0.82l-0.82-0.73l0.82-0.54l-0.46-2.17
		l-0.82,0.36l-0.46-2.35l-1.25,0.18l-1.08-1.62l0.54-2.08l0.36-1.08l0.73-0.82l0.18-1.62l0.73-1.17l0.18-0.64l0.54-0.36v-2.08
		l-0.36-1.25l0.64-1.54l1.9,0.36l0.64-0.46l-0.54,2.17l0.28,1.44l1.81-0.28l1.25,0.18l1.35,1.17l-0.18,0.99l1.35-0.82l0.73,0.91
		v-3.07l-0.73-2.45l0.93-2.5l3.13-0.67l2.08-0.09l2.5,0.03l0.67-1.02l-0.31-2.59l-2.05-2.11l0.12-2.35l-1.2-2.17l-1.68-0.85
		l-1.2-1.05l-1.2-0.64l-0.49,1.31L923,471l-1.57-0.73l-3.4,1.9l0.73-3.61l-0.18-2.08l-0.36-0.99l-1.25-0.82l-0.46-1.35l-1.57,0.09
		v-0.96l-1.78,0.7l-1.62,1.72l-2.53,0.09l-0.9,1.9l-1.35,1.25l1.35,1.62l0.46,1.99l0.36,1.35l1.72,0.82l0.09,2.8l0.28,2.35
		l-1.54,0.99l0.9,2.08l1.17,0.73l0.73,1.17l0.36,1.72l-0.28,1.54l0.36,0.99l0.73,0.73l-0.28,0.99l-0.09,0.64l-0.64,1.35l-0.9,1.25
		l-1.35,1.99l-0.36,1.72l-0.36,1.9l-0.73,1.17l0.28,2.8l0.82-0.82l0.99,1.17l0.73,0.82l-0.09,0.99l0.99-0.09l0.99,0.82l0.46,0.99
		L914.47,507.6L914.47,507.6z"/>
	<g id="my" transform="translate(-0.1495753,-0.00918063)">
		<path id="path3731" fill="#54565b" stroke="#54565b" stroke-width="1" stroke-miterlimit="10" d="M927.34,522.68l-0.73,0.91
			h-1.9l-2.08-1.54l-1.81-0.99l-2.17-1.81l0.18-0.82l-1.99-2.45l-0.64-2.53l-0.28-1.99l-0.46-1.9l-1.25-1.99l1.35,0.09l0.82-0.73
			l0.9,0.64l0.82,0.46l-0.09,1.25l2.98-0.64l2.26,1.54l1.62,1.99l0.28,2.35l-0.36,2.89v1.72l1.81,1.35l0.54,1.25L927.34,522.68
			L927.34,522.68z"/>
		<path id="path3733" fill="#54565b" stroke="#54565b" stroke-width="1" stroke-miterlimit="10" d="M944.94,522.05l1.17,1.44
			l1.08,1.44l2.53-0.09l2.35-0.09l2.26-1.62l0.73-0.36l2.53,0.82l1.54-0.54l2.17-1.99l1.08-2.08l1.44-2.08l0.54-2.17l1.44-0.64
			l2.17,0.54l2.26,0.46l1.44-0.28l1.35-0.46l-1.25-0.99v-0.46h2.08l0.99-0.73l-0.64-1.35l-2.26-0.91l-1.35,0.18h-0.64v-1.81
			l-1.44-0.99l-0.54-0.99l-0.54,1.17l-0.64-1.08l-0.73,2.26l-0.18,1.35l-0.82,0.28l-1.54,0.46l-1.08,0.64l-0.09,1.08L961.5,513
			l-0.99-0.36l-0.46,1.25h-1.62l-0.28,1.99l-1.81,1.44l-1.44,1.44l-3.61,0.28l-1.81,0.64l0.36,1.54l1.08,0.09l-1.81,1.25v1.08
			l-0.82-0.28l-1.35-0.73l-0.82-0.09L944.94,522.05L944.94,522.05z"/>
	</g>
	<g id="id" transform="translate(-0.1495753,-0.00918063)">
		<path id="path3741" fill="#54565b" stroke="#54565b" stroke-width="1" stroke-miterlimit="10" d="M1022.5,545.52l-1.08,1.2
			l-0.24,1.68l0.49,1.81l0.85-1.31l-0.6-0.85h1.57l-0.36-1.68L1022.5,545.52L1022.5,545.52z"/>
		<path id="path3743" fill="#54565b" stroke="#54565b" stroke-width="1" stroke-miterlimit="10" d="M1013.23,551.17l-1.08,0.96
			v1.81l1.81-1.81L1013.23,551.17L1013.23,551.17z"/>
		<path id="path3745" fill="#54565b" stroke="#54565b" stroke-width="1" stroke-miterlimit="10" d="M907.04,511.96l-2.8-0.09
			l-2.35-0.18l-0.73-0.82l-1.62-0.46l0.09,2.35l1.62,2.17l2.08,1.25l1.17,1.17l1.17,0.64l1.25,2.08l0.46,1.81l2.45,0.64l1.08,2.17
			l1.17,2.35l0.18,0.99l1.35,0.46l1.44,2.26l1.35,2.45l0.64,2.35l2.08,1.25l1.44,2.45l2.08,1.81l1.81,1.81l2.17,0.82l1.08,1.54
			l0.73,1.54l1.35-0.82l1.9-0.09l1.08,0.99l0.09-2.45l0.09-3.43l-0.09-1.44l0.82-1.17l-0.46-1.44l-2.26-0.91l-1.25-0.46l-0.64-1.81
			l-0.46-2.35l-2.53-0.09l-0.9-0.54l0.54-0.82l0.64-0.91l0.28-1.17l-1.35-1.25l-1.9-0.18l-0.54-1.72l-1.35-0.91l-1.35-1.44
			l-1.17-0.36l-0.82,0.36l-1.35-0.91l-1.54-0.82l-0.9-1.17l-0.54-0.82l-1.81-1.17l-1.35-0.36l-0.73-0.99l-1.17-0.46l0.09-0.99
			l-0.73-1.08l-0.54-0.54L907.04,511.96L907.04,511.96z"/>
		<path id="path3747" fill="#54565b" stroke="#54565b" stroke-width="1" stroke-miterlimit="10" d="M931.18,534.07l0.85-1.31
			l1.08,0.73l0.73-0.96l1.08,3.25l1.44,0.85v1.31l-1.57-0.24l-0.85-1.31l-1.2-0.85l-1.44-0.96L931.18,534.07L931.18,534.07z"/>
		<path id="path3749" fill="#54565b" stroke="#54565b" stroke-width="1" stroke-miterlimit="10" d="M938.85,536.25l-0.12,1.93
			l1.2-0.12l0.36-0.96L938.85,536.25L938.85,536.25z"/>
		<path id="path3751" fill="#54565b" stroke="#54565b" stroke-width="1" stroke-miterlimit="10" d="M944.94,522.05l-1.62,0.49
			l-0.85,1.81v1.68l0.36,1.93l1.44,1.44l-0.24,1.93l1.81,0.24l0.49,2.17l-0.36,1.44l0.6,2.29l2.66-0.12l1.93-0.24l0.6,1.57
			l0.12,0.85l2.89-0.96l0.85-0.85l1.81,1.44l2.05-0.24l0.85,1.19l-0.24,1.81l3.49-2.17l2.66-1.31l-0.36-1.81l0.85-1.08l-0.96-2.66
			l1.44-1.08l1.57-0.49l0.96-1.44l-0.12-1.2l0.96-2.89l3.49,0.12l-3.13-3.37l-1.31-0.96l1.2-0.12l-0.49-2.41l-0.96-1.81l0.12-1.44
			l0.24-0.73l-3.88-0.96l-1.44,0.64l-0.46,1.54l-0.6,1.2l-0.6,1.31l-0.85,1.19l-0.85,1.08l-0.85,1.08l-1.05,0.88l-0.99,0.57
			l-1.44-0.36l-1.93-0.36l-1.31,0.85l-1.35,1.02l-2.38,0.42h-1.81h-0.96l-0.82-1.68l-0.64-0.96L944.94,522.05L944.94,522.05z"/>
		<path id="path3753" fill="#54565b" stroke="#54565b" stroke-width="1" stroke-miterlimit="10" d="M932.73,547.44l-0.12,0.96
			l-1.81,1.31l1.68,0.49l1.31,0.12l0.24,1.44l2.17-0.12l2.29,0.49l1.93,1.08l1.93-1.08l3.61,0.73l0.85,1.31l0.96,1.08l3.25-0.12
			l2.17-0.73l3.13,0.85l1.08-0.36l1.81,0.85l0.85-0.12l-0.96-1.57l1.68,0.73l0.96,0.49l0.85,0.6l1.08-0.85h1.31l-0.49,0.73
			l1.81,0.36l0.6-0.6l0,0l0.49,0.96l-0.24,0.85h3.61l0.85-0.85l0.49-0.6l1.68,0.36l1.2-0.85l1.2-0.24l0.36,0.85l3.73,0.12l2.29,0.24
			l3.37-0.36l1.68-0.85l0.36,0.6l1.93-1.08h1.31l3.37-0.49l-3.01-0.24l-2.29-0.24l-0.85,0.73l-0.85-0.12l-1.08-0.49l-1.93,0.85
			l-1.57,0.36l-2.05-0.12l-2.76-0.73l-1.57,0.96l-1.68-0.49l-1.08-0.85l-2.41,0.36l-1.44-0.36l1.31,1.31l-1.31-0.12l-1.57-0.49
			l-1.44-0.24l-1.31-0.24l-0.96,0.24l-0.85,0.24l-1.57-1.08H961l-1.08,0.24l-0.49-1.68l-1.44,0.12l-1.81,0.36l-0.96-0.73l-0.85-1.08
			l-0.24-0.85h-2.53l-2.53-1.31l-1.08,0.49l-0.73,1.57l-1.93-0.6l-1.93-0.6l-1.81,0.49l-1.31-1.81l-2.41-0.24l-1.81-0.96l-1.81,0.73
			L932.73,547.44L932.73,547.44L932.73,547.44z"/>
		<path id="path3755" fill="#54565b" stroke="#54565b" stroke-width="1" stroke-miterlimit="10" d="M993.25,522.65l-0.96,1.31
			l-1.81,1.31l-2.53-0.36l-3.25,0.24l-2.41-1.08l-2.53-0.36l-1.2,1.68l-1.08,0.6l-1.08,0.73l0.12,2.17v2.05l-1.44,1.08l0.12,2.41
			l-0.73,1.68l-1.93,0.49l0.73,2.41l0.85,0.36l0.85-0.6l0.96,1.57l0.36,2.17l-1.08,1.81l0.49,1.81l3.13-0.24l-0.85-1.81l0.49-1.81
			l0.12-2.29l-0.49-1.81l0.24-1.08l1.2-0.6l0.96-0.12l0.12,2.17l-0.49,0.96l1.68,0.96l0.6,0.85l-0.12,1.68l1.93,1.2l0.73-1.44
			l0.12,2.17l1.2-0.96l0.12-1.57l0.24-1.44l-1.31-1.08l-0.6-0.85l0.85-0.49l-1.31-1.68l-0.96-1.57l-1.44-0.96l1.44-0.36h1.31
			l1.2-1.93l0.96-1.08l1.68,0.49l0.73-1.57l-3.01-0.24l-0.12,0.96l-2.29,0.12l-1.68,0.85l-1.44,0.85l-1.57-0.36l-0.24-1.08
			l-0.85-0.96l0.24-1.31l0.49-1.31l0.96-0.36l2.41,0.12l2.41,0.12l1.57-0.24l1.68,0.49h2.05l1.44-0.49l1.08-0.73l1.57-1.81l0.6-1.08
			L993.25,522.65L993.25,522.65z"/>
		<path id="path3757" fill="#54565b" stroke="#54565b" stroke-width="1" stroke-miterlimit="10" d="M1042.96,536.01v5.9l0.36,5.54
			l-0.96,1.57l0.73,1.57l0.24,6.61l-2.76-2.66l-0.6-0.85l-1.68,0.49l-1.93-0.24l-3.01,0.49l1.2-2.17l1.44-0.49l0.96-1.08l-1.08-1.08
			l-0.96-2.05l-0.96-1.81l-1.31-1.2l-3.84-1.2l-3.97-1.19h-1.08l-1.93-1.31l-1.57-1.2l-1.08,1.44l-1.2,0.12l-1.08-1.81l-0.24-1.31
			l-3.37-1.31l0.85-0.85l3.84,0.24l1.81-0.12l1.2-0.73l-1.57-0.49l-3.13-0.12h-1.2l-0.73-1.31l-1.68-0.73l-2.05-0.12l-0.24-1.31
			h1.31l1.68-0.49l1.81-1.31l3.25,0.24l2.05,0.85l0.85,1.81v0.85l0.49,0.85l-0.36,0.6l1.2,1.31v1.44l1.08,0.24l0.73,1.19l1.68,0.24
			l0.96-1.57l1.57-1.31v-0.85l1.93-0.49l-0.24-0.96l1.81-1.08l1.93,0.24l2.05,1.44l2.66,1.19l1.93,0.12L1042.96,536.01
			L1042.96,536.01L1042.96,536.01z"/>
		<path id="path3759" fill="#54565b" stroke="#54565b" stroke-width="1" stroke-miterlimit="10" d="M1002.39,521.22l-1.57,2.29
			l-0.36,2.41l0.96,0.73l-0.12,2.29l2.41,2.05l-0.96-3.49l1.57-0.49l-0.36-1.81l0.96-1.31l-1.81,0.49l-1.2-0.85L1002.39,521.22
			L1002.39,521.22z"/>
		<path id="path3761" fill="#54565b" stroke="#54565b" stroke-width="1" stroke-miterlimit="10" d="M1002.39,537.82l1.68-0.73
			l3.97,0.85h2.41l0.73,1.57l-1.08,1.19l-2.53-1.57h-3.01l-1.81-0.12L1002.39,537.82L1002.39,537.82z"/>
		<path id="path3763" fill="#54565b" stroke="#54565b" stroke-width="1" stroke-miterlimit="10" d="M997.11,537.94l-1.2,0.73
			l1.31,1.81l2.29-0.85l0.36-1.2l-1.08-0.85L997.11,537.94L997.11,537.94z"/>
		<path id="path3765" fill="#54565b" stroke="#54565b" stroke-width="1" stroke-miterlimit="10" d="M993,556.46l0.24,2.05
			l-1.31,1.57l-1.31,0.36l-1.31,0.6l-0.12-1.81l1.31-1.68l1.68-0.6L993,556.46L993,556.46z"/>
		<path id="path3767" fill="#54565b" stroke="#54565b" stroke-width="1" stroke-miterlimit="10" d="M977.13,557.91l-1.93,0.12
			l-1.57,0.24l2.66,1.31l1.57-0.6l0.49,1.81h1.57l0.12-1.44l-1.44-0.85l-0.96-0.36L977.13,557.91L977.13,557.91z"/>
	</g>
	<path id="tl" fill="#54565b" stroke="#54565b" stroke-width="1" stroke-miterlimit="10" d="M992.85,556.46l0.31,1.78l1.81-0.9
		l1.99-0.36l2.08-0.99l1.35-0.99l-1.25-0.73l-2.8,0.18l-0.73,0.73l-2.26,0.36L992.85,556.46L992.85,556.46z"/>
	<path id="mm" fill="#54565b" stroke="#54565b" stroke-width="1" stroke-miterlimit="10" d="M907.55,435.9l-2.66,2.29l1.08,1.57
		l-2.17-0.36l-2.17,0.49l-1.93,2.66l-0.49,3.49l-1.57,3.61l-0.6,1.81l-1.68-1.08l-1.68-0.12l0.24,3.73l-0.36,2.53l-0.96,0.73
		l-0.6,1.93l-0.36,0.85l-0.73-0.24l0.12,1.93l0.36,1.44l1.68,1.68l1.2,0.36l0.73,2.29l-0.24,1.08l1.2-0.85l1.08,2.41l0.49,2.66
		l0.49,2.29l-1.44,0.96l0.12,1.68l2.29,0.96l1.44-0.49l2.05-1.31l1.57-0.6l0.12-2.41l1.57,1.44l0.6,1.08l0.49,1.08l0.36,2.66
		l1.44,2.89l0.49,1.93l0.73,2.17l0.12,2.66l0.6,2.17l-1.08,1.68l-0.12,2.05l0.49,0.85l0.6-1.81l1.44-1.68l1.14-2.2l0.06-1.54
		l-0.78-1.81l0.18-2.17l-0.28-1.08l-0.73-1.17l-1.17-0.73l-0.9-2.08l1.54-0.99l-0.36-5.15l-1.72-0.82l-0.82-3.34l-1.35-1.62
		l1.35-1.25l0.9-1.9l2.53-0.09l1.62-1.72l2.63-1.4l-0.12-1.44l1.44-0.24l0.85-1.31h-2.05l-2.89-2.76l0.24-1.81l-0.85-1.19
		l-0.85-3.13l-3.37,0.49l-0.49,0.12l-0.12-1.68l0.73-1.93l1.31-1.93l0.73-1.31v-3.49l0.12-1.57l-1.68-0.6l-0.36-2.29L907.55,435.9
		L907.55,435.9z"/>
	<path id="bd" fill="#54565b" stroke="#54565b" stroke-width="1" stroke-miterlimit="10" d="M878.78,441.79l-0.6,2.29l-0.49,0.6
		l1.93,1.31l0.36,1.08l-1.08,0.49l-0.73,1.2l-0.73-0.12l1.08,1.93h1.08l0.24,1.81l0.73,1.81l0.12,2.41l-0.12,2.53l2.29-0.36
		l2.29-1.08l0.12-1.93l0.49,1.19l1.2-0.6l0.12-0.85l1.44-0.24l0.85,1.44l0.24,1.93v1.57l1.44,1.44l-0.49-2.29l1.08,0.24l0.6-2.66
		l-0.85-3.49l-1.08-1.57l-0.73,2.17l-0.96-0.24l-0.96-0.96l0.49-2.17l1.08-0.49l0.96-0.6l1.44-2.53h-2.66l-5.05,0.12l-0.6-1.44
		l-0.73-2.66l-1.31,0.73l-0.73-1.44l-0.6,0.24L878.78,441.79L878.78,441.79z"/>
	<path id="bt" fill="#54565b" stroke="#54565b" stroke-width="1" stroke-miterlimit="10" d="M880.84,438.54l-0.12,1.68l1.93,0.36
		l1.81,0.85l1.08-0.73l2.05,0.24H890l0.36-1.68l-1.2-0.73l-0.12-1.2l-3.25-1.2h-2.05l-1.68,1.2L880.84,438.54L880.84,438.54z"/>
	<path id="np" fill="#54565b" stroke="#54565b" stroke-width="1" stroke-miterlimit="10" d="M877.71,437.57l-0.85,1.31l0.6,2.29
		l-1.2,1.2h-1.57l-2.05-0.85l-1.44,0.24l-1.68-1.19l-2.53-0.24v-1.44l-5.18-0.49l-2.05-1.2l-2.76-1.31l-2.29-1.19l-1.81-1.2
		l3.01-4.93l1.81,0.12h1.2l1.68,1.19l1.93,0.96l0.49,0.49l0.85,1.31l1.81-0.49l2.17,0.85l0.85,0.96l0.73,0.85l3.25,0.12l1.93,2.17
		L877.71,437.57L877.71,437.57z"/>
	<path id="in" fill="#54565b" stroke="#54565b" stroke-width="1" stroke-miterlimit="10" d="M844.38,502.79l2.41-0.6l-0.12-2.05
		l1.31-0.49l1.93-0.24l-0.73-1.08l0.73-1.93l0.73,0.24l1.08-1.68l-0.6-3.97l1.31-2.05l1.2-1.81l-0.73-3.25l-0.6-1.93l1.2-3.61
		l1.44,0.6l1.68-2.05h2.17l0.96-1.44v-1.68l1.31-1.08l3.13-2.17l2.76-1.44l1.31-3.13l0.73-0.6l0.85,0.49l3.01-0.96l1.44-2.17v-2.53
		l2.05-1.08l1.2-2.89l0.36,2.05l0.6,0.96l2.05-0.12l0.12-3.49l-0.85-2.89l-0.24-2.17h-1.08l-1.08-1.93l0.73,0.12l0.73-1.2l1.08-0.49
		l-0.36-1.08l-1.93-1.31l0.49-0.6l0.49-2.05l1.31,0.6l0.6-0.24l0.73,1.44l1.31-0.73l1.31,4.09l7.71-0.12l-1.44,2.53l-2.05,1.08
		l-0.49,2.17l1.93,1.2l1.08-2.29l0.96,2.05l0.6,3.13l1.31-0.49l0.36-2.53l-0.24-3.73l1.68,0.12l1.57,0.85l2.29-5.18l0.49-3.49
		l1.93-2.66l2.17-0.49l2.17,0.36l-1.08-1.57l2.66-2.29h-2.53l-1.81-0.85l-0.6-3.01h-2.29l-0.85,0.6l-3.84,0.73l-1.68,2.05
		l-2.17,1.68l-1.44,0.49l-1.31-0.24l0.12,1.2l1.2,0.73l-0.36,1.68l-4.46-0.24l-1.08,0.73l-1.81-0.85l-1.93-0.36l0.12-1.68
		l-0.36-1.57l-2.76,0.6l-0.85,1.31l0.49,1.81l-1.08,1.68h-1.57l-2.05-0.85l-1.44,0.24l-1.68-1.2l-2.53-0.24v-1.2l-5.18-0.73
		l-2.05-1.2l-6.85-3.73l3.01-4.93l-2.41-1.68l-1.44-0.73l-0.36-1.2l-1.57-0.12l-1.08-2.17l-1.2-1.08l-0.24-0.96l2.29,0.36l0.36-2.89
		l-2.29-2.29l0.12-2.29l-1.31-1.68l-1.14-2.41l-2.23,0.18l0.36,1.31l-2.89,1.31l-1.75,0.67l-3.07-0.06l-1.75-0.78l-0.9,1.31
		l0.12,2.83l0.6,2.53l2.17,1.08l0.9,0.91l0.24,1.37l-1.14,0.91l-1.2,0.42l0.06,2.23l-1.68,1.5v1.5l-2.17,1.99l-0.67,1.93l-2.7,2.35
		l-0.96,1.57l-3.43,1.2l-1.31-1.2l-1.68,1.57l-0.85,2.29l1.68,2.05l0.12,2.05l1.57,0.85l0.96,2.66l-0.12,1.68l-1.57,0.85l-0.6-0.49
		h-3.13l-1.81,0.24l-1.81,2.17l1.81,1.68l1.2,1.08h3.01l0.49,0.12l-0.49,0.85l-1.93,0.96l-1.57-0.36l1.2,2.29l2.05,1.2l0.96,1.44
		l2.66,0.73l2.41-0.96l1.08-1.81l0.12-2.29h1.31l-0.6,1.31l0.49,1.68l0.49,2.17l-0.49,2.17l0.24,2.76l0.24,2.41l0.36,1.81l1.31,0.96
		l-0.49,3.01l0.49,1.57l1.68,2.29l0.73,2.17l0.6,1.93l1.2,2.17l0.6,2.05l0.24,1.31l1.93,3.13l0.73,1.57l0.85,2.76l0.36,2.17
		l1.57,2.29l0.73,0.85l1.08,0.6L844.38,502.79L844.38,502.79z"/>
	<path id="pg" fill="#54565b" stroke="#54565b" stroke-width="1" stroke-miterlimit="10" d="M1043.16,536.13l2.17,1.44l3.01,1.31
		l3.73,1.2l1.19,0.73h1.08l3.13,2.89l0.36,2.76l4.57,1.2l1.68,0.36l1.44-1.31l0.24-1.44h3.73l1.31-0.73l1.08,1.31h1.81l1.68-1.93
		l1.2-0.24l-0.36-2.53h1.81l0.73,1.93l0.6-1.2l-0.85-2.05l-4.81-2.76l0.12-1.08l2.29,0.96l3.61,2.41l2.05,2.66l-0.73,1.81
		l-1.93-0.12l-1.31,0.6l0.6,1.44l-2.29,0.49l-0.96,0.73l-2.66,1.08l-2.66,0.24l-1.81-0.6l-1.68-1.08l-1.31,1.08l-0.73,1.08
		l-0.36,1.19l-2.05-0.12v1.31l1.81,1.44l1.19,1.31l0.73,1.81l0.85,1.08h2.05l-0.36,1.57l2.29,0.49l1.31,0.12l-0.12,1.57l2.41,0.12
		l-0.49,1.68l-2.66-0.73l-2.29-0.6l-3.97-0.49l-1.57-1.57l-1.68-0.96l-1.44-1.93v-2.17l-1.81-0.36l-2.41-0.24l-2.05-2.29l-1.44,1.68
		l-1.44,1.81l-2.05,0.12l2.05,1.93l-2.41,0.96l-2.53-0.36h-2.76l-0.24-6.61l-0.73-1.57l0.96-1.08l-0.36-11.19L1043.16,536.13
		L1043.16,536.13z"/>
</g>
	
</svg>
