<svg version="1.1" id="Layer_1" xmlns="http://www.w3.org/2000/svg" xmlns:xlink="http://www.w3.org/1999/xlink" x="0px" y="0px" viewBox="0 0 1200 760" enable-background="new 0 0 1200 760" xml:space="preserve">
<g id="australia">
	<g id="au" transform="translate(-0.1495753,-0.00918063)">
		<path id="path3845" fill="#54565b" stroke="#54565b" stroke-width="1" stroke-miterlimit="10" d="M1047.65,561.88l-1.44,3.84
			l-0.73,3.37l-0.49,6.73l-0.49,3.84l-1.19,3.61l-2.41,0.73l-2.66-0.96l-0.96-1.93l-2.17-0.49l-3.13-1.68l-1.68-0.96l-2.17-1.44
			l-1.68-1.2l1.2-3.37l0.96-0.96l0.6,2.38h1.25l-0.28-1.81h-0.99l-0.46-1.44l0.99-0.82l0.09-0.99l0.99-1.54l-1.08-0.09l-0.82-1.25
			l-0.64,0.91l0.09,1.17l-0.73-1.62l-0.99-0.28l-1.9,1.17l-1.81-0.82l-1.9,0.09l-2.26-0.73l-1.17-1.17l-1.62-0.36l-2.17-0.18
			l-2.17,0.18l-1.99-0.18l1.72,1.35l0.82,0.82l1.25-1.35l0.82-0.18l0.54,0.09l0.73,0.64l0.99,0.09l-0.54,1.54l-1.62,0.18h-2.17
			l-2.35,0.18l-0.54,1.81l0.54,1.72l-1.62,0.54l-1.25,2.17l1.08,1.35l-0.09,1.54l-1.9-1.54l-2.63,0.46l-1.08-0.82l-1.81-2.17
			l-1.9-0.28l-1.81,1.44l-1.54,1.35l-1.81-0.09l-0.09,2.17l-1.35,1.17l-1.44,0.28l0.09,2.35l-1.35-1.25l-0.54,1.25l0.46,1.72
			l-0.82,1.54l-2.26-3.43l-2.08,2.98l1.03,2.15l-1.81,1.62l-1.17,1.9l-2.17,1.9l-4.24,1.08l-2.26,0.18l-2.7,1.35l-1.99,0.82
			l-1.62-0.64l-2.98,2.26l-3.88,2.53l-1.17,2.08l-0.46-2.08l-1.62,1.99l0.82,2.26l-0.46,1.44l-0.9,2.45l0.9,2.08l0.99,1.9l0.36,3.25
			l-0.9-1.62l-1.35-1.62l0.36,1.72l-1.35-1.54l1.17,3.07l2.08,2.45l-0.09,2.98l1.44,2.8l1.35,2.63l0.46,3.7l1.17,1.99l1.25,2.53
			l-0.18,2.8l-0.18,1.81l-0.28,1.35l-1.17,0.99l-0.9-0.18l0.28,2.53l1.44-0.36l1.9,1.62l0.09,1.44l1.35,0.28l3.97-0.09l1.99-0.64
			l1.62-1.81l1.81,0.09l0.09-1.72l2.45-0.28l1.44,0.09l2.26-0.46h2.08l-0.09,0.64l3.78-0.36l1.44-0.82l0.73-1.72l0.36-0.82
			l1.72-0.09l4.43-2.8l2.7-0.09l2.53-0.36l4.06-1.72l3.88-0.09l3.16-0.09l1.9,1.72l1.99-0.36l2.53,0.82l1.08,0.73l0.73,0.73
			l1.17,0.09l-1.54,2.17l1.81,0.46l1.44,1.25l0.9,1.99l0.54,1.62h-1.44l2.08,1.54l1.25,0.46l1.35-1.44l-0.18-2.08l2.08-1.54
			l1.08-1.17l1.54-2.35l0.36,1.25l-0.64,1.72l-0.91,1.44l0.18,2.71l-1.9,1.17l-0.54,1.25l3.52-0.54l0.73-3.25l0.91,1.81l0.09,1.54
			l-0.99,1.81l-1.44-0.09l-1.81-0.18l-2.08,0.64l0.54,0.91l3.88,0.09l1.08-0.99l1.35-0.54l2.08,0.91l1.9,3.16l-0.09,1.9l0.64,2.26
			l1.35,0.91l1.81,0.91l0.91,0.91l1.9-0.64l2.53,0.73l2.08,1.44l1.54-0.73l1.9-1.17l0.64-1.9l0.73,0.54l-0.64,1.54l0.99,0.54
			l1.54-0.99l-0.18,1.25l1.54,0.73l1.17,1.35l1.17-1.54l2.17-2.35l2.08-0.73l3.16-0.18l1.72-1.08l1.08-0.18l-0.46-3.78l0.82-2.7
			l1.81-2.53l0.46-0.18l0.91-3.7l1.17-2.35l0.54-1.54l1.81-1.72l1.08-1.9l-0.18-1.25l1.25-0.64l0.82-2.45l-0.28-2.26l0.73-2.17
			l0.36-1.54l-0.36-0.73l0.82-1.99l-0.36-2.98l-0.73-1.25l-0.09-1.72l-0.36-4.24l0.73-2.45l-0.64-0.99l-0.73,2.35l-0.54-0.99
			l-1.62-1.81l-1.08-1.54l-1.35-1.54l-1.62-0.54l-0.09-3.61l-1.9-1.08l-0.91-0.18l-0.09,0.99l-1.62-1.35l-0.09-1.9l-0.73-1.17
			l-1.35-1.62l0.64-0.64l-0.82-1.44l-1.81-0.09l-1.99-1.62l-1.9-0.64l-1.62-0.73v-2.53l-1.17-0.82l0.36-1.35l-0.91-1.62l-1.35-2.17
			l0.28-1.72l-0.73-1.25l0.09-1.9l-1.9-1.44l-0.64-0.91l-1.72,0.73l-0.54-0.99l-0.82-1.99l-0.09-1.9l-0.28-0.73l-1.35-1.54
			l0.54-0.99l-0.82-0.36l-0.36-2.17l-0.46-0.99L1047.65,561.88L1047.65,561.88z"/>
		<path id="path3847" fill="#54565b" stroke="#54565b" stroke-width="1" stroke-miterlimit="10" d="M1065.06,663.47l-0.46,1.25
			l1.08,1.44l0.09,1.35l-1.25,0.18l-1.99,0.36l-1.35,1.62l-1.72-0.28l-1.99-1.54l-1.72-0.46l-0.99,0.64l0.64,2.45l0.36,1.99
			l0.99,1.17l-0.18,1.54l0.09,2.17l0.99-0.54l0.54,1.35l1.08,0.36l-0.36,1.08h2.17l1.08,0.46l0.36-1.81l0.82,0.64l-0.18-2.08
			l1.35,1.08l1.72,0.18l-0.64-2.08l0.18-1.81l0.28-0.64l0.28,0.73l0.54-0.91l-0.18-1.9l-0.28-1.99l-0.46-1.72l0.09-1.35l0.91-0.28
			l-0.82-0.82l0.09-0.91L1065.06,663.47L1065.06,663.47z"/>
	</g>
	<path id="nz" fill="#54565b" stroke="#54565b" stroke-width="1" stroke-miterlimit="10" d="M1142.25,642.26l1.25,3.61l2.35,3.25
		l1.62,1.99l0.73,1.62l0.54,3.43l0.36,2.89l-1.99,2.17l-2.35,0.54l0.36,2.17h2.89l2.7,1.62l-0.73,3.25l-1.44,1.08l-1.62-0.18
		l-0.54-1.81l-1.99,1.44l-1.08-2.17l-0.18-0.73l-2.35,1.99v3.43l-2.89,1.81l-1.44,3.07l-5.6,3.97l-2.35,1.25l-2.17,3.61l-2.35,3.25
		l0.18,1.81l3.97,0.54l1.81,1.44l2.53,0.54l3.25-1.99l1.25-2.35l0.91-3.07l0.91-0.54l0.18-3.61l2.89-0.54l1.62-0.18l-0.36-1.81
		l0.18-1.08l1.99-0.91l1.62-3.43l0.54-2.35l0.18-0.73l1.62-0.18l0.91,0.54l2.7-0.91l1.44-2.7l0.73-1.25l1.08-1.81l-0.54-1.25
		l0.91-1.81l1.62-0.18l1.08,0.91v-1.99l1.25-0.73l-0.36-2.53l0.18-1.44l-0.73-0.18l-1.99,1.44l-2.17-0.54l-1.99-0.91l-1.08-3.25
		l-1.25-1.08l-0.18,2.53l-0.54-1.62l-0.73,0.54v-1.81l-1.08-2.17v-1.81l-1.99-1.25l-2.17-0.18l-0.91-2.35L1142.25,642.26
		L1142.25,642.26z"/>
	<g id="sb" transform="translate(-0.1495753,-0.00918063)">
		<path id="path3851" fill="#54565b" stroke="#54565b" stroke-width="1" stroke-miterlimit="10" d="M1085.42,544.08l0.6,3.37
			l2.05,1.68l1.19,1.57l1.08-1.81l-1.68-1.68l-1.81-0.73L1085.42,544.08L1085.42,544.08z"/>
		<path id="path3861" fill="#54565b" stroke="#54565b" stroke-width="1" stroke-miterlimit="10" d="M1091.81,549.73l1.68,2.29
			h2.17l1.81,0.49l0.6,1.31l3.01,1.2l1.2,0.49l2.05-0.24l0.6,1.81l1.68,1.57l0.49,0.96l-0.73,0.36l-1.81-1.57l-2.66-0.96l-1.08,0.36
			l0.96,1.08l1.81,0.49l2.05,0.36l1.08,1.81l1.93,1.08l1.19-0.6l-1.68-1.81h-0.96l0.24-1.31l-0.73-2.05l-0.96-1.93l-1.57-0.12h-1.44
			l-1.44-0.85l-1.57-1.08l-1.08-0.96l-1.31,0.12l-1.57-0.36l-1.31-0.6l-0.96-0.85l-0.73-0.73L1091.81,549.73L1091.81,549.73z"/>
	</g>
	<path id="fj" fill="#54565b" stroke="#54565b" stroke-width="1" stroke-miterlimit="10" d="M1157.84,582.58l-1.31,2.76l1.57,1.57
		l2.29,0.12l1.57-1.68l-0.96-1.2l-1.31-0.96l1.44-1.19l2.41-0.12l2.05,0.12l-1.08-1.2l1.44-1.81l-2.76,0.73l-1.93,1.57l-1.68,1.68
		L1157.84,582.58L1157.84,582.58z"/>
		<path id="nc" fill="#54565b" stroke="#54565b" stroke-width="1" stroke-miterlimit="10" d="M1120.78,595.33l-5.42-3.25l1.99,3.97
		l3.43,3.25h3.07l-2.17-2.35L1120.78,595.33L1120.78,595.33z"/>
</g>

</svg>
