<svg version="1.1" id="Layer_1" xmlns="http://www.w3.org/2000/svg" xmlns:xlink="http://www.w3.org/1999/xlink" x="0px" y="0px" viewBox="0 0 1200 760" enable-background="new 0 0 1200 760" xml:space="preserve">
<g id="europe">
	<path id="tr" fill="#54565b" stroke="#54565b" stroke-width="1" stroke-miterlimit="10" d="M732.07,384.78l-1.81,1.9l-0.73,0.09
		l-2.26,0.99l-1.08-0.28l-1.81-0.18l-2.45,0.82l-1.72-0.28l-1.72-0.46l-0.36,0.28l-2.08-1.08l-1.17-0.28l-0.54-1.35l-1.99-0.18
		l-0.99-1.25l-2.17,0.28l-5.69,0.09l-1.35,1.54l-1.81,0.91l-0.46,1.25l-2.45-0.09l-4.15-0.36l-0.64,0.18l-1.99-1.08l-1.72-1.25
		l0.09-1.62l-2.71-0.36l-1.35,0.91l-0.18,1.81l-0.82,1.9l-1.08,0.82l0.28,0.91l2.26,0.09l1.08,0.09l1.44-1.81l1.81,0.18l1.72-0.18
		l0.99-0.09l0.54,0.73l0.64,0.64l0.54,0.28l-2.17,0.36l0.73,1.17l-1.54-0.18l-2.08-0.09l-1.25-0.54h-2.63l-1.44,0.28l-0.46,0.99
		l0.46,1.62l-0.36,1.08l1.54,0.09l0.64-0.09l-0.28,1.62l0.64,0.99v1.25l-0.54,0.54l-0.9-0.82l-0.46,0.82l0.28,0.91l1.17,0.18
		l1.44,0.73l-0.9,0.99l1.08,0.46l0.36,1.17l-0.54,0.73l1.54,0.28l1.44-0.09l-1.25,1.08l0.99,0.82l0.46-0.64l1.25-0.36l0.64,0.82
		l1.35,1.08l1.62,0.46l2.53-0.28l0.28-1.81h1.62l1.99,0.82l1.35,1.08l0.64,0.64h3.7l1.54-0.99l1.62-1.54h1.44l0.36,0.73l1.44-0.18
		l1.08-1.44l0.28,1.08l-0.82,1.08l0.18,2.02l2.41-2.29v-1.81l1.2-0.6l1.2,1.08l3.49-1.08l2.45,1.05l4.06-1.35l3.13,0.18l0.96-1.08
		l1.5,0.18l1.08-0.28l1.35,0.09l2.08-0.64l0.96,0.39l1.57-0.24l-1.17-2.76l0.09-2.7l-0.36-2.17l1.08-2.17l-1.2-1.14l-1.44-0.36
		l-0.24-3.37l-1.08-1.44l-1.44-0.36l-0.49-1.44l-2.29,0.96L732.07,384.78L732.07,384.78z"/>
	<path id="cy" fill="#54565b" stroke="#54565b" stroke-width="1" stroke-miterlimit="10" d="M702.45,411.7l1.37-0.85h1.31
		l0.96-0.67h1.44l2.23-1.37l0.31,0.73l-1.93,1.44l-0.06,0.96l0.18,0.73l-1.14,0.31l-1.37-0.06l-0.9,0.24l-0.78,0.36l-0.9-0.12
		l-0.31-0.96L702.45,411.7L702.45,411.7z"/>
	
	
	
	<path id="ws" fill="#54565b" stroke="#54565b" stroke-width="1" stroke-miterlimit="10" d="M1187.19,571.01l2.53,1.57l0.6-0.85
		l0.73,1.2l1.44-0.96l-0.96-1.2l-1.08,0.36l-1.57-0.85L1187.19,571.01L1187.19,571.01z"/>
	<path id="ua" fill="#54565b" stroke="#54565b" stroke-width="1" stroke-miterlimit="10" d="M701.78,335.77l-2.83,0.82l-1.25,2.45
		l-0.18,1.81l-1.81-0.91l-1.62-0.36l-1.17-0.46l-0.99,0.54l-3.78-0.54l-1.99-0.54h-2.26l-4.6-0.46l-2.35,1.17l-0.9,0.64l0.9,2.45
		l0.54,2.08l-0.46,1.44l-2.08,1.35l-1.25,1.72l-0.36,1.17l-1.44,0.28l-0.54,3.43l1.81,2.7l1.08-0.73l2.35,0.64l2.17,0.28l1.08,0.54
		l1.72-0.91l1.62-0.18l2.17-1.17l1.44-0.82l1.17-0.46l2.08,0.99l2.26,0.54l1.08,1.08l0.82,2.17l0.99,1.44l0.09,3.07l-1.35,0.73
		l-0.99,0.28l-0.46,1.72l-0.9,0.64l-1.54,0.09v1.08l1.25,1.17l1.25-0.64l1.08-0.18l1.17-0.36l1.81-0.82l0.18-1.25l0.09-0.99
		l2.17-0.73l2.08-0.54l0.82-0.18v1.9l0.99,0.91l1.81-0.28l1.54,0.36l0.54,0.28l-1.17,0.91l-1.81,0.99l0.09,0.54l1.72,0.99l0.64,0.28
		v2.35l0.73,1.08l2.71-0.91l1.72-1.17l1.25-0.99l1.72-0.18l0.73-0.64l-1.44-0.28l-1.62-0.09h-1.08l-0.28-0.91l-0.82-1.25l-0.9-0.46
		l-0.73-0.73h1.35l1.62-0.36l1.62-1.44l2.17-0.64l1.62-0.46l1.72-0.82l1.62-1.25l2.5-0.09l-0.6-1.44l1.99-1.08l1.14-1.31l1.65-0.03
		l1.47-2.02l-1.2-2.14l0.73-3.34l-1.68-0.42l-0.73-0.96l-0.85,0.12l-1.68-1.31l-1.68-0.73l-1.08-1.44l-1.81,1.08l-2.05-0.85
		l-2.53,0.24l-1.57-4.09l-2.17-0.12l-0.49-3.61l-1.44-1.93L701.78,335.77L701.78,335.77z"/>
	<path id="md" fill="#54565b" stroke="#54565b" stroke-width="1" stroke-miterlimit="10" d="M685.96,354.82l0.46,0.82l0.9,1.54
		l1.35,1.17l1.08,2.17l0.36,1.99l-0.09,3.52v0.46l1.54-0.09l0.9-0.64l0.46-1.72l2.35-0.99l-0.09-3.07l-0.99-1.44l-0.82-2.17
		l-1.08-1.08l-1.99-0.54l-2.35-0.99L685.96,354.82L685.96,354.82z"/>
	<path id="ro" fill="#54565b" stroke="#54565b" stroke-width="1" stroke-miterlimit="10" d="M672.97,356.81l-0.36,1.17l-1.72,0.82
		l-0.82,0.82l-0.54,1.35l-0.73,2.17l-1.44,1.17l-2.17,0.46l1.08,1.9l1.35,1.62l1.08,0.54l0.36,1.08l1.25,1.62l1.44,0.36l1.08-0.28
		l-0.28,1.25l0.73,1.17l0.36,0.99l4.15,0.54h2.71l1.35,0.18l3.25-1.17l1.17-0.91l1.81,0.64l0.54,0.18h0.82l0.54,0.91l0.99,0.18
		l0.82-2.98l0.28-1.44l0.54,1.08l1.35-0.82l0.46-1.54l-0.18-1.9l-0.9,0.18l-1.17,0.09l-0.9,0.46l-1.25-1.17v-2.35v-3.25l-0.54-1.62
		l-0.82-1.99l-1.35-1.17l-1.35-2.35l-2.8,1.35l-1.62,0.18l-1.72,0.91l-1.08-0.54l-2.98-0.36l-1.54-0.54L672.97,356.81L672.97,356.81
		z"/>
	<path id="bg" fill="#54565b" stroke="#54565b" stroke-width="1" stroke-miterlimit="10" d="M685.44,383.69l-1.35-0.28l-0.28,1.44
		l-1.35,0.64l-2.26-0.09l-1.72-0.73l-1.17-0.28l-1.81,0.99h-1.17l-0.18-2.53l-1.44-0.91l-0.36-0.73l0.36-2.7l0.99-0.82l-0.99-2.17
		l0.28-1.9l0.73,1.35l1.99,0.28l3.7,0.28h1.17l1.35,0.18l2.17-0.64l1.08-0.54l1.17-0.91l2.08,0.91l1.08-0.09l0.54,0.91l0.99,0.18
		l0.09,2.08l-1.54,0.09l-0.46,0.46l-0.09,2.17l-1.08,0.73l-0.54,0.82l1.25,0.09l0.46,1.35l-2.08-0.36L685.44,383.69L685.44,383.69z"
		/>
	<g id="gr">
		<g id="g7374" transform="translate(-0.1495753,-0.00918063)">
			<path id="path3889" fill="#54565b" stroke="#54565b" stroke-width="1" stroke-miterlimit="10" d="M673.74,385.97l-1.99,0.54
				l-0.82-0.18l-0.9,1.08l-2.35,0.28l-0.46,2.17l-1.08,1.62l-0.18,0.91l-2.89,0.36l1.08,2.08l0.64-1.17l0.82,1.44l0.99,0.54
				l0.28,1.08l-0.9,0.64l1.25,0.18l0.64,1.17l1.54-0.09l2.71,0.09l1.35,0.99h-1.35l-1.72-0.73l-1.81,0.28l-1.17,0.99l-0.82-0.99
				l-0.9-0.91l-0.46,1.08l0.9,0.82h0.46l-0.36,1.08l1.08,0.18l0.46-0.54l0.18-0.54l0.99,1.25l0.18,0.99l0.28,0.99l0.54,1.35
				l0.28-1.17l1.35,0.82l0.36,1.44l0.9-1.08l1.25,1.25l-0.36-2.53l-1.35-1.54l1.17-0.46l0.82,0.73l0.82-0.54l-1.08-1.08l1.35-0.28
				l1.62,0.99l0.28-1.81l0.73-0.99l-0.46-1.08l-0.9-0.64l-1.81-0.36l-0.82-0.73l-0.09,1.08l-0.99-0.54l0.54-0.99l-0.09-1.25
				l-0.28-1.25l-0.64-1.08l0.46-2.7l0.99,0.54l0.54,1.62l1.17,0.46l0.73-1.54l-0.36-1.44l1.25,0.28l1.35-1.17l0.64,0.73l0.82-0.99
				l1.54,0.82l1.44-0.09l1.08-0.82l0.82-1.9l0.18-1.81l-0.99-0.46l-0.28,1.44l-1.35,0.64l-2.26-0.09l-1.72-0.73l-1.17-0.28
				l-1.44,1.08l-1.54-0.09L673.74,385.97L673.74,385.97z"/>
			<path id="path3891" fill="#54565b" stroke="#54565b" stroke-width="1" stroke-miterlimit="10" d="M675.1,409.87l1.35,0.91h1.44
				l1.17,0.91h1.62l2.08-0.09l1.72-0.82l1.35-0.82l1.17,0.09l0.46-0.99l1.08-1.25l0.82,0.36l0.9-1.54l-0.82-0.64l-1.25,1.08
				l-0.28,0.91l-0.73,0.73l-1.17,0.36l-0.64,0.82l-1.25,0.64l-0.9,0.46l-0.82-0.46l-1.35-0.36l-1.35-0.09l-0.82-0.28l-0.9-0.54
				l-0.99,0.36l-1.54-0.28L675.1,409.87L675.1,409.87z"/>
		</g>
		<path id="path3893" fill="#54565b" stroke="#54565b" stroke-width="1" stroke-miterlimit="10" d="M682.45,394.71l0.73,0.82
			l0.9,0.54l0.82-0.82l-0.99-0.99L682.45,394.71L682.45,394.71z"/>
		<path id="path3895" fill="#54565b" stroke="#54565b" stroke-width="1" stroke-miterlimit="10" d="M682.45,397.42l-0.18,1.72
			l1.44,0.36l0.46-1.17l-0.73-1.08L682.45,397.42L682.45,397.42z"/>
		<path id="path3897" fill="#54565b" stroke="#54565b" stroke-width="1" stroke-miterlimit="10" d="M679.92,391.82l-0.28,1.25
			h1.25l0.54-0.91L679.92,391.82L679.92,391.82z"/>
	</g>
	<path id="mk" fill="#54565b" stroke="#54565b" stroke-width="1" stroke-miterlimit="10" d="M667.55,387.68l-1.25-1.6l0.24-2.17
		l0.73-0.85l0.36-1.08l1.57-0.12l1.44-1.08l1.08,0.49h0.64l0.82,0.96l0.99,0.67l0.18,2.53l-0.73,0.54l-1.65,0.36h-1.14l-1.25,1.19
		L667.55,387.68L667.55,387.68z"/>
	<path id="al" fill="#54565b" stroke="#54565b" stroke-width="1" stroke-miterlimit="10" d="M663.41,392.33v-0.73l-0.85-1.2
		l-0.24-2.66l0.12-1.57l0.12-0.85l0.24-1.19l-0.24-0.36l0.36-3.37h1.81l0.96,0.85l0.96,0.85l-0.12,1.81l-0.12,1.44l0.24,1.19
		l0.9,1.11l-0.42,1.28l-0.03,0.88l-0.82,1.4l-0.46,1.11L663.41,392.33L663.41,392.33z"/>
	<path id="me" fill="#54565b" stroke="#54565b" stroke-width="1" stroke-miterlimit="10" d="M662.59,384.14l-0.9-0.82l-1.44-1.17
		l-0.36-1.9l0.36-1.81l1.25-1.17l0.73-1.17l0.36-0.36l0.9,0.82l1.62,1.54l-0.82,2.17l-1.35-0.18L662.59,384.14L662.59,384.14z"/>
	<path id="rs" fill="#54565b" stroke="#54565b" stroke-width="1" stroke-miterlimit="10" d="M663.05,375.3l-0.46-2.17l-0.28-2.35
		l-0.09-1.9l0.18-1.08l-0.99-1.9l1.72-0.99l1.99,0.09l2.08,2.89l1.54,0.91l0.82,1.54l0.82,1.17l1.44,0.36l1.08-0.28l-0.28,1.25
		l0.46,1.08l-0.36,1.62l0.99,2.17l-0.99,1.44l-0.36,2.08l-0.99-0.09l-0.99-0.36l-1.17,1.05l-1.57,0.12l-1.05,1.72l0.09-1.6
		l-1.08-1.11l-1.25-0.73l0.82-2.17l-1.62-1.54l-0.9-0.82L663.05,375.3L663.05,375.3L663.05,375.3z"/>
	<path id="ba" fill="#54565b" stroke="#54565b" stroke-width="1" stroke-miterlimit="10" d="M657.72,379.18l-0.99,0.36v-1.44
		l-1.17-2.08l-2.08-1.35l-0.73-1.99l-0.82-1.62l-0.54-1.17l0.36-0.99l1.54,0.64l0.73-0.64l2.35,0.46l0.9,0.54l1.25-0.36l1.17,0.28
		l1.44,1.17l1.17-0.18l0.28,2.63l0.46,1.9l-0.82,0.82l-0.9,1.54l-1.08,0.82l-0.36,1.81l-0.9-0.09L657.72,379.18L657.72,379.18z"/>
	<path id="hr" fill="#54565b" stroke="#54565b" stroke-width="1" stroke-miterlimit="10" d="M649.5,367.73l-2.26-0.18l-2.08,0.18
		l-0.73,0.91l-0.73,0.73l1.62,1.81l0.09-1.62l0.73-0.46l1.44,1.08l0.46,0.99l0.82,0.28l-1.08,1.08l1.44,0.91l-0.28,0.73l-0.09,0.54
		l1.08,1.17l1.08,0.82l0.46,1.08l1.25-0.54l1.17,0.18l0.9,0.73l0.28,1.08l0.64,0.28l0.9,0.54l0.9,0.64l0.99,0.73l0.99,0.73
		l0.73,0.09l-0.73-1.62l-0.54-0.36l-1.25-0.99l-0.73,0.46l-0.28-1.54l-1.17-2.08l-2.08-1.35l-2.08-4.79l0.36-0.99l1.54,0.64
		l0.73-0.64l2.71,0.64l0.54,0.36l1.25-0.36l0.9,0.18l1.72,1.25l1.17-0.18l-0.09-1.9l0.18-1.08l-0.99-1.9h-4.15l-2.8-2.45l-1.25-0.54
		l-1.35,1.17l-0.73,0.91l-1.35,2.08L649.5,367.73L649.5,367.73z"/>
	<path id="hu" fill="#54565b" stroke="#54565b" stroke-width="1" stroke-miterlimit="10" d="M656.26,355.99l-0.82,0.18l-0.36,1.62
		l-1.25,0.28l-0.73,2.17l-0.73,1.17l0.82,1.54l1.25,0.28l2.8,2.71h4.15l1.72-0.99l1.99,0.09l2.26-0.73l1.44-1.17l1.25-3.52l0.9-1.08
		l1.62-0.82l0.54-1.17l-1.81-2.71l-1.08,0.18l-3.61-0.28l-1.25,0.91l-1.17,0.54l-2.53,0.46l-0.9,1.44l-1.81,0.18l-2.08-0.09
		L656.26,355.99L656.26,355.99z"/>
	<path id="si" fill="#54565b" stroke="#54565b" stroke-width="1" stroke-miterlimit="10" d="M644.81,367.54l-0.28-1.25l-0.73-1.54
		l0.54-1.81l1.54,0.28l1.54,0.28l2.08-0.91l1.17-0.82l1.72-0.36l0.82,1.54l-1.35,1.17l-2.08,2.98l-0.28,0.64l-1.81-0.09l-2.08,0.09
		L644.81,367.54L644.81,367.54z"/>
	<path id="sk" fill="#54565b" stroke="#54565b" stroke-width="1" stroke-miterlimit="10" d="M655.46,356.17l-0.73-0.64l0.28-1.25
		l-0.18-0.99l-0.18-0.99l0.73-0.73l2.17-0.28l2.08-1.35l0.64-0.91l0.09-1.08l1.25,1.54l1.54-0.64l1.25,0.99l1.35-0.18h0.99
		l1.62-0.28l0.99-0.46l1.25,0.91l1.25,0.99l-0.54,2.98l-1.08,0.18l-1.99-0.28h-1.62l-1.25,0.91l-1.17,0.54l-2.53,0.46l-0.9,1.44
		l-3.88,0.09l-0.54-0.91L655.46,356.17L655.46,356.17z"/>
	<path id="by" fill="#54565b" stroke="#54565b" stroke-width="1" stroke-miterlimit="10" d="M676.3,339.84l-0.28-1.25l0.36-2.17
		l-1.17-0.64l0.46-1.44l1.08-1.25l0.09-2.35l-0.9-2.98l2.35-0.54l0.46-1.17l2.26-1.35h0.82l0.73-2.98l2.89-2.17l-0.28-1.72
		l0.99-0.91l1.25-0.64l1.81,0.09l0.82-1.44l0.73-0.73l0.46,0.64l3.88,0.36l0.82,1.31l2.53-0.36l0.96,4.57l1.08,3.61l1.68,1.68
		l0.12,1.44l1.47,1.54l-0.64,2.2l-2.41-0.12l1.08,4.69l-2.83,0.82l-1.25,2.45l-0.18,1.81l-1.54-0.82l-1.9-0.46l-1.17-0.46
		l-0.99,0.54l-3.78-0.54l-1.72-0.54l-1.99,0.09l-5.15-0.54L676.3,339.84L676.3,339.84L676.3,339.84z"/>
	<path id="ee" fill="#54565b" stroke="#54565b" stroke-width="1" stroke-miterlimit="10" d="M689.12,304.56l-0.99,1.17l-1.72-0.28
		l-1.62,0.36l-3.25-2.45l-2.89,0.64l-0.64,0.09v-1.81h-0.73l-0.46,1.17l-1.08-1.35l-0.82-1.35l-0.99,0.46l-0.28,1.17l-1.44,0.82
		l-0.9,0.36l-0.46,1.08l-0.54-1.17l-0.46-1.25l0.54-0.99h1.17l0.28-0.91l-0.54-0.91l-1.08-0.18l0.64-0.54l1.72-0.64l0.82,0.91
		l-0.9,1.25l-0.09,0.64l0.9-0.09l0.9-0.09l0.64-0.64l-0.28-0.99l-0.64-0.36l0.99-1.17l0.99-1.08l1.25-0.28l1.62-1.35l0.54,0.46
		l2.08,0.09l0.99-0.64l1.35,0.54l1.9,0.36l1.62,0.28l1.6-0.18l0.24,1.93l-2.05,2.05l1.65,4.15L689.12,304.56L689.12,304.56z"/>
	<path id="lv" fill="#54565b" stroke="#54565b" stroke-width="1" stroke-miterlimit="10" d="M676.85,310.68l-2.35,0.18l-0.82-1.9
		l-1.25-1.54l-0.73-1.08l-2.8,1.35l-0.64,1.81l-0.28,1.81l-0.82,1.62v2.35l2.89-1.81l7.14-0.28l1.35,0.28l1.08-0.36l1.17,1.25
		l2.17,0.73l2.17,2.7l0.99-0.91l1.25-0.64l1.81,0.09l0.82-1.44l0.73-0.73l-0.39-0.82l0.03-3.07l-0.03-2.94l-0.6-2.29l-0.64-0.54
		l-0.64,1.17l-2.08-0.28l-1.62,0.36l-3.25-2.45l-3.52,0.73l-0.28,4.34l-0.28,1.9L676.85,310.68L676.85,310.68z"/>
	<path id="lt" fill="#54565b" stroke="#54565b" stroke-width="1" stroke-miterlimit="10" d="M667.01,316.19l0.46,1.44l0.28,1.54
		l0.82,0.36l1.08,0.73l1.9,0.73l1.99,0.36l0.28,1.72l-0.09,1.17l1.35,0.99l0.64,1.25l0.28,1.25l2.35-0.54l0.46-1.17l2.26-1.35h0.82
		l0.73-2.98l2.89-2.17l-0.28-1.72l-2.17-2.7l-2.17-0.73l-1.17-1.25l-1.08,0.36l-1.35-0.28l-6.76,0.36l-3.25,1.72L667.01,316.19
		L667.01,316.19z"/>
	<path id="pl" fill="#54565b" stroke="#54565b" stroke-width="1" stroke-miterlimit="10" d="M659.8,346.69l-2.26-0.46l0.64-1.25
		l-0.54-0.64l-0.99,0.54l-1.81-0.28l-0.36,0.99l-1.17-1.08l0.18-0.82l-2.26-0.09l-1.44-0.28l-0.54-0.91l-0.64-0.54l0.09-2.08
		l-0.73-1.62l-0.36-3.52l-0.18-0.91l-0.9-1.25l0.09-1.17l0.09-0.91l-1.08-1.9v-0.54l0.54-0.73l1.08,0.46l-0.33,0.78l0.31,0.67
		l-0.15-0.63l0.54-1.54l1.81-0.73l2.26-0.64l1.35-1.25l1.9-0.91l2.8-0.36l1.62-0.18l1.08,0.99h-1.08l0.64,0.91l1.54,0.73l0.64,0.09
		l1.9-1.44h1.9l1.81-0.09l2.63,0.91l2.71,0.09l0.73-0.64l1.25,0.73l0.64,1.25l0.28,1.25l0.9,2.98l-0.09,2.35l-1.08,1.25l-0.46,1.44
		l1.08,0.91l-0.28,1.62l0.28,1.54l-0.46,0.46l1.35,3.16l0.28,1.35l-0.46,1.08l-1.81,1.25l-1.54,1.81l-0.36,1.17l-1.72,0.46
		l-1.9-1.54h-0.82l-1.25,0.54l-1.35-0.09l-1.9,0.36l-1.25-0.99l-1.54,0.64l-1.25-1.54L659.8,346.69L659.8,346.69z"/>
	<path id="cz" fill="#54565b" stroke="#54565b" stroke-width="1" stroke-miterlimit="10" d="M653.38,352.47l-0.82-0.09l-1.08-0.64
		l-2.53-0.36l-0.18,1.25l-1.54,0.82l-1.99-0.73l-3.61-3.43l-0.73-1.25l0.09-1.25l-0.82-1.72l1.9-0.18l1.9-1.08l1.54-0.91l0.9-0.09
		l0.28-1.25l0.64,0.09l0.99,1.17l0.28-0.91l0.82,0.99l0.36,0.46l3.7,0.36l-0.18,0.82l1.17,1.08l0.36-0.99l1.81,0.28l0.99-0.54
		l0.54,0.64l-0.36,1.35l1.99,0.36l0.54,1.25l-0.09,1.08l-0.64,0.91l-2.08,1.35l-2.17,0.28l-0.73,0.73L653.38,352.47L653.38,352.47z"
		/>
	<path id="at" fill="#54565b" stroke="#54565b" stroke-width="1" stroke-miterlimit="10" d="M644.44,353.65l-2.17,1.99l0.36,1.54
		l-0.46,0.73l-2.17-0.18l-1.9,0.82l-0.9-0.18l-0.54,0.73l-1.35-0.54l-1.44,0.18l-0.82,0.18h-0.99v1.17l0.54,0.46l0.82,0.36
		l0.64-0.09l0.99,0.46l-0.09,0.54h1.25l1.44-0.46l1.17-0.36l0.82-0.64l0.9,0.09l0.64,0.73v0.91l1.25,0.09l1.44,0.36l0.82,0.46
		l2.71,0.54l2.35-1.08l0.9-0.64l1.44-0.28l0.99-1.25l0.73-2.17l1.25-0.28l0.36-1.62l-0.73-0.64l0.28-1.25l-0.36-1.99l-1.25,0.18
		l-0.82-0.09l-1.08-0.64l-2.53-0.36l-0.18,1.25l-1.17,0.82l-1.62-0.46L644.44,353.65L644.44,353.65z"/>
	<g id="it" transform="translate(-0.1495753,-0.00918063)">
		<path id="path3931" fill="#54565b" stroke="#54565b" stroke-width="1" stroke-miterlimit="10" d="M650.46,391.64l-0.9,0.18
			l-1.17-0.64l-0.36-1.25l-0.64-0.82l-1.08,0.46l-0.73-1.08l-0.09-0.99l-1.08-0.73l-1.99-0.09l-1.62-0.91l-1.44-1.62l-1.08-0.9
			l-1.17-0.91l-0.99-1.17l-1.72-1.44v-2.53l-0.54-1.08l-0.64-0.99l-0.73-0.82l-0.64,0.18l-0.99-0.82l-1.25-0.18l-1.25,0.36
			l-0.64,1.25l-0.99-0.46l-0.09-0.99l-1.25-0.09l-0.99-0.54l-0.28-2.45l-0.54-0.82l1.08-1.54l-0.18-2.53l2.45-0.91h0.64l0.9-1.35
			l0.99,1.25l0.82,1.08l0.64-0.82l-0.28-1.17h2.26l0.9-0.09l1.54-1.44l0.28-0.64h1.44l1.72-0.64l0.82-0.64h1.17l0.64,0.73v0.9
			l1.25,0.09l1.44,0.36l0.82,0.46l-0.9,1.81l0.82,1.81l0.18,0.99h-0.99l-1.72,0.09l-0.73,0.54l-0.46,0.36h-1.25l0.46,0.82l0.09,0.99
			l-0.46,1.17v0.99l0.46,1.44l1.17,0.99l1.35,0.91l0.9,0.09l0.54,1.25l0.18,1.72l0.73,1.17l0.54,1.35l1.81,1.35l1.72,0.99l2.26,0.54
			l-0.28,0.99l0.64,0.99l1.99,0.64l1.81,0.99l1.62,0.82l0.99,0.82l0.99,1.17l0.28,0.91l-0.64,1.08l-1.08-0.91l-0.99-0.91l-0.82-0.36
			l-0.82-0.82l-0.9,0.64l-0.64,1.54l-0.46,0.82l1.25,1.08l0.73,0.54l-0.28,1.62l-0.9,0.46l-0.82,0.54l0.18,1.54l-0.28,0.99
			l-0.9,0.46l-1.17,0.36l-0.46-0.99l-0.9,0.28l0.09,0.91l-0.54,1.17v1.25l0.28,1.08l-0.64,0.82l-1.54,0.36l-1.08-1.72h-1.54
			l-0.73-0.91l-1.08-0.18l-0.46-0.73l-1.62-0.09l-0.36-1.35v-0.82l1.44-0.09l1.08-0.09l0.9,0.09l0.64,0.64h1.44l1.35-0.28l1.25-0.36
			h0.9l0.82-0.46l0.73-0.82l0.54-0.91l0.46-0.46l-0.28-1.08l-0.18-1.44l-0.46-0.54l-0.18-1.54L650.46,391.64L650.46,391.64z"/>
		<path id="path3933" fill="#54565b" stroke="#54565b" stroke-width="1" stroke-miterlimit="10" d="M630.46,386.87l-1.2,0.78
			l-1.02,0.85l-0.6-0.31l-0.6-0.49l0.12,1.62l0.6,0.36l0.18,1.57v1.08l0.42,0.12l-0.6,0.91v1.25l0.6,1.5l0.78,0.42l1.08-0.91
			l1.2-0.12l0.73-0.54l-0.31-2.29v-1.5l-0.42-0.49l0.85-0.36l-0.06-1.02l-0.49-0.85l0.06-0.78l-0.49-0.54L630.46,386.87
			L630.46,386.87L630.46,386.87z"/>
	</g>
	<path id="ch" fill="#54565b" stroke="#54565b" stroke-width="1" stroke-miterlimit="10" d="M624.65,365.81l-0.42-0.67l-0.24-1.44
		l-0.96-0.49l-1.37,0.49l-0.31,0.42l0.67-1.68l1.2-2.05l0.85-1.2l1.31-0.85l0.54-0.24l1.81,0.31l0.73,0.12l1.08-0.78h1.68l0.96,0.12
		l-0.06,0.78l-0.12,0.67l0.09,0.76l0.99,1.05l0.99-0.33l0.82,0.39l0.31,0.96l-1.57,1.62h-3.01l0.12,1.25l-0.64,0.82l-1.22-1.72
		l-0.78-0.36l-0.54,1.08h-0.78L624.65,365.81L624.65,365.81L624.65,365.81z"/>
	<path id="de" fill="#54565b" stroke="#54565b" stroke-width="1" stroke-miterlimit="10" d="M625.55,357.73l-0.12-2.05l0.49-1.75
		l1.14-1.31l0.78-1.5l-2.83-0.18l-1.5-0.54l-1.14-0.31l-0.36-0.67l0.12-2.05l-0.49-1.02l-0.31-0.73l0.9-1.57l-0.96-0.96l-0.42-0.73
		l0.24-1.25l0.31-1.31l-0.06-1.5l-0.06-0.85l1.2-0.18l0.96-0.73l0.73-1.2l0.24-1.44v-1.31l0.42-0.73l-0.31-0.78l-1.08-0.31
		l-0.24-0.67l0.78-0.67l0.78-0.6l1.68-0.06l0.36,0.42l0.36,0.91l0.73-0.12l-0.12-1.14l0.24-0.73h0.9l1.02,0.31l0.36-0.42l-0.78-0.78
		l0.06-0.67l-0.36-0.85l-0.42-0.49l0.78-0.36l0.42-0.49l-0.67-0.78l-0.67-0.85l0.12-0.6l2.23,0.06l0.67,1.14l0.54-0.24l0.6,0.54
		l-0.18,0.85l0.73,0.6l0.9,0.12l0.73,0.31l0.96-0.12l0.18,0.73l-1.2,0.78l0.06,1.02l1.57-0.6l1.02,0.12l0.54-1.37l1.57-0.12
		l0.73-0.96l0.73-0.18l0.73,0.78l0.85-0.12l-0.49-1.08l1.25-0.67l1.08,1.19l-0.18,0.78l-1.44-0.06v0.73l0.85,0.54l0.96-0.24
		l1.2,0.49l-0.36,1.25l0.78,1.57l0.31,0.67l-0.31,1.86l1.05,1.25l0.46,4.02l0.78,2.17l-0.06,1.93l-0.28,0.91l-1.17-1.14l-0.46-0.12
		l-0.21,1.14l-1.14,0.18l-3.25,2.02l-1.9,0.18l0.82,1.72l-0.09,1.25l0.52,1.14l3.81,3.55l0.39,0.42l-1.2,0.49l-2.17,1.99l0.36,1.54
		l-0.6,0.82l-2.02-0.28l-1.9,0.82l-0.9-0.18l-0.54,0.73l-1.5-0.49l-2.11,0.31l-0.85-0.06l-0.06-0.96l-2.35-0.12l-1.37,0.78
		l-2.66-0.36L625.55,357.73L625.55,357.73L625.55,357.73z"/>
	<path id="nl" fill="#54565b" stroke="#54565b" stroke-width="1" stroke-miterlimit="10" d="M623.21,330.11l-1.2,0.73l-2.29-0.12
		h-1.57l0.12,1.31l1.57,1.19l0.24,1.68l-1.57,1.57l-0.85-1.57l-0.24-1.81l-0.73-1.31l-0.6,1.08l-0.24,1.68v1.44l-1.08,0.73
		l0.24,1.57l1.31,0.24l-0.24,0.6l0.96,0.6h1.2l0.85,1.08l1.75,1.57l0.42-2.17l-0.36-3.01l1.57,0.06l1.31-0.91l0.36-1.02l0.24-2.76
		l0.42-0.73l-0.31-0.78l-1.08-0.31L623.21,330.11L623.21,330.11L623.21,330.11z"/>
	<path id="be" fill="#54565b" stroke="#54565b" stroke-width="1" stroke-miterlimit="10" d="M615.15,339.63l-1.44,0.6l-0.6,0.36
		l-0.73-0.24l-1.2,1.08l-0.96,0.49l0.73,1.08l0.85,0.12l0.6,0.96l1.68,0.12l1.44,1.93l0.36,1.08l1.57-0.96l0.24,1.19l1.2,0.96
		l1.08,1.08l0.36-2.17l0.85-1.31l1.08-1.93l-1.37-1.68l-1.75-1.57l-0.85-1.08h-1.2l-0.96-0.6L615.15,339.63L615.15,339.63
		L615.15,339.63z"/>
	<path id="lu" fill="#54565b" stroke="#54565b" stroke-width="1" stroke-miterlimit="10" d="M622.25,349.74l-1.08-0.12l-1.2-0.12
		l0.36-2.17l0.85-1.31l0.96,1.37L622.25,349.74L622.25,349.74z"/>
	<g id="gb" transform="translate(-0.1495753,-0.00918063)">
		<path id="path3953" fill="#54565b" stroke="#54565b" stroke-width="1" stroke-miterlimit="10" d="M606.33,340.84h-2.35
			l-0.9-0.91l1.62-1.08l1.25-1.81l1.25-0.18v-3.07l-1.99-1.44l-1.99,0.18l-0.36,1.08l-0.9-1.08l0.36-1.81l-0.73-1.44l-0.18-1.62
			l-1.81-2.53l-2.17-1.99l-1.08-1.25l-0.54-3.61l-2.17-2.35l-1.08,0.18h-1.08l0.9-1.25l0.9-0.18l-0.54-1.81l1.25-1.08l0.73-2.35
			l1.08-1.08l-0.54-1.81h-3.97l-2.17,0.54l-0.36-1.44l1.25-1.62l1.81-1.62l-0.18-1.62l-1.57,0.36l-1.44,0.49h-2.41l-0.73,0.6v1.57
			l-1.31,0.96l0.12,1.31l-1.08,0.73l0.36,2.05l-1.68-0.96l-0.24-1.08l-1.31,0.12v-1.31l1.31-0.73l0.49-2.41l-1.2,0.85l-1.44,0.85
			l-0.12,1.31l0.24,0.96l0.96,1.08l-0.12,0.96l0.85,0.73l0.85,1.08l0.96,0.49l0.36-1.31l0.36,0.96l-0.49,1.31l-0.85,0.73l0.85,1.44
			l1.44-0.24l0.6-0.85l0.12,1.19l-1.08,1.2l-0.12,1.2l-0.24,1.44l-0.73,2.53l2.17-1.44l-0.12-2.29l1.08,1.81l0.49,1.93l-0.49,0.85
			l-0.6,1.31l0.6,1.08l1.31-0.36l0.73-0.96l1.57,0.49h0.73l-0.24,1.31l0.96,1.44l0.12,1.08l1.2-0.24l-0.49,2.05v1.19l0.96,0.96
			l-1.93,0.36h-2.05l-1.81-0.6l0.73,1.57l-1.31,1.2l-0.49,0.96h1.93l0.12,1.57l-1.57,1.68l-1.93,1.08l0.96,1.68l1.57-0.73l1.2,0.24
			l0.73,0.24l1.68,0.73l1.08-0.36l-1.57,0.85l-1.93,0.24l-0.6,1.57l-1.31,0.96l-1.08,1.57l-2.66,2.17h2.05l1.44-1.08l1.2-0.49
			l2.05,0.85l1.08-2.05l1.2-0.24h1.93l0.96,0.24l2.17-1.08h1.44l2.41,0.12l1.81-0.12l2.05-1.31l1.44-0.73L606.33,340.84
			L606.33,340.84L606.33,340.84z"/>
		<path id="path3955" fill="#54565b" stroke="#54565b" stroke-width="1" stroke-miterlimit="10" d="M598.33,288.02l-1.31,0.96
			v1.57l-1.2,0.85l1.31,0.73l-0.12,1.08l1.31-2.17l0.49-1.81L598.33,288.02L598.33,288.02z"/>
		<path id="path3957" fill="#54565b" stroke="#54565b" stroke-width="1" stroke-miterlimit="10" d="M592.56,297.41l-1.2,0.36
			l0.24,1.2l2.05-0.12L592.56,297.41L592.56,297.41z"/>
		<path id="path3959" fill="#54565b" stroke="#54565b" stroke-width="1" stroke-miterlimit="10" d="M580.9,321.1l-0.85,0.24
			l-0.6,0.12l-0.6,1.08l-0.96,1.08h-1.08l0.49,1.57l1.31,1.2l1.68-1.08l0.49-0.49l0.96,1.08l1.81,0.6l0.73-1.08l-0.6-1.68v-1.19
			l-1.08-1.44L580.9,321.1L580.9,321.1L580.9,321.1z"/>
	</g>
	<path id="ie" fill="#54565b" stroke="#54565b" stroke-width="1" stroke-miterlimit="10" d="M581.54,336.22v-1.35l1.17-1.99
		l-0.09-1.44l-0.54-1.62l0.09-1.99l1.2-1.31l-1.81-0.6l-0.96-1.08l-0.49,0.49l-1.68,1.08l-1.41-1.44l-0.39-1.31h1.08l1.57-2.17
		L579,320.3h-1.35l-0.99,0.54l-1.72,0.36l-0.82,1.08v1.54l1.25,0.18v1l-0.73,0.46l-0.36,0.73l-1.25-0.18l-1.08-0.28l-0.9,0.09
		l-0.36,1.44l-0.9,1.44l0.18,1.35l0.73,0.73l0.99,0.54l1.25,0.36l-1.08,1.17l-0.46,1.44l1.9,0.09l-3.07,0.82l-0.36,1.25l-0.9,0.36
		l1.35,0.54l-1.35,0.82l0.82,0.82l1.35-0.82l-1.25,1.62l1.54-0.46l-0.82,1.25l2.26,0.28l1.25-0.91l1.44-1.44l1.08,0.36l1.99-1.54
		l0.82-0.64l1.54,0.28L581.54,336.22L581.54,336.22L581.54,336.22z"/>
	<path id="fi" fill="#54565b" stroke="#54565b" stroke-width="1" stroke-miterlimit="10" d="M687.67,289.84l-1.99-0.09h-3.07
		l-2.08,0.46l-1.44,0.91l-1.35,0.91l-2.08,0.73l-2.17,0.46l-2.53-0.91l1.08-1.54l-1.08-0.91l-1.81-1.17l-1.25-0.46l0.18-2.17
		l0.64-0.91v-1.72v-1.99l-0.64-2.08l-0.18-1.25l0.09-0.73l-0.54-1.25l0.46-2.08l1.72-1.9l0.46-1.44l1.62-1.9l1.81-1.9l1.25-1.17
		l1.9-1.81l0.54-1.44l1.44-2.8l1.99-0.36l0.18-0.64l-0.36-1.81l0.18-1.9l-1.17-1.62l-1.25-1.08l-1.08-0.73l-0.73-2.17l-0.36-1.17
		l0.64-2.8l-0.82-1.81l-0.09-2.45l0.64-1.9l-0.82-0.73v-2.7l0.82-1.17l-1.08-0.99l-0.99-0.82l-0.73-1.54l-2.08-0.91l-1.08-1.35
		l-2.35-2.08l-0.64-0.9l0.64-2.89l1.25,0.18l1.08,1.81l0.54,1.99l0.73,1.62l2.63,0.9h1.62l0.9-1.54l1.08,0.73l1.54,0.99l1.54-1.08
		l0.99-2.26l0.73-1.99l0.09-1.62l0.64-2.71l1.99-2.53l1.9-0.18l2.17-0.82l1.08,1.35l1.17,1.17l1.62,0.46l-0.46,2.08l-0.82,1.99
		l-0.28,2.08l-1.35,2.11v1.57l1.08,2.41l2.76,2.89l0.85,2.53l0.64,0.7l-3.25,5.6l3.46,9.23l-0.6,0.73l-0.24,2.76l0.24,2.76
		l0.96,1.57l0.24,2.53l1.08,1.68l-1.57,2.41l1.44,2.29l1.81,0.73l0.49,2.17l0.85,0.73l-0.31,1.83l-4.63,4.31l-2.94,5.36l-2.83,2.35
		l-1.68,2.29L687.67,289.84L687.67,289.84z"/>
	<g id="se">
		<path id="path3971" fill="#54565b" stroke="#54565b" stroke-width="1" stroke-miterlimit="10" d="M666.65,225.67l-1.99,0.36
			v1.99l-0.36,1.44l0.36,1.44l-1.44-0.18l-1.99-0.36l-1.62-0.9l-0.9,1.62l-0.36,2.7l-2.17,0.73l-1.99,1.08l-0.54,2.89l-1.08,1.44
			v1.99l-1.81,3.43l-1.08,2.89l-1.08,1.81l-1.62,0.18l-0.54,6.13l-1.44,3.07l-0.9,2.35l2.17,1.81l-1.08,1.44l-3.43,0.18l-1.08,2.53
			l-0.36,2.89l-1.08,2.7l1.08,3.43l-0.18,3.07l0.73,3.25l0.36,1.81l-0.36,1.25l0.18,3.78l-0.54,2.89l-1.9,2.63l-0.46,3.25
			l-1.72-0.99l0.36,2.98l0.28,2.26l0.54,2.35l0.82,1.17l0.36,1.72l0.64,0.99l1.17,2.45l1.17,1.54l-0.09,1.54l-0.99,1.17l0.82,1.44
			l0.9,1.54l0.64,0.99l2.63-0.64l0.54-1.81l0.9-1.9l2.71-0.18l1.62,0.09l0.99-2.89l0.46-1.72l0.28-2.89l0.9-1.62l-0.18-2.35
			l0.09-1.81l-0.64-0.82l1.54-0.91l2.08-1.44l0.36,0.46l1.08-1.62l1.54-1.54l0.09-1.08l0.36-1.81l-0.46-1.54l-1.08-1.81l-1.35-0.73
			h-0.9l-0.9-1.81l-0.54-1.62l0.18-1.17l0.9-2.63l-0.28-1.44l0.28-2.26l0.09-1.25l0.9-0.82l0.36-1.81l0.99-0.09l1.54-2.7l1.08-1.44
			l1.17-0.36l0.99-1.54l2.35-0.46l2.35-2.35l0.28-1.81l1.17-0.46l-1.25-1.72l-0.09-1.54l1.44-1.62l-0.64-1.99l0.28-1.25l1.17-0.28
			l0.54-2.35l1.17-0.64l0.82,0.54l1.44-0.28l1.99-0.18l0.46-0.36l0.36-0.09l-1.08-3.34l0.64-2.8l-1.08-1.62l0.18-2.63l0.64-1.9
			l-0.82-0.73v-2.71l0.82-1.17l-2.08-1.81l-0.73-1.54l-2.08-0.9l-1.08-1.35l-2.98-2.98L666.65,225.67L666.65,225.67z"/>
		<path id="path3973" fill="#54565b" stroke="#54565b" stroke-width="1" stroke-miterlimit="10" d="M661.14,305.17l-1.81,0.73
			l-1.54,1.25l0.28,2.98l0.46,1.08l1.81-2.89l0.09-1.17L661.14,305.17L661.14,305.17z"/>
		<path id="path3975" fill="#54565b" stroke="#54565b" stroke-width="1" stroke-miterlimit="10" d="M654.47,308.52l-1.17,2.45
			l-0.64,3.7l1.72-3.16L654.47,308.52L654.47,308.52z"/>
	</g>
	<g id="no" transform="translate(-0.1495753,-0.00918063)">
		<path id="path3977" fill="#54565b" stroke="#54565b" stroke-width="1" stroke-miterlimit="10" d="M702.31,220.63l-2.38-0.28
			l-1.35,1.11l-2.41-0.49l-0.73,1.44l-2.05,1.2l-0.73,2.41l-0.7-0.18l0.28-2.08l0.82-1.99l0.46-2.08l-1.62-0.46l-2.26-2.53
			l-2.17,0.82l-1.9,0.18l-1.99,2.53l-0.64,2.71l-0.09,1.62l-1.72,4.25l-1.54,1.08l-2.63-1.72l-0.64,1.54h-1.9l-2.63-0.9l-0.64-1.99
			l-1.08-2.26l-0.99-1.35h-0.9l-0.64,2.89l-0.82-0.46l-1.99,0.36l-0.09,2.26l-0.28,1.17l0.36,1.44l-3.43-0.54l-1.62-0.9l-0.73,1.25
			l-0.54,3.07l-4.15,1.81l-0.54,2.63l-1.08,1.44v2.26l-1.81,3.43l-1.08,2.89l-1.08,1.81l-1.62,0.18l-0.54,6.13l-2.35,5.42l2.17,1.81
			l-1.35,1.62l-3.16,0.36l-1.08,2.17l-0.36,3.16l-1.08,2.45l1.08,3.43l-0.18,3.07l1.08,5.05l-0.36,1.25l0.18,3.78l-0.54,2.89
			l-1.9,2.63l-0.46,3.25l-3.16-1.62l-0.36-2.26l-0.82,1.35l-0.18,1.81l-2.35,1.35l-1.72,1.9l-2.08,2.53l-2.08,0.73l-2.17-0.54
			l-1.99-0.46l-1.54-2.08l-1.54-1.54l1.99-0.73l-0.18-0.99l0.73-1.62l-2.35,0.82l-0.36-2.26l2.8-0.99l-0.99-0.82l-0.54-1.08
			l-1.62,1.72l0.99-2.45l-0.73-0.82l-0.09-0.99l0.9-1.35l-1.72-0.64l0.54-1.17l3.52-0.28l0.99-0.09l-1.35-0.99l-2.35,0.64
			l-1.17-1.35l0.99-0.82l-0.28-1.44l-0.54-1.25l1.25-0.99l1.35,0.46l-0.28-1.54l1.72-0.73l-1.9-0.46l1.54-1.25l1.44-0.64l1.25,0.82
			l1.44-0.64l-0.82-1.35l0.46-0.91l1.62-0.18l-0.99-0.82l0.64-0.99l1.81-0.28l1.35-0.09l0.9-1.25l0.36-0.73l1.25-0.36l1.08,0.73
			l1.54-0.18l0.36-1.08l-1.81,0.28l-0.46-1.72l0.36-2.26l2.17-1.72l1.54-1.72l1.25-1.35l-1.25-0.82l1.9-1.25l1.35-0.91l-0.28-1.08
			l0.28-2.35l0.99-0.73l0.18-1.08l-0.9-0.64l1.62-1.81h1.62l-0.9-1.17l0.64-1.72l0.64-1.35l1.17-1.08l0.09-0.91l1.44-1.25l1.9-0.73
			l-1.17-0.46l0.9-1.99l1.54-0.18l-0.9-2.17l1.72-2.26l2.08-1.44l-1.81-0.82l-3.7,1.44l-1.62,0.46l-2.63,1.9l-1.35,1.54l1.08-3.34
			l3.25-0.73l0.99-0.82l1.81-1.62l0.36-1.17l-2.08,0.09l1.25-2.08l0.99-0.28l0.18,1.44l0.73-1.08l1.17-0.73l0.18,1.99l0.99-2.08
			l1.72,1.81l1.35-2.08l0.82-1.35l-1.72,0.54l1.9-2.98l1.44-0.54l0.9,2.35l0.64-2.08l1.44,1.17l-0.46-2.26l-0.09-2.45l2.08,0.09
			l0.9,1.81l1.54-2.71l1.08,3.43l0.46-3.34l1.08-0.36l1.25-0.73l2.08,2.08l-0.73-2.53l-1.81-1.25l2.63-0.73l2.45,1.17l0.9,2.8v-4.15
			l1.54-0.82l0.82-1.9l1.81-1.08l0.09-1.9l2.26-0.54l1.54,0.9l-1.35,2.17l-0.09,2.89l1.81-1.9l2.71-3.78l-0.09,3.78l-0.09,1.54
			l1.35-2.71l1.35-2.26l0.28-1.44l2.17,0.73l1.08,0.9l-1.9,2.08l0.18,2.53l1.25-3.61l1.54-0.82l1.35,1.25l1.44,0.99l1.25,0.64
			l-0.54,0.82l2.26,0.46l0.54,0.9l-0.36,0.9l-2.45,0.99l-1.81,0.46l-3.25-0.28l2.17,0.82l1.72,0.99l0.9,0.82l1.25,0.82l1.44-0.46
			l2.71-0.46l0.18-0.99l2.35,0.9l1.17,1.08l-0.18,1.62l-1.44-0.09L702.31,220.63L702.31,220.63z"/>
		<path id="path3979" fill="#54565b" stroke="#54565b" stroke-width="1" stroke-miterlimit="10" d="M672.7,82.98l-1.68,5.29
			l-3.37-0.96l-5.05-4.09l-2.89,6.49l-1.68-1.2l1.68,5.29l-0.49,2.17h6.02l3.84-0.73l-3.84,3.13l-0.73,1.2l2.66,3.37l2.66-0.73
			l4.34,2.17l0.24,1.44l5.29-4.57l2.66-3.61l3.84-4.34l-2.41-4.81h-3.61l-4.09,1.44l-1.2-3.13L672.7,82.98L672.7,82.98z"/>
		<path id="path3981" fill="#54565b" stroke="#54565b" stroke-width="1" stroke-miterlimit="10" d="M652.24,90.68l-1.93,4.34
			l0.96,6.26l0.24,6.97l-3.37-7.71l-1.44-4.57l-2.41,3.84l0.24,3.13l-2.17-3.37l1.93-2.41l0.24-4.57L639.48,95l-2.41-0.73
			l-2.66,3.61l2.66,4.34l-0.73,3.37l2.66-2.17l-0.24,6.97l-1.2,1.93l3.61,6.49l2.89,3.84l3.61-3.84l0.73-5.54l2.66-1.2l-1.2,5.05
			l2.66-3.13l0.49,2.89l1.2,2.17l-4.57,1.44l-1.93,4.34h-3.84l1.44,5.29l5.29-2.17l3.37-0.24l-5.78,2.41l3.13,2.89l-5.54-0.49
			l0.49,4.09l3.61,3.37h1.44l-0.73,2.41l3.13,2.17l1.44-7.71l0.96-4.09l3.61-2.41l-0.49-3.84l0.24-3.84h1.44v-4.34l1.2-1.68
			l3.84-1.68l0.24,1.44l-0.24,2.89l1.93,3.61l1.2-0.24v3.84l-1.68,4.09l1.68,2.41l3.13-0.49v2.89l2.41-2.66l2.66-5.78l-2.41-0.24
			l-0.73-2.89l0.24-2.89l-4.34,1.44l-0.24-1.2l0.73-0.96l0.73-3.13l-1.44-1.68l-3.13,0.24l0.96-2.17l1.2-1.68l-2.66-0.73l-2.89-1.68
			l-0.73-2.89l-2.66-1.44l0.49-2.89l-0.73-3.13l-2.17,1.2l-0.73,1.44v-3.61V95.2l-1.93-2.41l-1.44,1.93L652.24,90.68L652.24,90.68z"
			/>
	</g>
	<g id="pt" transform="translate(-0.1495753,-0.00918063)">
		<path id="path3985" fill="#54565b" stroke="#54565b" stroke-width="1" stroke-miterlimit="10" d="M574.38,388.58l-0.28,2.8
			l-0.73,1.81l-0.73,2.08l-0.09,1.99l0.64,0.82l1.25-0.46l-0.36,1.81l-0.09,2.45l-0.64,1.35l2.08,0.18l1.99,0.18l1.81-0.91l0.18-2.8
			l1.08-0.99l-0.73-1.08l0.36-2.7l-1.08-1.81l1.25-0.64l0.64-1.99l0.18-1.9l-0.09-2.26l1.44-0.82l0.36-0.73l-0.9-0.91l-0.09-0.82
			l-0.99-0.18l-1.17,0.46l-2.89-0.18l-0.28-1.25l-1.99,1.81l-0.28,1.81l0.18,1.81L574.38,388.58L574.38,388.58z"/>
		<path id="path3989" fill="#54565b" stroke="#54565b" stroke-width="1" stroke-miterlimit="10" d="M521.14,400.22l-1.44,0.54
			l2.26,1.25l0.99-1.35L521.14,400.22L521.14,400.22z"/>
	</g>
	<g id="es" transform="translate(-0.1495753,-0.00918063)">
		<path id="path3991" fill="#54565b" stroke="#54565b" stroke-width="1" stroke-miterlimit="10" d="M597.36,376.34l-0.96,1.68
			l-2.7-0.18l-2.53-0.36l-1.99-0.18l-1.81,0.36l-6.13-0.36l-2.7-0.36l-1.25-0.73l-1.72,0.54l-0.36,0.82l-2.71,0.36v1.72l0.9,0.91
			l0.9,1.17l0.18,1.9l2.08-1.54l0.28,1.25l2.89,0.18l1.17-0.46l0.99,0.18l0.09,0.82l0.9,0.91l-0.64,0.9l-1.17,0.64l0.09,2.26
			l-0.18,1.9l-0.64,1.99l-1.25,0.36l1.08,2.08l-0.36,2.7l0.73,1.08l-1.08,0.99l-0.18,2.8l1.62,0.82l1.25,1.72l0.64,1.9l1.54,0.28
			l1.25-1.81h1.81l1.44-1.25l2.17-0.09l1.17,0.91l1.35-0.46l1.54-0.09l1.62-2.17l1.35-0.73l1.25-0.36l1.25-2.53l1.54-1.9l-1.25-1.54
			l0.09-2.35l1.72-1.72l1.54-2.26l0.28-0.82l1.17-1.35l1.9-0.18l1.99-1.35l1.9-1.25l0.36-1.62l0.18-1.28l-1.9,0.03l-2.26-0.46
			l-1.35-0.91l-1.44-0.18h-2.66l-1.54-0.18l-2.66-0.85l0.24-1.08L597.36,376.34L597.36,376.34L597.36,376.34z"/>
		<path id="path3993" fill="#54565b" stroke="#54565b" stroke-width="1" stroke-miterlimit="10" d="M611.39,391.92l-2.26,1.17
			l-0.36,0.73l1.25,0.36l1.25,0.82l1.35-1.54l-0.82-0.54L611.39,391.92L611.39,391.92z"/>
		<path id="path3995" fill="#54565b" stroke="#54565b" stroke-width="1" stroke-miterlimit="10" d="M613.38,391.83l1.54,0.91
			l0.82-0.99l-1.35-0.73L613.38,391.83L613.38,391.83z"/>
		<path id="path3997" fill="#54565b" stroke="#54565b" stroke-width="1" stroke-miterlimit="10" d="M606.16,395l-0.99,1.44
			l1.17,1.17l0.82-1.81L606.16,395L606.16,395z"/>
		<path id="path3999" fill="#54565b" stroke="#54565b" stroke-width="1" stroke-miterlimit="10" d="M557.59,434.52l-1.25,2.71
			l1.81-0.36l0.18-1.9l1.62-1.25l-0.64-0.99l-1.17,0.99l-0.09,0.82L557.59,434.52L557.59,434.52L557.59,434.52z"/>
		<path id="path4001" fill="#54565b" stroke="#54565b" stroke-width="1" stroke-miterlimit="10" d="M550.29,435.32l-1.25,0.99
			l-0.9,0.82l1.35,0.82l1.35-1.35L550.29,435.32L550.29,435.32z"/>
		<path id="path4003" fill="#54565b" stroke="#54565b" stroke-width="1" stroke-miterlimit="10" d="M552.55,436.94l-0.46,1.54
			l1.08,0.64l0.82-1.54L552.55,436.94L552.55,436.94z"/>
		<path id="path4005" fill="#54565b" stroke="#54565b" stroke-width="1" stroke-miterlimit="10" d="M545.33,433.8l-0.36,1.62
			l1.25,0.28l0.64-1.35L545.33,433.8L545.33,433.8z"/>
	</g>
	<g id="fr" transform="translate(-0.1495753,-0.00918063)">
		<path id="path4253" fill="#54565b" stroke="#54565b" stroke-width="1" stroke-miterlimit="10" d="M610.36,341.92l-1.81,0.96
			l-1.68,0.85l-0.73,2.41l-0.6,1.2l-2.76,1.2l-0.12,1.57l-1.08,0.36l-2.29-0.12h-0.96l-1.2-1.08h-1.57l0.6,1.93l0.6,1.08l0.24,1.93
			l-1.81,0.12l-1.68-0.12l-1.57-1.08l-1.68,0.12l-2.05,1.08l-1.93,0.24l-1.31,0.24l1.57,0.73l1.2,0.73l-0.6,0.85l1.44,0.96l1.2-0.12
			l1.68,1.08l0.73,0.73l0.85-0.12l1.31,0.12l-0.36,1.57l0.96,1.08l0.49,0.96l1.57,1.44l1.08,1.2L598,366.9l0.36,1.57l0.36,0.6
			l-0.73-0.12l-0.36,1.81l0.24,2.29l-0.24,2.05l-0.24,1.31l0.96,1.2l-0.24,1.08l2.66,0.85l2.29,0.24l2.17-0.12l1.44,0.24l1.44,0.96
			l2.29,0.36h1.57l0.49-1.57l-0.49-0.49l0.96-1.31l0.85,0.12l1.44-0.73l1.2,0.6l1.57,0.6l1.2,0.24l1.44,0.24l1.81-0.24l0.36-0.96
			l1.57-0.85l0.96-0.73l1.78-1.2l-0.99-0.99l-1.02-0.46l-0.85-0.73l-0.09-2.11l-0.64-0.54l1.17-1.81l0.15-2.47l-0.67-2.11
			l-0.96-0.49l-1.37,0.49l0.6-1.93l1.81-2.59l1.75-1.02l-0.36-2.47l0.49-1.75l1.86-2.53l-2.76-0.49l-2.29-0.85l-1.57-0.49h-0.73
			l-2.76-1.81l-0.24-1.57l-1.57,0.96l-0.73-1.44l-1.08-1.57l-1.68-0.12l-0.6-0.96l-0.85-0.12L610.36,341.92L610.36,341.92
			L610.36,341.92z"/>
		<path id="path4255" fill="#54565b" stroke="#54565b" stroke-width="1" stroke-miterlimit="10" d="M630.7,379.11l-0.36,1.19
			h-0.73l-0.96,0.96l-0.36,1.31l0.6,1.19l0.96,1.44l0.73,0.85l0.73-1.81l0.36-1.31l-0.36-2.29v-1.08L630.7,379.11L630.7,379.11z"/>
	</g>
	<g id="is" transform="matrix(1.3635576,0,0,-1.3851785,740.73572,353.99572)">
		<path id="path1284" fill="#54565b" stroke="#54565b" stroke-width="1" stroke-miterlimit="10" d="M-147.12,61.54l-4.19,0.99
			l-3.29,0.9l-1.71,1.12l2.49,1.21l-0.73,1.39l-1.53,1.49l-2.53,0.5l4.87,0.77l-0.94,0.68l-0.18,0.54l0.36,0.86h-3.83l-1.53,0.5
			l1.53,0.77l-0.68,0.73l1.85-0.23l-0.36,1.81l2.26-0.99l-1.39,2.31l2.62-0.9l0.94-1.21l0.77-3.47l0.9,2.13l0.82,0.18l0.27,1.62
			l2.03-1.44l0.54,1.89l1.44-0.86l1.25-0.94l-0.14,1.76l1.53-0.59l0.86,0.94l0.94,0.86l0.86,1.34l1.12-1.71l1.25,0.99l0.36-0.73
			l-0.04-1.21l0.94-1.76l1.58-1.54l0.36-2.13l-2.03-1.89l-1.25-2.21l-2.31-0.68l-2.17-1.81l-2.35-0.41L-147.12,61.54"/>
	</g>
	<g id="dk" transform="translate(-0.1495753,-0.00918063)">
		<path id="path3965" fill="#54565b" stroke="#54565b" stroke-width="1" stroke-miterlimit="10" d="M628.96,322.18l-0.6-1.02
			l0.18-2.26l-1.62-0.18l-0.18-3.52l0.18-1.99l1.44-0.28l-0.64-2.08l1.25-0.64l1.99-0.54l1.54-1.99l1.25-1.25l0.99-0.09l-0.64,1.54
			l0.54,0.73l-0.73,1.81l-0.82,0.46l0.73,1.17l-0.18,2.17l1.99-0.64l-0.46,1.72l-2.17,0.46l-0.36,0.99l0.18,1.44l-0.9,0.18
			l-0.46,0.64l1.25,0.18l0.99-0.82l0.73,1.08l1.08,0.64l-0.09,1.35l-1.72,0.64h-1.17l-0.36-0.82l-0.18-1.44l-0.28-0.36l-0.54,0.28
			l-0.18,0.91l-0.09,0.73l0.21,0.91L628.96,322.18L628.96,322.18z"/>
		<path id="path3967" fill="#54565b" stroke="#54565b" stroke-width="1" stroke-miterlimit="10" d="M640.27,315.65l-1.44,0.64
			l-0.28,1.44l-0.73-1.08l-1.17,0.73l-0.36,1.08l0.73,1.9l0.99,0.18l0.73,0.99l-0.9,0.28l-1.44,0.18l0.36,1.17l1.35,0.46l0.54-1.35
			l0.46-0.54l0.46-0.99l1.17-0.54l-0.46-1.17l-0.64-0.91l0.46-0.99l0.73-0.09L640.27,315.65L640.27,315.65z"/>
		</g>





		<g id="ru" transform="translate(-0.1495753,-0.00918063)">
		<path id="path4135" fill="#54565b" stroke="#54565b" stroke-width="1" stroke-miterlimit="10" d="M813.49,139.29l-4.09,2.17
			l-5.05,4.57l-5.29,3.61l-3.61-0.73l-4.82,2.41l-4.09,3.37l-4.57,4.09l-0.73,3.61l-5.05,1.2l0.24,4.57V172l-2.66,2.17l-2.17,4.81
			l2.17,1.44l-2.66,2.89l-0.49,2.17l-3.13,3.61l-1.93,2.66l1.44,2.89l-1.44,3.37l-3.13-0.49l0.96,4.34l2.66,2.41l0.96-1.2l2.66,2.89
			l-0.73,1.93l0.49,2.17l4.09,0.96l3.13,0.96l3.37-0.73l1.44,1.2l0.73-1.68l-2.89-1.93l-1.68-3.13l-1.68-5.05l-0.24-3.61l-0.24-6.02
			l2.89-2.66l1.2-4.09l1.68-4.34l0.96-3.61l1.68,0.73l0.73-3.84l0.96-3.13l1.93-0.49l1.93,0.96l0.96-3.37l1.68-3.61l1.68-0.49
			l3.61-3.84l3.37-1.68h2.41l4.09-3.37l5.29-2.66l3.37-1.68l0.73-2.17l1.44-1.93l-1.2-1.44l0.73-2.41l-2.66-1.93L813.49,139.29
			L813.49,139.29L813.49,139.29z"/>
		<path id="path4137" fill="#54565b" stroke="#54565b" stroke-width="1" stroke-miterlimit="10" d="M754.04,223.03l-2.66,2.66
			l0.96,3.37l4.34-0.73l2.17-3.37l-2.17-1.93L754.04,223.03L754.04,223.03L754.04,223.03z"/>
		<path id="path4139" fill="#54565b" stroke="#54565b" stroke-width="1" stroke-miterlimit="10" d="M673.47,324.95l-2.98,0.09
			l-2.63-0.91l-2.8,0.09h-0.9l0.9-0.99l-0.54-0.99l1.99-0.46l0.18,0.91l0.99-0.82l-0.28-1.62l0.73-0.36l-0.28-0.73l1.35,0.91
			l1.99,0.73l2.53,0.82l0.18,1.44l-0.09,1.17L673.47,324.95L673.47,324.95z"/>
		<path id="path4141" fill="#54565b" stroke="#54565b" stroke-width="1" stroke-miterlimit="10" d="M802.71,64.68l-2.89,2.71
			l-2.35,4.87l2.17,3.25l1.99-2.17l3.78-0.36l-1.44-4.15l0.36-3.97L802.71,64.68L802.71,64.68z"/>
		<path id="path4143" fill="#54565b" stroke="#54565b" stroke-width="1" stroke-miterlimit="10" d="M757.95,74.43l-1.25,3.07
			l-3.25,1.99l-1.44-3.43l-7.22-0.54l-5.05,3.25l1.25,2.89l3.97,1.62l0.36-4.87l2.35-1.08l2.89,1.44l1.81,1.08l-3.61,0.73
			l-1.44,1.44l3.61,0.73l-1.08,1.99l-3.78,1.44l2.35,3.25l2.71-0.9l-0.18,2.53l2.35-1.08l1.25-2.53l-0.18-2.35l3.07,0.18l0.9-3.07
			l2.53-1.08l1.25-2.89l-3.78,0.18l1.08-2.17l2.17-1.08l-2.17,0.18L757.95,74.43L757.95,74.43z"/>
		<path id="path4145" fill="#54565b" stroke="#54565b" stroke-width="1" stroke-miterlimit="10" d="M788.63,76.23l-0.9,3.43
			l-0.73,5.6l5.42-0.36l1.62-1.25l-2.17-4.34l2.35-1.44l0.9-2.17l-3.07,0.36L788.63,76.23L788.63,76.23z"/>
		<path id="path4147" fill="#54565b" stroke="#54565b" stroke-width="1" stroke-miterlimit="10" d="M771.85,71.37l0.36,2.17
			l2.89,0.54l1.99,2.35l2.89,1.25l1.99,0.54l-1.25-2.53l-3.97-1.99l-0.18-1.08L771.85,71.37L771.85,71.37z"/>
		<path id="path4149" fill="#54565b" stroke="#54565b" stroke-width="1" stroke-miterlimit="10" d="M780.51,61.07l-1.44,1.44
			l3.07,2.35l2.35-1.25l-1.99-1.81L780.51,61.07L780.51,61.07z"/>
		<path id="path4151" fill="#54565b" stroke="#54565b" stroke-width="1" stroke-miterlimit="10" d="M777.98,64.86l-0.36,1.44
			l-3.61,0.9l3.43,1.08l2.35-1.25l2.17,0.18l-1.25-1.99L777.98,64.86L777.98,64.86z"/>
		<path id="path4153" fill="#54565b" stroke="#54565b" stroke-width="1" stroke-miterlimit="10" d="M777.63,84.9l-1.25,1.25
			l0.18,4.51l3.43-0.54l-0.18-2.35v-1.99L777.63,84.9L777.63,84.9z"/>
		<path id="path4155" fill="#54565b" stroke="#54565b" stroke-width="1" stroke-miterlimit="10" d="M781.23,83.46l0.36,2.89
			l1.25,3.43l1.25-3.25l1.08-0.73l-2.53-1.81L781.23,83.46L781.23,83.46z"/>
		<path id="path4157" fill="#54565b" stroke="#54565b" stroke-width="1" stroke-miterlimit="10" d="M776.9,71l1.99,2.35l2.53,1.44
			l0.9-1.44L779.97,71H776.9L776.9,71z"/>
		<path id="path4159" fill="#54565b" stroke="#54565b" stroke-width="1" stroke-miterlimit="10" d="M790.27,71.19l0.18,1.81
			l2.53,1.44l1.25-2.53l-1.81-0.73L790.27,71.19L790.27,71.19L790.27,71.19z"/>
		<path id="path4161" fill="#54565b" stroke="#54565b" stroke-width="1" stroke-miterlimit="10" d="M767.52,85.08l-1.08,1.81
			l-1.08,2.17l5.24,0.36l-0.36-2.53L767.52,85.08L767.52,85.08z"/>
	</g>
	<path id="path3961" fill="#DDDDDD" d="M587.11,325.55l-0.49,1.81l1.93-1.44l-0.49-0.96L587.11,325.55z"/>
	<path id="path4273" fill="#DDDDDD" d="M471.48,728.45l5.24,5.19l3.58,4.88l0.28-4.88l-2.75-3.05L471.48,728.45z"/>
	<path id="path4307" fill="#DDDDDD" stroke="#54565b" stroke-width="1" d="M364.04,462.47l-1.31,0.24l-0.24,0.96l2.05,0.24
		l0.12-1.57L364.04,462.47L364.04,462.47z"/>
</g>
</svg>
