<svg version="1.1" id="Layer_1" xmlns="http://www.w3.org/2000/svg" xmlns:xlink="http://www.w3.org/1999/xlink" x="0px" y="0px" viewBox="0 0 1200 760" enable-background="new 0 0 1200 760" xml:space="preserve">
<g id="middle-east">
	<path id="pk" fill="#54565b" stroke="#54565b" stroke-width="1" stroke-miterlimit="1" d="M815.01,452.38l-1.93-0.73l-1.2-1.93
		l-1.44-2.89H809l-3.13,0.24h-1.93l-2.89-0.49l-4.09,0.73l-2.17,0.24l-0.24-1.2l0.49-3.13l1.93-1.19l1.68-1.44l0.73-0.96l-0.96-0.24
		l-0.24-2.17l-1.93-2.41l-3.61-4.09l3.37,1.68h2.41l1.93-0.24l3.37,0.24l3.61-1.44l1.68-0.24l1.93-5.78l2.41-0.24l1.93-1.44h1.68
		l0.49,0.96l2.17-5.29l2.17-0.49l-0.49-3.84l3.37-0.24v-1.44l1.2-2.17l0.24-2.66l-0.24-2.17l2.66-1.19l3.37-1.44l2.41,0.96
		l1.57-0.85l2.53,0.12l3.25,3.97l2.29,0.49l1.44,1.31l-1.93,0.31l0.36,1.31l-4.63,1.99l-3.07-0.06l-1.75-0.78l-0.9,1.31l0.12,2.83
		l0.6,2.53l2.17,1.08l0.6,0.9l0.54,1.37l-1.14,0.91l-1.2,0.42l0.06,2.23l-1.68,1.5v1.5l-2.47,2.05l-0.73,1.93l-2.66,2.41l-0.96,1.57
		l-3.13,1.08l-1.31-1.2l-1.68,1.57l-1.08,2.66l1.93,1.68l0.12,2.41l1.57,0.49l0.96,2.66l-0.12,1.68l-1.57,0.85l-1.2-0.36l-4.34,0.12
		L815.01,452.38L815.01,452.38z"/>
	<path id="af" fill="#54565b" stroke="#54565b" stroke-width="1" stroke-miterlimit="1" d="M793.24,431.32l-0.12-1.44l1.68-2.41
		l0.24-2.66l-2.05-0.49l-0.6-4.09l-0.85-1.81l0.49-1.68l-0.73-0.73l0.24-2.05l0.96-2.29l1.08-3.01l1.44,0.6l1.68,0.24l0.49,0.73
		l1.68-0.6l0.96-2.41l3.49-1.08l1.2-2.29l0.73-1.44l1.57-0.12l1.68-0.36l1.57,0.12l1.93,0.24l2.17,0.6l3.13-0.12l0.85,0.12
		l1.44-1.44l1.44-0.36l1.81-2.89l1.31,0.12l0.49,1.68l0.6,0.12l0.49,2.05l-0.12,1.68l1.2,0.24l2.53-1.57l1.57-0.85l1.44-0.24
		l0.85,0.85l2.29-0.6l0.6,0.12l-0.24,1.57l-1.57,0.85l-2.41-0.96l-6.02,2.66l0.24,2.17l-0.24,2.17l-1.2,2.66v1.44l-3.37,0.24
		l0.49,3.84l-2.17,0.49l-2.05,4.57l-0.6-0.24h-1.68l-1.57,1.2l-2.76,0.49l-1.93,5.78l-2.05,0.36l-3.25,1.31l-3.37-0.24L796,432.4
		L793.24,431.32L793.24,431.32z"/>
	<path id="tj" fill="#54565b" stroke="#54565b" stroke-width="1" stroke-miterlimit="1" d="M814.17,402.92l1.2-2.17l0.12-1.44
		l-0.12-3.25l-1.2-0.85l-0.49-0.49l-0.12-0.85l2.66-0.24l0.36-1.93l1.08-2.41l1.08,0.36l0.12-1.19l0.85,0.24l2.66-1.31l0.36,1.44
		l-0.73,0.85l0.85,0.85l-1.44,0.24l-1.68,0.36l-0.6,0.73l-1.44-0.12l0.24,1.08h1.2l1.2,0.24l1.08,0.6h2.66l1.44-0.49l0.6,0.12
		l1.08,0.96l2.17-0.6l1.08-0.49l2.05,0.6l0.12,1.08l0.6,1.68l0.12,0.73l1.57-0.12l1.44,1.44l0.24,2.29l-0.73,0.6l-2.17,0.73
		l-1.31-0.73l-1.44,0.24l-4.09,2.41l-1.2-0.24l0.24-1.31l-0.6-2.41l-0.6-0.12l-0.47-1.54l-1.49-0.32l-1.81,3.11l-1.28,0.18
		l-1.44,1.44H817l-2.31,0.18L814.17,402.92L814.17,402.92L814.17,402.92z"/>
	<path id="kg" fill="#54565b" stroke="#54565b" stroke-width="1" stroke-miterlimit="1" d="M823.09,390.51l3.02-0.09l1.54-0.91
		l1.67-1.12l0.9-0.91l-1.76-0.99l-1.17,0.5l-0.94-0.09l-1.08-1.35l-1.9,0.68l-1.9-0.73l0.18-0.54l1.72-0.82l1.12-1.04l0.59-0.46
		l-0.77-1.04l1.17-1.39l2.13,0.04h2.45l2.31,1.04l0.59-0.64l-0.18-2.08l1.44-0.91l1.39,0.04l1.21,0.86l2.21,0.64l2.31-0.28
		l1.81-0.23l2.58-0.09l1.72-0.36l1.44,0.28l1.21,1.58l1.08,1.29l1.54-0.04l0.28,0.86l-0.99,1.49l-1.81,0.59l-2.21,1.25l-2.31,1.54
		l-2.8,0.28l-3.05,2.76l-1.64-0.74l-2.35,1.49l-2.71,1.21l-0.46,1.58l-2.24-0.54l-3.13,1.08l-1.35-1.08l-0.64-0.04l-1.25,0.53
		l-2.39-0.07l-1.32-0.53l-2.14-0.33l-0.41-0.94l1.32,0.07l0.7-0.85l2.8-0.5L823.09,390.51L823.09,390.51L823.09,390.51
		L823.09,390.51z"/>
	<path id="tm" fill="#54565b" stroke="#54565b" stroke-width="1" stroke-miterlimit="1" d="M770.62,401.94l-0.64-3.78l-0.18-1.25
		l0.9-1.44l-1.17-0.46l-0.73-0.99l0.54-1.9l-2.17-0.18l0.18,0.91l-0.99-0.82l0.18-2.17l0.54-1.17l1.44,0.18l1.81,0.28l1.72-0.18
		l0.82-1.17l-0.09-0.73l-1.62-1.17l-0.99-1.25l-0.64-1.35l-1.81,0.54l-0.54,0.91l-0.18,1.99l-1.1-1.74l0.54-2.08l1.54-1.08
		l2.63-0.54l1.81,0.18l1.54,0.82l0.99,1.81l1.08,0.99l2.08,0.18l1.81,0.09l0.99,0.09l-0.18-2.8l2.17-0.54l0.73-0.91l0.54-0.36
		l0.46-0.64l1.25-0.09l1.25,1.17l0.54,0.91l0.99,0.36l0.99,1.44l0.82,1.35l0.73,0.82l3.16,0.09l1.35,1.17l0.9,1.44l0.46,1.08
		l1.17,2.08l0.82,1.17l1.81,1.54l2.17,1.08l1.99,1.54l1.81,1.25l1.72,0.54l1.99,0.36l-0.42,2.59l-1.57-0.12l-2.35,0.33l-0.9,0.15
		l-2.17,3.64l-3.25,1.17l-0.96,2.41l-1.68,0.6l-0.49-0.73l-1.2,0.06l-1.93-0.91l-0.52-4.15l-2.35-0.09l-1.17-1.72l-1.25-0.18
		l-1.08-1.81l-0.99-0.18l-0.82,0.28l-1.62-0.18l-0.54-0.91l-1.25-0.18l-0.54-1.17l-2.63-0.09l-1.54,0.64l-1.62-0.18l-2.08,1.08
		l-0.46,1.62L770.62,401.94L770.62,401.94L770.62,401.94z"/>
	<path id="uz" fill="#54565b" stroke="#54565b" stroke-width="1" stroke-miterlimit="1" d="M777.92,384.69l-0.46-15.88l7.77-1.62
		l-0.64,2.26l-0.82,2.63l0.18,1.35l0.46,2.35l2.17,0.36l1.17-0.09l0.9,1.25l1.25-0.73l0.36-0.64l0.9,0.09l0.36-1.72l0.73,0.18
		l2.71,2.08l3.43-0.28l2.35,0.91l2.53-0.46l2.08,1.99l0.73,3.7l0.73,1.72l-0.18,1.17l-1.25,0.99l1.62,1.17l3.7,0.36l2.17,0.54
		l0.82,0.99l1.72,0.64l0.73-1.44l0.82-2.26l1.54-1.81l2.17-0.28l2.35-1.17l0.73,0.54l-2.03,1.35l-0.18,0.54l1.9,0.73l1.9-0.68
		l1.08,1.35l0.94,0.09l1.17-0.5l1.76,0.99l-3.74,2.89l-3.88,0.14l-0.6-0.84l0.73-0.85l-0.36-1.44l-2.66,1.31l-1.17-0.52v1.35
		l-1.17-0.18l-0.78,2.35l-0.36,1.93l-2.66,0.24l0.28,1.35l1.25,0.9l0.28,4.6l-1.2,2.17l-2.17-0.6l-1.93-0.24l0.42-2.59l-3.7-0.91
		l-3.78-2.8l-2.17-1.08l-1.81-1.54l-2.45-4.34l-0.9-1.44l-1.35-1.17l-3.16-0.09l-2.35-3.34l-0.9-0.54l-1.54-1.9l-0.82-0.36
		l-0.99,0.18l-0.99,0.99l-0.73,0.91l-2.17,0.54l0.18,2.8l-2.8-0.18L777.92,384.69L777.92,384.69z"/>
	<path id="kz" fill="#54565b" stroke="#54565b" stroke-width="1" stroke-miterlimit="1" d="M777.83,384.99l-1.81,0.06l-1.08-0.99
		l-0.99-1.81l-1.9-1.11l-1.93,0.24l-1.2,0.12l-1.2,0.6l-1.25,0.78l-0.42,1.37l-0.73-0.6l0.24-1.19l0.6-1.68v-0.73l-2.17-0.12
		l-0.73-1.2h-1.08l-0.24-1.2l-0.6-1.57l-0.96-1.81l-1.31-0.36l-0.49-1.93l1.81,0.36l2.17,0.36l-0.6-1.31l1.81-2.53l0.36,1.68
		l0.73-1.44h2.29l0.49,0.96l2.17-0.49l-1.08,1.31l-0.73,1.57l0.24,0.85l1.08-1.08l1.2-1.57l2.53,0.12l-0.36-2.17l-1.08-1.08
		l-1.44-0.85l-0.49-1.68L768,362.7l-1.44-1.81h-2.89l-3.01-0.24l-2.05,1.2l-2.05,0.6l-1.2,1.2l-0.73,1.44l-1.2,1.08l0.24-1.81
		l1.44-1.93l-0.85-1.44l-2.29-1.93l-0.73-0.85l-2.17-2.17l-1.2-2.05l0.24-1.68l0.85-3.13l0.73-4.69l3.73,2.66l0.6-1.81l-0.6-1.68
		l1.08-1.44l0.24-1.81l2.05-0.24l2.76-1.57l0.36-1.19l2.17,0.73l-0.36,1.57l1.57-1.08l1.68,0.12l1.93-0.6l2.05,0.6l2.41,2.41
		l0.49,2.41l0.85-1.31l1.08-0.24l1.57,1.08l1.57,0.24l1.57-1.81h2.53l1.31,0.85l2.76-0.73l1.08,1.81l2.05,1.08l2.05-1.19l2.05,0.96
		l3.01-3.61l-1.44-0.96l-2.76-0.49l-0.24-1.44l-1.31-0.85l2.76-1.19v-2.89l-0.36-0.6l1.44-0.24l2.89,0.36l-1.57-2.53l-0.85-1.08
		l1.68-0.85l-1.93-0.96l0.85-1.93l2.05,0.49l4.93-0.73l2.29-0.49l2.17,0.24l2.89-2.66l5.18-0.49l1.81-0.85l2.53-2.53l1.93,0.73
		l1.93,0.24l1.31,0.36l0.6,1.93L825,323l-0.36,2.29l1.57,1.2l0.49-1.2l2.29,0.36l0.12,1.08l1.68-0.6l0.36,0.73l0.24,1.81h2.89
		l1.31,0.24l1.31-1.68l1.44-0.24l1.81-3.37l2.17-0.12l-1.08,1.93l3.84,4.69l4.2,4.2l2.53,5.05l0.96,2.66l2.41-2.76l1.31,0.73
		l0.6,1.08l1.31,1.57l2.41-0.12l2.17-0.73l1.93,0.24l1.2,2.76l0.85,1.31l1.81-0.12l1.57,2.17l1.68-0.24l1.81-0.96l0.96,1.81
		l-0.49,1.08l-0.24,2.41l-1.81,0.85l-2.05,0.49v3.96l-0.6,2.53l-2.66,0.73l-1.68-0.6l-2.17-0.24l-1.81,2.76l-1.57,3.73l0.96,2.53
		l-0.96,0.85l-3.25-0.36l-3.84,1.08l1.31,1.81l-0.85,1.31l0.73,1.93v2.66l-0.49,1.44l-0.12,1.68l-2.13,0.06l-2.1-2.59l-1.2-0.6
		l-0.73,0.12l-7.22,0.73l-1.31-0.12l-1.79-0.38l-1.21-0.86l-1.39-0.04l-1.44,0.91l0.07,1.7l-0.49,1.01l-2.05-0.89l-1.68,0.12
		l-3.13-0.32l-1.17,1.39l0.77,1.04l-1.39,0.94l-0.73-0.54l-1.81,0.96l-2.71,0.49l-1.54,1.81l-1.54,3.7l-1.72-0.64l-0.82-0.99
		l-2.89-0.64l-2.66-0.12l-1.96-1.31l1.25-0.99l0.18-1.17l-0.73-1.72l-0.73-3.7l-2.08-1.99l-2.53,0.46l-2.35-0.91l-3.43,0.28
		l-2.71-2.08l1.2-0.57l-0.85-2.29l1.68-0.24l0.85-1.31l-0.96-0.6l-1.31-2.41l0.24-2.05l0.96-1.81l-0.49-0.96l-1.08,0.36l-0.12,0.85
		l-1.31-0.85v0.85l-1.31-0.85l-0.12,1.81l1.81,0.49l-1.93,0.49l-1.31-0.6l-0.12,1.81h-1.08l-0.96-0.36l-0.78,0.96l-7.77,1.62
		L777.83,384.99L777.83,384.99L777.83,384.99z"/>
	<path id="ir" fill="#54565b" stroke="#54565b" stroke-width="1" stroke-miterlimit="1" d="M794.8,447.56l-1.25,0.49l-3.07-1.25
		l-3.43,0.36l-4.87-1.44l-1.25-0.36l-0.73-3.78l-2.17-0.54l-0.9,0.91l-2.35,0.91l0.9-1.44l-3.61,1.62l-2.35-1.81l-3.43-0.73
		l-1.81-2.53l-2.89-0.18l-0.36-2.89l-1.44-2.17l-1.25-2.17l-1.62-0.36l-0.18,0.73l-1.81-1.44l-1.08,0.18l-1.81-1.44v-2.35
		l-1.44-1.25l0.73-2.53l-2.89-2.89l-2.35-0.36l-1.62-4.69l0.36-2.71l1.44-1.62v-1.99v-0.91l-1.44-0.36l-1.62-1.44v-1.81l-1.62-2.17
		l-0.9-2.7v-2.17l-0.36-2.17l1.08-2.17l1.81,0.18l1.81,1.08l0.9,0.91l1.08,1.25l1.44,0.18l1.25-1.25l1.44-1.25l0.9-0.73l1.25,1.08
		l-0.9,0.91l1.25,0.91l-1.25,1.44l1.25,0.91l1.08,1.25v1.62l0.73,1.62l1.44,0.36l1.08-0.36l1.62,0.91l-0.18,1.08l1.62,0.73
		l3.25,0.91l2.53-0.54l2.17-0.73l1.08,0.73l0.9-0.54l-0.36-2.63l2.53-0.46l0.46-1.62l2.08-1.08l1.62,0.18l1.54-0.64l2.63,0.09
		l0.54,1.17l1.25,0.18l0.54,0.91l2.45-0.09l0.99,0.18l1.08,1.81l1.25,0.18l1.17,1.72l2.35,0.09l0.52,4.15l-2.05,5.29l-0.24,2.05
		l0.73,0.73l-0.49,1.68l0.73,2.35l0.73,3.55l1.62,0.6l0.18,2.53l-1.44,3.25l0.36,1.62l2.53,2.47l1.93,2.41l0.24,2.17l0.24,1.2
		l-2.59,1.86l-1.44,1.81l-0.06,2.11L794.8,447.56L794.8,447.56z"/>
	<path id="az" fill="#54565b" stroke="#54565b" stroke-width="1" stroke-miterlimit="1" d="M748.6,395.09v-1.57l0.24-1.31
		l0.96,0.85l0.24-1.57l-0.85-1.08l-1.57-0.73v1.68l-0.96,0.49l-0.49-1.44l-0.49-1.31l-0.96-0.36l-1.81-1.44l-0.24-1.81l3.25,1.2
		l0.96-1.08l-1.08-0.96l-0.85-1.57l0.85-0.24l2.76,0.73l1.93,1.81l1.31,0.49l1.44-1.57l2.17,2.29l0.96,1.93l2.29,1.2l-2.29,1.93
		l-0.49,2.41l-0.36,1.44l-1.2,0.36l0.36,2.94l-2.35-2.17l1.14-1.75l-0.85-0.6l0.6-0.91l-0.96-0.91L748.6,395.09L748.6,395.09
		L748.6,395.09z"/>
	<path id="am" fill="#54565b" stroke="#54565b" stroke-width="1" stroke-miterlimit="1" d="M741.38,391.91l-1.2-1.14l-1.44-0.36
		v-1.93l-0.24-1.44l-1.08-1.44l5.29-0.12l0.24,1.81l1.81,1.44l0.96,0.36l0.96,2.76l0.96-0.49v-1.68l1.57,0.73l0.85,1.08l-0.24,1.57
		l-0.96-0.85l-0.24,2.89l-0.49,0.6l-1.14-0.36l-1.08-1.25l-1.5-1.14l-1.2-0.85l-0.96-0.12L741.38,391.91L741.38,391.91
		L741.38,391.91z"/>
	<path id="ge" fill="#54565b" stroke="#54565b" stroke-width="1" stroke-miterlimit="1" d="M737.41,385.59l-1.44-0.36l-0.49-1.44
		l-2.29,0.96l-1.31-0.36l-0.49-2.76l-0.96-1.68l-2.41-0.73l-1.44-1.31l-1.08-1.2l2.66-0.12h3.01l2.66,1.44l2.41,0.73l1.93,0.24
		l1.93,1.57l1.57-0.12l2.41,0.24l1.31,2.05l-0.36,0.36l0.85,1.57l1.08,0.96l-0.96,1.08l-2.89-1.08l-0.96-0.36L737.41,385.59
		L737.41,385.59L737.41,385.59z"/>
	<path id="iq" fill="#54565b" stroke="#54565b" stroke-width="1" stroke-miterlimit="1" d="M741.73,401.72l-1.57,0.24l-1.2-0.36
		l-2.05,0.6h-1.57l-2.17,1.93l-1.44,1.57l-0.24,2.89l-0.24,2.53l-0.6,1.57l-7.46,5.05l0.36,0.85l0.12,3.01l0.6,0.12l0.12,0.6
		l5.54,0.6l12.03,9.99l4.93,0.24l3.61-3.13l3.31-0.36l-1.81-1.44l0.06-2.05l-1.5-1.57l0.73-2.53l-2.89-2.89l-2.35-0.36l-1.62-4.69
		l0.36-2.7l1.44-1.62l-0.31-2.76l-1.14-0.49l-1.62-1.44v-1.81L741.73,401.72L741.73,401.72L741.73,401.72z"/>
	<path id="sy" fill="#54565b" stroke="#54565b" stroke-width="1" stroke-miterlimit="1" d="M733.2,402.21l-0.96,1.08l-2.89-0.24
		l-4.09,1.44l-2.66-1.08l-3.49,1.08l-1.2-1.08l-1.2,0.6v1.81l-2.41,2.29l-1.08,1.57l0.6,0.12l0.36,3.01h1.44l0.36,1.31l-1.31,0.96
		l-0.24,1.44l-0.6,0.73l-0.24,2.29l1.31,0.85l0.49,0.96l1.57-0.12l2.17-0.96l11.55-7.59l0.6-1.57l0.24-5.05l3.49-3.49l-0.96-0.36
		L733.2,402.21L733.2,402.21L733.2,402.21z"/>
	<path id="kw" fill="#54565b" stroke="#54565b" stroke-width="1" stroke-miterlimit="1" d="M747.39,432.89l2.76,0.36l1.44,1.44
		l0.73-0.36l0.96-1.68l0.49-1.08l-1.31-0.85l1.08-0.24l1.37-1.02l-4.4,0.54L747.39,432.89L747.39,432.89z"/>
	<path id="lb" fill="#54565b" stroke="#54565b" stroke-width="1" stroke-miterlimit="1" d="M713.82,417.23l-1.57-0.36l0.49-1.68
		l0.73-1.19l0.73-1.2h1.08l0.73,1.31l-1.31,0.96l-0.24,1.44L713.82,417.23L713.82,417.23z"/>
	<path id="jo" fill="#54565b" stroke="#54565b" stroke-width="1" stroke-miterlimit="1" d="M713.58,419.53l-0.36,1.08l-1.2-0.12
		l-0.12,1.57l-0.24,1.81l0.85,0.6l-0.49,2.05l-0.49,5.42l4.34,1.57l1.68-2.41l1.44-0.36l1.2-1.2v-0.73l0.85-0.12v-0.49l-2.76-2.53
		v-0.85l6.26-2.29l-0.24-0.85l-0.6-0.12l-0.12-3.01l-0.36-0.85l-6.26,3.49l-1.57,0.12l-0.49-0.96L713.58,419.53L713.58,419.53z"/>
	<path id="sa" fill="#54565b" stroke="#54565b" stroke-width="1" stroke-miterlimit="1" d="M710.45,436.85l1.31,0.6l1.2,1.81
		l1.68,2.76l1.93,3.01l1.44,1.93l-0.12,1.19l1.08,1.93l3.13,1.93l2.41,4.34l-0.73,2.17l0.6,1.81l0.24,1.57l2.41,1.81l1.81,1.44
		l1.57,3.49l1.57,2.76l1.57,1.57l2.17,3.73l0.96-1.19l0.6-2.41h0.85l0.73,0.73l3.49-0.36l2.41,0.73l3.37,0.24l0.96,0.85l1.08-0.73
		l1.57-2.89l2.41-1.57l3.73-1.08l4.69-0.24l2.41-0.73l9.62-3.84l1.08-6.85l-0.49-0.73l-0.73-1.57l-1.2,0.96l-6.26-1.31l-2.53-2.17
		l-1.57-2.29l-0.36,0.12v-1.44l-1.57-1.19l-0.12-1.31l-0.85,1.08l-0.73-1.57l-1.08-1.44l1.08-1.81l-0.12-1.08l-1.31-0.12l-1.93-0.96
		l0.12-0.96l-0.96-1.2l-1.08-0.96l-0.6-2.17l-0.73-1.44l-0.73,0.85l-0.73,0.12l-1.44-1.2l-2.41-0.6h-5.42l-12.03-9.99l-5.42-0.36
		l-6.26,2.29v0.85l2.76,2.53v0.49l-0.85,0.12v0.73l-1.2,1.19l-1.44,0.36l-1.68,2.41l-4.34-1.57l-0.12,1.81l-0.12,1.2L710.45,436.85
		L710.45,436.85L710.45,436.85z"/>
	<path id="om" fill="#54565b" stroke="#54565b" stroke-width="1" stroke-miterlimit="1" d="M768.22,475.84l2.41-0.73l1.81-0.49
		l1.2,0.49l1.31-2.29l0.36-1.31h1.93l1.31-0.24l0.96-2.76l3.37-0.36l-0.49-3.01l1.31-1.81l0.49,0.49l0.85-0.85l1.2-2.41l1.68-1.68
		l1.31-2.41l-1.93-1.68l-1.08-1.31l-1.68-0.85l-1.81-0.12l-2.66-1.19l-1.44-2.17l-0.49-0.85l-1.08,0.12v1.81l0.6,0.6l-1.31,0.24
		l-1.2,1.57l-0.6,2.17l1.08,2.53l-1.08,6.85l-9.26,3.97l-0.36,0.96l2.05,6.85L768.22,475.84L768.22,475.84z"/>
	<path id="ae" fill="#54565b" stroke="#54565b" stroke-width="1" stroke-miterlimit="1" d="M763.81,451.59l2.41-0.24l0.78-0.73
		l2.11,0.12l1.2,0.42l1.25-0.67l1.14-1.62l0.6-1.19l1.37-0.36l1.2-1.68l0.9-0.42l0.73-0.06l0.06-1.19l0.78-0.6l0.49,1.02l-0.67,1.31
		l0.06,1.37l-0.06,1.19l-1.14,0.42l0.06,1.5l0.49,0.6l-1.5,0.42l-1.08,1.68l-0.54,2.11l-1.2,0.96l-6.26-1.31l-2.35-1.93
		L763.81,451.59L763.81,451.59z"/>
	<path id="qa" fill="#54565b" stroke="#54565b" stroke-width="1" stroke-miterlimit="1" d="M762.86,448.94l-1.75-1.31l-0.12-1.57
		l0.24-0.54l0.54-1.62l1.02,0.42l0.6,1.68l-0.06,1.25L762.86,448.94L762.86,448.94z"/>
	<path id="bh" fill="#54565b" stroke="#54565b" stroke-width="1" stroke-miterlimit="1" d="M760.15,442.69l-1.02,0.91l-0.06,1.19
		l0.85,1.02l1.2-0.6l-0.18-0.96l0.49-0.91l-0.67-0.85L760.15,442.69L760.15,442.69z"/>
	<path id="ye" fill="#54565b" stroke="#54565b" stroke-width="1" stroke-miterlimit="1" d="M764.97,469.1l2.05,6.85l-1.44,1.31
		l-0.12,2.17l-2.29,0.36l-0.96,0.73l-3.84,1.31l-2.89,0.85l-0.85,1.57l-3.61,0.24l-1.44,1.68l-3.13,0.12l-2.41,0.49l-0.6,1.08
		l-1.44,0.96l-2.05-0.36l-0.49,0.24l-1.57-0.36l-0.73-2.05l-0.24-1.57l-0.73-1.57l0.24-1.08l-0.73-1.08l-0.49-2.29l0.49-0.96
		l0.12-0.73l0.85-1.57l0.49-2.05l0.96-0.36l0.73,0.73l3.49-0.36l2.41,0.73l3.37,0.24l0.96,0.85l1.08-0.73l1.57-2.89l2.41-1.57
		l3.73-1.08l4.34-0.12l2.76-0.85L764.97,469.1L764.97,469.1L764.97,469.1L764.97,469.1z"/>
	<path id="il" fill="#54565b" stroke="#54565b" stroke-width="1" stroke-miterlimit="1" d="M711.23,432.34l-0.54-3.43l-1.25-3.01
		l0.42-0.78l0.18-1.31l0.06-1.81l0.9-0.67l0.12-1.75l0.54-1.25l0.6-1.44l1.44,0.54l-0.24,2.35l-0.24,0.85l-1.2,0.06l-0.49,3.25
		l0.78,0.6l-0.36,1.75l-0.49,5.9L711.23,432.34L711.23,432.34L711.23,432.34z"/>
</g>

</svg>
