<svg version="1.1" id="Layer_1" xmlns="http://www.w3.org/2000/svg" xmlns:xlink="http://www.w3.org/1999/xlink" x="0px" y="0px" viewBox="0 0 1200 760" enable-background="new 0 0 1200 760" xml:space="preserve">
<g id="north-america">
	<g id="ca" transform="translate(-0.1495753,-0.00918063)">
		<path id="path4163" fill="#54565b" stroke="#54565b" stroke-width="1" stroke-miterlimit="10" d="M152.41,223.14l-0.12,68.83
			l3.37,0.6l1.57-0.96l1.44,1.19l0.36,1.44l4.57,4.57l0.36,1.93l1.57-1.44l0.73-1.08l1.2-0.24l0.36-1.08l2.29-0.73l1.2,0.6v1.2
			l4.93,5.42l0.12,1.93l2.53,3.97l1.31,3.25l2.29,2.89l4.69,3.13l-0.6,1.31l0.12,1.81l-0.85,2.17l-2.29,1.86l-0.24,1.02l2.53-1.08
			l0.49,1.99l-0.85,1.08l0.73,0.91l0.31,1.37l-1.68,0.12l1.37,1.93l1.2-0.78l0.85-0.31l1.75-0.91l0.78,0.78l-1.2,1.62l-0.54,1.25
			l0.6,2.47l0.42-1.86l1.37-0.91l0.49,2.47l-0.24,1.25l1.86,0.67l2.83-1.81l-0.73,2.17l-2.29,0.96l-0.18,1.62l0.73,0.06v2.17
			l2.05,1.44l1.62,0.24l1.57,1.86l-1.93-0.06l-3.19-0.96l-1.44-1.2l-1.57,1.02l1.25,0.96l1.14,0.06l0.49,1.44l2.35,1.2l1.02,1.57
			l0.6,0.78l1.2,0.54l2.35,2.11l1.68,0.54l1.68,0.91l1.62,0.36v-1.62l-1.31-1.57l-2.11-1.02l-1.02-2.83l-2.71-1.86l0.42-0.24
			l1.31,0.49l1.68,1.31l1.02,1.44l1.93-0.12l1.44,1.37v1.31l0.85,0.18l0.96-0.49l0.9,0.18l0.67,0.78l-0.06,0.42l84.47-0.06
			l0.85-1.31l-0.06-0.91l0.85,0.78l0.24,1.31l0.73,1.08l1.93,0.78l1.93,0.42l1.57-0.06l0.54,0.42l1.02,0.36l1.44,0.49l3.25,0.42
			l3.01-0.06l1.2,0.18l0.96-1.68l1.14-0.6l0.67-0.67l0.31,0.96l0.85-2.05l1.5,1.02l1.81,0.31l1.14,0.06l1.44,1.81l0.6,1.44
			l1.25,0.49h1.93l-0.12,1.25l0.96,1.2l0.06,0.78l-0.9,1.14l0.73,0.85l0.6,1.14l1.86,0.73l2.83,0.78l2.83,0.18l1.81,0.49l2.71,0.42
			l1.14,1.31l0.96,1.37l0.31,1.02l0.96,0.96l-0.9,0.67l-0.67,0.96l-2.35-1.44l-0.78-0.85l-0.9-0.73l-0.6,0.12l0.54,1.44l0.49,1.2
			l-1.25,1.86l-0.31,2.59l-0.67,1.08l-0.67,0.73l-0.36,1.2l-0.73,1.44l0.24,0.85l-1.31,0.06l-0.31,0.96l1.57,0.06l1.86-1.57
			l2.35-0.67l1.75-0.06l1.93-0.18l1.14-0.85l1.75-0.18l-1.86-2.35l1.75-1.75l2.29-0.54l3.91-0.36l2.35-1.08l5.11-2.83l10.47-0.12
			l0.6-0.54l1.93-0.42l1.14-2.47l1.2-3.07l1.25-2.59l0.54-1.25l1.02,0.12l1.86-0.67l2.17,0.67l0.36,3.67l-0.31,4.02l0.73,0.54
			l0.67,1.62l1.37-0.18l3.55-0.6l1.44-1.37l1.62-1.31l-0.49,1.75l2.94,0.54l-0.9,0.6l-1.08-0.12l-3.73,2.29l-1.81,2.11l1.44,2.76
			h1.86l2.47-3.13l2.53-1.08h2.53l2.17-1.75l2.66-2.23l1.44-1.14l2.59-1.99l-1.14-0.73l0.06-2.35l-0.9-0.67l-1.44,2.7l-1.14,1.37
			v1.08l-2.47-0.12l-1.68,0.12l-0.12-0.67l1.02-0.6l1.14-1.5l0.9-1.44l-2.83,0.12h-2.17l-2.23-0.18l0.31,1.02l2.35,2.05l0.96,0.18
			l0.06,0.91l-2.11-0.67l-1.75-1.81l-1.5-0.67l-0.31-2.47l0.31-1.31l-0.54-1.5l-1.75-0.6l-0.49,0.54l-1.2-1.5l0.67-0.54l1.81,0.42
			l1.86-1.57l0.9-1.5l-0.36-1.31l-2.66-1.14l-3.84,0.06l-2.89,1.14l-3.78,2.59l-2.23,1.86l-2.29,2.76l-2.05,2.11l-1.93,0.67
			l4.2-3.78l1.37-3.31l2.11-2.29l2.89-2.29l2.11-0.06l1.99-3.07l2.41-1.25l6.36,0.06l-0.06,1.37l-1.68,0.06l1.37,1.08l2.35,1.75
			l3.31,1.31l1.62-0.49l-2.71-1.75l-2.47-1.25l-1.31-0.6l-0.06-1.2l1.99-0.31l3.49,0.06l1.99,0.6l2.35-0.54h1.93l1.44-0.85
			l1.14-2.11l1.93-1.93l2.35-0.96l2.05-0.12l1.02,0.24l-0.18,1.08l-1.62,1.99l-0.18,1.75l0.06,1.37l-1.81,0.6l-0.36,3.07l0.42,1.02
			l-1.37,0.73l-1.14,1.68l-1.2,0.18l2.59,0.91l-1.81,1.5l-0.9,1.86l2.11,0.06l4.2-0.24l2.05,0.18l2.53-0.54l-0.31,1.5l1.31-0.36
			l1.14-0.31l-1.08,1.31l-0.67,1.08l-0.96,0.67l2.05,0.18l1.2-1.57l0.9-0.54l1.31-1.68l0.85,0.12l-0.31,2.17l-0.85,1.93l1.86-1.81
			l-0.06,1.99l1.99,0.24l0.9-3.49l-1.25-0.31l1.02-2.17l-2.11,0.36l-0.85-0.18l0.18-1.08l1.81-0.67l0.18-4.02l-1.44,3.13l-1.08,0.31
			l0.78-3.91l-2.59-0.96l-2.05,1.44h-1.08l0.18-1.2l-1.57-0.36l1.14-1.86l-1.5-0.49l-0.73-0.31l-1.68,2.47l0.36-2.35l0.9-1.68
			l0.78-1.25l0.36-0.67l0.6-0.36l0.12-1.02l-0.73-0.96l0.49-0.67l1.44-0.67l-0.73-0.49l-1.75,0.24l-1.44,0.78l-0.9-0.36l1.81-1.02
			l1.81-1.37l0.36-1.75l-1.25-0.85l0.73-1.37l-0.36-1.37l0.85-1.02l-1.31-2.17l-2.35-0.12l-0.85,1.08l-1.14,0.6l0.24-1.31l0.96-1.5
			l-1.2-1.37l-2.41,0.31l-1.81,1.08l-0.73,1.86l-1.44-0.24l-2.17,1.08l0.18-1.14l1.86-1.93l3.13-1.5l2.59-1.2l0.12-0.91l-2.23-1.14
			l-1.81-0.31l-0.96-1.44l-2.47,0.85l-0.96-1.31l1.02-1.2l-0.67-1.37l-1.62-0.85l-1.93-1.19l-0.6-1.62l-2.41-0.42l0.73-0.85
			l-1.99-0.54l3.31-0.78l1.31-1.5l-1.08-0.96l-1.02-0.6l-1.02-0.42l1.2-1.5l-1.08-1.2l-1.14-1.57h-2.41l1.75-1.99l-1.14-0.18
			l-1.08-0.49l1.99-0.91l-1.25-2.05l-2.59,0.54l2.29-1.57l-0.9-1.14l-1.14-1.37l-0.54-0.49l-0.54-1.68l-0.42-1.62l-0.78-1.14
			l-0.78,2.05l-1.02,1.93l0.06,1.14l0.18,1.25l-0.96,1.08l-0.85,2.05l-1.37,0.06l-1.62,2.05l-1.93,1.2l-1.68-0.96l-1.31-2.41
			l-4.15,0.12l1.37-1.5l-0.36-1.31l-1.02-1.14l0.67-1.93l-2.17-0.73l2.41-1.25l-0.54-1.75l0.06-2.17l0.78-1.31l-2.05-0.18
			l-2.35-0.42l-3.25-0.78l0.12-1.93l-0.9-1.44l-1.62-0.91l0.18-1.19l-0.49-0.6l-1.5-0.91l-1.81-1.14l-2.42,1.19l-0.84,0.91
			l-1.57-0.91l-2.05-0.49l-3.61-0.96l-2.77,0.18l-0.42,2.53l1.93,2.66l-0.31,1.75l-1.62,3.19l2.17,0.91l-0.49,2.23l0.9,1.5
			l-0.24,1.75l-0.6,1.68l-1.57,2.05l-2.17,0.85l0.6,3.97l3.13,2.17l1.57,5.18l0.73,4.57l-1.57,3.25l-2.41,4.69l-4.81,1.57l2.17,3.73
			l0.36,5.18l0.49,3.37l-0.36,2.89l-3.37,1.81l-0.73,1.68l-2.17-1.57l-0.24-2.53l-2.05-1.68l-2.05-3.49v-4.93l-1.31-2.05l0.85-4.2
			l-5.66-0.6h-5.05l-2.76-3.13l-5.42-4.57l-5.05-2.29l-2.89-1.31l-4.09,1.68l-1.08-4.69l-1.81-4.09l-1.57-2.66l-2.53-0.24
			l-0.96-2.17l-0.12-4.34l1.31-4.93l3.01-5.9l1.93-3.84l1.08-2.29l2.29-0.6l-1.93-0.96l5.54-0.12l-1.57-4.34l2.05-1.57l2.66-2.29
			l3.73-0.96l4.2-8.43l-6.02-1.2l-3.61-3.61l5.54,2.53l3.73,0.49l3.25-5.18l-2.29-2.66l1.68-0.96l4.2,0.12l0.36,3.01l2.89-0.96
			l2.53-1.2l2.89-2.76l3.97-4.34l-2.05-2.76l-1.93-3.01l-0.6-3.84l0.96,0.24l1.81-2.89l-1.31-1.57l1.44-1.57l-2.66-0.6l-0.6-2.66
			l-3.25-1.57l-2.89-0.85l-3.73,0.49l0.73,6.02l1.44,0.73l-0.85,2.53l-1.81,0.24l-3.13,9.62l-3.25,1.08l-1.68-5.54l1.68-2.89
			l-3.49-5.42l-2.41-1.31l-2.41,2.66l0.73,5.29l-2.05-6.97l-1.44-3.01l-1.08-2.05l-2.17-1.08l0.24-2.76l1.68-0.36l-2.76-5.9
			l-1.31-3.37l-1.44-3.49l-2.05-2.05l-1.68-2.53l2.53-1.44l-2.29,0.49l2.53-2.17l0.73-2.17l-1.08-2.05l-1.31-1.08l1.57-0.73h3.97
			l1.68,0.73l2.29-7.1l2.53-3.49l0.6-3.25l-4.2-0.96l-2.05,0.36l-2.29-1.81h-5.9l-2.17,2.41l3.01,2.41h-3.61l-0.12,4.57l0.73,4.57
			l-0.36,2.05l1.81,1.81l-0.6,2.41l1.08,2.89l-0.6,1.81l-1.08,2.05l-1.08,2.53l0.12,1.57l-1.31-0.24l-0.85,4.34l1.2,1.31l-1.57,3.25
			l0.24,2.76l2.53,2.66l2.29,0.85l0.49,1.08l3.25,0.12l-1.81,2.05l-0.6,4.09l2.05-1.57l0.85,3.37l-2.76,3.73l-2.29,0.6l-1.2,3.13
			l1.31,2.53l-0.49,1.31l-2.66-0.96l0.6-3.97l-0.36-2.66l-1.93-0.85l-1.2-1.81l1.57,0.12l3.01-1.81l1.2-0.6l-2.29-0.96l0.36-2.89
			l-2.41-1.68l-3.25-3.49l-2.05,1.57l0.96,2.41l-1.93,1.93l-2.53,1.68l3.49,2.89l2.29-0.36l0.6,1.08l-1.44,0.85l-2.29,1.2l1.08,1.81
			l0.73,1.08l-1.68,1.19l-6.02-0.12l-3.49,1.08l-4.2-1.93l-3.37-2.41l-2.41-0.12l-2.05-3.13l-0.36-1.68l-1.57-1.31l-3.13,1.68
			l-2.89,1.68l-0.96,2.17l3.84,0.85l2.29-2.89l-0.6,3.49l-2.41,0.96l-0.96,3.61l1.44,4.93l-2.29-0.12l-1.08-4.46l-2.76-0.24
			l-2.05-2.53l-4.46,0.24l-3.61,0.49l-3.84,0.49l-5.9-0.6l1.81-3.25l3.01-0.6l-1.31-3.01l-3.61-2.41l-4.69,0.24l-4.34-2.29
			l-2.05-1.44l-3.25-1.57l-3.13-1.31l-3.25-1.44l-3.37-0.12l-0.36,3.37h-3.25l0.96-2.76l-1.68-1.08l-0.12-1.93l-3.37,1.93
			l-0.12,3.01l-1.2,0.6l-2.53-4.34l-1.44-3.49l-2.76-2.66l-1.81,3.25l2.05,0.85l-2.66,2.53l-2.05-0.49l0.49-2.05h-1.81l-2.89,2.41
			l-2.53,1.68l-4.69,1.57l-1.2,1.81l-1.2-1.81l-0.73-1.2l-2.29,1.31l-0.96,1.68l1.81,2.29l-0.49,1.81l-3.13,0.12l-3.25-0.6
			l-1.93-1.08l-1.31-0.96l-1.44-2.05l-1.93-0.36l-2.41-1.31L152.41,223.14L152.41,223.14L152.41,223.14z"/>
		<path id="path4165" fill="#54565b" stroke="#54565b" stroke-width="1" stroke-miterlimit="10" d="M343.92,314.36l-1.44,3.25
			l1.08,2.17l2.71-3.43L343.92,314.36L343.92,314.36z"/>
		<path id="path4167" fill="#54565b" stroke="#54565b" stroke-width="1" stroke-miterlimit="10" d="M324.78,255.34l-0.9,3.25
			l-1.08,7.22l-1.62,2.53l-0.73,2.53l4.52-1.25l0.18,2.89l3.25-0.18l1.99-2.53l2.17-2.53l0.9,0.91l2.53,1.62l2.89,1.44l3.25-2.35
			l-1.81-1.62l-2.89,0.18l-0.9-4.34l-4.52-1.81l-2.17-2.89l-2.71,0.18L324.78,255.34L324.78,255.34z"/>
		<path id="path4169" fill="#54565b" stroke="#54565b" stroke-width="1" stroke-miterlimit="10" d="M335.25,275.37l-2.17,1.08
			l-1.99-0.36v3.43l3.43,0.18l1.62-3.43L335.25,275.37L335.25,275.37z"/>
		<path id="path4171" fill="#54565b" stroke="#54565b" stroke-width="1" stroke-miterlimit="10" d="M341.93,279.69l0.18,1.99
			l1.44,2.17l1.08-3.78l-1.44-0.54L341.93,279.69L341.93,279.69z"/>
		<path id="path4173" fill="#54565b" stroke="#54565b" stroke-width="1" stroke-miterlimit="10" d="M355.28,234.74l-2.71,0.9
			l-1.44,3.43l0.18,2.89l1.25,1.25l3.97-0.54l1.08-3.61l0.36-3.07L355.28,234.74L355.28,234.74z"/>
		<path id="path4175" fill="#54565b" stroke="#54565b" stroke-width="1" stroke-miterlimit="10" d="M335.07,220.67h3.97l2.89,2.53
			l2.17-0.9l-3.25-1.44l-2.71-1.81l5.05,0.36l3.07,1.62l0.18-3.43l-0.73-2.17l3.61,1.81l1.25,3.43l1.08,1.81l1.44,1.99l2.71,1.99
			l-1.99,1.81v2.89l2.71-1.62l1.99,0.73l0.9,1.25l1.62,1.08h0.54l1.44,3.25l1.25,0.91l1.25,5.42l-0.18,2.89l-1.25,1.62l2.71,0.73
			l2.35,0.18l1.81-2.7l3.61,3.43l0.54,0.91l-5.42,1.99l-1.44-2.35l-4.15-0.36l-1.62,2.17l-1.62,2.53l-0.18,2.17l-2.17,1.81
			l-4.34,0.54l-4.87-0.18v3.43l0.54,3.78l4.34,1.44l2.53-2.35l2.71,0.36l0.36-1.44l4.52,1.62l0.36,3.07l2.53,2.17l1.81,1.62
			l-1.62,1.08l1.99,3.61l2.89,0.18l4.52,2.53l5.05,3.78l5.24-0.18l-4.87-6.67l-2.89-3.97l-1.62-2.53l4.87,2.17l1.25,1.81l3.43,3.43
			l5.05,2.35l-1.81-4.34v-3.61v-1.99l-2.53-3.07l0.18-1.81l-0.18-1.44l-5.96-2.7l-0.18-3.78l0.36-1.62l-0.73-1.44l1.81-0.18
			l-2.17-2.89l2.53-1.44l2.35,2.53l1.25,0.54l0.9-1.08l-1.62,3.61l4.52-3.07l-2.35,4.52l1.62,1.08l2.53,3.25l1.25,1.44l0.73-3.25
			l-0.54-3.61l3.43,1.81l-0.54-3.78l0.73-2.53l3.43-0.36l-1.25-4.34l-5.42-0.73l-2.35,0.54l0.54-4.87l-2.71-0.73l-1.25-3.07
			l-4.52-0.36l-3.61-2.17l-2.35-2.89l2.53-0.18l-1.99-4.15v-1.62l2.89,1.08l1.62-0.18l0.36-1.62l-2.35-1.08l-1.62-0.36l1.62-0.73
			l1.62-0.18l-0.18-2.71l-3.78-3.61l-1.08,2.89l-1.62-1.44l2.35-2.35l-1.81-2.53l-1.62-0.36l-2.35,1.44l0.54-2.7l-3.07,1.99
			l1.25-3.97l-1.81,1.44l-1.08-0.9l2.53-2.71l-1.62-1.44l-3.61-1.25l-1.08,2.35l-1.44-1.08l-0.18-2.35l-2.71,2.35l0.36-3.07
			l-0.73-0.18l0.18-1.99h-2.35l-2.53,0.18l2.71-2.35l-0.36-2.17l-1.44-1.08h-3.07l-1.62-1.08l-3.61,0.36l-0.73,1.44l0.54,2.17
			l-1.62,0.73v3.61l-1.44-2.89l0.18-2.71h-1.25l-1.62,0.18l-1.62,3.61l-2.35,1.44l0.9-4.34l1.08-1.25l-0.9,0.18l2.53-2.89l-0.9-1.44
			l-0.36-2.7l-1.44-1.62l1.08-0.18l1.44,0.36l1.08,4.15l1.08,0.36l3.43-1.25l6.49-0.18l1.25-1.25l-3.25-1.25l-1.25-4.34h-3.25
			l-3.97-0.36l-3.07-1.44l-0.18,2.53l1.08,2.17l-2.71-0.18l-0.18-3.07l-0.18-1.08h-4.34l-2.17,1.25l-3.07,0.54l2.17,2.53l-3.61-0.54
			l0.54,0.9l1.99,1.44l-3.78-0.18l1.25,1.62l2.35,2.17l-4.87-1.81l1.99,4.34l-1.25,1.62l2.35,1.62l0.73,1.44l-3.61-0.73l0.36,1.25
			l1.25,2.17l1.81,2.35l-0.36,3.25l-0.54,2.17l-0.9-2.89l-1.08-1.81l-1.25-3.61l-1.99-1.81l0.36-3.25l-0.18-2.53l0.36-5.96
			l2.71-2.71l1.08-2.35l-0.73-1.81l-4.69-0.36l-6.85,5.42l-1.44,5.78l-0.9,5.24l0.73,2.7l-0.9,1.99l0.18,2.71l-0.54,1.81l5.78,2.17
			l1.81,0.9l0.18,1.25l-3.43-0.36h-2.53l3.78,4.15l1.25,2.17l2.17-0.54h2.71l1.08,2.53l1.62,1.08l1.25-0.9l3.07,1.08l1.08,0.18
			l1.81-0.54L335.07,220.67L335.07,220.67z"/>
		<path id="path4177" fill="#54565b" stroke="#54565b" stroke-width="1" stroke-miterlimit="10" d="M230.57,184.4l-3.78,2.89
			l-3.43,3.25l-3.43,4.52l-2.17,3.78l-2.89,2.17l-0.54,4.87l-3.78,1.44l-2.89,2.53l-1.99-2.53l-1.62-4.52l-4.51-1.62l1.62-5.24
			l0.73-5.96l1.44-2.71v-4.87l3.07-2.89l-3.07-5.42l5.96-0.73l2.53-0.73l3.78,0.73l1.99,3.07l1.81,1.99l1.81-2.71l2.71-0.18
			l3.25,3.07l2.71,3.07l1.81,2.17L230.57,184.4L230.57,184.4z"/>
		<path id="path4179" fill="#54565b" stroke="#54565b" stroke-width="1" stroke-miterlimit="10" d="M233.82,186.74l-3.07,1.62
			l-4.15,1.81l-4.15,4.51l-0.54,2.71l1.08,0.36l-2.35,3.07l0.18,2.89l2.71-0.36l0.18,1.99l5.6-0.18l1.99,1.08l-4.87,1.62l-4.87,1.08
			l3.25,3.78l3.78,1.62l5.42-0.36l2.71-0.18l2.71,2.53l-0.9,0.9h-8.13l-4.52,2.35l2.17,3.25l3.25,2.35h4.33l1.44,2.35l1.25,3.97
			l4.15,0.54l5.78-0.73l3.78-1.81l3.25-1.25l3.07-0.9l2.17-2.89l3.07,2.53l1.62,2.35l3.97-0.73l1.08,1.08l5.24-0.73l-1.25-2.17
			l-1.25-2.17l1.99-2.71l1.44,2.17l0.54-2.89l-0.18-2.89l-4.15-2.35l-3.61-4.69l-2.35-1.62v-5.6l-1.25-4.34l-1.62-3.07l-0.9-6.13
			l2.53-1.62l0.54-4.69l-1.25-1.62h-6.31l-0.18,3.07l4.34,3.97l-0.54,0.73l-1.62-1.25l-3.07-2.17l-2.89-1.25l-1.44,2.71l0.9,3.78
			l-0.18,1.81l-0.54,1.62l-1.25-2.35l-3.25-3.25l-1.99,0.36l3.07,3.97l-0.36,1.81l-1.25-1.44l-3.78,0.36l-1.62-3.25l-1.81-0.73
			l-3.07-0.9l-1.99-1.81l-0.54-1.44L233.82,186.74L233.82,186.74z"/>
		<path id="path4181" fill="#54565b" stroke="#54565b" stroke-width="1" stroke-miterlimit="10" d="M286.16,179.89l-1.81,0.9
			l-3.97,0.73l-0.73-1.44l-1.62,0.9l-0.9,1.62l-0.54,1.44l1.81,2.17l-1.99,1.25l2.53-0.36l0.9,1.44l-0.9,1.99l-0.54,2.35l-1.62,0.54
			l-2.53-3.07h-1.44v3.78l0.73,2.71l2.89,1.81l1.81,0.18l1.44,2.17l1.25,3.25l1.44,2.35h1.81l1.81-1.81l-0.9-2.89l2.71,3.07
			l1.62-0.73l1.25-1.99l0.9-2.17l-1.25-2.35l0.73-2.89v-1.81l-2.35,0.18l-1.08-1.25l-0.73-0.73l0.73-1.99l-0.36-2.35l1.81-0.9
			l-0.36-1.62h-0.54l1.08-1.25l-0.36-2.71l-2.17-0.54h-0.58v0.02L286.16,179.89L286.16,179.89L286.16,179.89z"/>
		<path id="path4183" fill="#54565b" stroke="#54565b" stroke-width="1" stroke-miterlimit="10" d="M293.74,158.95l-1.25,2.89
			l-1.25,1.99l-0.73,2.71l5.42,4.87l3.07-0.54l1.25-2.71l-0.18-5.42l-2.53-2.7L293.74,158.95L293.74,158.95z"/>
		<path id="path4185" fill="#54565b" stroke="#54565b" stroke-width="1" stroke-miterlimit="10" d="M291.57,140l-1.81,0.73
			l1.08,3.25l-1.44,0.36l1.62,3.07l1.44,0.54l-0.36,1.25l1.81,0.9l-0.18,1.25l3.07-1.25l3.43,1.25v-1.62l1.08,0.18l0.73,3.07
			l0.73,2.35l-0.18,2.35l1.62,1.44l0.18,0.73l-0.9,0.9l-0.36,1.99l0.18,2.7l0.73,0.36v2.71l3.07,1.99l2.89,0.18l0.54,1.25l2.35,0.18
			l0.36-1.81l1.81-0.18l1.08-0.9l-0.73,3.07h4.34l2.35-0.54l1.44,0.9l1.99-1.08l0.73-0.18l0.9,1.44l1.81-0.73h2.89l0.18-4.34
			l1.62,2.71l0.36,1.44l2.71-0.18l2.35,1.25l2.53-0.36l0.54-0.54v-2.71l2.53-0.9l-0.73-2.35l-2.71-0.36l1.44-0.9l1.25-1.99
			l-1.62-2.89l-2.71-1.44l-1.25-1.81l-4.87,0.18l-1.99,0.9l-1.62-0.18l-2.17,1.99l-1.81,1.44l-1.81-1.08l-2.35-0.18l-0.73,1.99
			l-2.17-0.9l-2.17-1.25l-2.35,1.44l-1.25-0.73l0.36-2.17l-0.18-1.25l-1.99-0.54l-2.53-0.36l-1.44-1.99l0.54-1.25l-0.18-1.25
			l3.78,0.73l1.62-0.18v-1.44l-2.89-1.62l-0.9-0.18l0.9-1.25l-2.71-2.53l-1.44-0.18l-2.35,1.08l-0.18,0.54l-0.9-1.08l-1.62-3.07
			l-1.81-0.9l-4.15,0.18l-2.71-1.08L291.57,140L291.57,140z"/>
		<path id="path4187" fill="#54565b" stroke="#54565b" stroke-width="1" stroke-miterlimit="10" d="M283.99,146.49l-1.44,1.44
			l-2.53-1.25l-2.53,0.18l-0.18,2.71l2.53,3.07l-0.36,2.17l-3.43-3.61l-2.17-2.17l-1.08,1.25l1.08,3.78l0.18,1.99l-1.81-1.08
			l-0.36-2.17h-2.17v-2.53l-1.25-2.89l-1.81-0.73l-0.73,2.53l2.53,2.53l-2.53,0.73l2.17,1.44l0.54,0.36l-1.08,1.99h3.07l0.36,0.9
			l1.81-0.36l-0.54,3.07l2.89-0.18l1.25-0.9l2.71,0.18l2.71-0.73l-2.89,2.89l-2.35,2.35l2.89,3.97l5.05-0.36l0.9-2.53l0.9-2.7
			l-0.36-1.81l1.62-0.18l-0.18-3.61l-0.36-1.08l-0.18-2.35l-0.9-3.07l-0.18-1.44L283.99,146.49L283.99,146.49z"/>
		<path id="path4189" fill="#54565b" stroke="#54565b" stroke-width="1" stroke-miterlimit="10" d="M259.8,154.62l-3.07,2.53
			l-2.71-2.35l0.36-3.25l0.54-3.43l-2.17-4.34l-2.89,2.71l-1.44,2.53l1.81,3.25l0.73,2.17l-1.25,2.17l2.53,1.81l-0.9,2.17
			l-4.34-1.08l-2.17-1.44l-2.17-2.71l-2.17-1.44l-1.08-2.89h-1.99l-2.89-0.73l-0.73-1.99h-3.78l0.73,3.61l0.9,0.18l-2.89,0.36
			l-1.44,2.53l0.73,0.54l2.71-0.36l0.73,1.08l-3.25,0.36l-1.62,1.25l0.18,1.25l2.71-0.36l2.53-0.36l-2.71,3.25l-5.42-0.36l0.54,3.43
			l5.42,0.36l0.36,2.17l2.71-0.36l1.44-1.81l1.25-0.18l0.36-2.89l1.99,3.78l1.99-1.44l1.44-0.54l1.08,1.44l3.25-1.08v3.07
			l-4.34-0.18l-2.53-0.18l-2.53,2.89l-0.18,2.35l1.99,0.73l3.43,0.73l2.71-2.17l2.89-0.54l3.25-2.89l3.25-1.62l2.35,0.54l3.78,0.73
			l1.25-3.07l1.08-3.61l0.73-2.53l-1.25-3.07L259.8,154.62L259.8,154.62z"/>
		<path id="path4191" fill="#54565b" stroke="#54565b" stroke-width="1" stroke-miterlimit="10" d="M266.83,161.84l-1.99,2.17
			l0.73,1.99h2.53l0.18-2.17L266.83,161.84L266.83,161.84z"/>
		<path id="path4193" fill="#54565b" stroke="#54565b" stroke-width="1" stroke-miterlimit="10" d="M229.84,136.02l-3.07-1.99
			l-0.36,1.44l-2.17,1.25l-4.69-0.36l-1.44,3.78l-1.08,1.81l-2.89,2.35l-0.9,2.71l-0.9,1.44l-3.25,0.9v2.89l0.54,1.25l0.73,2.53
			l1.81-3.43l1.25,2.89l2.17-2.53l2.35,1.62l2.35-0.73l-1.25-3.97l2.89,1.44l-0.73-3.25l0.18-2.35l1.81-1.81l0.9,1.99l0.73,3.43
			l1.08,1.25l0.54-4.34l1.44-0.73l0.73-1.25l-0.9-2.53l0.9-2.17l1.99-0.73l0.54-1.99l-1.25-1.44L229.84,136.02L229.84,136.02
			L229.84,136.02z"/>
		<path id="path4195" fill="#54565b" stroke="#54565b" stroke-width="1" stroke-miterlimit="10" d="M224.42,152.81l-3.43,3.25
			l-1.81,1.62l1.44,1.99l2.53-2.71L224.42,152.81L224.42,152.81z"/>
		<path id="path4197" fill="#54565b" stroke="#54565b" stroke-width="1" stroke-miterlimit="10" d="M233.09,142.88l0.54,1.81h4.15
			l-0.73-1.62L233.09,142.88L233.09,142.88z"/>
		<path id="path4199" fill="#54565b" stroke="#54565b" stroke-width="1" stroke-miterlimit="10" d="M234.18,125.19l-0.54,1.99
			l1.99,3.61l0.36-2.71L234.18,125.19L234.18,125.19z"/>
		<path id="path4201" fill="#54565b" stroke="#54565b" stroke-width="1" stroke-miterlimit="10" d="M241.21,117.97l-3.07,2.71
			l-0.18,1.08l3.25-0.36l1.99,1.62l1.25-1.81l2.17,0.73l2.17-1.44v-2.89l-1.25-1.08l-1.62-1.25l-3.61,2.53L241.21,117.97
			L241.21,117.97z"/>
		<path id="path4203" fill="#54565b" stroke="#54565b" stroke-width="1" stroke-miterlimit="10" d="M248.25,125.56l-5.05,0.73
			l-2.35,0.9l-2.71,1.99l0.9,2.7l0.54,3.61h3.07l0.73,0.9l4.87-4.15v-2.35l-2.89-0.54l2.17-1.62l1.44-1.44L248.25,125.56
			L248.25,125.56z"/>
		<path id="path4205" fill="#54565b" stroke="#54565b" stroke-width="1" stroke-miterlimit="10" d="M266.12,105.35h-1.99
			l-3.97,1.25l0.73,3.07l1.99,0.73l1.25,0.9l-0.18,2.71l3.61-2.89l0.36,2.35l-0.73,1.44l1.25,1.99l-2.17,2.17l-1.81-0.73l1.44,5.05
			l2.35-1.44l1.81-1.44l1.08,0.54l1.08,1.08l2.35,0.18l2.17,2.53l1.99,1.81l0.54,2.35l3.97-1.44l-1.44-4.34l-1.62-2.53l0.18-3.43
			l-0.18-2.35l-1.44-2.35l-2.89-0.54v-1.25l-1.08-1.81l-2.71-2.17l-1.62,2.17l-0.73,1.25l-0.36-3.61l-1.44-0.9L266.12,105.35
			L266.12,105.35z"/>
		<path id="path4207" fill="#54565b" stroke="#54565b" stroke-width="1" stroke-miterlimit="10" d="M261.43,130.43l2.71,3.97
			l0.54,3.61l3.07,0.9l-0.36-3.43l-2.17-2.71L261.43,130.43L261.43,130.43z"/>
		<path id="path4209" fill="#54565b" stroke="#54565b" stroke-width="1" stroke-miterlimit="10" d="M272.61,127.73l0.18,1.99
			l2.71-0.54l0.9-0.9l-2.35-1.25L272.61,127.73L272.61,127.73z"/>
		<path id="path4211" fill="#54565b" stroke="#54565b" stroke-width="1" stroke-miterlimit="10" d="M285.79,113.28l-0.18,3.25
			l0.18,2.35l-0.54,0.18l2.89,5.05l1.25-0.73l-0.36,1.62l-2.35,0.36l1.25,3.25l1.44,1.81l1.99-2.17h3.97l0.73-2.53l-1.62-2.35
			l1.99-1.44l-0.36-1.81l-2.53-2.17l-0.54-0.73l-1.44-2.35l-4.69-1.62L285.79,113.28L285.79,113.28L285.79,113.28z"/>
		<path id="path4213" fill="#54565b" stroke="#54565b" stroke-width="1" stroke-miterlimit="10" d="M298.97,130.43l-2.71-0.36
			h-3.25l-0.18,2.17l3.43,2.71h4.34l0.54-3.07L298.97,130.43L298.97,130.43z"/>
		<path id="path4215" fill="#54565b" stroke="#54565b" stroke-width="1" stroke-miterlimit="10" d="M308.71,131.87l0.18,2.89
			l2.53,3.43l1.25-1.81l-0.54-3.07L308.71,131.87L308.71,131.87z"/>
		<path id="path4217" fill="#54565b" stroke="#54565b" stroke-width="1" stroke-miterlimit="10" d="M304.74,70.5l-3.43-2.89h-2.71
			l-1.08,0.9l-0.36,1.08l2.35,0.54l1.99,0.9l-1.25,1.62l-2.71,0.18l0.54,1.99l-2.53-0.18l-0.54,4.69l3.61,1.99L297,82.76l-3.61-1.99
			l-0.73,2.53l1.62,2.89l-1.99,1.08l0.36,2.35l1.81-0.36l0.73,0.9l1.08,1.25l2.89,0.73l-1.08,1.25l-4.34-1.08l-1.44-0.73l3.43,6.67
			l-1.62,1.81l4.34-0.73l2.71-1.25l-1.62,3.07l-3.61,0.54l-0.36,2.35l2.35,2.53l3.97-1.44l1.44-3.07l1.62,1.44v0.73l3.61,0.36
			l-6.13,1.44l6.13,1.25h2.17l-7.03,1.44l-2.71,0.73l-0.18,2.35l1.44,1.62l0.9,1.99l-3.97-0.18l2.35,2.53l3.43,0.36l-3.07,1.81
			l3.25,3.07l3.78,1.44l1.62-0.9l0.9-1.25l1.62-1.08l-0.73-2.71l3.78,4.87l-0.18-3.97l-0.73-2.53l1.44-0.9l-0.18-4.34v-0.54
			l1.25,3.43l1.99-2.17l-0.18-2.35h1.99l2.35-2.35l1.08-2.71l0.9-0.9l-1.25-3.07l-1.99,0.18l-1.25-1.25l-1.08-0.9l-1.25-0.18
			l0.18-4.52l0.18-2.17l-1.08-0.73l-0.36-3.97l-1.25-0.54l-0.73,2.17l0.18,2.35l-1.25-1.08l-0.73-1.25l0.18-1.99l0.9-2.71
			l-2.53-0.73l-2.53,0.54l-2.35-0.18l1.99-2.35l-1.62-2.53l-1.99-3.43l-0.54-1.62l0.18-1.62L304.74,70.5L304.74,70.5z"/>
		<path id="path4219" fill="#54565b" stroke="#54565b" stroke-width="1" stroke-miterlimit="10" d="M324.78,87.83l-3.07-0.18
			l-0.18,3.43l0.9,1.99l2.17,0.54l-0.36,1.25l-3.25-0.73l1.08,3.25l2.53,1.25l2.17,1.44l1.08,3.43l0.54,2.71l2.35,3.25l-1.44,0.9
			l-0.54-0.18l-2.53-0.18l3.97,2.17l3.78,0.54l3.07-1.08l-0.54,1.81h-4.52l1.99,4.15l-2.17-1.25l-2.17-2.71l-3.97-0.9l-2.89,0.73
			l-2.17,1.25l-0.18,2.53v1.08l-1.25,2.35l-0.36,2.53l0.73,1.62l2.35-1.62l1.81-1.44l-0.18,2.71l2.89-1.44l0.9-3.78l1.81,1.08
			l-0.54,4.34l0.9,0.36l-3.07,0.18l-1.62,1.81l1.44,1.08l0.18,1.44l-0.36,1.99l1.99,1.62l1.99,0.36l2.71-3.25l1.81-3.25l-0.54,3.43
			l-2.89,3.61l-1.08,1.08h-2.53l-1.99-1.62l-2.53-2.89l-3.97-1.25l-1.99,1.08l-0.36,2.53l2.17,3.43l1.25,1.08v1.62l-2.89,1.25
			l-2.71,0.9l-1.08,2.71l0.18,5.6l1.44-2.53l1.25-3.25l0.18,4.52l1.81-0.18l0.9-1.99l0.36,2.89l1.99-3.25l0.9,3.07l3.07,1.44
			l3.43,0.36l-1.99-3.07l0.36-0.73l1.25,1.08l0.54-2.89l2.17,2.35l1.99,0.9v-4.34l3.07,1.62l-0.54,3.07l1.62-1.08l1.25,0.18
			l0.73,1.44l0.18,2.89l3.78-0.54l1.81-2.89l0.54-1.81l3.07-1.08v-3.07l-2.71-0.36l-1.62-2.89l-0.18-1.08l-5.42-0.36l3.07-1.25
			l4.34,0.36l2.89-1.99l-0.36-3.43l-0.36-3.61l-0.18-1.62l4.15,1.62l0.9-1.44h1.08l1.44-0.36l-1.25-3.25l2.89-0.9l-0.36-1.62
			l-2.71-1.44l-1.08-0.9h4.69l2.17-1.81l-1.62-2.35l-2.17-1.44l-3.78-0.54l2.53-1.44l-9.02-0.9l5.42-1.25l2.89-0.73l2.89,1.62
			l2.35-0.18l-1.25-3.07l-5.24-0.36l-2.17-1.08l2.71-0.73l-0.73-3.07l4.69,1.44l1.99,0.73l1.62-1.08l1.81-0.9l-0.18-3.43l-1.44-1.44
			l5.42,1.62l2.71-0.54v-2.35l0.18-0.9l-1.62-2.35l-1.62-0.18l4.69-1.99l1.62-1.62l-0.73-1.99l1.81,1.08l2.17-2.71l1.99-2.89
			l3.97-3.25l2.17-2.89l0.9-3.43l4.15-3.43l1.81-3.97l-0.54-0.54l-7.41,2.53l-4.87,3.07l-4.34,0.54l7.59-5.05l1.99-1.62l-4.69-0.36
			l-0.54-1.99l7.22,0.18l6.31-2.35l3.07-1.08l2.71-3.97l0.36-1.99l2.71-3.78l1.08-3.78l-3.25-1.81l-1.08-1.99l-1.99,1.25l-0.9-4.34
			l-2.17-1.81l-0.9-3.25l-4.34-0.9l-0.9,3.25l-5.6,0.73l-4.15,1.81l6.85-5.96l-2.35-1.44l-6.49-0.73l-2.17-0.73l-0.18-1.81
			l-3.78,0.18l-1.44,1.81l-0.73,1.44l-1.44-0.9l-1.44-2.53l-2.71,2.35l-1.08,1.99l-1.99-2.17l-1.99-1.08l-5.42,0.36L349,28.43
			l2.53,5.6l1.25,3.78l0.36,0.54l-3.25-3.07l-1.62-2.53l-1.25-1.08l-2.17,0.36l-1.25-0.73l-2.17-1.25l-2.89,1.25l1.44,2.71
			l0.36,1.99l1.62,0.54l-2.17,0.73l-1.44-3.07l-2.18-0.2v2.89l2.53,3.07l0.36,2.7l-3.07-1.44l-3.43-2.53l-0.36,0.9l0.73,3.07
			l-0.9,1.81l4.34,2.89l4.52,3.43l0.36,3.61l-0.9,1.08l-3.25-3.25l-2.17-2.71l-0.54-0.9l-3.61-0.73l-1.99-2.35l0.73,3.97l-2.53-3.43
			L325,43.91l-1.25-0.18l-1.44,1.62l0.73,1.99l-2.35,0.9l2.35,3.78l5.24,2.53h-3.07l-3.61-2.35l-5.6-0.9h-1.25l-2.71,3.25l1.08,1.44
			l-0.18,1.99l-3.25-1.62L307.52,56l-0.9,2.89l-1.44,2.35l0.54,2.35l3.43-0.54l2.71-0.54l1.25,2.35l-2.53,1.44l0.36,1.08l3.25-0.36
			l-0.18,0.73l-1.99,1.08l3.25,0.9l-2.17,0.9l-1.25,0.54l0.54,2.17l1.08,0.9l3.61-0.9l3.07-0.54l1.62,1.99v2.35l-2.89-0.73
			l-3.25-0.18l0.54,2.7l3.07,4.34l1.62-0.54l1.25-2.53l0.54-0.18l1.08-0.36l-0.9,1.81l0.18,1.25l3.43,0.54l2.17-0.36l2.71-0.54
			l2.35-2.7h1.62l-2.17,1.99l-1.08,1.25l6.31-1.25l2.53-1.62l0.73-2.53l0.36-2.35l6.13-8.13l-4.34,8.13l0.18,1.99l3.43-1.25h2.89
			l5.24-0.54l-1.44,1.44l-6.13,1.08l-2.71,0.73l-2.53,1.62l-0.73,1.44h4.69l0.73-0.18l-3.61,1.25l-3.61,1.25l-0.9,1.62l-5.78,1.44
			l-1.81,1.25l2.89,3.07l1.25,2.35l2.71,2.71l-0.36,3.07l6.49,0.18l-5.42,1.99l-0.9-0.73l-3.61-1.99v-2.17l-1.25-1.44l-2.17-3.07
			l-2.35-2.53l-2.35-0.9L324.78,87.83L324.78,87.83z"/>
		<path id="path4221" fill="#54565b" stroke="#54565b" stroke-width="1" stroke-miterlimit="10" d="M180.93,327.62l-1.72,1.81
			l-1.9-1.99l-1.54,0.99l1.99,3.78l1.08,0.54v1.81l2.71,3.34l-1.08-3.07l-0.18-2.26l0.28-1.99l0.64-1.35L180.93,327.62
			L180.93,327.62z"/>
	</g>
	<path id="mx" fill="#54565b" stroke="#54565b" stroke-width="1" stroke-miterlimit="10" d="M233.97,425.88l0.24,3.84l1.44,3.13
		l2.89,2.89l1.68,2.66l1.68,3.37l2.41,2.89l0.24,3.84l1.68,2.66l0.96,1.44l0.73-0.24l1.2,1.68l0.96,1.93l-0.96,0.73l-2.89-2.41
		l-3.13-1.93l-1.44-1.44l0.73-2.66l-0.73-2.41l-1.68-0.24l-0.73-1.2l-1.44-0.24l-4.09-3.84l1.93-0.24l0.24-1.68l-1.93-3.37
		l-1.68-1.93h-1.68l-0.24-2.89l-1.44-2.89l-1.65-2.17l-0.39-2.05l6.13-0.12l12.03,4.2h9.99l-0.24-0.96h4.81l1.93,1.08l1.08,1.08
		l2.56,1.99l1.17,3.43l4.25,2.26l2.5-2.86l2.66,0.52l1.35,0.99l3.34,5.33l1.2,1.11l0.85,3.01l6.16,2.56l-0.73,2.63l-0.9,0.82
		l-0.28,2.71l0.18,2.35l0.09,2.08l-0.18,1.99l-0.09,1.9l1.72,1.62l2.17,4.15l1.81,2.35l3.61,1.9l1.81,0.73l4.97-0.18l2.98-0.36
		l0.99,0.18l0.09-1.17l-0.36-0.73l1.72-0.18l1.17-1.35l0.18-2.63l0.18-2.71l3.52-0.09l2.35-0.36l1.17-0.91l2.45,0.09l1.81,0.99
		l-0.28,1.62l-2.17,2.17l0.36,1.81l-0.28,2.7l-0.28,1.25l-1.35-0.64l-0.36,0.82l-0.9,0.28l-0.82,1.17l-0.82,0.18l-5.6,0.09v3.34
		l1.35,1.44l-0.09,0.64l-3.88,0.82l-0.54,0.99l-0.36,1.08l0.18,1.62l0.73,1.17l-0.64,0.46l-1.81-1.35l-1.81-2.45l-1.62-1.44
		l-2.26-0.18l-1.62-0.73h-1.99l-2.26,1.08h-2.53l-4.06-0.91l-1.54-1.44l-1.81-0.91l-2.26-0.18l-2.89-1.72l-1.72-1.08l-2.26-1.17
		h-2.8L268.4,472l-0.73-2.26l-2.26-0.73l-2.08-1.25l-0.64-1.99l0.54-1.25l0.28-1.72l-0.46-0.91l-0.28-1.81l-1.35-2.17l-1.9-1.72
		l-1.54-2.26l-1.72-1.62l-1.62-1.54l-1.44-1.62l-2.08-0.99l-1.17-1.54l0.73-1.35l-0.18-0.82l-1.17-0.28l-1.35-1.44l-2.08-1.44
		l0.73-1.62l-1.44-0.18l-1.81-1.9l-0.82-1.17l-1.81,0.73l0.18-2.45v-1.72l-1.54-2.63l-0.64-1.62l-0.73-1.25l-1.17-0.82l-1.81,0.36
		L233.97,425.88L233.97,425.88L233.97,425.88z"/>
	<path id="gt" fill="#54565b" stroke="#FFFFFF" stroke-width="1" stroke-miterlimit="10" d="M314.1,480.4l0.78,0.06l0.73,0.6
		l0.6-0.36l0.42,0.49l-0.18,0.85l-2.47,1.44l-0.31,1.68l-1.08,1.02l-1.44,1.25l-1.37-0.85l-1.57-0.06h-1.68l-1.2-0.99l0.64-0.46
		l-0.73-1.17l-0.03-1.54l0.76-2.17l3.88-0.82l0.09-0.64l-1.35-1.44l0.18-3.19l5.42-0.24L314.1,480.4L314.1,480.4z"/>
	<path id="bz" fill="#54565b" stroke="#FFFFFF" stroke-width="1" stroke-miterlimit="10" d="M316.27,478.59l-0.96,0.73l-0.54,0.91
		l-0.67,0.18l0.06-6.49l0.82-0.18l0.82-1.17l0.9-0.28l0.36-0.82l1.35,0.64l-1.11,0.54l-0.06,1.86l-0.24,2.23L316.27,478.59
		L316.27,478.59z"/>
	<path id="hn" fill="#54565b" stroke="#FFFFFF" stroke-width="1" stroke-miterlimit="10" d="M332.22,483.28l-2.23,1.08l-1.2,0.18
		l-1.5-0.6l-0.78,0.91l-0.96,0.6l-0.9,0.85l-0.42,0.31l-0.78-0.24l-0.85,1.02l-1.57,0.78l-0.18,1.14l-1.5,0.6l0.18-0.85l-0.78-0.78
		l-0.49-0.96l-1.14-0.18l-1.02-0.18l-1.5-0.85l-0.9-0.96l0.18-1.5l2.59-1.62l0.06-0.67l1.44-0.36l0.73-0.73l1.44,0.78l1.5-0.67
		l1.99-0.31l1.25-0.42l0.73,0.67l2.71,0.12l1.68,1.2l-0.9,0.54l1.14,0.54l0.36-0.78l1.37,0.18L332.22,483.28L332.22,483.28z"/>
	<path id="sv" fill="#54565b" stroke="#FFFFFF" stroke-width="1" stroke-miterlimit="10" d="M312.6,487.62l1.62,0.49l0.54,1.02
		l1.68,0.06l1.08-0.24l1.02-0.67l-0.31-0.96l-2.17-0.36l-1.37-0.67l-1.02-1.14l-2.23,1.99L312.6,487.62L312.6,487.62L312.6,487.62z"
		/>
	<path id="ni" fill="#54565b" stroke="#FFFFFF" stroke-width="1" stroke-miterlimit="10" d="M324.45,495.38l1.25-0.24l1.37,0.36
		h0.78l1.57,1.02l1.44,0.06l-0.31-0.96l0.06-2.17l0.73-1.5l-0.36-1.5l0.6,0.24v-3.12l0.67-1.25l0.31-1.68l-0.36-1.31l-2.23,1.08
		l-1.2,0.18l-1.31-0.67l-0.6,1.02l-1.31,0.54l-1.31,1.14l-0.6-0.24l-1.02,1.02l-1.57,0.96l-0.12,1.19l-1.57,0.36l-0.18,0.49
		l1.37,1.31l1.08,1.2l0.9,0.96l0.6,0.96L324.45,495.38L324.45,495.38z"/>
	<path id="cr" fill="#54565b" stroke="#FFFFFF" stroke-width="1" stroke-miterlimit="10" d="M334.62,500.61l-0.67,0.49l0.12,1.62
		l-0.67,1.5l-0.85-1.08l-0.85,0.06l0.36,0.78l-1.25-0.31l-0.06-1.31l-1.25-0.91l-1.08-0.67l-1.14-1.25l-0.67-0.06l-0.06,0.78
		l-1.5-0.91l-1.02-1.19l0.18-1.08l0.06-0.85l-0.12-0.91l1.57-0.18l1.31,0.54l0.85-0.18l1.57,0.85l1.44,0.24l1.02,2.17l1.02,0.85
		L334.62,500.61L334.62,500.61z"/>
	<path id="pa" fill="#54565b" stroke="#FFFFFF" stroke-width="1" stroke-miterlimit="10" d="M349.06,507.71l1.37-0.6l0.49-1.5
		l-0.12-1.5l-0.67-0.91l-1.14-1.14l-0.49-0.73l-1.14-0.18l-1.2-0.24h-0.78l-0.6-0.36h-1.62l-0.31,0.73l-1.14,0.49l-1.02,0.24
		l-1.2,0.6l-0.73,0.24l-0.96-0.73l-1.02-0.31l-0.31,0.67l-0.9-0.31l-0.06-0.78l-0.73-0.67l-0.85,0.36l0.12,1.62l-0.67,1.5l0.96,0.49
		l1.81,0.06l1.08,0.36l0.42,0.31l-0.42,0.78l0.12,1.25l0.54-1.08l1.5,0.12l0.31,1.19l1.44-0.12l0.96-0.85l0.06-1.02l0.18-1.02
		l0.78-0.85l0.12-0.85l1.25-0.42l0.78-0.67l0.36,0.6l0.6,0.6l0.85,0.67l0.24,0.42l0.9-0.12l0.12,0.42l-0.78,0.78v1.02l0.96,0.96
		L349.06,507.71L349.06,507.71L349.06,507.71z"/>
	<g id="cu">
		<path id="path4275" fill="#54565b" stroke="#FFFFFF" stroke-width="1" stroke-miterlimit="10" d="M327.7,460.18l1.44-0.24v-1.68
			l2.76-1.08l2.53-0.36l1.81-1.08l1.81,0.12l2.53,0.49l1.57,1.19l1.31-0.49l1.31,2.05l2.76-0.24l1.68,1.08l2.29,2.05l2.05,0.6
			l3.25,0.85l-0.96,1.2h3.01l1.57,0.36l0.12,0.96l-1.81,1.44l-3.49,0.12l-5.42-0.6l1.93-1.44l-1.57-0.85l-1.93-0.24l-1.2-2.17
			l-1.44-0.96h-2.29l-2.89-1.31h-1.68l-2.76-1.2l0.96-0.6l-0.6-0.36l-2.66,0.36l-1.44,1.31l-1.81,0.36l-1.68,1.31L327.7,460.18
			L327.7,460.18z"/>
		<path id="path4277" fill="#54565b" stroke="#FFFFFF" stroke-width="1" stroke-miterlimit="10" d="M333.11,460.42l-0.36,1.44
			l1.31-0.12l0.49-1.08L333.11,460.42L333.11,460.42z"/>
	</g>
	<path id="jm" fill="#54565b" stroke="#FFFFFF" stroke-width="1" stroke-miterlimit="10" d="M354.54,473.17l-1.68-0.85l-2.76-0.36
		l-2.29,0.36l1.93,1.2l-0.12,1.2l2.66-0.6L354.54,473.17L354.54,473.17L354.54,473.17z"/>
	<path id="ht" fill="#54565b" stroke="#FFFFFF" stroke-width="1" stroke-miterlimit="10" d="M368.12,467.52l0.24,1.2l-0.24,1.08
		l0.12,0.96l0.6,0.24l-0.49,0.49l-0.24,1.68l-1.2-0.36l-1.81,0.24l-1.31-0.49l-1.81-0.12v0.6l-0.85-0.85l-1.2-0.24l0.6-0.6
		l2.53,0.12l2.05,0.24l1.2-0.36l-0.49-0.73l-0.36-1.68l-0.73-0.6l-1.81-0.49l0.49-0.6h1.68l1.81,0.73L368.12,467.52L368.12,467.52
		L368.12,467.52z"/>
	<path id="do" fill="#54565b" stroke="#FFFFFF" stroke-width="1" stroke-miterlimit="10" d="M368.49,474.02l1.2,0.49l0.96-1.68
		l1.68-0.73l-0.12,0.85l2.53-0.12l1.44-0.96l1.31,0.24l0.85,0.73l1.2-1.57l-0.96-1.68h-3.01l-0.85-1.44l-1.57-0.85h-2.41l-1.57,0.24
		l-1.2-0.36l0.36,1.57l-0.36,1.31l0.36,1.2l-0.24,1.93L368.49,474.02L368.49,474.02L368.49,474.02z"/>
	<g id="us" transform="translate(-0.1495753,-0.00918063)">
		<path id="path4285" fill="#54565b" stroke="#FFFFFF" stroke-width="1" stroke-miterlimit="10" d="M104.94,466.5v2.98l0.36,1.35
			l1.81-1.17l0.9-1.25l-0.73-1.17L104.94,466.5L104.94,466.5z"/>
		<path id="path4287" fill="#54565b" stroke="#FFFFFF" stroke-width="1" stroke-miterlimit="10" d="M102.23,463.98l1.08,1.35
			l1.54-0.46l-0.9-0.91h-1.72V463.98L102.23,463.98z"/>
		<path id="path4289" fill="#54565b" stroke="#FFFFFF" stroke-width="1" stroke-miterlimit="10" d="M97.72,461.81l0.82,1.62
			l0.64-0.99l-0.36-0.91L97.72,461.81L97.72,461.81z"/>
		<path id="path4291" fill="#54565b" stroke="#FFFFFF" stroke-width="1" stroke-miterlimit="10" d="M100.16,463.62l1.62,0.09
			l-0.09-1.35l-1.25,0.18L100.16,463.62L100.16,463.62z"/>
		<path id="path4293" fill="#54565b" stroke="#FFFFFF" stroke-width="1" stroke-miterlimit="10" d="M92.94,459.65L92.12,461
			l1.81,0.28l0.36-0.91L92.94,459.65L92.94,459.65z"/>
		<path id="path4295" fill="#54565b" stroke="#FFFFFF" stroke-width="1" stroke-miterlimit="10" d="M150.24,222.3l-4.69-2.53
			l-4.69-1.81l-2.89,2.53l-5.05-2.89l-8.3-1.44h-5.05l-3.61-1.44l-0.36-2.53h-4.34l-3.61-1.81l-1.44-0.36l-2.17-2.17l-3.25-0.36
			L99,210.04l-5.05,1.81l-3.63,1.81l-2.17,3.97l-3.61,0.73l-2.17,4.69l-0.73,4.34l-3.61,2.53l-5.05,0.36l-1.81,3.25l3.61,3.97
			l3.61,2.53l2.53,4.34l2.89,1.08l2.53,0.73l0.73,2.17l2.89-0.36l-0.36,3.97l-2.89-1.44v1.44h-4.69h-2.2l0.36-2.89l-3.25,0.36
			l-2.53,1.81l-1.81,1.81l-2.89,2.17l-2.53,1.44l4.34,4.34l1.08,2.89l2.53,1.08l5.78-0.73l2.53,1.44l5.42-1.81l-0.73,2.17l1.44,1.81
			l-1.08,3.25l-3.25,1.08l-3.97,2.89l-2.53-0.36l-2.53,2.89l-1.08,2.17l-2.89,3.97v5.05h2.89l1.81,1.81l-1.08,1.08l-5.05,0.73
			l-1.81,1.81l4.2,2.17l1.57-2.05v-2.05l1.08,0.12l0.73,1.08l1.31,1.08l2.29,2.05l3.25-0.24l0.96-1.81l1.81,1.2l0.24,2.41
			l-1.08,2.05l1.44,2.41l-0.24,1.31l3.84-2.41l1.31,1.08l2.66,0.12l0.85,2.66l1.57-3.49l0.96,1.44l3.73-1.68l-1.93,2.89l-0.12,2.17
			l-0.49,2.89L97,311.43l-1.31,1.93l-0.12,0.85l-1.81,0.36L91,316.62l-0.96,2.17l0.24,0.96l-1.57,0.12l-0.36-0.49l-3.13,0.24
			l-0.96,2.05l-1.44,1.44l-1.31,0.36l-0.12,1.57l-1.31-0.49l-2.29,0.96l-0.85,1.31l-3.25,1.93l-2.53,1.31l-2.05,0.36l0.49,0.73
			l-1.2,1.57l-1.44-0.49l-2.66,2.05l-2.29,1.2l-3.37,0.36l-6.49,3.37l-3.13,0.12L47.46,338l-1.44,1.08l-1.31,0.12l-2.53,0.49
			l-1.81,0.12l-0.96,0.73l-1.31-0.12l-2.76-0.12l0.36,0.96l-3.37-0.36l-4.46-0.85h-2.76l-3.49-0.12l-12.63-4.09l-2.17-1.08
			l-0.96,0.49l0.49,1.08h2.89l11.43,3.97l0.49,0.85l1.57-0.73l4.2,0.12l7.59,1.2l1.68,0.73l1.44-0.96l0.49-0.6l1.44,0.24l-0.49,1.44
			l1.68-1.31l-0.12-0.96l3.73-0.36l1.57,0.24l1.81-0.73l0.36-0.12l0.12,0.85h2.89l0.36-0.6l5.05-1.57l1.44-1.2l0.6,0.73l1.31-1.44
			l1.57,0.24l1.68-0.73l0.6,0.49l2.17-1.31l1.68-1.68v0.73l2.29-0.6l2.05-1.57l0.36-0.85v-0.6l1.08-0.6l1.68-0.12l0.36-0.96
			l1.57-0.96l1.08-0.24l1.2-1.08l1.81,0.12l0.6-0.85l0.6-0.96l0.96,0.24l0.73-1.81l0.73,1.31l1.44-1.31l1.2-1.68l0.85,1.08l1.2-0.85
			l2.53-0.96l1.31-0.96l-0.24,1.81l2.05-2.41l2.76-1.31l-0.36-1.08l1.68-0.96l1.68-1.31l1.81-1.57l0.85-1.68l0.96-0.96l2.29-1.81
			l3.37-2.66l0.85-1.81l2.17-0.85l-0.36-1.19l-2.41-0.6l1.31-3.13l1.57-1.81l1.2,0.36l0.96-1.68l-1.08-1.81h1.57l2.05-3.01
			l1.31-1.57l2.41-0.49l2.53,0.49l-1.31,0.49l-1.31-0.36l-1.81,1.31l-0.96,1.08l0.85,1.44l-0.6,2.29l-1.31,1.68l0.73,0.96l1.93-0.12
			l-1.81,1.08l-1.08,0.6l0.6,1.31l2.89-0.49l1.93-1.44l1.2-1.57l2.41-2.17l0.73,0.96l2.29-2.29l0.24-2.29l-1.44-0.49l0.12-1.31
			l2.05-1.57l0.12,1.44l2.05-0.6l1.93-0.36l-0.49,1.31l1.81,1.08l-1.93,1.81l2.41-0.49l2.17,0.85l1.68,0.85l2.29-0.12l-0.12,1.19
			l4.69-0.24l3.01,0.36l1.31,1.2l3.61,0.12l1.68-0.85l-0.73,2.41l2.76,0.96l1.68,0.24l0.96,2.17l1.44,3.01l1.93,0.85l1.68-0.12
			l0.6-1.19l-1.31-1.68l2.29,1.68l0.96,1.08l1.2,0.73l-0.73-5.29l0.85,1.57l1.68,3.13l1.31,1.08l-1.44,0.85l-1.31,0.6l-2.53-1.81
			l-1.44,0.85l1.08,3.73l1.2,0.24l0.85,2.17l1.93,4.2l-0.12-3.37l-0.73-2.66l-2.29-1.81l2.53,0.49l-0.12-1.44l0.6-0.49l0.85,2.53
			l-0.36,2.66l1.93-1.93v-1.81l-0.96-2.17l1.2,0.12l1.08,1.31l0.36,1.68l0.6,2.41l-1.93,0.6l-1.44,0.85l0.85,2.76l0.73-1.81
			l1.31,1.08l1.31-1.2l-0.12-1.44l1.44,1.93l0.49,1.31l-1.93,0.6h-2.41l0.12,2.53l1.08,1.08l0.36,1.93l0.96,1.93l2.29,0.36
			l-0.24-2.29l-0.49-2.66l-0.96-2.05l0.24-0.49l1.68,1.57l0.49-1.57l-0.36,3.01l1.44,0.24l0.85-1.31l-0.73,2.53l1.08,1.93l0.85-0.73
			l0.49,1.93v0.73l2.29-1.68l0.85-2.17l-0.12-1.81l0.6-1.31l-4.69-3.13l-2.29-2.89l-1.31-3.25l-2.53-3.97l-0.12-1.93l-4.93-5.42
			v-1.19l-1.2-0.6l-2.29,0.73l-0.36,1.08l-1.2,0.24l-0.12,1.2l-2.17,1.31l-0.36-1.93l-2.76-2.29l-1.81-2.29l-0.36-1.44l-1.44-1.19
			l-1.57,0.96l-3.37-0.6l0.12-68.83L150.24,222.3L150.24,222.3z"/>
		<path id="path4297" fill="#54565b" stroke="#FFFFFF" stroke-width="1" stroke-miterlimit="10" d="M56.02,271.21l-0.18,2.35h2.17
			l2.53,0.91l0.9,1.99l1.62-1.44l1.25-1.62l-2.71-1.08l-1.81-1.62l-1.99,0.36L56.02,271.21L56.02,271.21z"/>
		<path id="path4299" fill="#54565b" stroke="#FFFFFF" stroke-width="1" stroke-miterlimit="10" d="M114.69,304.43l-2.17,2.7
			l-2.71,2.71l-1.25,1.08l1.08,2.7l1.81-1.44l1.08,0.36l1.81-2.35l2.17-0.18l-0.73-3.07l1.44-0.91L114.69,304.43L114.69,304.43z"/>
		<path id="path4301" fill="#54565b" stroke="#FFFFFF" stroke-width="1" stroke-miterlimit="10" d="M209.93,355.27l0.24,1.57
			l1.2,2.53l-0.6,2.66l-1.31-1.68l-0.85-1.93l-1.93-0.36l-3.01-0.36h-0.85l0.49,1.68l1.68,2.41v2.41l0.49,2.66l2.17,0.24l0.85,1.19
			l-2.66-0.36l-0.85,0.6l0.36,2.53l-0.49,2.76l0.12,3.25l-0.85,2.17l-0.96,3.13l0.73,2.17l0.49,2.76l0.36,2.05l-0.49,2.76l0.36,1.93
			l0.85,1.93l0.73,2.41l0.6,1.57l2.53,2.05l1.2-0.12l1.68,0.24l-1.81,0.49l0.49,0.85l-1.57,0.24l1.44,1.57l1.44,1.57l-0.49,1.31
			l1.93,2.76l2.05,1.68l0.24,2.05l1.68,0.85l2.29,0.73l1.81,1.57l1.57,0.96l1.68,1.31l0.96,0.73l1.08,2.41l6.13-0.12l12.03,4.2h9.99
			l-0.24-0.96h4.81l1.93,1.08l1.08,1.08l2.76,1.93l0.96,3.49l2.76,1.44l1.68,0.73l2.29-2.76l3.01,0.36l1.2,0.96l3.25,5.29l1.08,1.31
			l0.85,3.01l6.36,2.53l-0.24-2.17l-0.24-3.01l2.05-2.41l-0.36-0.73l2.05-1.68l1.08,0.6l1.81-2.05l1.08-1.44h1.57l3.49-0.73
			l2.53,1.08h1.93l0.73-0.85l0.85,0.6l0.12,1.08l2.53,0.85l2.41-0.36l2.05,0.12l-1.68-1.31l-0.12-0.73l1.08-0.6l-0.12-0.6h-1.69
			l-1.92,0.24l1.2-1.08l0.61-0.73l0.6,0.6l3.49-0.49l0.49,0.6h2.41l1.31-0.36l1.93-0.12l1.81,0.73l1.08-0.12l1.08,1.57l2.17,0.12
			l1.2-0.96h1.2l2.41,2.05l1.31,1.44l0.36,1.93l-0.24,2.41l0.85,2.53l2.29,2.89l1.31,2.76l0.49,1.08l2.41-0.49l0.6-2.66v-3.97
			l-1.2-3.25l-0.36-0.85l-0.24-2.41l-2.05-2.41l-0.36-2.89l0.12-2.41l0.96-2.66l1.81-1.44l-0.12-1.08l2.17-0.36l3.13-3.49l1.44-1.2
			l1.57,0.24l1.44-2.76l2.05-1.08l1.68-0.36l1.68-3.49l-1.68-0.96l0.96-0.85l0.24-0.6l-0.96-2.41l-0.96-1.08l1.2-1.31l-0.96-1.19
			l-0.24-2.41l-0.12-2.05l0.73-0.6l0.49,3.01l0.36,1.44l0.85,1.31l-0.24,2.17l1.31-2.66l0.85-2.05l0.12-1.19l-1.2-1.44l-0.12-0.6
			l0.36-0.36l1.93,1.2l0.6-1.44l1.31-1.31l0.24-1.44l-0.24-1.68l0.12-0.85l0.24-1.19l0.96,1.31h0.49l1.44-0.24l1.44-0.12l1.93-0.6
			l-0.36-0.73l-1.93,0.12l-1.81,0.49l-0.85,0.49l-0.12-0.85l0.6-0.73l1.57-0.36l1.93-0.36l1.31-0.36l1.08-0.73l2.53,0.6l1.2,0.24
			l0.49-1.31l-0.85-0.96l-0.36-1.44l0.24-2.41l0.24-1.93l1.08-1.44l0.24-0.6l0.73,0.36l2.29-2.53h0.85l1.93-0.24l0.6-1.19h1.68
			l1.44-1.2l-0.54-0.67l-0.67-1.62l-0.73-0.54l0.31-4.02l-0.36-3.67l-2.17-0.67l-1.86,0.67l-1.02-0.12l-4.15,9.69l-1.93,0.12
			l-0.85,0.73l-10.23-0.06l-2.53,2.35l-1.57,0.96l-0.73,2.05l-0.36,1.08l-1.81,1.2h-1.81l-1.31-0.6l-1.68,0.24l-2.17,0.73l0.12,1.08
			l-0.12,1.93l-1.08,0.96l-2.17,0.49l-3.37,1.68l-2.53,0.85l-2.41,0.12l-1.44-1.08l0.73-1.31l0.36-0.36l0.49-1.31l0.9-0.54
			l1.14-1.99l-1.2-1.57l-0.24-2.53l-1.57-0.49l-2.05,1.44l0.73-1.68l1.2-1.68l-0.49-1.57l-0.36-1.81l-1.93-0.73l-1.68-1.44
			l-2.05,0.85l0.12,1.57l-1.2,1.44l-0.96-0.49l-1.81,2.05v2.41l0.24,2.41l1.08,1.68l-0.12,3.61l-2.29,2.17l-1.68,0.12l-0.85-2.53
			l-0.85-1.81l0.36-2.41l-0.36-2.41l0.85-1.57l0.49-1.57l0.85-2.66l-1.93,2.17l1.08-3.73l1.68-1.44l2.05-0.12l1.57-0.73h2.53h2.05
			l1.31-0.36l1.57,0.24l0.73,1.2l3.01,1.08l0.6-1.68l-2.05,0.24l-1.31-0.12l-1.93-1.44l-1.2-0.73l-1.37-1.02l-1.37,0.42l-1.31-0.96
			l-3.13,0.12l-1.68,1.08l-1.31-0.85l-1.57-0.96l-2.29-0.12l2.29-3.25l-2.66,1.2l-2.17,1.68l-2.17,1.19l-1.93,0.24l-0.24-1.2
			l-3.97,0.85l3.34-2.91l2.35-1.72l2.91-2.29l-1.2-0.18l-3.97,0.12l-1.81-0.36l-1.62-0.28l-1.62-1.17l-1.81,0.12l-3.43-0.85
			l-0.9-1.08l-0.49-1.68l-0.85-0.78l0.06,0.91l-0.85,1.31l-84.47,0.06L209.93,355.27L209.93,355.27L209.93,355.27z"/>
	</g>
	<path id="pr" fill="#54565b" stroke="#FFFFFF" stroke-width="1" stroke-miterlimit="10" d="M382.69,471.73l1.68-0.12l2.76,0.73
		h1.68l-1.57,0.73l-1.68,0.6h-2.05l-0.85-1.2L382.69,471.73L382.69,471.73L382.69,471.73z"/>
	<path id="bs" fill="#54565b" stroke="#FFFFFF" stroke-width="1" stroke-miterlimit="10" d="M348.39,449.11l-1.44,2.17l1.31,1.31
		l0.96,0.6l0.36,1.19l0.85-1.68l-0.36-1.68L348.39,449.11L348.39,449.11z"/>
	<g id="us" transform="translate(-0.1495753,-0.00918063)">
		<path id="path4285" fill="#54565b" stroke="#54565b" stroke-width="1" stroke-miterlimit="10" d="M104.94,466.5v2.98l0.36,1.35
			l1.81-1.17l0.9-1.25l-0.73-1.17L104.94,466.5L104.94,466.5z"/>
		<path id="path4287" fill="#54565b" stroke="#54565b" stroke-width="1" stroke-miterlimit="10" d="M102.23,463.98l1.08,1.35
			l1.54-0.46l-0.9-0.91h-1.72V463.98L102.23,463.98z"/>
		<path id="path4289" fill="#54565b" stroke="#54565b" stroke-width="1" stroke-miterlimit="10" d="M97.72,461.81l0.82,1.62
			l0.64-0.99l-0.36-0.91L97.72,461.81L97.72,461.81z"/>
		<path id="path4291" fill="#54565b" stroke="#54565b" stroke-width="1" stroke-miterlimit="10" d="M100.16,463.62l1.62,0.09
			l-0.09-1.35l-1.25,0.18L100.16,463.62L100.16,463.62z"/>
		<path id="path4293" fill="#54565b" stroke="#54565b" stroke-width="1" stroke-miterlimit="10" d="M92.94,459.65L92.12,461
			l1.81,0.28l0.36-0.91L92.94,459.65L92.94,459.65z"/>
		<path id="path4295" fill="#54565b" stroke="#54565b" stroke-width="1" stroke-miterlimit="10" d="M150.24,222.3l-4.69-2.53
			l-4.69-1.81l-2.89,2.53l-5.05-2.89l-8.3-1.44h-5.05l-3.61-1.44l-0.36-2.53h-4.34l-3.61-1.81l-1.44-0.36l-2.17-2.17l-3.25-0.36
			L99,210.04l-5.05,1.81l-3.63,1.81l-2.17,3.97l-3.61,0.73l-2.17,4.69l-0.73,4.34l-3.61,2.53l-5.05,0.36l-1.81,3.25l3.61,3.97
			l3.61,2.53l2.53,4.34l2.89,1.08l2.53,0.73l0.73,2.17l2.89-0.36l-0.36,3.97l-2.89-1.44v1.44h-4.69h-2.2l0.36-2.89l-3.25,0.36
			l-2.53,1.81l-1.81,1.81l-2.89,2.17l-2.53,1.44l4.34,4.34l1.08,2.89l2.53,1.08l5.78-0.73l2.53,1.44l5.42-1.81l-0.73,2.17l1.44,1.81
			l-1.08,3.25l-3.25,1.08l-3.97,2.89l-2.53-0.36l-2.53,2.89l-1.08,2.17l-2.89,3.97v5.05h2.89l1.81,1.81l-1.08,1.08l-5.05,0.73
			l-1.81,1.81l4.2,2.17l1.57-2.05v-2.05l1.08,0.12l0.73,1.08l1.31,1.08l2.29,2.05l3.25-0.24l0.96-1.81l1.81,1.2l0.24,2.41
			l-1.08,2.05l1.44,2.41l-0.24,1.31l3.84-2.41l1.31,1.08l2.66,0.12l0.85,2.66l1.57-3.49l0.96,1.44l3.73-1.68l-1.93,2.89l-0.12,2.17
			l-0.49,2.89L97,311.43l-1.31,1.93l-0.12,0.85l-1.81,0.36L91,316.62l-0.96,2.17l0.24,0.96l-1.57,0.12l-0.36-0.49l-3.13,0.24
			l-0.96,2.05l-1.44,1.44l-1.31,0.36l-0.12,1.57l-1.31-0.49l-2.29,0.96l-0.85,1.31l-3.25,1.93l-2.53,1.31l-2.05,0.36l0.49,0.73
			l-1.2,1.57l-1.44-0.49l-2.66,2.05l-2.29,1.2l-3.37,0.36l-6.49,3.37l-3.13,0.12L47.46,338l-1.44,1.08l-1.31,0.12l-2.53,0.49
			l-1.81,0.12l-0.96,0.73l-1.31-0.12l-2.76-0.12l0.36,0.96l-3.37-0.36l-4.46-0.85h-2.76l-3.49-0.12l-12.63-4.09l-2.17-1.08
			l-0.96,0.49l0.49,1.08h2.89l11.43,3.97l0.49,0.85l1.57-0.73l4.2,0.12l7.59,1.2l1.68,0.73l1.44-0.96l0.49-0.6l1.44,0.24l-0.49,1.44
			l1.68-1.31l-0.12-0.96l3.73-0.36l1.57,0.24l1.81-0.73l0.36-0.12l0.12,0.85h2.89l0.36-0.6l5.05-1.57l1.44-1.2l0.6,0.73l1.31-1.44
			l1.57,0.24l1.68-0.73l0.6,0.49l2.17-1.31l1.68-1.68v0.73l2.29-0.6l2.05-1.57l0.36-0.85v-0.6l1.08-0.6l1.68-0.12l0.36-0.96
			l1.57-0.96l1.08-0.24l1.2-1.08l1.81,0.12l0.6-0.85l0.6-0.96l0.96,0.24l0.73-1.81l0.73,1.31l1.44-1.31l1.2-1.68l0.85,1.08l1.2-0.85
			l2.53-0.96l1.31-0.96l-0.24,1.81l2.05-2.41l2.76-1.31l-0.36-1.08l1.68-0.96l1.68-1.31l1.81-1.57l0.85-1.68l0.96-0.96l2.29-1.81
			l3.37-2.66l0.85-1.81l2.17-0.85l-0.36-1.19l-2.41-0.6l1.31-3.13l1.57-1.81l1.2,0.36l0.96-1.68l-1.08-1.81h1.57l2.05-3.01
			l1.31-1.57l2.41-0.49l2.53,0.49l-1.31,0.49l-1.31-0.36l-1.81,1.31l-0.96,1.08l0.85,1.44l-0.6,2.29l-1.31,1.68l0.73,0.96l1.93-0.12
			l-1.81,1.08l-1.08,0.6l0.6,1.31l2.89-0.49l1.93-1.44l1.2-1.57l2.41-2.17l0.73,0.96l2.29-2.29l0.24-2.29l-1.44-0.49l0.12-1.31
			l2.05-1.57l0.12,1.44l2.05-0.6l1.93-0.36l-0.49,1.31l1.81,1.08l-1.93,1.81l2.41-0.49l2.17,0.85l1.68,0.85l2.29-0.12l-0.12,1.19
			l4.69-0.24l3.01,0.36l1.31,1.2l3.61,0.12l1.68-0.85l-0.73,2.41l2.76,0.96l1.68,0.24l0.96,2.17l1.44,3.01l1.93,0.85l1.68-0.12
			l0.6-1.19l-1.31-1.68l2.29,1.68l0.96,1.08l1.2,0.73l-0.73-5.29l0.85,1.57l1.68,3.13l1.31,1.08l-1.44,0.85l-1.31,0.6l-2.53-1.81
			l-1.44,0.85l1.08,3.73l1.2,0.24l0.85,2.17l1.93,4.2l-0.12-3.37l-0.73-2.66l-2.29-1.81l2.53,0.49l-0.12-1.44l0.6-0.49l0.85,2.53
			l-0.36,2.66l1.93-1.93v-1.81l-0.96-2.17l1.2,0.12l1.08,1.31l0.36,1.68l0.6,2.41l-1.93,0.6l-1.44,0.85l0.85,2.76l0.73-1.81
			l1.31,1.08l1.31-1.2l-0.12-1.44l1.44,1.93l0.49,1.31l-1.93,0.6h-2.41l0.12,2.53l1.08,1.08l0.36,1.93l0.96,1.93l2.29,0.36
			l-0.24-2.29l-0.49-2.66l-0.96-2.05l0.24-0.49l1.68,1.57l0.49-1.57l-0.36,3.01l1.44,0.24l0.85-1.31l-0.73,2.53l1.08,1.93l0.85-0.73
			l0.49,1.93v0.73l2.29-1.68l0.85-2.17l-0.12-1.81l0.6-1.31l-4.69-3.13l-2.29-2.89l-1.31-3.25l-2.53-3.97l-0.12-1.93l-4.93-5.42
			v-1.19l-1.2-0.6l-2.29,0.73l-0.36,1.08l-1.2,0.24l-0.12,1.2l-2.17,1.31l-0.36-1.93l-2.76-2.29l-1.81-2.29l-0.36-1.44l-1.44-1.19
			l-1.57,0.96l-3.37-0.6l0.12-68.83L150.24,222.3L150.24,222.3z"/>
		<path id="path4297" fill="#54565b" stroke="#54565b" stroke-width="1" stroke-miterlimit="10" d="M56.02,271.21l-0.18,2.35h2.17
			l2.53,0.91l0.9,1.99l1.62-1.44l1.25-1.62l-2.71-1.08l-1.81-1.62l-1.99,0.36L56.02,271.21L56.02,271.21z"/>
		<path id="path4299" fill="#54565b" stroke="#54565b" stroke-width="1" stroke-miterlimit="10" d="M114.69,304.43l-2.17,2.7
			l-2.71,2.71l-1.25,1.08l1.08,2.7l1.81-1.44l1.08,0.36l1.81-2.35l2.17-0.18l-0.73-3.07l1.44-0.91L114.69,304.43L114.69,304.43z"/>
		<path id="path4301" fill="#54565b" stroke="#54565b" stroke-width="1" stroke-miterlimit="10" d="M209.93,355.27l0.24,1.57
			l1.2,2.53l-0.6,2.66l-1.31-1.68l-0.85-1.93l-1.93-0.36l-3.01-0.36h-0.85l0.49,1.68l1.68,2.41v2.41l0.49,2.66l2.17,0.24l0.85,1.19
			l-2.66-0.36l-0.85,0.6l0.36,2.53l-0.49,2.76l0.12,3.25l-0.85,2.17l-0.96,3.13l0.73,2.17l0.49,2.76l0.36,2.05l-0.49,2.76l0.36,1.93
			l0.85,1.93l0.73,2.41l0.6,1.57l2.53,2.05l1.2-0.12l1.68,0.24l-1.81,0.49l0.49,0.85l-1.57,0.24l1.44,1.57l1.44,1.57l-0.49,1.31
			l1.93,2.76l2.05,1.68l0.24,2.05l1.68,0.85l2.29,0.73l1.81,1.57l1.57,0.96l1.68,1.31l0.96,0.73l1.08,2.41l6.13-0.12l12.03,4.2h9.99
			l-0.24-0.96h4.81l1.93,1.08l1.08,1.08l2.76,1.93l0.96,3.49l2.76,1.44l1.68,0.73l2.29-2.76l3.01,0.36l1.2,0.96l3.25,5.29l1.08,1.31
			l0.85,3.01l6.36,2.53l-0.24-2.17l-0.24-3.01l2.05-2.41l-0.36-0.73l2.05-1.68l1.08,0.6l1.81-2.05l1.08-1.44h1.57l3.49-0.73
			l2.53,1.08h1.93l0.73-0.85l0.85,0.6l0.12,1.08l2.53,0.85l2.41-0.36l2.05,0.12l-1.68-1.31l-0.12-0.73l1.08-0.6l-0.12-0.6h-1.69
			l-1.92,0.24l1.2-1.08l0.61-0.73l0.6,0.6l3.49-0.49l0.49,0.6h2.41l1.31-0.36l1.93-0.12l1.81,0.73l1.08-0.12l1.08,1.57l2.17,0.12
			l1.2-0.96h1.2l2.41,2.05l1.31,1.44l0.36,1.93l-0.24,2.41l0.85,2.53l2.29,2.89l1.31,2.76l0.49,1.08l2.41-0.49l0.6-2.66v-3.97
			l-1.2-3.25l-0.36-0.85l-0.24-2.41l-2.05-2.41l-0.36-2.89l0.12-2.41l0.96-2.66l1.81-1.44l-0.12-1.08l2.17-0.36l3.13-3.49l1.44-1.2
			l1.57,0.24l1.44-2.76l2.05-1.08l1.68-0.36l1.68-3.49l-1.68-0.96l0.96-0.85l0.24-0.6l-0.96-2.41l-0.96-1.08l1.2-1.31l-0.96-1.19
			l-0.24-2.41l-0.12-2.05l0.73-0.6l0.49,3.01l0.36,1.44l0.85,1.31l-0.24,2.17l1.31-2.66l0.85-2.05l0.12-1.19l-1.2-1.44l-0.12-0.6
			l0.36-0.36l1.93,1.2l0.6-1.44l1.31-1.31l0.24-1.44l-0.24-1.68l0.12-0.85l0.24-1.19l0.96,1.31h0.49l1.44-0.24l1.44-0.12l1.93-0.6
			l-0.36-0.73l-1.93,0.12l-1.81,0.49l-0.85,0.49l-0.12-0.85l0.6-0.73l1.57-0.36l1.93-0.36l1.31-0.36l1.08-0.73l2.53,0.6l1.2,0.24
			l0.49-1.31l-0.85-0.96l-0.36-1.44l0.24-2.41l0.24-1.93l1.08-1.44l0.24-0.6l0.73,0.36l2.29-2.53h0.85l1.93-0.24l0.6-1.19h1.68
			l1.44-1.2l-0.54-0.67l-0.67-1.62l-0.73-0.54l0.31-4.02l-0.36-3.67l-2.17-0.67l-1.86,0.67l-1.02-0.12l-4.15,9.69l-1.93,0.12
			l-0.85,0.73l-10.23-0.06l-2.53,2.35l-1.57,0.96l-0.73,2.05l-0.36,1.08l-1.81,1.2h-1.81l-1.31-0.6l-1.68,0.24l-2.17,0.73l0.12,1.08
			l-0.12,1.93l-1.08,0.96l-2.17,0.49l-3.37,1.68l-2.53,0.85l-2.41,0.12l-1.44-1.08l0.73-1.31l0.36-0.36l0.49-1.31l0.9-0.54
			l1.14-1.99l-1.2-1.57l-0.24-2.53l-1.57-0.49l-2.05,1.44l0.73-1.68l1.2-1.68l-0.49-1.57l-0.36-1.81l-1.93-0.73l-1.68-1.44
			l-2.05,0.85l0.12,1.57l-1.2,1.44l-0.96-0.49l-1.81,2.05v2.41l0.24,2.41l1.08,1.68l-0.12,3.61l-2.29,2.17l-1.68,0.12l-0.85-2.53
			l-0.85-1.81l0.36-2.41l-0.36-2.41l0.85-1.57l0.49-1.57l0.85-2.66l-1.93,2.17l1.08-3.73l1.68-1.44l2.05-0.12l1.57-0.73h2.53h2.05
			l1.31-0.36l1.57,0.24l0.73,1.2l3.01,1.08l0.6-1.68l-2.05,0.24l-1.31-0.12l-1.93-1.44l-1.2-0.73l-1.37-1.02l-1.37,0.42l-1.31-0.96
			l-3.13,0.12l-1.68,1.08l-1.31-0.85l-1.57-0.96l-2.29-0.12l2.29-3.25l-2.66,1.2l-2.17,1.68l-2.17,1.19l-1.93,0.24l-0.24-1.2
			l-3.97,0.85l3.34-2.91l2.35-1.72l2.91-2.29l-1.2-0.18l-3.97,0.12l-1.81-0.36l-1.62-0.28l-1.62-1.17l-1.81,0.12l-3.43-0.85
			l-0.9-1.08l-0.49-1.68l-0.85-0.78l0.06,0.91l-0.85,1.31l-84.47,0.06L209.93,355.27L209.93,355.27L209.93,355.27z"/>
	</g>
	<g id="gl">
		<path id="path74165-7" fill="#54565b" stroke="#54565b" stroke-width="1" stroke-miterlimit="10" d="M377.99,134.52l-1.32,1.1
			l2.79,3.6l1.86,2.22l-2.92,0.84l0.4,1.8l2.53,1.52l1.99,1.8l1.6,1.1l2.92,0.42l1.73-0.28l1.06-0.56l2.39-1.94l2.66-0.28l1.6,1.1
			l1.46-1.52l2.26-1.66l3.05,1.66l2.26,1.8l2.39,0.7l3.19,0.41l1.32,1.24l0.54,1.37l2.92-0.28l1.06,1.8l-0.67,1.52l-1.32,1.94
			l2.53,2.08l1.6,2.63l1.46,3.05l1.86,2.91l0.27,3.32l0.27,2.22l0.54,2.36l1.2,2.36l1.06,3.32l0.4,2.5l2.13,4.15l0.93,2.63
			l-3.05-1.66l-0.54-0.7l-0.27,2.63l-1.73,1.37l-0.67,3.32l0.4,2.36l-1.32,3.05l2.92,1.1l2.53-0.56l0.27-2.91l0.93-3.32l1.46-1.1
			l0.27,2.63v1.66l2.92,0.84l-1.46,1.94l-0.67,1.37l4.79,1.24l1.2,2.08l1.2,1.37l0.13,2.08l-1.86,0.96l-2.39,0.28l-2.66-1.8
			l-3.19-1.24l-2.66,0.96l-0.4,2.22l3.71,1.66l4.65,0.96l1.86,1.52l2.53-0.14l0.4,1.1l-0.8,1.66l0.8,3.46v3.18h-2.78l0.54,3.05
			l-0.27,2.5l2.66,3.6l1.06,2.08l-1.86,2.22l-5.72-2.5l-4.26-0.84l0.67,2.63l5.58,1.24v0.84l-5.19,0.28l-0.67,2.08l2.79,1.24v1.24
			l-2.79,1.66l4.65,3.18l-1.99,1.24l-0.4,1.37l4.4,5.96l-0.93,2.36l5.32-2.22l-0.4,3.87l-4.92,3.87l3.98,4.71l3.19,1.66l0.67,1.94
			l0.13,2.36l0.93,1.66l0.54,1.8v2.22l2.79,1.24l1.46,2.22l3.19,1.52l1.99,0.28l2.79,1.94l3.05,1.52l1.46-0.41l0.54-2.36l1.46-1.24
			l1.99-2.76l0.8-2.08l1.46-1.52l-2.53-4.15l0.67-1.66l3.19-3.87l0.54-1.94l0.8-3.05l-0.27-3.18l2.26-1.8l0.93-3.87l0.67-0.96
			l1.6-1.24l4.26-3.46l0.54-3.6l1.2-0.14l1.32,2.63l1.2,0.96l1.46-0.41l0.27-2.91l2.39,0.96l4.79-6.36l2.13-3.05l1.2-2.08l0.8-3.32
			l1.2-2.22l2.53,2.22h4.12l3.32-1.24l2.39-1.52l2.66-1.24l5.45-2.76l2.13-1.8l0.54-2.22l3.71-2.63l2.26-2.76l1.99-1.52l-4.79-0.28
			l-2.39-1.94l-3.72,0.56l-2.66,1.8l-4.4,0.84l-1.86-0.56l4.4-2.08l-6.5-0.42v-2.63l4.26-1.52l-0.4-1.24l-1.46-1.52l0.8-1.37
			l1.06-1.24v-4.3l5.19,2.5l4.65,3.18l1.73,0.14l1.86,7.2l2.66-2.08l1.6,3.05l1.06-7.05l-0.13-4.71l-1.06,1.24l-1.86,0.96
			l-2.92-1.94l3.46-2.5l2.39-1.52h-4.39l-1.73-0.96l-0.4-3.32l-2.26-1.52l-2.92,1.37l-2.13-2.08l4.4-2.08l0.8-0.84l-2.13-1.52
			l-4.12,1.8l-1.46-2.08l5.19-1.94l-1.6-1.8l-2.66-0.41l3.71-1.24l1.32-2.5l0.27-1.66l1.73,0.56l3.05-2.22l2.79,2.08l-3.85,1.24
			l7.72,4.98l-0.67-3.46l2.66-0.41l0.27-2.36l-0.4-2.76l-5.32-1.66l-1.73-0.84l2.53-1.24l-0.4-2.63l3.72,0.14l-0.81,3.32l3.98,1.52
			l-0.27-2.36l3.85-0.28l-0.8-2.76l-3.46-0.14l-1.6-2.76l-1.06-2.22l-2.26-1.24l3.32-0.56l-1.46-3.73l2.66,0.42l2.66,3.18l0.54-3.6
			l-0.27-2.91l-1.2-1.8l-2.66-1.52l5.32-2.5l-2.53-2.36l-1.86-1.8l-1.99-2.36l1.06-1.1l-0.67-1.8l9.56,1.8l0.4-4.98l2.26-1.1
			l-2.79-2.08l-3.46-0.41l-0.54-3.46l4.39-0.14l-1.2-2.5l-4.4-2.5l-3.32,3.87l0.54-4.57l0.93-2.76l0.27-2.36l0.13-2.76l-0.67-3.18
			l3.05-1.66h2.13l0.27-1.8l0.13-2.08l1.6-1.94l-1.2-1.37l-0.54-0.96l0.54-2.5l1.32-2.91l1.99-0.42h1.2l1.46-1.8l0.13-2.5l-1.2-1.8
			l-4.92,0.28l-2.26,3.32l-0.67,0.84l1.73-4.29l0.27-3.18l4.4,1.52l4.92-0.42l2.53-1.8l0.54-2.08l-4.26-2.91l-3.59,0.56l-3.32-2.36
			l-3.85,1.94l7.32-2.08l3.98-0.56l3.32,1.66l3.98-2.22l2.13-2.5l0.67-2.63l-1.6-0.28l2.92-1.8l2.79-2.5l1.73-4.3l1.32-0.7
			l-2.13-2.63l-2.66-1.8l-2.92-2.08l-3.71-1.37l-3.59,0.7l-0.4,3.05l-0.54,2.63l-1.6,2.77l-0.93,0.7l-4.12-2.08l-3.32-1.94
			l-1.86,2.08l-2.26,3.46l-1.46,3.6l-1.32,2.77l-2.13,2.91l-2.66,2.08l-1.6,0.96l2.66-6.09l2.13-2.36L533,67.3l1.32-3.18l1.06-2.91
			l0.27-2.77v-2.91l-1.46-4.84l-5.98,0.42l-0.4,3.05l0.67,3.73l-2.26,1.52l-3.19,1.24l-2.53,1.24l-2.13,1.1l-1.6-1.52l5.32-2.76
			l1.73-1.37l0.8-1.52V53.6l-0.4-1.24l-2.53,0.7v2.63l-3.98,0.28l-0.67-2.5l-0.8-0.56l-5.58,0.14L508,53.19l-1.73,0.14l-2.92,1.52
			l-3.59,1.1l-2.53,0.7l-2.92,2.22l-1.73-3.32l5.72-2.22l2.79-1.66l4.4-2.08l3.59-0.56l5.05,0.41l5.32,0.28l2.53-0.96l3.71-2.36
			l2.66-2.5l2.26-3.32l0.8-1.52l-3.05-3.73l-3.71-1.66l-2.13-0.96l-1.46-0.84l-2.92,1.94l1.32-3.87l-1.2-3.6l-2.92,0.42l-2.66,0.84
			l-5.99-0.28l-3.71-0.56l-2.66,0.7l-5.05,2.76l-3.98,0.7l-2.13,1.66l-3.05,1.37l-1.2-3.32l4.65-0.14l4.79-2.08l-0.8-1.94
			l-3.98-0.96l14.75-0.14l3.46,0.56l7.85-1.37l0.14-2.36l-2.39-3.32l-5.98-0.28l-2.53-2.08l-2.92-1.37l-2.53-0.84l-2.92-0.7
			l-3.46-0.14l-2.79,0.84l-1.86,0.28l-3.32,1.37l-2.39,0.7l-0.4,2.36l-2.92,0.96l6.9,5.68l-3.05-1.24l-2.79,1.52l-0.8,0.96
			l-0.54,1.37l-2.39,0.41l-1.32,2.08l-4.79-1.37l-2.39-3.46l-5.45-1.24l-0.67,0.28l-2.53,1.37l-0.8,0.84l-0.13,3.32l0.93,1.66
			l6.63,1.1l2.79,1.1l2.79,2.36l0.4,1.37l-0.67,3.18l-2.53-1.8l-3.85-5.13l-4.79-0.14l-3.05,0.28l-0.4,1.66l2.39,4.57l1.32,3.87
			l2.66,1.66l-4.26,0.84l-1.2-0.7l0.14-2.91l-3.19-5.4l-2.66-1.52l-1.73,2.08l2.53,5.68l1.99,2.22l1.2,1.94l0.93,2.5l1.32,3.6
			l0.67,3.32l-1.86,0.56l-4.4-5.13l-1.32-3.05l-3.72-4.29l-3.19-3.6l-2.13-1.66l-3.59-0.28l1.06,4.44l2.26,5.96l1.99,3.05
			l-2.26,1.37l-5.45-3.05l-1.99,0.84l-1.2,3.46l-0.54,1.66l-0.8,0.42l-2.53-3.46l0.54-4.29l0.54-2.5l-2.39-2.77l-2.53,0.7
			l-1.32,1.24l-0.8,1.1l-3.85,0.84l-2.39,0.42l-1.86,1.1l-1.32,2.22l0.93,2.22l2.92,2.36l1.86,1.24l1.2,2.08l-5.05-0.84l-2.79-3.87
			l-1.32-2.22l-3.46,3.6l0.67,2.63l1.86,2.5l-1.46,2.77l-0.67,0.96l4.79,7.62v0.7l-3.32-0.56l-4.79-4.3l-1.6-1.37l-1.06,2.5
			l-3.85,3.05l1.2,2.77l-5.72,3.32l-0.8,1.24l-0.67,2.08l-0.14,2.91l0.27,2.76l3.46,1.52l6.11-1.37l2.39-0.7l-5.58,2.22l0.93,4.15
			l0.13,0.7l-0.67,3.32l-1.2,2.36l-1.32,2.22l-2.26,1.52l-7.72,0.28l-3.32,2.63l-1.2,2.76l-4.79,3.73l-1.86,2.08v3.6l0.4,1.94
			l4.26,2.5l2.39,0.96l0.93,2.08l1.2,1.37h3.19l3.19-1.24l2.39-0.42l2.13,1.66l-1.06,1.8l-5.32,0.14l-1.32,0.56l-0.67,1.66
			l-6.11-1.66l-1.06,1.37L377.99,134.52L377.99,134.52L377.99,134.52z"/>
	</g>
</g>

</svg>
