<svg version="1.1" id="Layer_1" xmlns="http://www.w3.org/2000/svg" xmlns:xlink="http://www.w3.org/1999/xlink" x="0px" y="0px" viewBox="0 0 1200 760" enable-background="new 0 0 1200 760" xml:space="preserve">
<g id="russia">
	<g id="ru" transform="translate(-0.1495753,-0.00918063)">
		<path id="path4123" fill="#54565b" stroke="#54565b" stroke-width="1" stroke-miterlimit="10" d="M725.64,376.7l5.66-0.12
			l2.66,1.44l4.34,0.96l1.93,1.57l3.97,0.12l1.31,2.05l3.25,0.85l1.93,1.81l1.31,0.49l1.44-1.57l-1.44-3.01l-1.99-2.89l0.73-2.53
			l-1.08-0.54l-0.9-1.81l-1.62-0.54l1.81-1.99l1.44-3.78l0.54-1.44l1.44,1.62l1.2-1.14l0.24-1.81l1.44-1.93l-0.85-1.44l-5.18-4.93
			l-1.2-2.05l1.81-9.51l3.73,2.66l0.6-1.81l-0.6-1.68l1.08-1.44l0.06-2.35l2.23,0.31l2.76-1.57l0.36-1.2l2.17,0.73l-0.36,1.57
			l1.57-1.08l1.68,0.12l1.93-0.6l2.05,0.6l2.41,2.41l0.49,2.41l1.14-1.86l0.78,0.31l1.57,1.08l1.57,0.24l1.57-1.81h2.53l1.31,0.85
			l2.76-0.73l1.08,1.81l2.05,1.08l1.57-1.2l2.53,0.96l3.01-3.61l-1.44-0.96l-2.11-0.18l-0.9-1.75l-1.31-0.85l2.76-1.2l-0.36-3.49
			l4.34,0.12l-1.99-3.31l1.25-1.14l-1.93-0.96l0.85-1.93l2.05,0.49l7.22-1.2l2.17,0.24l2.89-2.66l5.18-0.49l1.81-0.85l2.53-2.53
			l2.35,0.91l2.83,0.42l0.78,2.66l0.78,0.96l-0.36,2.29l1.57,1.2l0.49-1.2l1.86,0.36l0.54,1.08l1.68-0.6l0.36,0.73l0.24,1.81
			l4.2,0.24l1.31-1.68l1.44-0.24l1.81-3.37l2.17-0.12l-1.08,1.93l4.63,5.66l3.43,3.25l2.7,5.96l0.78,1.75l2.41-2.76l1.31,0.73
			l1.44,2.66l2.89-0.12l2.17-0.73l1.93,0.24l2.05,4.09l1.81-0.12l1.57,2.17l1.68-0.24l1.81-0.96l0.96,1.81l-0.49,1.08h3.25
			l1.31-1.62l2.76-0.18l0.85-1.93l1.62,0.49l1.81-1.25l2.59-0.42l1.68-1.44l1.2,0.24l0.36-0.73l1.57,1.57l4.09-0.12l1.86,1.81
			l0.9,0.73l2.89-0.24l4.81,1.19l1.44-0.49l0.49-3.61l-1.31-0.6l-0.24-2.53l1.08-3.37l1.31,0.96l0.85-2.53l3.13,1.62l4.46,1.25
			l0.6,1.08l2.71,0.18l-0.42,2.35l1.2,2.41l2.83,0.85l1.75-0.24l1.31-0.85l3.84,0.49l0.85,0.6l2.41-0.12l2.47,2.29l3.07,1.31
			l3.25,0.67l3.97,0.73l3.37-0.91l3.31-1.44l1.25-1.62l0.73-1.44l2.53-0.67l1.62,0.12l1.25,1.81l0.36,0.96l2.05-0.49l2.47,0.78
			l3.19,1.86l1.5-1.68l1.25-1.25l1.31-0.06l-0.06-2.11l1.37-3.19l2.17-2.53l0.85-3.13l-1.31-1.62l-0.73-0.36l1.93-2.7l2.94-0.36
			l2.94-0.12l2.66-0.78l2.53,1.44l2.76,1.37l0.36-0.73l2.29,2.05l2.71,6.67l2.47,5.24v2.05l0.96,0.96l4.93,0.85l2.53,3.73l0.85-0.24
			l-0.36,1.57l1.08,1.37v1.75l2.35,0.96l3.43-1.25l4.52-1.25l3.31-0.96l-0.96,1.93l-0.36,2.17l-1.08,1.19l-0.36,2.53l-1.68,3.13
			l-0.96,2.76l-1.08,1.08l0.12,1.2l-3.25-1.14l-1.2,0.42l-0.96,1.37l-1.25,0.18l0.9,3.61l-0.49,2.89l-0.12,1.08l-2.41,1.5l1.14,1.2
			l0.33-1.08l1.08,0.18l1.17-0.64l0.54-1.54l0.18-0.99l0.36-0.64l0.28,1.62l1.17-0.73l0.54,0.91l1.72,0.73l1.35,0.54l1.62-1.08
			l1.44-0.46l2.17-1.72l1.17-1.72l1.72-2.26h0.73l1.35-3.25l2.7-1.72l1.9-3.61l1.08-2.17l0.82-2.08l0.91-0.64l0.54-1.72l1.44-1.72
			l1.17-1.62l1.08-1.44l-0.28-2.63l0.91-0.82l-0.09-2.35l-0.18-2.35l0.82-3.43l0.18-2.17l1.35-1.44l0.64-1.25l0.82-0.09l0.18,1.99
			l1.25,2.08l-0.09,3.07l-0.09,3.16l0.09,3.88l-1.35,3.16l0.91,0.36l0.54,2.63l-0.64,1.62l0.09,2.98l-0.82,1.44l0.36,2.8l1.08,1.25
			l0.18-1.72l0.18-1.54l1.35-0.99l1.44,0.99l1.25,1.62l0.09-1.54l-1.44-2.26l-0.64-1.54l-1.81-1.44l0.46-2.17l0.73-2.26l0.18-1.9
			l1.9-1.35h1.99l1.9,2.53l0.99-0.46l-1.25-1.54l-1.44-2.45l-1.17-3.43l-0.64-2.98l-0.46-2.35l-0.18-1.72l-1.25-1.81l0.46-1.9
			l0.64,0.54l-0.36-4.15l-0.46-2.45l-0.54-1.35l0.28-0.82l-0.64-1.62l-0.99,0.36l-1.25,0.09l1.54,1.44l-0.09,1.54l-1.44,0.73
			l-1.35,0.64l0.54,1.62l0.36,1.17l-0.54,1.72l-0.28,1.08l-0.09,0.82h-0.99l-0.46-1.08l0.91-0.09l-0.54-1.9l-0.54-0.73l0.54-0.64
			l0.09-1.25l-1.25-1.17l-1.35-0.82l-0.64-0.99l-1.62-1.35l-0.28-0.64l-1.25,0.64l-1.9-0.99l0.09,2.08l-0.28,1.81l-0.99-0.18
			l0.36-1.9l-1.35,0.91l-0.64,1.25h-1.81l1.35-1.54l-0.54-0.73l0.64-1.44h-1.81l-0.82,1.54l-0.18-1.35l0.18-1.54l-1.17-0.82
			l-2.26,0.54l-1.44-0.91l0.54-1.72l1.81-1.08l1.72-1.44l1.9-2.08l2.08-1.54l1.44-2.7l2.63-2.98l1.81-1.54V306h1.54l1.35-2.89
			l2.8-2.17l2.26-2.08l3.07-0.28l4.24-0.18l1.81-1.08l1.35-0.36l0.64,0.54l1.08-0.18l0.99-1.08l1.81,0.64l1.17,0.46l1.72-0.46
			l1.25,0.46l0.73,0.46l1.54-0.36l-0.64-0.91l0.82-0.73l0.18-1.72l1.9,0.54l2.63,1.31l2.53,0.12l1.31,0.73l2.17,1.08h-3.73
			l-0.24,1.44l1.81,0.85l2.05-1.08l1.81,0.36l1.44-1.57l2.05,1.08l1.08-1.57l2.89,0.36l-1.93-2.17H1085l-0.12-3.01l0.85,0.85
			l1.2-3.37l2.41-1.57l1.31-2.17l2.29-1.44l-0.24-2.05l4.93-1.44l2.76-0.6l0.6,0.85l2.29-0.96l-0.6,3.13l-0.73,1.08l0.24,2.29
			l1.57-0.73l-0.85,2.41l2.05-1.2l2.05-1.68l3.01-2.66l1.44-1.19l0.85,0.73l0.12-2.53l0.12-3.25l1.57-1.08l3.37-0.73l1.68,1.81
			l-3.13,0.6l-0.49,3.01l-0.85,2.05l0.12,1.81l-0.73,1.31l-0.36,2.05l-1.93,0.12l-2.53,1.57l-0.12,1.81l-4.69,4.2l-2.05,2.89
			l-2.89,3.49l-2.41,3.25l-1.93,0.49l-1.81-0.24v2.29l-0.96,2.17l-2.76,2.89l-0.49,6.36v4.46l0.73,4.69l1.44,5.54l0.24,3.37
			l0.49,3.49l0.73,1.44l-1.31,1.08l-1.57,0.73l-2.05,1.57l-0.6,1.44v1.44l-0.85,1.31l-1.08,1.57l-1.44,1.68l-0.96,2.41l-1.68,1.08
			l-0.73,1.81l-0.96,1.81l-1.81,0.85l-1.31,1.68l-2.66,2.05l-2.17,0.6l-1.57,2.05l-1.81,1.44h-1.57l-1.68-0.36l-0.96,1.68
			l-2.53,1.93l-0.73,0.96l-1.2-0.24l-1.31,1.44l-0.36,1.31l0.85-0.73l1.57-0.85l0.49-0.49l1.44-1.2v1.31l1.68-1.57l1.44-1.2
			l1.44-0.96l1.68-0.6l1.44-1.31l0.6,0.73l0.96-1.44l1.68-1.08l0.36-0.85l3.49-2.29l1.08-0.12l1.08-1.31l0.36-0.73l1.08-1.81
			l1.19-0.6l-0.12-1.08l0.6-0.6l0.49-0.6l0.96-1.44l0.49-1.08l1.44-0.49l-0.24-0.85l1.19-1.08l0.96-0.85l-0.49-0.73l0.73-2.05
			l2.05-0.49l0.73-2.05l0.6-0.6l0.85-0.96l1.08-0.73l1.68-1.2l1.08-1.2l1.08-1.31l1.68-3.49l-0.36-2.66v-0.73h1.68l1.57-0.85
			l1.57,0.6l-0.24-3.25l-0.24-1.2l2.53-3.13l1.68-0.12l0.96,0.36l1.68-1.31l-0.73-2.17l-0.49-2.17l0.96-2.41l0.12-1.44l2.29-1.2
			l-0.73,2.41l1.44,0.85l1.08-2.17l-0.73-1.31v-1.44h-1.57l0.73-3.49l0.73-1.31l-1.93-1.31l-1.57,0.85l0.24-2.76l1.57-2.66
			l0.96-2.41l0.6-2.05l0.6-2.17l0.85-1.57l2.05-1.2v0.96l1.93-1.08l0.12,1.68l3.01-2.53l1.57-0.6l-0.49,3.25l0.96-0.36l2.53-3.01
			l2.66-0.73l2.76-0.49l2.17,1.57l1.68,2.41l2.29-3.37l2.66-2.17l5.18-5.29l3.37-2.41l4.69-1.68l3.73-2.41l4.69,0.73l1.57,1.57
			l0.73-2.76l-0.49-2.76l-1.81-3.25l-1.44-1.68l0.6-3.49l-0.24-0.96l-3.37-0.49l0.12-2.89l3.49,0.73l1.93-0.6l2.41-1.44l2.76-3.01
			l-1.57-3.25l-0.49-1.93l2.66-0.6l1.81-0.85l-0.6,2.17l1.08,3.01l-1.44,0.85l3.73,0.24l1.81-0.85l2.29,1.08l1.81,2.76l-0.6,0.6
			l2.76,1.81l2.05-0.36l1.08,2.05l1.2,1.93l2.66-0.73v-2.41l1.81-2.05l1.2-2.41l-1.68-2.05l3.84,1.19l0.85-1.44l1.44-1.44l2.76-1.81
			l-2.66-2.29l-3.49-3.13l-2.66-1.81l-1.81,0.24l-2.29-1.68h-2.17l0.49,3.73l-1.08-1.44l-0.85-2.89l-0.49-3.25l-2.53-1.57l0.36,1.68
			l-2.29-1.93l0.12-1.44l-2.89-1.68l-4.46-3.01l-0.6-2.17l-4.09-2.17l-3.13-3.13l-3.84-0.96l-3.61-2.53l-1.81-1.81l-5.9,0.36h-4.34
			l-6.49-1.44l-0.24,3.13l-0.96,1.2l2.76,2.41l-0.49,2.66l-3.49,1.68l-2.17-1.93l-1.57-0.73l-0.24-3.01l-1.68-1.81l2.17,0.96
			l1.93-0.73l-0.12-2.05l-3.49-0.85v1.57l-1.19,1.2l-2.17,0.96l-0.49,2.05l-1.08-1.44l-2.76-0.24l-3.49-0.12l-2.66-2.29l-1.81,0.96
			l-2.89,0.24l-1.81,1.44l-2.17-0.85l-3.01-1.81l-1.93-0.6l1.08-2.17l0.36-2.05l-1.19-3.01l-1.93-2.76l-4.09-0.73l-4.57,0.24
			l-7.35,0.36l-2.66,0.12l-2.05,0.12l-0.6-1.81l-0.49-2.76l-2.76,0.12l-2.05-1.93l-1.68-1.2l-2.76-0.24l1.31-1.2l2.76,0.24
			l-1.57-3.25l-4.09-1.93l-3.84,0.24l-1.81,3.73l-2.41,2.41l-2.41,0.96l-0.24-1.93l1.2-1.57l2.17-2.66l-0.24,3.61l2.29-4.93
			l-2.66,0.73l-2.29,0.73l-2.66-0.73l0.24-2.17l3.97,0.6l2.17-0.49l-3.13-1.2l-3.49-0.6l-4.46-1.08l-3.13-0.12l-2.53-0.85
			l-0.24,2.76l-1.2,1.44h-3.13l-1.57,2.05h3.25l-2.05,2.66l2.17,4.46l-3.25,0.6l-1.44-1.31l-2.41,1.81l-1.68-1.68h-2.29l-4.09-0.85
			l-2.89,3.25l-2.66-1.81l-2.76-3.73l-2.41,5.9l-0.49,3.25l-1.68,1.57l-2.53-2.29l-3.73-2.53l-0.49-3.25l-0.49-3.13l0.96-2.89
			l0.6-5.05l-0.36-3.61l-3.97-4.93l-4.69,0.24l-4.93-2.29l-5.05-1.2l-0.73,4.34l0.49,3.97l-2.66,0.36l-6.73-0.6l-3.25-0.85
			l-1.93,0.6l-1.08-3.13l1.81-0.73l-4.81-1.2l-6.49-1.31l-3.13,1.31l-3.13,0.12l-0.73-3.49l-0.96-1.08l-1.08,3.01l-3.01-1.2
			l-0.24-2.41l-2.71,1.42l-2.29-0.24l-0.49,3.49l2.29,0.73l-4.34,3.01l-5.78,0.73l-3.01,1.08l0.96-2.76l4.34-3.49l1.68-0.6
			l3.13-3.73l2.41-3.49l5.05-3.25l2.05,1.31l-3.13,2.41l1.93,2.76l2.53-0.85l2.17-3.25l-2.89-0.85l-2.53-2.05l1.68-1.93l2.89-2.41
			l1.44-3.13l0.73-2.17l-2.05-1.93l1.68-0.96l0.12-2.41l-1.68-3.01l-0.49-2.05l-1.93,1.31l-1.08-4.57l-4.09-2.17l-5.66-0.6
			l-4.2,0.85l-0.85,1.93h-5.18l3.97-3.97l1.08-2.66l-5.9-0.96l-3.13,0.6l3.01-3.97l1.81-2.29l-3.84-1.44l-3.97-0.73l-5.29,3.49
			l-3.84,6.85l1.08,2.53l1.08,3.37l-4.2-0.49h-3.25l2.17,3.25l-3.13,0.24l-4.69,2.41l-4.34,1.44l1.57-3.73l-5.05,1.44l-6.36,0.73
			l3.97,1.81l-9.38,3.13l-6.13,3.37l-3.61,3.13l-2.29-0.12l-0.6,3.01l-2.89,1.31l2.41,3.73l-2.05,1.93l5.05,4.46l-3.01,1.44
			l-4.34,0.6l-4.57-0.24l-5.05,1.2l-3.73,1.2l-1.44,3.97l1.81,4.57L855,193.1l3.37,2.76l1.44,0.96l1.2,2.66l1.81,1.31l-0.24,3.49
			l0.24,5.66l-1.57-0.6l-1.44,0.85v-4.05l1.93-2.66l0.12-2.17l-2.05-0.49l-1.57,0.73l-2.89-2.53l-4.2-3.73l-3.25-0.73l-2.89,2.05
			l1.31,2.05l-1.68,1.2l-2.29-1.81l-2.41,1.31l3.37,5.18l4.09,1.2l-0.96,2.89l-3.01-2.05l-2.89-0.36l-3.61-1.68l0.73-4.57l0.24-4.09
			v-4.82l-1.93-2.05v2.05l0.49,2.89l-1.2,3.37l-4.34,2.53l-0.6,3.97l3.49,5.29l0.49,3.61l-1.93,4.34l-0.12,4.82l1.44,4.34l4.2-1.57
			h3.73l2.89,3.25l0.6,4.34l0.73,1.57l-1.57,2.29l1.57,1.2l1.31,1.2l-1.93,0.6l-2.53-1.57l0.96-3.84l-0.85-2.89l-1.93-3.61
			l-6.13,2.17l-0.85,3.73l2.41,3.97l-2.53,2.41l-1.08,2.05l-1.57,2.89l-3.37,2.53l0.12,2.66l-3.37-1.31l-3.61-0.24l2.41-1.68
			l2.53-1.44l2.29-3.49l0.6-2.53l2.05-1.57l0.12-3.73l1.68-3.13l-3.73-3.61l-0.12-5.05l0.85-4.34l-1.2-3.01l1.68-0.6l-0.36-6.49
			l-2.41-3.61l-0.36-2.05l1.31-5.66l0.73-4.09l-0.6-2.29l-3.49-0.96l-3.25,0.12l0.85-2.05l3.37-0.6l-1.57-2.29l-1.93-1.2l-2.29,2.66
			l1.68,1.81l-0.85,1.81l-1.68-0.6l-1.08,1.93l-0.6,2.41l-0.96,3.84l-0.73,3.49l-1.68,3.61l-3.49,2.89l0.85,1.81l-2.17,1.31
			l0.85,1.31l1.68-0.73v2.41v2.66l0.36,1.93l-1.93,1.31l0.6,3.25l1.2-1.08l2.17,1.57l0.49-0.36v2.89l1.81,2.89l0.96,0.12l-0.6,3.13
			l-1.2,2.76l-1.57-2.29l-1.68-2.29l-1.44-1.81l-2.76-0.49l-3.61-2.29l-2.76-2.76l-2.89-1.31l-3.61-0.85l-3.25-0.12l-1.57,0.49
			l-0.96-3.01l-4.46-3.61l-0.24,2.17l0.85,2.66l2.05,1.93l2.53,0.36v0.96l0.49,2.41l1.31,2.53l-0.36,2.53l-2.41,0.6l-0.36,2.76
			l-2.05-0.36v-3.49l-0.96-1.93l-2.53,1.93l-2.53,0.73l-0.12,1.44l-2.89-0.36l-3.25,0.6l-1.44,3.01l-3.01-0.36l-2.17-0.73l3.01-1.81
			v-2.66l-3.49-0.12l-2.41,1.44l0.36,2.76l-2.76-1.31l-2.76,2.41l-6.36,2.76l-1.68,2.53l-1.44,4.09l-2.05,1.81l-4.2-1.2l-1.31-3.01
			l0.49-3.01l1.93-0.24l2.05-0.85l-0.6-1.93l-1.08-1.31l-1.31-1.93l-4.09-0.12l-4.09-1.44l2.76,3.01l0.6,2.29l-0.6,3.13l-1.08,2.41
			l1.68,2.05l0.96,2.05l-0.6,3.61l0.24,4.09l-2.76-3.25l-3.13-1.31l-1.2,1.68l-3.01,2.29l-3.25,2.05l-0.6,1.81l1.68,4.2l1.57,2.29
			l-1.81,0.49l-3.25-1.44l-3.84-0.96l-3.13-2.29l-1.93,2.66l3.01,3.49l2.17-0.73l0.85,3.49l-1.81,0.12l-3.49-0.24l-3.01-2.66
			l-2.17-1.31l-1.44-3.37l-0.12-3.25l0.49-1.68l0.24-2.29l-2.29-2.17l-2.05-2.17l-1.81-2.05l-1.81,0.24v-2.17l0.12-1.68l2.53,0.85
			l0.96,1.81l2.89,1.19l2.76,1.2l4.46,1.57l2.53,1.31l4.57,0.96l3.25-1.81l2.76-2.29l2.66-3.84l-0.73-2.29L730,237.8l-3.61-3.01
			l-3.61-2.05l-3.73-3.84l-3.37-3.01l-4.82-2.05l-3.97-0.12l-2.76-0.85l-1.93-2.17l-2.41-0.49l-1.31,1.31l-2.41-0.49l-0.73,1.44
			l-2.05,1.2l-0.73,2.41l-1.08-0.12l-0.96,2.05v1.57l1.08,2.41l2.76,2.89l0.85,2.53l0.85,0.49l-3.37,5.54l3.37,9.51l-0.6,0.73
			l-0.24,2.76l0.24,2.76l0.96,1.57l0.24,2.53l1.08,1.68l-1.57,2.41l1.44,2.29l1.81,0.73l0.49,2.17l0.85,0.73l-0.49,1.81l-2.29,2.17
			l-2.17,2.17l-1.68,2.89l-1.44,2.66l-2.66,2.17l-1.68,2.29l2.41-0.85l0.24,1.31l2.29,1.68l1.2-0.12l1.57,1.81l-2.76-0.12l-1.2,0.12
			l-2.17,1.2l-0.96,1.31l0.24,1.93l-2.05,2.05l1.44,4.09l1.2,1.31l0.6,2.29l0.12,3.61l-0.12,2.41l0.49,1.31l4.46,0.49l0.6,1.31
			l2.53-0.36l0.96,4.57l1.08,3.61l1.68,1.68l0.12,1.44l1.68,1.44l-0.85,2.29l-2.41-0.12l0.49,1.93l0.6,2.76l2.05-0.36l1.81-0.12
			h2.29l1.44,1.93l0.49,3.61l2.17,0.12l1.08,2.89l0.49,1.19l2.53-0.24l2.05,0.85l1.81-1.08l1.08,1.44l1.68,0.73l1.68,1.31l0.85-0.12
			l0.73,0.96l1.93,0.12l-0.6,2.17l-0.36,1.19l1.2,2.41l-1.2,1.93l-1.93,0.12l-1.31,1.31l-1.81,1.08l0.6,1.44h2.66l-2.89,1.93
			l-2.66,0.49l2.29,2.76l-1.81,0.24l-1.57,2.05l-1.57,0.73l-0.73,0.73l1.93,1.08l1.08,1.68l3.84,1.57l1.31,0.6L725.64,376.7
			L725.64,376.7L725.64,376.7z"/>
		<path id="path4125" fill="#54565b" stroke="#54565b" stroke-width="1" stroke-miterlimit="10" d="M1166.05,203.06l-5.29,3.61
			l0.73,3.13l5.29-1.44l3.84,0.49l1.44-3.84l-3.37-2.66L1166.05,203.06L1166.05,203.06z"/>
		<path id="path4127" fill="#54565b" stroke="#54565b" stroke-width="1" stroke-miterlimit="10" d="M1049.81,185.5l-7.71-0.96
			l-3.61-0.49l2.89-2.66l0.49-3.13l-3.37-1.68l1.2-3.37h3.13l-0.49,4.57l1.19,0.96l1.93-0.73l3.37,1.2l1.93,2.89l0.24,3.61
			L1049.81,185.5L1049.81,185.5z"/>
		<path id="path4129" fill="#54565b" stroke="#54565b" stroke-width="1" stroke-miterlimit="10" d="M1037.54,164.8l-1.19,2.89
			l-4.09-3.37v-4.81l-1.68-2.41l2.66-4.09l1.93-3.61l4.09,2.17l0.73,4.09l1.44,1.44l1.93-0.96l-0.24-3.61l2.41-0.73l4.57,3.37
			l1.68,1.2l3.61,0.73l1.44,1.2l-2.41,2.89l-1.19,2.89l-2.89-1.44v-4.09l-3.61-1.68l1.68,4.57l0.73,2.17l2.41,0.96l-2.41,1.44
			l-3.13-0.24l-2.41,0.24l-4.09,1.44l-0.49-2.41L1037.54,164.8L1037.54,164.8L1037.54,164.8z"/>
		<path id="path4131" fill="#54565b" stroke="#54565b" stroke-width="1" stroke-miterlimit="10" d="M1059.92,157.57l1.44,3.84
			l1.2,3.13l4.82,2.89l4.34,0.73l1.93-2.41l-2.66-3.37l-3.37-0.73l-2.66-1.44L1059.92,157.57L1059.92,157.57z"/>
		<path id="path4133" fill="#54565b" stroke="#54565b" stroke-width="1" stroke-miterlimit="10" d="M901.08,67.21l-1.81,6.85
			l-8.66,3.25l-0.36,5.78l3.25,5.42l1.81,2.53l-3.97,1.44l-4.69-1.81l2.17,6.13l3.97-1.08l2.89-2.17l0.73,1.44l-3.61,5.05l3.97,3.25
			l1.44,3.61l3.97,0.36l2.17,3.61l6.13,0.73l3.97-2.89l4.34,1.81l-2.89,6.85l-1.08,6.49l3.97-1.81l8.3-0.36l3.97-4.34l0.36-4.69
			l-4.34-4.34l-2.89-2.17l-0.73-3.61l-3.25-0.73l-1.08,5.05l-0.54,2.89l-3.43-1.44l-1.44-3.78l0.36-4.34l0.54-3.61l-0.9-3.97
			l-2.35-1.62l-1.81,1.44l-2.53-2.71l-1.08-1.08l-5.78,1.25l-2.89,1.99v2.17l-1.62-1.62l0.18-1.62l1.62-0.9l2.17-1.81l1.99-1.99
			h3.43l1.08-0.9l-0.54-3.43l1.99-3.25l-1.08-3.61l-2.7-1.25l-1.08-5.78L901.08,67.21L901.08,67.21z"/>
	</g>
	<path id="path3961" fill="#DDDDDD" d="M587.11,325.55l-0.49,1.81l1.93-1.44l-0.49-0.96L587.11,325.55z"/>
	<path id="path4273" fill="#DDDDDD" d="M471.48,728.45l5.24,5.19l3.58,4.88l0.28-4.88l-2.75-3.05L471.48,728.45z"/>
	<path id="path4307" fill="#DDDDDD" stroke="#54565b" stroke-width="1" d="M364.04,462.47l-1.31,0.24l-0.24,0.96l2.05,0.24
		l0.12-1.57L364.04,462.47L364.04,462.47z"/>
</g>
</svg>
