<svg version="1.1" id="Layer_1" xmlns="http://www.w3.org/2000/svg" xmlns:xlink="http://www.w3.org/1999/xlink" x="0px" y="0px" viewBox="0 0 1200 760" enable-background="new 0 0 1200 760" xml:space="preserve">
<g id="south-america">
	<path id="co" fill="#54565b" stroke="#54565b" stroke-width="1" stroke-miterlimit="10" d="M350.68,509.28l0.12,4.09l-0.49,1.44
		l0.73,3.13l0.96,0.73l-0.96,1.68l-1.57,1.2l-3.01,0.96v2.89l2.29,2.17l1.93,1.44l1.44,1.31l3.84-0.49l1.81,0.36l0.24,0.73
		l2.17,1.08l1.31,2.29l1.81,1.2l1.08,1.93l0.36,0.96h3.72l1.81-0.24l1.68,0.36l1.81,1.44l-1.2,2.17l0.96,1.68l0.6,0.73l0.6-1.68
		l1.81-8.07l-1.31-2.05l-0.85-1.93l0.12-1.31l2.29-0.49l0.12-1.08l-1.93-0.96l0.24-1.2l3.84-0.36l0.73-0.73l1.08,0.73l1.08-0.85
		l1.68,3.01l0.73-0.6l-2.41-4.34l-0.96-0.85l1.08-1.44l-0.96-3.37l1.2-5.9l-3.84-0.24l-2.76,0.24l-1.93-2.76l-6.61-0.36l-0.96-3.01
		l-0.96-1.93l-1.31-0.24l1.2-2.17L365,497.2l2.89-1.93l0.12-1.68l1.81-0.36l0.49-1.08l-1.31-0.6l-1.81,0.12l-0.6,1.57l-0.49,1.31
		l-3.13,0.73l-1.57,0.12l-1.08,0.24l-2.66,0.24l-0.96,1.93l0.96,1.08l-1.2,0.96v1.08l-1.81,0.24l-1.08,2.17l-0.73,0.36v1.31
		l-0.85,0.49l-0.49-1.57h-0.36l-0.36,1.2l-0.24,1.44l-1.5,1.08L350.68,509.28L350.68,509.28z"/>
	<path id="pe" fill="#54565b" stroke="#54565b" stroke-width="1" stroke-miterlimit="10" d="M371.98,544.65l-2.53,0.85l-2.76,0.49
		l-1.81,1.57l-0.73,2.89l-0.73,2.05l-1.31,1.2l-0.36,1.81l1.44,2.76l1.57,1.68l-0.49,1.31l1.93,0.6l1.2,1.31l3.25-0.6l0.73-1.93
		l0.96,3.84h3.61l2.05,3.25l-0.36,3.84v3.01l-0.85,2.66l-0.36,3.01l0.6,1.93v1.68l-0.96,2.29l-1.2,1.08l-0.12,1.31l-1.81,1.31
		l-0.24-1.2l-3.84-4.2l-2.66-1.57l-3.37-1.68l-3.49-1.81l-5.29-5.29l0.85-0.6l-1.08-1.57l-2.41-4.81l-2.66-3.97l-1.44-2.76
		l-0.49-2.66l-1.2-2.89l-2.89-3.13l-3.25-1.31l-0.6-1.93l0.73-0.6l-1.44-2.29v-2.41l2.29-0.96l1.68-0.96l0.36,1.57l-0.85,1.44
		l0.73,1.2h1.08l0.96,0.6l2.29,0.49l1.57-1.57l0.12-2.89l1.93-1.31l2.89-1.44l1.68-2.05l2.05-1.31l0.24-1.68l0.85-0.49l-0.85-1.57
		l1.44-0.85l1.68,1.08l1.2,1.81l1.93,1.44l1.31,2.66h4.09l1.44-0.24l1.68,0.36l1.81,1.44l-1.2,2.17l1.57,2.41L371.98,544.65
		L371.98,544.65L371.98,544.65z"/>
	<g id="ec">
		<path id="path4243" fill="#54565b" stroke="#54565b" stroke-width="1" stroke-miterlimit="10" d="M346.6,526l-1.68,1.19
			l-1.81,1.08l-1.08,0.24v3.13l-1.44,2.66l-0.12,2.89l0.96,1.81l1.57-1.08l0.6,1.31l-1.44,2.05l0.36,1.57l-0.85,1.44l0.49,0.96
			l1.2-0.12l1.57,1.08l1.81,0.36l1.57-1.57l0.12-2.89l1.93-1.57l2.53-1.19l2.05-2.05l2.41-1.57l-0.12-1.68l0.85-0.24l-0.85-1.57
			l0.96-0.85l-0.36-1.2l-1.81-0.36l-3.84,0.49l-1.44-1.31l-1.81-1.2L346.6,526L346.6,526z"/>
		<path id="path4245" fill="#54565b" stroke="#54565b" stroke-width="1" stroke-miterlimit="10" d="M306.89,530.22l-0.67,0.78
			l0.31,0.96l1.02,0.06l-0.96,0.78v1.08l2.29-0.24l0.31-1.37l-0.24-1.31L306.89,530.22L306.89,530.22L306.89,530.22z"/>
	</g>
	<path id="ve" fill="#54565b" stroke="#54565b" stroke-width="1" stroke-miterlimit="10" d="M370.42,495.56l2.05-0.24l2.53-0.6
		l-1.81-1.31l0.6-1.68l1.93,1.08V494l2.29,0.6l0.96,1.2l0.96,1.68l4.46,0.12l1.2-0.24l2.89,1.57l3.73-0.24l-0.12-1.2h3.13l3.49-0.24
		l-1.44,1.08l0.6,1.93l0.73-0.6l2.66,1.31l1.57,1.68l1.44,0.24l1.31,1.2l0.24,1.19l-1.81,1.31l-0.24,1.57l0.96,0.24l-0.49,0.85
		l-3.25,0.96l0.24,0.85l0.49,2.05l1.31,1.57l0.12,1.08l-2.17,1.31l-3.25,1.08l-2.17,0.85l-2.17-0.6l-1.68-0.24l0.49,0.85l0.24,1.57
		l-0.12,2.05l2.53,0.73l-0.6,1.44l-1.31,0.36l-0.85,1.57l-2.66,0.24l-1.81,1.44h-2.41l-0.85-1.44l-2.41-4.34l-0.96-0.85l1.08-1.44
		l-0.96-3.37l0.85-6.02l-3.49-0.12l-2.76,0.24l-1.93-2.76l-6.61-0.36l-1.31-3.37l-0.6-1.57l-1.31-0.24l1.2-2.17l-0.12-3.37
		l2.89-1.93L370.42,495.56L370.42,495.56z"/>
	<path id="gy" fill="#54565b" stroke="#54565b" stroke-width="1" stroke-miterlimit="10" d="M405.19,514.93l0.49,2.53l1.57,0.73
		l-1.08,1.08l-1.2,1.81l1.2,1.93l0.85,0.6v1.93l3.01,2.17l2.89-2.76l1.93-0.49l1.57,0.6l-1.44-2.17l-0.73-2.76l-1.31-0.6l-1.08-1.81
		l0.73-2.41l2.17-1.68l0.12-1.81l-1.93-1.93l-2.17-1.31l-0.96,0.49l-0.24-1.81l-0.73-1.31l-1.93-0.96l-1.08,0.36l-1.81,1.31
		l-0.24,1.57l0.85,0.6l-0.36,0.49l-3.25,0.96l0.73,3.13l1.31,1.31L405.19,514.93L405.19,514.93z"/>
	<path id="sr" fill="#54565b" stroke="#54565b" stroke-width="1" stroke-miterlimit="10" d="M418.54,524.92v-1.31l2.76-0.96
		l2.41-1.31l0.36-2.05l-1.57-2.05l0.36-1.93l0.96-2.29l-2.05-0.96l-1.93-0.12l-1.81,0.36l-3.25-0.49l-0.12,1.81l-2.17,1.93
		l-0.73,2.17l1.08,1.81l1.44,0.96l0.6,2.41l1.44,2.17L418.54,524.92L418.54,524.92z"/>
	<path id="gf" fill="#54565b" stroke="#54565b" stroke-width="1" stroke-miterlimit="10" d="M423.12,524.8l2.05-0.12l1.81,0.12
		l1.08-2.53l1.31-2.53l2.53-2.17l-0.6-1.68l-1.2-0.12l-2.17-1.57l-2.66-1.08l-1.44-0.12l-0.96,2.29l-0.36,1.93l1.68,2.29l-0.49,1.81
		l-2.41,1.31L423.12,524.8L423.12,524.8z"/>
	<path id="br" fill="#54565b" stroke="#54565b" stroke-width="1" stroke-miterlimit="10" d="M376.43,564.15l3.07,1.62l0.54-1.81
		l4.52-1.08h2.71l1.62,2.53l3.43,3.78l3.97,0.54l4.52,3.43l2.89,0.73l0.54,4.87l-0.54,0.91l2.89,3.07l3.61-0.36l0.9,3.43l1.81,1.62
		l-0.18,6.49l-1.25,1.08l0.54,6.49l6.67,0.18l1.44,5.24l3.43-0.36l-1.08,5.78l2.35,1.62l0.18,4.69l-4.87,3.61l-2.35,2.53l-3.97,3.61
		l2.17,1.62l2.35,2.53l1.44,0.36l6.31,4.34l0.36,1.99l3.07-3.43l4.69-4.87l-1.81,3.97l1.62-1.08l2.35-3.97l0.73-3.25l2.53-2.71
		l2.35-3.43l-0.54-5.05l0.36-3.61l4.52-2.53l4.52-2.53l2.71-2.71l6.49-0.36l2.71-1.44l1.99-1.99l0.9-3.43l2.71-3.25l0.9-0.91
		l-0.18-4.69l1.62-0.73l1.08-6.31l-0.18-6.67l0.36-1.81l2.53-1.99l2.71-4.87l2.89-3.25l2.89-3.78l1.25-3.61l-0.54-3.78l-1.62-4.34
		h-3.07l-2.17-1.81l-2.89-1.08l-1.99-2.17l-4.34-2.89l-2.89,0.54l-2.17-0.18l-5.96-1.81l-1.99-0.18l-1.25-1.62l-5.42-1.08
		l-3.07-2.17l-2.71,0.18l-1.08,1.81l-0.36-2.53l-1.62-0.54l-2.71-0.18l-2.17,1.25l-1.44,1.81l-0.18-2.35l2.17-2.53l2.35-2.17
		l-0.73-1.44l-0.9-1.44l-1.08-1.44l-0.36-0.73l-0.18-2.7l-0.54-1.44l-1.37-0.36l-2.53,2.17l-2.41,5.05l-2.71-0.18l-0.73,0.36
		l-2.23-2.35l-2.76,0.96v1.31l-2.17,0.12l-1.14-0.6l-2.35,0.49l-2.89,2.76l-3.01-2.17v-1.93l-2.05-2.53l2.29-2.89l-1.57-0.73
		l-0.9-2.41l-1.75-0.36l0.12,1.08l-2.89,1.99l-4.69,1.25l-3.84-0.85l0.96,1.19l-0.36,3.25l2.53,0.73l-0.6,1.44l-1.31,0.36
		l-0.85,1.57l-2.66,0.24l-1.81,1.44h-2.41l-0.85-1.44l-0.73,0.6l-1.68-3.01l-1.08,0.85l-1.08-0.73l-0.73,0.73l-3.84,0.36l-0.24,1.2
		l1.93,0.96l-0.12,1.08l-2.29,0.49l-0.06,1.81l2.11,3.49l-2.29,9.32l-2.29,0.54l-3.31,0.91l-1.99,0.42l-1.81,1.57l-1.62,5.42
		l-1.25,1.25l-0.24,1.25l1.44,2.76l1.57,1.68l-0.49,1.31l1.93,0.6l1.2,1.31l3.25-0.6l0.73-1.93l0.96,3.84h3.01L376.43,564.15
		L376.43,564.15z"/>
	<path id="bo" fill="#54565b" stroke="#54565b" stroke-width="1" stroke-miterlimit="10" d="M376.25,587.79l1.44,3.61l1.81,0.54
		l-0.9,1.81l-0.18,2.7l0.36,1.25l1.08,0.36l1.25,5.6l2.35-0.36l3.07-3.07l2.35,0.73l1.81,0.54l0.9,1.62l1.99-2.89l2.53,0.36
		l0.73,1.25l1.44-3.25l2.17-5.78l3.43-0.18l3.25-0.54l3.78,1.62l0.54,1.25l1.25-1.08l0.18-6.49l-1.81-1.62l-0.9-3.43l-3.61,0.36
		l-2.89-3.07l0.54-0.91l-0.54-4.87l-2.89-0.73l-4.52-3.43l-3.97-0.54l-5.05-6.32l-7.22,1.08l-1.08,1.81l-3.01-1.25l2.05,3.25
		l-0.49,4.52l0.12,2.35l-0.85,2.66l-0.36,3.01l0.9,2.47l-0.73,2.7l-1.08,1.08L376.25,587.79L376.25,587.79z"/>
	<path id="py" fill="#54565b" stroke="#54565b" stroke-width="1" stroke-miterlimit="10" d="M397.92,602.77l2.35,2.17l3.78,3.61
		l2.89,0.18l2.17,1.25l2.89,1.81l0.73,1.25l-1.99,2.35l-0.54,2.71l7.41,1.25l1.99-0.73l0.36-1.44l2.35-1.44l-0.18-2.17l1.62-0.36
		l-1.25-0.91l1.08-5.78l-3.43,0.36l-1.44-5.24l-6.67-0.18l-0.54-6.49l-0.54-1.25l-3.78-1.62l-2.71,0.54l-3.97,0.18l-3.61,9.02
		L397.92,602.77L397.92,602.77z"/>
	<g id="ar">
		<path id="path4265" fill="#54565b" stroke="#54565b" stroke-width="1" stroke-miterlimit="10" d="M383.48,603.31l-0.36,2.89
			l-0.73,1.44l-3.07,1.81l-0.36,2.89l-0.9,1.44l1.81,4.15l-0.36,1.44l-2.17-0.18l-1.99,3.43l-0.73,3.61l-0.36,2.53l-1.08,2.7
			l-1.25,3.25l1.25,3.43l1.99,2.89l-0.36,2.53l-1.44,2.53l-0.54,5.05l-1.81,0.73l-1.25,1.81l0.54,4.87l1.25,2.7l-1.62,1.99
			l-1.25,4.34l-0.18,4.52v4.69l-0.73,1.81l0.36,1.81l-0.18,1.99l0.54,4.34l1.44,1.81l-0.9,2.7l0.54,3.61l-1.08,3.61l-1.99,1.08
			l-0.36,3.61l-1.08,2.7l-1.25,1.99l0.73,2.89l0.18,2.53v1.99l2.71-0.54v2.17v2.53l1.44,1.99l2.89-0.18l3.07,0.73l2.35,0.54
			l1.99,0.36l-1.62-2.89l-1.25-1.25l0.54-2.17l-0.54-2.35l2.17-1.81l0.54-0.36h1.81l0.18-3.07l0.73-1.99l3.07-3.07l2.17-2.89
			l0.36-3.25l-1.62-0.36l-3.07-1.99l-0.18-3.43l1.99-2.35l2.17-2.17l1.08,0.73l0.73-2.17l0.36-2.17l0.9-2.89l2.35-1.81l-1.44-1.44
			l0.9-0.18l1.99,0.91l1.25-1.99l-1.44-1.25l-2.53,1.08l-0.73-0.91l-1.25-1.44l0.54-3.61l1.44-0.73l2.89,1.25l2.71,0.18l1.99-2.35
			v-2.53l0.54-3.97l5.05,0.36l3.97-1.62l2.53-1.08l2.53-0.73l0.73-2.35l2.89-4.15l-1.62-1.08l-0.73-2.71l-0.73-1.99l-2.71-0.91
			l-0.73-1.99l0.9-0.91l-0.73-1.62l0.54-1.81l-0.36-3.07l1.44-2.35l0.54-3.43l1.44-2.35l6.31-6.13l4.87-3.61l-0.18-4.69l-1.08-0.73
			l-1.99,0.91l1.08,1.44l-2.89,1.62l-0.36,1.44l-1.99,0.73l-7.41-1.25l0.54-2.71l1.99-2.35l-0.73-1.25l-5.05-3.07l-2.89-0.18
			l-7.22-6.67l-0.73-1.25l-2.53-0.36l-1.99,2.89l-0.9-1.62l-4.15-1.25L383.48,603.31L383.48,603.31z"/>
		<path id="path4267" fill="#54565b" stroke="#54565b" stroke-width="1" stroke-miterlimit="10" d="M378.34,724.88l0.36,11.28
			h1.35l-0.18,0.64l0.28,1.44h2.17l0.73-0.99l-1.44-0.73l1.81,0.54l1.81,0.64l2.17-0.91l1.54-0.64l-0.28-1.17l-2.26-0.28l-2.17-1.08
			l-1.99-0.91l-0.82-1.44l-0.73-1.54l-0.46-0.99l-0.73-0.99l-0.09-0.82l0.46,0.28v-1.35L378.34,724.88L378.34,724.88z"/>
	</g>
	<g id="fk" transform="matrix(1.5400549,0,0,1.5488117,-3435.6617,-569.55239)">
		<path id="path4269" fill="#54565b" stroke="#54565b" stroke-width="1" stroke-miterlimit="10" d="M2498.11,830.31v1.72
			l-1.08,0.81l-0.99,1.25l-0.09,1.34l1.44,0.09l0.64-1.44l1.44,0.09l-0.09-1.25l1.81-0.18l0.81-1.35l-1.72-1.35l-0.91,0.36
			L2498.11,830.31L2498.11,830.31z"/>
		<path id="path4271" fill="#54565b" stroke="#54565b" stroke-width="1" stroke-miterlimit="10" d="M2496.3,830.75l-0.73-0.73
			h-1.54l-0.09,1.44l-1.35,0.54l0.54,1.44l-1.25-0.27l-0.64-0.91l0.09,1.53l1.44,1.17l1.54-0.54l0.73-1.62l0.82-0.45l1.08-0.99
			L2496.3,830.75L2496.3,830.75z"/>
	</g>
	<path id="cl" fill="#54565b" stroke="#54565b" stroke-width="1" stroke-miterlimit="10" d="M372.95,589.91l-0.36,6.13l1.2,5.54
		l-1.44,3.84l-0.24,6.26l-0.49,3.13l-0.49,6.02l-2.17,3.37l0.73,4.57l-0.96,3.13l0.24,5.05v3.84l-1.68,4.09l-1.44,4.82l-1.2,5.29
		l-1.2,0.49l-0.24,4.34l0.49,6.02l-0.96,2.66l-0.96,3.37l1.2,1.93l-1.44,0.96l-1.2,4.57l0.49,1.68l2.66-2.41l0.49-3.61v-1.44
		l1.68-0.96l0.73,2.66l-1.68,4.09l-0.49,4.57l-1.44,4.57l-1.44-2.17l-1.2,2.66l0.96,2.89l-0.24,0.73l-1.44,0.24l-2.66,2.17
		l0.24,1.68l2.89-1.68l1.2,0.96l0.73,0.73l-0.96,2.17l-0.73,1.2l-0.24,2.89l-1.93-2.41l-0.24,1.2l-1.2,2.41l-0.24,1.2l0.96,2.41
		l0.24,1.44l2.41,0.73l0.73-1.93l-0.49,3.84l-2.66-0.24v1.44l2.66,2.17l0.49-1.93l1.68,1.19l-0.49,2.89h-1.93l-2.17,0.24l1.44,1.2
		l0.49,1.44l1.93-1.19l0.73,1.44l-0.73,0.49l1.44,0.49l1.2-0.73l1.44-0.96v1.44l-2.41,0.96l-0.96,1.93l0.49,1.19l0.96,1.93
		l1.68,0.73l1.93-0.96l1.44-0.24l-0.96,1.44l-2.66,0.49l-2.66-0.73l1.68,2.41l1.68,1.93l1.44-1.68v-0.73l1.44,0.24l0.96,0.49
		l2.17-0.73l-0.24-1.44v-1.93l0.49-0.96l2.17-0.49l0.96-0.85l-0.24,1.02l-1.81,1.14l-0.42,1.02l0.42,1.19l1.93-0.12h0.73l-1.31,1.62
		l-1.14,0.49l0.54,2.05l2.11,0.96l-2.76-0.12l-0.78-1.19l-0.73-1.81l-0.36,0.49l-0.18,1.02l-0.9-0.42l-1.14-0.49h-1.37l-0.24,1.14
		l0.96,0.54l0.96,0.78l1.2-0.49l0.49-0.31l0.49,0.6l-0.36,0.49l-0.36,0.91l-0.73,0.24l1.14,0.85l0.96,0.54l0.18,0.54l1.5-0.06
		l1.14-0.36l0.67,0.12l-0.85,1.14l-0.73,0.49l1.44,1.44l0.85,0.36l-0.12-1.2h1.31l1.02,1.31l1.14,0.54l0.9,0.31l-1.25-1.86
		l-0.31-0.91l-0.18-0.91l-0.42-0.36l0.12-0.96l-0.39-11.1l-1.28-0.28l-0.9-0.49l-0.6-1.5l-0.24-0.73l-3.55-0.73l-2.89,0.18
		l-1.44-1.99v-4.69l-2.71,0.54l-0.06-2.35l-0.12-2.17l-0.73-2.89l1.02-1.62l1.31-3.07l0.36-3.61l1.99-1.08l1.08-3.43l-0.54-3.78
		l0.9-2.71l-1.44-1.99l-0.54-3.97l0.18-2.17l-0.36-1.81l0.67-1.62l0.24-9.38l1.14-4.15l1.75-2.17l-1.44-2.59l-0.36-5l1.44-1.81
		l1.62-0.73l0.42-4.87l1.44-2.53l0.36-2.89l-1.99-2.53l-1.08-3.43l2.29-6.13l1.08-6.13l1.93-3.07l2.23-0.18l0.36-1.44l-1.81-4.15
		l0.9-1.44l0.36-2.89l3.07-1.81l0.73-1.44l0.24-2.7l-2.23,0.18l-1.25-5.6l-1.14-0.54l-0.31-1.08l0.18-2.7l0.9-1.81l-1.57-0.54
		l-2.41-4.87l-0.67,0.91l-0.12,1.14L372.95,589.91L372.95,589.91z"/>
	<path id="uy" fill="#54565b" stroke="#54565b" stroke-width="1" stroke-miterlimit="10" d="M425.52,640.67l0.18,1.62l-1.25,3.43
		l-2.53,1.25h-4.69l-2.17-0.91l-1.62-0.91l-1.62-0.36l-0.9-1.81l-0.73-1.62l0.54-1.81l-0.36-3.07l1.44-2.35l0.54-3.43l1.08-1.81
		l2.53,1.08l2.35,2.53l1.44,0.36l6.31,4.34l0.36,1.99L425.52,640.67L425.52,640.67z"/>
	<g id="other">
		<path id="path3961" fill="#54565b" d="M587.11,325.55l-0.49,1.81l1.93-1.44l-0.49-0.96L587.11,325.55z"/>
		<path id="path4273" fill="#54565b" d="M471.48,728.45l5.24,5.19l3.58,4.88l0.28-4.88l-2.75-3.05L471.48,728.45z"/>
		<path id="path4329" fill="#54565b" stroke="#54565b" stroke-width="1" d="M251.29,617.69l-2.89,0.73l2.17,1.44l1.44-1.44
			L251.29,617.69z"/>
	</g>
</g>

</svg>
