<?xml version="1.0" standalone="no"?>
<!DOCTYPE svg PUBLIC "-//W3C//DTD SVG 1.1//EN" "http://www.w3.org/Graphics/SVG/1.1/DTD/svg11.dtd" >
<svg>
<metadata>
Created by FontForge 20090622 at Tue Mar 21 13:49:15 2017
 By deploy user
Copyright (C) 1990, 2011 Hoefler &#38; Frere-Jones. http://www.typography.com
</metadata>
<defs>
<font id="IdealSans-Medium" horiz-adv-x="374" >
  <font-face 
    font-family="Ideal Sans Medium"
    font-weight="350"
    font-stretch="normal"
    units-per-em="1000"
    panose-1="0 0 0 0 0 0 0 0 0 0"
    ascent="800"
    descent="-200"
    x-height="473"
    cap-height="708"
    bbox="-168 -269 1238 1119"
    underline-thickness="50"
    underline-position="-50"
    unicode-range="U+0020-U+FB04"
  />
<missing-glyph horiz-adv-x="500" 
d="M0 -200v1000h500v-1000h-500zM71 750l179 -390l179 390h-358zM50 -76l172 376l-172 376v-752zM450 676l-172 -376l172 -376v752zM250 240l-179 -390h358z" />
    <glyph glyph-name="f_f" unicode="ff" horiz-adv-x="696" 
d="M342 718l8 -102q-20 7 -45 7q-83 0 -83 -109v-42h121q-4 -29 -4 -93h-117v-282q0 -64 4 -97h-130q7 60 7 163v216h-87l24 93h63v34q0 102 47.5 161t134.5 59q27 0 57 -8zM690 718l8 -102q-20 7 -45 7q-83 0 -83 -109v-42h121q-4 -29 -4 -93h-117v-282q0 -64 4 -97h-130
q7 60 7 163v216h-87l24 93h63v34q0 102 47.5 161t134.5 59q27 0 57 -8z" />
    <glyph glyph-name="fi" unicode="fi" horiz-adv-x="602" 
d="M539 0h-131q7 60 7 164v134q0 110 -7 170q61 0 131 7q-4 -35 -4 -107v-271q0 -62 4 -97zM553 640q0 -31 -21.5 -52.5t-53.5 -21.5q-31 0 -51.5 20.5t-20.5 48.5q0 31 21.5 52.5t53.5 21.5q30 0 51 -20.5t21 -48.5zM342 718l8 -102q-20 7 -45 7q-83 0 -83 -109v-42h121
q-4 -29 -4 -93h-117v-282q0 -64 4 -97h-130q7 60 7 163v216h-87l24 93h63v34q0 102 47.5 161t134.5 59q27 0 57 -8z" />
    <glyph glyph-name="fl" unicode="fl" horiz-adv-x="602" 
d="M539 0h-131q7 60 7 165v382q0 103 -7 163q96 8 131 15q-4 -35 -4 -120v-507q0 -63 4 -98zM342 718l8 -102q-20 7 -45 7q-83 0 -83 -109v-42h121q-4 -29 -4 -93h-117v-282q0 -64 4 -97h-130q7 60 7 163v216h-87l24 93h63v34q0 102 47.5 161t134.5 59q27 0 57 -8z" />
    <glyph glyph-name="f_f_i" unicode="ffi" horiz-adv-x="950" 
d="M887 0h-131q7 60 7 164v134q0 110 -7 170q61 0 131 7q-4 -35 -4 -107v-271q0 -62 4 -97zM901 640q0 -31 -21.5 -52.5t-53.5 -21.5q-31 0 -51.5 20.5t-20.5 48.5q0 31 21.5 52.5t53.5 21.5q30 0 51 -20.5t21 -48.5zM342 718l8 -102q-20 7 -45 7q-83 0 -83 -109v-42h121
q-4 -29 -4 -93h-117v-282q0 -64 4 -97h-130q7 60 7 163v216h-87l24 93h63v34q0 102 47.5 161t134.5 59q27 0 57 -8zM690 718l8 -102q-20 7 -45 7q-83 0 -83 -109v-42h121q-4 -29 -4 -93h-117v-282q0 -64 4 -97h-130q7 60 7 163v216h-87l24 93h63v34q0 102 47.5 161t134.5 59
q27 0 57 -8z" />
    <glyph glyph-name="f_f_l" unicode="ffl" horiz-adv-x="950" 
d="M887 0h-131q7 60 7 165v382q0 103 -7 163q96 8 131 15q-4 -35 -4 -120v-507q0 -63 4 -98zM342 718l8 -102q-20 7 -45 7q-83 0 -83 -109v-42h121q-4 -29 -4 -93h-117v-282q0 -64 4 -97h-130q7 60 7 163v216h-87l24 93h63v34q0 102 47.5 161t134.5 59q27 0 57 -8zM690 718
l8 -102q-20 7 -45 7q-83 0 -83 -109v-42h121q-4 -29 -4 -93h-117v-282q0 -64 4 -97h-130q7 60 7 163v216h-87l24 93h63v34q0 102 47.5 161t134.5 59q27 0 57 -8z" />
    <glyph glyph-name="f_f_b" unicode="ffb" horiz-adv-x="1263" 
d="M1227 251q0 -112 -71.5 -190.5t-176.5 -78.5q-65 0 -120 36l-81 -33l-22 7q7 76 7 174v382q0 103 -7 163q62 3 131 15q-4 -35 -4 -120v-180q66 57 143 57q89 0 145 -65.5t56 -166.5zM1108 239q0 70 -31.5 109.5t-88.5 39.5q-60 0 -105 -50v-236q37 -25 92 -25q57 0 95 48
t38 114zM342 718l8 -102q-20 7 -45 7q-83 0 -83 -109v-42h121q-4 -29 -4 -93h-117v-282q0 -64 4 -97h-130q7 60 7 163v216h-87l24 93h63v34q0 102 47.5 161t134.5 59q27 0 57 -8zM690 718l8 -102q-20 7 -45 7q-83 0 -83 -109v-42h121q-4 -29 -4 -93h-117v-282q0 -64 4 -97
h-130q7 60 7 163v216h-87l24 93h63v34q0 102 47.5 161t134.5 59q27 0 57 -8z" />
    <glyph glyph-name="f_f_h" unicode="ffh" horiz-adv-x="1262" 
d="M1200 0h-131q7 60 7 170v116q0 98 -72 98q-46 0 -83 -35.5t-38 -78.5v-172q0 -63 4 -98h-130q6 64 6 165v382q0 99 -6 163q96 8 130 15q-4 -35 -4 -120v-224q28 47 74.5 74.5t92.5 27.5q73 0 109.5 -44t36.5 -124v-212q0 -51 4 -103zM342 718l8 -102q-20 7 -45 7
q-83 0 -83 -109v-42h121q-4 -29 -4 -93h-117v-282q0 -64 4 -97h-130q7 60 7 163v216h-87l24 93h63v34q0 102 47.5 161t134.5 59q27 0 57 -8zM690 718l8 -102q-20 7 -45 7q-83 0 -83 -109v-42h121q-4 -29 -4 -93h-117v-282q0 -64 4 -97h-130q7 60 7 163v216h-87l24 93h63v34
q0 102 47.5 161t134.5 59q27 0 57 -8z" />
    <glyph glyph-name="f_f_j" unicode="ffj" horiz-adv-x="952" 
d="M889 475q-4 -35 -4 -107v-388q0 -104 -43.5 -152.5t-115.5 -48.5q-21 0 -53 8l-14 101q26 -4 37 -4q35 0 52 20t17 67v327q0 110 -7 170q61 0 131 7zM902 640q0 -31 -21.5 -52.5t-53.5 -21.5q-31 0 -51.5 20.5t-20.5 48.5q0 31 21.5 52.5t53.5 21.5q30 0 51 -20.5
t21 -48.5zM342 718l8 -102q-20 7 -45 7q-83 0 -83 -109v-42h121q-4 -29 -4 -93h-117v-282q0 -64 4 -97h-130q7 60 7 163v216h-87l24 93h63v34q0 102 47.5 161t134.5 59q27 0 57 -8zM690 718l8 -102q-20 7 -45 7q-83 0 -83 -109v-42h121q-4 -29 -4 -93h-117v-282q0 -64 4 -97
h-130q7 60 7 163v216h-87l24 93h63v34q0 102 47.5 161t134.5 59q27 0 57 -8z" />
    <glyph glyph-name="f_f_k" unicode="ffk" horiz-adv-x="1196" 
d="M1068 -12l-185 235v-125q0 -65 4 -98h-131q7 60 7 165v382q0 103 -7 163q96 8 131 15q-4 -35 -4 -121v-337l159 207q89 0 141 4l-189 -224l43 -52q22 -25 81.5 -99t79.5 -95zM690 718l8 -102q-20 7 -45 7q-83 0 -83 -109v-42h121q-4 -29 -4 -93h-117v-282q0 -64 4 -97
h-130q7 60 7 163v216h-87l24 93h63v34q0 102 47.5 161t134.5 59q27 0 57 -8zM342 718l8 -102q-20 7 -45 7q-83 0 -83 -109v-42h121q-4 -29 -4 -93h-117v-282q0 -64 4 -97h-130q7 60 7 163v216h-87l24 93h63v34q0 102 47.5 161t134.5 59q27 0 57 -8z" />
    <glyph glyph-name="f_b" unicode="fb" horiz-adv-x="914" 
d="M879 251q0 -112 -71.5 -190.5t-176.5 -78.5q-65 0 -120 36l-81 -33l-22 7q7 76 7 174v382q0 103 -7 163q61 3 131 15q-4 -35 -4 -120v-180q66 57 143 57q89 0 145 -65.5t56 -166.5zM760 239q0 70 -31.5 109.5t-88.5 39.5q-60 0 -105 -50v-236q37 -25 92 -25q57 0 95 48
t38 114zM342 718l8 -102q-20 7 -45 7q-83 0 -83 -109v-42h121q-4 -29 -4 -93h-117v-282q0 -64 4 -97h-130q7 60 7 163v216h-87l24 93h63v34q0 102 47.5 161t134.5 59q27 0 57 -8z" />
    <glyph glyph-name="f_h" unicode="fh" horiz-adv-x="913" 
d="M852 0h-131q7 60 7 170v116q0 98 -72 98q-46 0 -83 -35.5t-38 -78.5v-172q0 -63 4 -98h-130q6 64 6 165v382q0 99 -6 163q96 8 130 15q-4 -35 -4 -120v-224q28 47 74.5 74.5t92.5 27.5q73 0 109.5 -44t36.5 -124v-212q0 -51 4 -103zM342 718l8 -102q-20 7 -45 7
q-83 0 -83 -109v-42h121q-4 -29 -4 -93h-117v-282q0 -64 4 -97h-130q7 60 7 163v216h-87l24 93h63v34q0 102 47.5 161t134.5 59q27 0 57 -8z" />
    <glyph glyph-name="f_j" unicode="fj" horiz-adv-x="604" 
d="M541 475q-4 -35 -4 -107v-388q0 -104 -43.5 -152.5t-115.5 -48.5q-21 0 -53 8l-14 101q26 -4 37 -4q35 0 52 20t17 67v327q0 110 -7 170q61 0 131 7zM554 640q0 -31 -21.5 -52.5t-53.5 -21.5q-31 0 -51.5 20.5t-20.5 48.5q0 31 21.5 52.5t53.5 21.5q30 0 51 -20.5
t21 -48.5zM342 718l8 -102q-20 7 -45 7q-83 0 -83 -109v-42h121q-4 -29 -4 -93h-117v-282q0 -64 4 -97h-130q7 60 7 163v216h-87l24 93h63v34q0 102 47.5 161t134.5 59q27 0 57 -8z" />
    <glyph glyph-name="f_k" unicode="fk" horiz-adv-x="848" 
d="M720 -12l-185 235v-125q0 -65 4 -98h-131q7 60 7 165v382q0 103 -7 163q96 8 131 15q-4 -35 -4 -121v-337l159 207q89 0 141 4l-189 -224l43 -52q22 -25 81.5 -99t79.5 -95zM342 718l8 -102q-20 7 -45 7q-83 0 -83 -109v-42h121q-4 -29 -4 -93h-117v-282q0 -64 4 -97
h-130q7 60 7 163v216h-87l24 93h63v34q0 102 47.5 161t134.5 59q27 0 57 -8z" />
    <glyph glyph-name=".notdef" horiz-adv-x="500" 
d="M0 -200v1000h500v-1000h-500zM71 750l179 -390l179 390h-358zM50 -76l172 376l-172 376v-752zM450 676l-172 -376l172 -376v752zM250 240l-179 -390h358z" />
    <glyph glyph-name=".null" horiz-adv-x="0" 
 />
    <glyph glyph-name="nonmarkingreturn" horiz-adv-x="333" 
 />
    <glyph glyph-name="space" unicode=" " horiz-adv-x="212" 
 />
    <glyph glyph-name="exclam" unicode="!" horiz-adv-x="264" 
d="M205 718q-6 -57 -8 -101l-17 -304q-4 -80 -4 -93l-88 -5q0 14 -6 158l-8 199q-3 66 -11 137q10 1 41.5 2.5t59.5 3.5t41 3zM206 58q0 -32 -21.5 -54t-53.5 -22t-52 20.5t-20 49.5q0 33 21 54.5t54 21.5q31 0 51.5 -20.5t20.5 -49.5z" />
    <glyph glyph-name="quotedbl" unicode="&#x22;" horiz-adv-x="377" 
d="M98 447l-58 -12q9 152 8 271l122 14q-30 -145 -72 -273zM280 452l-58 -12q9 152 8 272l121 13q-33 -157 -71 -273z" />
    <glyph glyph-name="numbersign" unicode="#" horiz-adv-x="710" 
d="M539 499l-1 -7q107 0 153 2q-10 -37 -18 -92q-4 0 -56 0.5t-90 0.5l-20 -152q108 0 154 2q-11 -41 -18 -93q-5 0 -57 0.5t-90 0.5v-1q-15 -129 -16 -160h-104q14 55 27 161l-144 1v-2q-15 -129 -16 -160h-104q12 49 28 163q-85 0 -148 -3q10 50 15 93q46 -2 144 -2
l20 154q-83 0 -149 -3q10 45 15 92q46 -2 145 -2q12 93 14 166q54 0 104 5q-13 -61 -25 -164l-1 -7h145q12 112 14 166q54 0 104 5q-7 -32 -25 -164zM290 404l-20 -153h145l20 152z" />
    <glyph glyph-name="dollar" unicode="$" horiz-adv-x="535" 
d="M280 -121h-86q7 42 13 108q-94 11 -174 55l7 116q81 -58 179 -74q13 132 19 210q-33 12 -53.5 21t-47.5 25.5t-43 34t-27 44t-11 58.5q0 79 57.5 132.5t153.5 59.5q4 74 6 97q55 0 82 3q-5 -40 -10 -104q72 -10 134 -47l-29 -99q-50 33 -116 48l-17 -192q40 -15 66 -27.5
t55 -34t43.5 -52t14.5 -70.5q0 -87 -56.5 -143.5t-154.5 -63.5zM388 183q0 49 -81 84l-16 -186q46 6 71.5 33.5t25.5 68.5zM163 487q0 -51 84 -86q9 116 15 172q-47 -3 -73 -27t-26 -59z" />
    <glyph glyph-name="percent" unicode="%" horiz-adv-x="739" 
d="M344 543q0 -89 -58 -165t-134 -76q-56 0 -87.5 36.5t-31.5 94.5q0 88 58.5 164.5t134.5 76.5q56 0 87 -36t31 -95zM259 547q0 53 -38 53t-70 -56t-32 -114q0 -53 38 -53t70 56t32 114zM706 227q0 -89 -58 -165t-134 -76q-56 0 -87.5 36.5t-31.5 94.5q0 88 59 164t134 76
q56 0 87 -36t31 -94zM621 230q0 53 -38 53t-69.5 -55.5t-31.5 -113.5q0 -53 37 -53q38 0 70 55.5t32 113.5zM138 -32l-68 37l128 161l280 366q90 117 119 159q7 -4 34 -20.5t33 -19.5l-90 -116l-360 -469z" />
    <glyph glyph-name="ampersand" unicode="&#x26;" horiz-adv-x="715" 
d="M262 -18q-93 0 -156 52t-63 142q0 131 165 202q-48 71 -48 132q0 77 55.5 125t133.5 48q82 0 127 -47t45 -107q0 -55 -34 -99.5t-116 -83.5q54 -67 127 -131q50 50 107 125l77 -67q-65 -77 -110 -122q87 -72 119 -96l-75 -82l-121 107q-119 -98 -233 -98zM278 86
q70 0 143 60q-103 88 -157 157q-101 -44 -101 -118q0 -42 30.5 -70.5t84.5 -28.5zM274 510q0 -44 39 -95q99 45 99 110q0 31 -18 49.5t-47 18.5q-30 0 -51.5 -22.5t-21.5 -60.5z" />
    <glyph glyph-name="quotesingle" unicode="'" horiz-adv-x="196" 
d="M98 447l-58 -12q9 152 8 271l122 14q-30 -145 -72 -273z" />
    <glyph glyph-name="parenleft" unicode="(" horiz-adv-x="413" 
d="M366 -235q-132 73 -215.5 198.5t-83.5 278.5q0 155 83 283t216 202l46 -65q-101 -66 -166 -170.5t-65 -245.5q0 -142 65 -246t166 -170z" />
    <glyph glyph-name="parenright" unicode=")" horiz-adv-x="413" 
d="M47 -235l-46 65q101 66 166 170.5t65 245.5t-65.5 245t-166.5 171l47 65q132 -73 215.5 -198.5t83.5 -278.5q0 -155 -83 -283t-216 -202z" />
    <glyph glyph-name="asterisk" unicode="*" horiz-adv-x="380" 
d="M360 619q1 -10 2 -28t2 -32.5t2 -25.5q-60 2 -127 1q31 -65 59 -115q-21 -7 -81 -31q-12 60 -34 129q-56 -49 -97 -93q-29 39 -55 67l114 69q-41 26 -111 62q14 19 47 73q55 -51 97 -85q12 50 24 127q61 -16 86 -21q-23 -45 -50 -120q60 7 122 23z" />
    <glyph glyph-name="plus" unicode="+" horiz-adv-x="568" 
d="M496 323q-4 -35 -6 -92l-145 2h-16v-27q0 -115 4 -151h-101q5 45 7 178h-25l-142 -2q3 33 3 92q47 -2 164 -4q-2 131 -7 175q21 0 101 5q-4 -37 -4 -154v-26q132 3 167 4z" />
    <glyph glyph-name="comma" unicode="," horiz-adv-x="246" 
d="M43 -199l-32 48l8 6q48 31 70 58.5t22 58.5q0 41 -54 69l-19 11q10 40 33.5 60.5t51.5 20.5q37 0 62.5 -28.5t25.5 -75.5q0 -119 -168 -228z" />
    <glyph glyph-name="hyphen" unicode="-" horiz-adv-x="425" 
d="M367 325q-5 -40 -5 -90q-78 2 -111 2h-83q-42 0 -108 -2q3 33 3 90q72 -3 152 -3t152 3z" />
    <glyph glyph-name="period" unicode="." horiz-adv-x="245" 
d="M196 59q0 -33 -21.5 -55t-53.5 -22t-52 20.5t-20 50.5q0 34 21 55.5t54 21.5q31 0 51.5 -20.5t20.5 -50.5z" />
    <glyph glyph-name="slash" unicode="/" horiz-adv-x="347" 
d="M349 738l-14 -46l-20.5 -67t-13.5 -45l-188 -671l-40 -147l-98 -8q24 79 67 233l151 539q38 133 55 207q38 -2 101 5z" />
    <glyph glyph-name="zero" unicode="0" horiz-adv-x="593" 
d="M549 264q0 -122 -71 -202.5t-188 -80.5q-112 0 -178.5 75t-66.5 182q0 121 71 201t189 80q111 0 177.5 -74t66.5 -181zM430 247q0 84 -35 130t-95 46q-63 0 -99 -49t-36 -121q0 -83 35.5 -129t94.5 -46q63 0 99 48t36 121z" />
    <glyph glyph-name="one" unicode="1" horiz-adv-x="363" 
d="M271 0h-129q6 43 6 171v221l-104 -25l-15 98q140 35 154 39l59 16l29 -11q-3 -27 -3 -108v-299q0 -69 3 -102z" />
    <glyph glyph-name="two" unicode="2" horiz-adv-x="495" 
d="M453 103q-6 -49 -7 -107q-85 4 -196 4q-114 0 -199 -4l-15 81q164 120 219.5 173.5t55.5 97.5q0 34 -23 53t-63 19q-69 0 -138 -54l-28 95q87 59 186 59q79 0 132 -43t53 -113q0 -85 -91 -166q-51 -47 -128 -101q110 0 242 6z" />
    <glyph glyph-name="three" unicode="3" horiz-adv-x="481" 
d="M429 35q0 -86 -71 -140t-183 -54q-68 0 -134 18l-14 99q70 -19 133 -19q67 0 108 25t41 73q0 46 -50.5 73.5t-139.5 23.5l-13 76q103 32 147.5 63.5t44.5 73.5q0 32 -24 53t-68 21q-74 0 -137 -48l-30 90q88 57 182 57q87 0 141.5 -43.5t54.5 -110.5q0 -62 -37 -102.5
t-109 -70.5q71 -12 114.5 -52.5t43.5 -105.5z" />
    <glyph glyph-name="four" unicode="4" horiz-adv-x="549" 
d="M307 -155q5 40 5 150v40h-54q-149 0 -228 -4l-16 81l245 318l68 92l103 -9q-3 -42 -3 -111v-275q56 0 106 2q-7 -48 -8 -98l-98 3v-78q0 -78 3 -111h-123zM140 125h174l2 232z" />
    <glyph glyph-name="five" unicode="5" horiz-adv-x="491" 
d="M50 -149l-14 99q50 -9 92 -9q87 0 142.5 31.5t55.5 86.5q0 45 -33.5 69.5t-93.5 24.5q-49 0 -118 -13l-21 13q3 52 5 114l4 124q2 79 0 105l14 13q111 -3 182 -3q59 0 172 3q-9 -44 -11 -108q-106 2 -154 2h-93l-5 -158q32 4 47 4q111 0 168.5 -48t57.5 -134
q0 -106 -84.5 -166t-218.5 -60q-56 0 -94 10z" />
    <glyph glyph-name="six" unicode="6" horiz-adv-x="559" 
d="M477 577q-246 -36 -299 -215q64 55 145 55q89 0 141 -59.5t52 -142.5q0 -99 -65.5 -166t-169.5 -67q-108 0 -171.5 73.5t-63.5 193.5q0 103 43.5 192t138.5 154t230 81zM281 331q-56 0 -113 -41q-2 -14 -2 -40q0 -86 32 -129.5t89 -43.5q51 0 80 36t29 94
q0 59 -30.5 91.5t-84.5 32.5z" />
    <glyph glyph-name="seven" unicode="7" horiz-adv-x="501" 
d="M454 509l19 -57q-15 -24 -56 -115l-178 -378q-45 -94 -56 -128l-110 46q38 64 83 161l170 363h-118q-117 0 -177 -1q7 91 7 109q117 -3 201 -3q105 0 215 3z" />
    <glyph glyph-name="eight" unicode="8" horiz-adv-x="536" 
d="M42 164q0 60 35 104.5t94 67.5q-46 23 -75.5 63t-29.5 93q0 78 60.5 131t150.5 53q88 0 146 -52t58 -124q0 -98 -107 -157q120 -61 120 -161q0 -87 -64 -143.5t-165 -56.5q-98 0 -160.5 52t-62.5 130zM376 172q0 76 -111 125q-106 -46 -106 -127q0 -44 33 -71t81 -27
q47 0 75 28.5t28 71.5zM179 493q0 -69 102 -109q41 16 64 46t23 65q0 41 -26.5 66.5t-67.5 25.5q-43 0 -69 -26.5t-26 -67.5z" />
    <glyph glyph-name="nine" unicode="9" horiz-adv-x="560" 
d="M88 -75q121 26 192 74.5t97 125.5q-68 -40 -139 -40q-83 0 -138.5 59t-55.5 145q0 99 66 165t171 66q107 0 168.5 -71t61.5 -194q0 -338 -387 -424zM280 173q59 0 109 26q2 34 2 54q0 172 -115 172q-50 0 -81 -36t-31 -91q0 -59 31 -92t85 -33z" />
    <glyph glyph-name="colon" unicode=":" horiz-adv-x="249" 
d="M198 59q0 -33 -21.5 -55t-53.5 -22t-52 20.5t-20 50.5q0 34 21 55.5t54 21.5q31 0 51.5 -20.5t20.5 -50.5zM198 357q0 -33 -21.5 -55t-53.5 -22t-52 20.5t-20 51.5q0 33 21 55t54 22q31 0 51.5 -21t20.5 -51z" />
    <glyph glyph-name="semicolon" unicode=";" horiz-adv-x="250" 
d="M199 357q0 -33 -21 -55t-54 -22q-31 0 -51 21t-20 51q0 33 21 55t53 22q31 0 51.5 -21t20.5 -51zM45 -199l-32 48l8 6q48 32 70.5 59t22.5 58q0 41 -55 69l-19 11q10 40 33.5 60.5t51.5 20.5q37 0 62.5 -28.5t25.5 -75.5q0 -119 -168 -228z" />
    <glyph glyph-name="less" unicode="&#x3c;" horiz-adv-x="570" 
d="M398 29l-284 220l-2 44l285 230l54 -73q-81 -60 -133 -102l-92 -74l97 -76q86 -67 130 -95z" />
    <glyph glyph-name="equal" unicode="=" horiz-adv-x="568" 
d="M487 231q-4 -32 -6 -90l-141 2h-118l-140 -2q3 32 3 90q118 -4 200 -4t202 4zM487 410q-4 -31 -6 -90l-141 2h-118l-140 -2q3 31 3 90q118 -4 200 -4t202 4z" />
    <glyph glyph-name="greater" unicode="&#x3e;" horiz-adv-x="570" 
d="M172 523l284 -220l2 -44q-12 -9 -285 -230l-54 73l133 102l91 75l-96 75q-86 67 -130 95z" />
    <glyph glyph-name="question" unicode="?" horiz-adv-x="464" 
d="M435 563q0 -43 -25 -75t-61 -50.5t-72 -33.5t-61 -33t-25 -39q0 -46 63 -46q38 0 71 12l16 -88q-48 -13 -100 -13q-76 0 -120.5 36t-44.5 97q0 40 24.5 70.5t59.5 48.5t70.5 33t60 34t24.5 42q0 30 -24 46.5t-68 16.5q-92 0 -168 -55l-8 107q31 21 84 35t99 14
q95 0 150 -43t55 -116zM276 60q0 -33 -22 -55.5t-55 -22.5q-32 0 -53 21t-21 51q0 34 21.5 55.5t55.5 21.5q32 0 53 -20.5t21 -50.5z" />
    <glyph glyph-name="at" unicode="@" horiz-adv-x="871" 
d="M753 329q0 50 -15.5 94.5t-47 82.5t-87.5 60.5t-129 22.5q-143 0 -244.5 -107.5t-101.5 -252.5q0 -146 85 -227t220 -81q65 0 134 18.5t118 49.5l21 -52q-128 -76 -285 -76q-156 0 -257.5 103t-101.5 248q0 98 37 181.5t97.5 138.5t137 86t156.5 31q78 0 142 -26t104 -69
t61.5 -97t21.5 -112q0 -119 -69 -205.5t-173 -86.5q-54 0 -74 35.5t-6 89.5q-28 -57 -71.5 -91t-79.5 -34q-49 0 -74.5 37.5t-25.5 97.5q0 96 65.5 181t151.5 85q60 0 84 -26l64 31l14 -7l-43 -268q-7 -29 -1.5 -48.5t28.5 -19.5q53 0 98.5 59.5t45.5 153.5zM517 362
q-19 18 -54 18q-46 0 -83 -54t-37 -118q0 -76 44 -76q33 0 71.5 49.5t49.5 121.5z" />
    <glyph glyph-name="A" unicode="A" horiz-adv-x="721" 
d="M5 0l231 512q58 129 85 198l64 8l234 -514q69 -149 97 -204l-139 -8l-81 187h-283l-1 -3l-71 -176h-136zM354 516l-103 -244h206z" />
    <glyph glyph-name="B" unicode="B" horiz-adv-x="634" 
d="M325 0h-235q7 67 7 241v221q0 174 -7 241q13 0 95.5 2.5t120.5 2.5q126 0 189 -54.5t63 -126.5q0 -53 -30.5 -92t-80.5 -59q71 -21 107 -65.5t36 -105.5q0 -88 -69.5 -146.5t-195.5 -58.5zM221 106q45 -5 92 -5q149 0 149 111q0 49 -42 78t-125 29q-53 0 -75 -3v-162
q0 -30 1 -48zM221 412q34 -2 69 -2q68 0 105.5 26.5t37.5 73.5t-35.5 72t-102.5 25q-20 0 -74 -3q-1 -16 -1 -53v-89q0 -39 1 -50z" />
    <glyph glyph-name="C" unicode="C" horiz-adv-x="678" 
d="M638 186l-6 -130q-103 -74 -228 -74q-155 0 -255.5 102.5t-100.5 248.5q0 165 106.5 276t268.5 111q123 0 210 -61l-29 -112q-79 64 -181 64q-107 0 -176 -73t-69 -184q0 -123 67.5 -192.5t171.5 -69.5q119 0 221 94z" />
    <glyph glyph-name="D" unicode="D" horiz-adv-x="735" 
d="M686 371q0 -166 -101.5 -268.5t-267.5 -102.5h-227q7 67 7 241v221q0 174 -7 241q10 0 80 2.5t127 2.5q185 0 287 -94t102 -243zM558 360q0 113 -67 178.5t-189 65.5q-40 0 -76 -3q-1 -17 -1 -58v-382q0 -34 1 -52q43 -5 79 -5q128 0 190.5 71.5t62.5 184.5z" />
    <glyph glyph-name="E" unicode="E" horiz-adv-x="558" 
d="M528 105q-5 -46 -7 -109q-77 5 -211 5q-141 0 -220 -5q7 67 7 245v221q0 180 -7 247q105 -5 211 -5q102 0 207 5q-6 -45 -8 -108q-114 2 -183 2q-63 0 -92 -1q-1 -17 -1 -56v-130l237 2q-3 -44 -3 -102l-234 2v-158q0 -40 1 -57q15 0 46 -0.5t46 -0.5q112 0 211 3z" />
    <glyph glyph-name="F" unicode="F" horiz-adv-x="539" 
d="M507 709q-6 -50 -7 -109q-114 2 -183 2q-62 0 -91 -1q-1 -18 -1 -58v-137l228 1q-3 -45 -3 -102l-225 2v-163q0 -116 4 -144h-139q7 67 7 241v221q0 180 -7 247q105 -5 211 -5q103 0 206 5z" />
    <glyph glyph-name="G" unicode="G" horiz-adv-x="739" 
d="M671 56q-114 -73 -257 -73q-159 0 -262.5 102.5t-103.5 254.5q0 161 110 270.5t275 109.5q61 0 124 -18.5t105 -46.5l-34 -109q-35 28 -91 45.5t-110 17.5q-113 0 -182 -72.5t-69 -186.5q0 -120 72 -189.5t178 -69.5q72 0 127 26v106q0 42 -2 59q-31 1 -54 1
q-49 0 -122 -3q3 70 1 105q92 -3 136 -3q82 0 166 4q-7 -55 -7 -243v-87z" />
    <glyph glyph-name="H" unicode="H" horiz-adv-x="784" 
d="M690 0h-139q8 64 8 237v76h-334v-169q0 -107 4 -144h-139q7 67 7 241v221q0 174 -7 241q98 0 139 5q-4 -39 -4 -148v-146h334v48q0 177 -8 241q99 0 139 5q-3 -44 -3 -148v-416q0 -102 3 -144z" />
    <glyph glyph-name="I" unicode="I" horiz-adv-x="328" 
d="M232 0h-139q7 67 7 241v221q0 174 -7 241q98 0 139 5q-4 -39 -4 -148v-416q0 -107 4 -144z" />
    <glyph glyph-name="J" unicode="J" horiz-adv-x="446" 
d="M229 462q0 174 -7 241q98 0 139 5q-4 -39 -4 -148v-347q0 -121 -45.5 -176t-153.5 -55q-73 0 -141 28l7 113q65 -29 119 -29q86 0 86 103v265z" />
    <glyph glyph-name="K" unicode="K" horiz-adv-x="674" 
d="M519 -9l-294 345v-192q0 -107 4 -144h-139q7 67 7 241v221q0 174 -7 241q98 0 139 5q-4 -39 -4 -148v-179l118 137l159 187h156l-308 -337l154 -177l168 -190z" />
    <glyph glyph-name="L" unicode="L" horiz-adv-x="543" 
d="M526 107q-7 -59 -8 -111q-78 5 -212 5q-137 0 -216 -5q7 67 7 245v221q0 174 -7 241q98 0 139 5q-4 -39 -4 -148v-395q0 -41 2 -59q27 -1 86 -1q81 0 213 2z" />
    <glyph glyph-name="M" unicode="M" horiz-adv-x="900" 
d="M50 0q18 79 40 241l30 222q23 163 29 248l62 7q36 -84 67 -147l174 -377l172 378l64 145h60q1 -6 32 -253l31 -223q19 -137 41 -241l-131 -8q-2 59 -16 152l-38 285q-164 -361 -196 -438l-48 -6l-195 442l-36 -283q-12 -96 -14 -144h-128z" />
    <glyph glyph-name="N" unicode="N" horiz-adv-x="789" 
d="M83 0q8 67 11 241l3 236q2 156 -4 233l60 8l422 -497v241q0 177 -8 241q95 0 138 5q-5 -37 -8 -148l-4 -421q-3 -112 2 -147l-60 -8l-420 491v-331q0 -107 4 -144h-136z" />
    <glyph glyph-name="O" unicode="O" horiz-adv-x="803" 
d="M400 86q100 0 163.5 77t63.5 187q0 121 -63 193.5t-161 72.5q-100 0 -163.5 -77t-63.5 -187q0 -122 62.5 -194t161.5 -72zM392 -18q-151 0 -247.5 102t-96.5 249q0 166 101.5 276.5t261.5 110.5q151 0 247.5 -102t96.5 -249q0 -166 -101.5 -276.5t-261.5 -110.5z" />
    <glyph glyph-name="P" unicode="P" horiz-adv-x="592" 
d="M225 247v-103q0 -102 3 -144h-139q7 67 7 241v221q0 174 -7 241q14 0 93.5 2.5t115.5 2.5q131 0 202 -60.5t71 -154.5q0 -110 -74.5 -178.5t-225.5 -68.5q-7 0 -23 0.5t-23 0.5zM444 476q0 127 -153 127q-40 0 -67 -2v-254q24 -3 49 -3q81 0 126 34.5t45 97.5z" />
    <glyph glyph-name="Q" unicode="Q" horiz-adv-x="806" 
d="M841 -54l-79 -95l-394 132q-142 9 -231 109t-89 241q0 166 101.5 276.5t261.5 110.5q151 0 247.5 -102t96.5 -249q0 -117 -53 -210t-145 -139l120 -35q97 -27 164 -39zM400 86q100 0 163.5 77t63.5 187q0 121 -63 193.5t-161 72.5q-100 0 -163.5 -77t-63.5 -187
q0 -122 62.5 -194t161.5 -72z" />
    <glyph glyph-name="R" unicode="R" horiz-adv-x="652" 
d="M635 6l-147 -14l-168 270h-96v-118q0 -102 3 -144h-138q7 67 7 241v221q0 174 -7 241q21 0 106 2.5t94 2.5q136 1 212 -58t74 -150q-3 -139 -143 -206l108 -157zM223 359h91q61 0 97.5 35t36.5 88q0 122 -147 122q-42 0 -78 -3v-242z" />
    <glyph glyph-name="S" unicode="S" horiz-adv-x="539" 
d="M494 200q0 -96 -66 -157t-175 -61q-51 0 -109 17t-99 42l6 125q35 -30 93.5 -53t113.5 -23q51 0 81.5 25.5t30.5 72.5q0 34 -31 62.5t-75.5 51.5t-88.5 49.5t-75 67.5t-31 93q0 91 64 149.5t165 58.5q102 0 176 -52l-32 -105q-69 49 -143 49q-47 0 -76 -24.5t-29 -64.5
q0 -31 31 -58t75 -49t88 -48.5t75 -69.5t31 -98z" />
    <glyph glyph-name="T" unicode="T" horiz-adv-x="651" 
d="M623 709q-6 -46 -8 -113q-148 2 -226 2q-1 -21 -1 -64v-390q0 -107 4 -144h-139q7 67 7 241v197q0 106 -2 160q-82 0 -230 -2q4 44 4 113q153 -5 292 -5q142 0 299 5z" />
    <glyph glyph-name="U" unicode="U" horiz-adv-x="764" 
d="M682 708q-5 -36 -5 -148v-263q0 -84 -19.5 -138t-61.5 -94q-83 -83 -227 -83q-127 0 -204.5 70.5t-77.5 193.5v216q0 174 -7 241q98 0 139 5q-4 -39 -4 -148v-281q0 -188 171 -188q78 0 120.5 44.5t42.5 124.5v202q0 177 -8 241q99 0 141 5z" />
    <glyph glyph-name="V" unicode="V" horiz-adv-x="682" 
d="M5 701l139 8l203 -509l125 323l66 179h139l-219 -512q-56 -128 -79 -199l-64 -7l-220 513q-40 96 -90 204z" />
    <glyph glyph-name="W" unicode="W" horiz-adv-x="1010" 
d="M1005 702l-188 -512q-47 -130 -70 -199l-61 -7l-180 492l-109 -299l-33.5 -88t-38.5 -104h-62l-183 512q-45 130 -75 204l137 8l162 -497l112 318q5 17 17.5 52l27 76t18.5 51l60 8l177 -504l98 311l55 178h136z" />
    <glyph glyph-name="X" unicode="X" horiz-adv-x="720" 
d="M177 0h-149l255 353l-102 146l-144 204l145 8l180 -269l56 87l118 176h147l-247 -344l105 -149q1 -2 61 -88.5l87 -123.5l-145 -8l-186 280l-59 -91z" />
    <glyph glyph-name="Y" unicode="Y" horiz-adv-x="647" 
d="M2 703l141 8l183 -303l55 87q27 42 126 210h144l-263 -402v-159q0 -102 3 -144h-138q7 67 7 241v58l-105 165z" />
    <glyph glyph-name="Z" unicode="Z" horiz-adv-x="645" 
d="M603 709l16 -44l-404 -562q15 0 63 -0.5t64 -0.5q165 0 259 3q-8 -53 -8 -109q-74 5 -266 5q-196 0 -285 -5l-16 45l404 561q-34 1 -119 1q-105 0 -247 -2q6 55 7 108q157 -5 264 -5q158 0 268 5z" />
    <glyph glyph-name="bracketleft" unicode="[" horiz-adv-x="389" 
d="M383 -139q-7 -61 -8 -93q-45 4 -125 4q-98 0 -153 -4l-12 7q6 59 6 200v545q0 136 -6 195l13 14q68 -5 148 -5q71 0 132 4q-3 -35 -5 -93q-82 2 -114 2q-40 0 -60 -1v-648q0 -96 4 -128q10 0 29.5 -0.5t30.5 -0.5q36 0 120 2z" />
    <glyph glyph-name="backslash" unicode="\" horiz-adv-x="330" 
d="M257 -246q-18 76 -45 170l-184 654l-47 155q58 0 100 5q11 -55 54 -210l158 -556l60 -210z" />
    <glyph glyph-name="bracketright" unicode="]" horiz-adv-x="389" 
d="M6 635q7 46 8 94q45 -4 125 -4q98 0 153 4l12 -7q-6 -58 -6 -200v-546q0 -136 6 -195l-13 -14q-68 5 -148 5q-71 0 -132 -4q3 34 5 93q82 -2 114 -2q40 0 60 1v646q0 98 -4 130q-10 0 -29.5 0.5t-30.5 0.5q-36 0 -120 -2z" />
    <glyph glyph-name="asciicircum" unicode="^" horiz-adv-x="576" 
d="M342 527l-57 70l-57 -74q-4 -6 -23 -31l-36.5 -48.5l-28.5 -39.5l-75 58l199 256l40 3l209 -259l-76 -57z" />
    <glyph glyph-name="underscore" unicode="_" horiz-adv-x="672" 
d="M642 89q-5 -42 -5 -91q-126 2 -202 2h-199q-86 0 -204 -2q3 33 3 91q109 -3 302 -3q195 0 305 3z" />
    <glyph glyph-name="grave" unicode="`" horiz-adv-x="327" 
d="M37 690l144 9l87 -154l-82 -5z" />
    <glyph glyph-name="a" unicode="a" horiz-adv-x="503" 
d="M176 -13q-67 0 -106.5 36.5t-39.5 97.5q0 73 63 115.5t181 42.5q13 0 39 -2l1 14q2 47 -20 69.5t-70 22.5q-74 0 -136 -44l-21 95q83 49 179 49q94 0 140 -48.5t44 -136.5l-5 -187q-1 -39 28 -39q13 0 36 7l-9 -76q-39 -15 -69 -15q-35 0 -59.5 19.5t-30.5 58.5
q-21 -36 -60 -57.5t-85 -21.5zM212 69q41 0 68.5 27.5t29.5 72.5l2 45q-26 2 -37 2q-132 0 -132 -83q0 -29 17 -46.5t52 -17.5z" />
    <glyph glyph-name="b" unicode="b" horiz-adv-x="566" 
d="M531 251q0 -112 -71.5 -190.5t-176.5 -78.5q-65 0 -120 36l-81 -33l-22 7q7 76 7 174v382q0 103 -7 163q62 3 131 15q-4 -35 -4 -120v-180q66 57 143 57q89 0 145 -65.5t56 -166.5zM412 239q0 70 -31.5 109.5t-88.5 39.5q-60 0 -105 -50v-236q37 -25 92 -25q57 0 95 48
t38 114z" />
    <glyph glyph-name="c" unicode="c" horiz-adv-x="480" 
d="M442 438l-27 -97q-52 43 -120 43q-61 0 -100.5 -42.5t-39.5 -105.5q0 -73 43 -114t104 -41q40 0 71 13t66 44l-4 -113q-72 -43 -153 -43q-108 0 -177 68.5t-69 169.5q0 112 72 187.5t183 75.5q87 0 151 -45z" />
    <glyph glyph-name="d" unicode="d" horiz-adv-x="566" 
d="M273 483q62 0 106 -32l-1 96q0 120 -5 163q94 8 130 15q-4 -35 -4 -109v-450q0 -102 7 -166h-113l-7 50q-22 -30 -60 -49t-79 -19q-96 0 -154 67t-58 166q0 114 68 191t170 77zM286 388q-60 0 -95.5 -46t-35.5 -114q0 -73 35 -112t88 -39q32 0 59.5 16t41.5 43v216
q-36 36 -93 36z" />
    <glyph glyph-name="e" unicode="e" horiz-adv-x="514" 
d="M483 251l-54 -37l-276 -8q11 -127 136 -127q88 0 173 63l-3 -104q-86 -56 -183 -56q-116 0 -178 68.5t-62 171.5q0 113 67.5 187t176.5 74q101 0 152 -64.5t51 -167.5zM155 277l219 7q-12 108 -99 108q-49 0 -80.5 -32t-39.5 -83z" />
    <glyph glyph-name="f" unicode="f" horiz-adv-x="348" 
d="M342 718l8 -102q-20 7 -45 7q-83 0 -83 -109v-42h121q-4 -29 -4 -93h-117v-282q0 -64 4 -97h-130q7 60 7 163v216h-87l24 93h63v34q0 102 47.5 161t134.5 59q27 0 57 -8z" />
    <glyph glyph-name="g" unicode="g" horiz-adv-x="494" 
d="M450 314q0 -80 -59 -130.5t-149 -50.5q-35 0 -65 9q-31 -19 -31 -37q0 -17 22.5 -24.5t85.5 -7.5h21q211 0 211 -121q0 -74 -76 -127t-193 -53q-98 0 -152 33.5t-54 85.5q0 73 98 115q-57 27 -57 72q0 50 68 89q-70 48 -70 131q0 78 59 131.5t148 53.5q41 0 78 -13
q23 108 145 93l-5 -95q-66 11 -84 -32q59 -51 59 -122zM249 -19q-27 0 -63 2q-73 -31 -73 -74q0 -24 28.5 -41t83.5 -17q67 0 109.5 23.5t42.5 56.5q0 49 -112 49zM340 304q0 45 -23.5 70t-63.5 25t-66 -27t-26 -65q0 -46 24 -70.5t64 -24.5q41 0 66 26t25 66z" />
    <glyph glyph-name="h" unicode="h" horiz-adv-x="565" 
d="M504 0h-131q7 60 7 170v116q0 98 -72 98q-46 0 -83 -35.5t-38 -78.5v-172q0 -63 4 -98h-130q6 64 6 165v382q0 99 -6 163q96 8 130 15q-4 -35 -4 -120v-224q28 47 74.5 74.5t92.5 27.5q73 0 109.5 -44t36.5 -124v-212q0 -51 4 -103z" />
    <glyph glyph-name="i" unicode="i" horiz-adv-x="254" 
d="M191 0h-131q7 60 7 164v134q0 110 -7 170q61 0 131 7q-4 -35 -4 -107v-271q0 -62 4 -97zM205 640q0 -31 -21.5 -52.5t-53.5 -21.5q-31 0 -51.5 20.5t-20.5 48.5q0 31 21.5 52.5t53.5 21.5q30 0 51 -20.5t21 -48.5z" />
    <glyph glyph-name="j" unicode="j" horiz-adv-x="255" 
d="M193 475q-4 -35 -4 -107v-388q0 -104 -43.5 -152.5t-115.5 -48.5q-21 0 -53 8l-14 101q26 -4 37 -4q35 0 52 20t17 67v327q0 110 -7 170q61 0 131 7zM206 640q0 -31 -21.5 -52.5t-53.5 -21.5q-31 0 -51.5 20.5t-20.5 48.5q0 31 21.5 52.5t53.5 21.5q30 0 51 -20.5
t21 -48.5z" />
    <glyph glyph-name="k" unicode="k" horiz-adv-x="499" 
d="M372 -12l-185 235v-125q0 -65 4 -98h-131q7 60 7 165v382q0 103 -7 163q96 8 131 15q-4 -35 -4 -121v-337l159 207q89 0 141 4l-189 -224l43 -52q22 -25 81.5 -99t79.5 -95z" />
    <glyph glyph-name="l" unicode="l" horiz-adv-x="254" 
d="M191 0h-131q7 60 7 165v382q0 103 -7 163q96 8 131 15q-4 -35 -4 -120v-507q0 -63 4 -98z" />
    <glyph glyph-name="m" unicode="m" horiz-adv-x="845" 
d="M784 0h-131q7 60 7 170v116q0 48 -15 73t-54 25q-45 0 -76.5 -31t-31.5 -73v-177q0 -68 4 -103h-131q6 64 6 170v116q0 48 -14 73t-52 25q-44 0 -76.5 -31t-32.5 -73v-177q0 -68 4 -103h-131q7 60 7 170v129q0 107 -7 167q28 0 118 9l7 -83q31 43 72 67t83 24
q107 0 134 -95q26 43 68.5 69t91.5 26q146 0 146 -168v-212q0 -51 4 -103z" />
    <glyph glyph-name="n" unicode="n" horiz-adv-x="565" 
d="M504 0h-131q7 60 7 170v116q0 98 -72 98q-45 0 -83 -36t-38 -78v-167q0 -68 4 -103h-130q6 64 6 170v129q0 103 -6 167q28 0 118 9l7 -95q29 48 75.5 75.5t92.5 27.5q73 0 109.5 -44t36.5 -124v-212q0 -51 4 -103z" />
    <glyph glyph-name="o" unicode="o" horiz-adv-x="549" 
d="M513 244q0 -113 -68 -187.5t-178 -74.5q-103 0 -167 69t-64 169q0 113 67.5 188t176.5 75q104 0 168.5 -69t64.5 -170zM395 231q0 76 -33 116t-86 40q-55 0 -89 -42t-34 -109q0 -78 32 -118t87 -40q57 0 90 42t33 111z" />
    <glyph glyph-name="p" unicode="p" horiz-adv-x="566" 
d="M532 251q0 -118 -70.5 -193.5t-159.5 -75.5q-69 0 -115 34v-128q0 -60 4 -93q-5 0 -65 -5.5t-65 -6.5q6 64 6 168v346q0 107 -7 169q57 0 117 8l5 -62q62 71 147 71q92 0 147.5 -67.5t55.5 -164.5zM412 239q0 75 -34 112t-87 37q-62 0 -104 -59v-213q37 -40 102 -40
q55 0 89 48t34 115z" />
    <glyph glyph-name="q" unicode="q" horiz-adv-x="566" 
d="M379 128v231q-39 29 -91 29q-61 0 -97 -46.5t-36 -115.5t33.5 -109t87.5 -40q31 0 59 14t44 37zM486 481l20 -8q-7 -74 -7 -174v-405q0 -54 5 -99q-6 0 -65.5 -5.5t-64.5 -6.5q5 50 5 166v90q-52 -57 -133 -57q-93 0 -152 67t-59 167q0 113 70 190t174 77q63 0 125 -37z
" />
    <glyph glyph-name="r" unicode="r" horiz-adv-x="364" 
d="M352 483l-12 -126q-58 9 -105.5 -16.5t-47.5 -79.5v-158q0 -68 4 -103h-130q6 52 6 170v144q0 85 -9 147q55 2 119 15l9 -100q51 94 166 107z" />
    <glyph glyph-name="s" unicode="s" horiz-adv-x="430" 
d="M229 483q88 0 151 -36l-31 -93q-54 36 -115 36q-72 0 -72 -49q0 -18 24.5 -32t59 -26t69.5 -28t59.5 -45.5t24.5 -70.5q0 -72 -54.5 -114.5t-138.5 -42.5q-42 0 -91 11.5t-77 29.5l5 106q78 -54 163 -54q36 0 57.5 13t21.5 37q0 22 -24.5 37.5t-59 27.5t-69 27.5
t-59 45.5t-24.5 72q0 63 50 105.5t130 42.5z" />
    <glyph glyph-name="t" unicode="t" horiz-adv-x="368" 
d="M340 107l-3 -95q-40 -27 -101 -27q-71 0 -105.5 36.5t-34.5 113.5v244h-83l24 93h60l9 98l110 34v-132h123q-3 -33 -3 -93h-120v-234q0 -34 12.5 -47.5t38.5 -13.5q38 0 73 23z" />
    <glyph glyph-name="u" unicode="u" horiz-adv-x="565" 
d="M505 0h-111l-13 77q-27 -44 -71 -69.5t-85 -25.5q-160 0 -160 181v136q0 102 -6 168q74 0 131 6q-5 -33 -5 -109v-175q0 -55 19 -81.5t65 -26.5q36 0 72.5 31.5t36.5 71.5v115q0 102 -6 168q73 0 132 6q-6 -39 -6 -109v-198q0 -103 7 -166z" />
    <glyph glyph-name="v" unicode="v" horiz-adv-x="501" 
d="M208 -10q-13 40 -67 168l-56 129q-66 150 -80 176q4 0 63.5 6t62.5 6l124 -320l52 145q2 5 27 74t33 95q77 0 126 4l-197 -476z" />
    <glyph glyph-name="w" unicode="w" horiz-adv-x="737" 
d="M180 -9q-11 44 -55 167l-48 129q-48 128 -70 177q4 0 62.5 5.5t62.5 5.5l97 -300l42 120l59 174l83 6l106 -299l38 120q23 67 53 173q69 0 120 4l-173 -476l-81 -6q-23 79 -62 186l-45 122l-107 -302z" />
    <glyph glyph-name="x" unicode="x" horiz-adv-x="492" 
d="M156 475l98 -164l99 158q83 0 134 4l-167 -234l32 -46q46 -75 130 -190l-129 -13l-107 173l-63.5 -93.5t-46.5 -69.5h-132l175 233l-23 35l-129 195q4 0 65 6t64 6z" />
    <glyph glyph-name="y" unicode="y" horiz-adv-x="490" 
d="M78 -214l113 260q-37 94 -45 112l-57 129q-57 129 -82 176q4 0 65 6t64 6l116 -304l48 130q25 63 61 168q76 0 125 4l-216 -517q-4 -11 -18 -45t-26 -66t-19 -54q-83 0 -129 -5z" />
    <glyph glyph-name="z" unicode="z" horiz-adv-x="477" 
d="M441 474l12 -43l-256 -335q159 0 248 3q-7 -46 -8 -104q-95 5 -199 5q-99 0 -199 -5l-13 43l256 336q-97 0 -233 -2q4 43 4 102q93 -4 181 -4q122 0 207 4z" />
    <glyph glyph-name="braceleft" unicode="{" horiz-adv-x="406" 
d="M59 221v54q135 33 135 68q0 14 -34.5 76.5t-34.5 105.5q0 151 218 199l20 -70q-129 -39 -129 -111q0 -28 32.5 -89.5t32.5 -90.5q0 -74 -108 -115q108 -37 108 -115q0 -29 -32.5 -90t-32.5 -89q0 -74 129 -111l-20 -70q-218 48 -218 199q0 33 17.5 70t34.5 66.5t17 44.5
q0 35 -135 68z" />
    <glyph glyph-name="bar" unicode="|" horiz-adv-x="304" 
d="M200 -240h-99q6 62 6 241v509q0 167 -6 223q48 0 100 6q-3 -29 -3 -151v-678q0 -120 2 -150z" />
    <glyph glyph-name="braceright" unicode="}" horiz-adv-x="406" 
d="M346 276v-54q-134 -33 -134 -69q0 -14 34 -76t34 -105q0 -151 -217 -199l-20 70q129 37 129 111q0 28 -32.5 89.5t-32.5 90.5q0 74 107 115q-107 36 -107 115q0 28 32.5 89t32.5 90q0 72 -129 111l20 70q217 -48 217 -199q0 -43 -34 -105t-34 -76q0 -35 134 -68z" />
    <glyph glyph-name="asciitilde" unicode="~" horiz-adv-x="508" 
d="M49 224q26 135 116 135q33 0 94 -25t78 -25q32 0 42 58l81 -12q-25 -140 -118 -140q-33 0 -94.5 26.5t-77.5 26.5q-32 0 -40 -55z" />
    <glyph glyph-name="uni00A0" unicode="&#xa0;" horiz-adv-x="212" 
 />
    <glyph glyph-name="exclamdown" unicode="&#xa1;" horiz-adv-x="264" 
d="M60 -13q6 57 8 101l17 303q4 80 4 94l88 5q0 -14 6 -158l9 -199q2 -70 11 -137q-9 -1 -42 -2.5t-60.5 -3.5zM60 647q0 33 21 54.5t54 21.5q31 0 51 -20.5t20 -49.5q0 -33 -21 -54.5t-53 -21.5q-31 0 -51.5 20t-20.5 50z" />
    <glyph glyph-name="cent" unicode="&#xa2;" horiz-adv-x="488" 
d="M323 366l-15 -225q-1 -9 -2.5 -31.5t-2.5 -32.5q77 3 144 60l-5 -110q-66 -40 -143 -44q-3 -65 -2 -90h-81l8 95q-86 16 -137 80.5t-51 151.5q0 101 60.5 174t157.5 86q3 60 3 89q36 0 83 5q-2 -13 -9 -95q68 -11 118 -44l-27 -93q-43 34 -98 43q-1 -6 -1 -19zM149 236
q0 -116 85 -149l3 59l14 222v15q-48 -12 -75 -52t-27 -95z" />
    <glyph glyph-name="sterling" unicode="&#xa3;" horiz-adv-x="521" 
d="M42 286q3 32 3 89h79q-22 47 -22 96q0 84 62 142.5t158 58.5q83 0 148 -32l-25 -98q-57 30 -117 30q-48 0 -79.5 -26t-31.5 -74q0 -39 28 -95q97 1 179 7q-2 -19 -5 -90q-62 1 -139 0q6 -28 6 -44q0 -84 -70 -150q102 0 277 7q-6 -53 -7 -111q-69 4 -203 4
q-157 0 -235 -6l-13 81q72 34 107 71t35 86q0 25 -12 56z" />
    <glyph glyph-name="yen" unicode="&#xa5;" horiz-adv-x="643" 
d="M254 0q4 31 6 139q-151 0 -211 -2q3 30 3 87q85 -3 208 -3l1 51l-19 31q-136 0 -191 -1q3 30 3 85q57 -3 138 -3l-32 53q-137 219 -137 220l133 7l165 -284l48 80l55 98t57 100h141l-176 -274q85 0 145 3q-1 -4 -7 -85q-56 1 -190 1l-18 -28v-54q125 0 213 3
q-1 -3 -7 -87q-61 2 -206 2v-2q0 -101 4 -137h-126z" />
    <glyph glyph-name="section" unicode="&#xa7;" horiz-adv-x="483" 
d="M45 253q0 89 91 131q-72 46 -72 122q0 68 53.5 116.5t142.5 48.5q95 0 160 -42l-27 -95q-66 41 -134 41q-36 0 -58.5 -17.5t-22.5 -46.5q0 -25 27.5 -45.5t66 -37.5t77.5 -36.5t66.5 -53t27.5 -77.5q0 -86 -84 -131q73 -45 73 -119t-56 -122t-157 -48q-96 0 -171 44
l5 109q85 -57 173 -57q42 0 67.5 18.5t25.5 49.5q0 25 -28 45t-68.5 36.5t-81 35.5t-68.5 52.5t-28 78.5zM156 268q0 -27 28 -47.5t91 -46.5q27 11 43.5 30t16.5 43q0 15 -8.5 28t-28 25.5t-33.5 19.5t-44 20q-65 -22 -65 -72z" />
    <glyph glyph-name="dieresis" unicode="&#xa8;" horiz-adv-x="406" 
d="M174 628q0 -30 -19.5 -51t-49.5 -21q-28 0 -46.5 19.5t-18.5 46.5q0 31 19 51.5t49 20.5q28 0 47 -19.5t19 -46.5zM367 628q0 -30 -19.5 -51t-49.5 -21q-28 0 -46.5 19.5t-18.5 46.5q0 31 19 51.5t49 20.5q28 0 47 -19.5t19 -46.5z" />
    <glyph glyph-name="copyright" unicode="&#xa9;" horiz-adv-x="866" 
d="M804 351q0 -154 -108.5 -262.5t-262.5 -108.5t-262.5 108.5t-108.5 262.5t108.5 262.5t262.5 108.5t262.5 -108.5t108.5 -262.5zM743 351q0 131 -90 223t-220 92t-220.5 -92.5t-90.5 -222.5t90.5 -222.5t220.5 -92.5t220 92t90 223zM562 196q-50 -35 -117 -35
q-85 0 -138.5 53.5t-53.5 130.5q0 87 57 145.5t146 58.5q65 0 110 -32l-17 -74q-40 31 -90 31q-52 0 -84 -33t-32 -85q0 -55 32 -87t82 -32q57 0 109 45z" />
    <glyph glyph-name="ordfeminine" unicode="&#xaa;" horiz-adv-x="362" 
d="M163 644q-50 0 -95 -30l-14 72q61 34 128 34q66 0 97.5 -31t29.5 -93l-4 -120q0 -24 19 -24q7 0 21 4l-5 -56q-26 -13 -53 -13q-54 0 -65 51q-13 -23 -39.5 -37t-55.5 -14q-43 0 -69 24.5t-26 65.5q0 47 40.5 76.5t115.5 29.5q19 0 30 -1l1 12q1 25 -13.5 37.5
t-42.5 12.5zM161 451q22 0 38 15.5t17 40.5l1 26q-4 0 -12 0.5t-11 0.5q-36 0 -54.5 -12.5t-18.5 -32.5q0 -16 10 -27t30 -11z" />
    <glyph glyph-name="guillemotleft" unicode="&#xab;" horiz-adv-x="618" 
d="M240 463q45 1 102 9l-163 -238q47 -76 152 -227l-76 -24q-134 144 -207 238l3 15zM473 463q46 1 103 9l-163 -238q104 -168 152 -237l-76 -24q-92 100 -207 248l3 15q82 94 188 227z" />
    <glyph glyph-name="registered" unicode="&#xae;" horiz-adv-x="472" 
d="M435 524q0 -82 -58 -140t-142 -58q-83 0 -140.5 58t-57.5 140q0 83 57.5 141t140.5 58q85 0 142.5 -57.5t57.5 -141.5zM396 524q0 69 -46 116.5t-115 47.5q-68 0 -113 -47.5t-45 -116.5t45 -116t113 -47q69 0 115 47t46 116zM166 623q4 0 30.5 1t33.5 1q43 0 65 -17.5
t22 -43.5q-1 -40 -41 -57l36 -48l19 -23l-52 -3l-45 63h-21v-31q0 -23 1 -30h-48q2 24 2 65v59q0 40 -2 64zM213 531h19q40 0 40 30q0 28 -38 28q-4 0 -11 -0.5t-10 -0.5v-57z" />
    <glyph glyph-name="macron" unicode="&#xaf;" horiz-adv-x="399" 
d="M362 668q-5 -42 -5 -89q-84 2 -116 2h-90q-42 0 -114 -2q4 42 4 89q80 -3 161 -3q82 0 160 3z" />
    <glyph glyph-name="degree" unicode="&#xb0;" horiz-adv-x="383" 
d="M350 572q0 -72 -45.5 -120t-117.5 -48q-68 0 -110.5 45t-42.5 108q0 70 45 117.5t116 47.5q69 0 112 -44t43 -106zM268 563q0 40 -20 63.5t-56 23.5q-35 0 -56 -24t-21 -60q0 -41 20.5 -65t55.5 -24q36 0 56.5 24.5t20.5 61.5z" />
    <glyph glyph-name="plusminus" unicode="&#xb1;" horiz-adv-x="568" 
d="M488 408q-4 -33 -6 -91l-144 2h-9v-12q0 -110 4 -145h-101q5 48 7 157h-17l-142 -2q3 31 3 91q52 -2 156 -4q-2 109 -7 156q21 0 101 5q-4 -37 -4 -150v-11q118 2 159 4zM488 89q-5 -43 -5 -91q-120 2 -172 2h-57q-58 0 -174 -2q3 35 3 91q105 -3 202 -3q98 0 203 3z" />
    <glyph glyph-name="two.sup" unicode="&#xb2;" 
d="M75 719l-30 72q66 53 144 53q62 0 100.5 -31t38.5 -85q0 -41 -20.5 -73.5t-61.5 -71.5q-30 -31 -89 -76q35 0 105 2t75 2q0 -11 -1.5 -38l-2.5 -44q-94 2 -141 2q-56 0 -148 -2l-9 64q119 97 147 125q57 56 57 94q0 23 -16.5 36.5t-44.5 13.5q-51 0 -103 -43z" />
    <glyph glyph-name="three.sup" unicode="&#xb3;" 
d="M51 437l-10 78q63 -17 107 -17q46 0 72 12.5t26 34.5q0 54 -135 57l-8 53q137 25 137 73q0 17 -18.5 28t-53.5 11q-58 0 -106 -28l-19 69q70 36 140 36q65 0 105.5 -27.5t40.5 -70.5q0 -72 -108 -105q116 -21 116 -98q0 -56 -48.5 -88.5t-127.5 -32.5q-60 0 -110 15z" />
    <glyph glyph-name="acute" unicode="&#xb4;" horiz-adv-x="327" 
d="M150 690l158 9l-163 -154l-84 -5z" />
    <glyph glyph-name="paragraph" unicode="&#xb6;" horiz-adv-x="637" 
d="M549 0h-91q7 52 7 224v207q0 173 -7 226q39 0 91 4q-5 -45 -5 -137v-390q0 -91 5 -134zM280 661q28 0 63 -1t53 -1q-4 -36 -4 -135v-390q0 -99 4 -134h-91q8 69 8 215v20q-141 0 -208 59.5t-67 161.5q0 84 64.5 144.5t177.5 60.5z" />
    <glyph glyph-name="periodcentered" unicode="&#xb7;" horiz-adv-x="250" 
d="M202 352q0 -33 -21.5 -55t-53.5 -22t-52 20.5t-20 50.5q0 34 21 55.5t54 21.5q31 0 51.5 -20.5t20.5 -50.5z" />
    <glyph glyph-name="cedilla" unicode="&#xb8;" horiz-adv-x="298" 
d="M166 2l-18 -66q104 -27 104 -95q0 -38 -31 -63.5t-86 -25.5q-43 0 -91 15l15 63q44 -14 79 -14q37 0 37 24q0 29 -92 48l-4 4q9 27 33 123z" />
    <glyph glyph-name="one.sup" unicode="&#xb9;" horiz-adv-x="280" 
d="M119 747l-85 -24l-14 72q44 11 115 35l47 14l27 -6q-2 -17 -2 -75v-261q0 -57 2 -71h-94q4 32 4 120v196z" />
    <glyph glyph-name="ordmasculine" unicode="&#xba;" horiz-adv-x="391" 
d="M359 561q0 -75 -46.5 -124.5t-121.5 -49.5q-71 0 -115 46t-44 113q0 75 46.5 124.5t121.5 49.5q71 0 115 -46t44 -113zM265 551q0 48 -19 72.5t-49 24.5q-32 0 -51.5 -25.5t-19.5 -66.5q0 -48 18.5 -72.5t49.5 -24.5q32 0 51.5 25.5t19.5 66.5z" />
    <glyph glyph-name="guillemotright" unicode="&#xbb;" horiz-adv-x="618" 
d="M378 -8q-46 -1 -101 -9l162 238q-47 76 -152 227l77 24q128 -139 206 -238l-3 -15zM145 -8q-46 -1 -103 -9l163 238q-50 81 -152 229l76 24q123 -134 207 -240l-3 -15q-82 -94 -188 -227z" />
    <glyph glyph-name="onequarter" unicode="&#xbc;" horiz-adv-x="840" 
d="M660 0q3 18 3 81v14h-34q-102 0 -159 -3l-10 68l158 203l44 55l84 -6q-2 -17 -2 -69v-180q43 0 58 1q-5 -43 -5 -72q-28 2 -53 2v-29q0 -50 2 -65h-86zM212 -19l-66 28l139 202l190 294q108 166 128 204q7 -4 32.5 -15.5t32.5 -15.5q-48 -67 -112 -166l-247 -377z
M143 601l-85 -23l-14 72l38.5 10.5t47 14l29.5 9.5l47 15l27 -7q-2 -16 -2 -74v-261q0 -57 2 -71h-94q4 32 4 120v195zM668 324l-127 -165h125z" />
    <glyph glyph-name="onehalf" unicode="&#xbd;" horiz-adv-x="840" 
d="M523 288l-30 72q66 53 144 53q62 0 100.5 -31t38.5 -85q0 -41 -20.5 -73.5t-61.5 -71.5q-31 -30 -89 -76q35 0 105 2t75 2q0 -11 -1.5 -38l-2.5 -44q-94 2 -141 2q-56 0 -148 -2l-9 64q119 97 147 125q57 55 57 94q0 23 -16.5 36.5t-44.5 13.5q-51 0 -103 -43zM180 -19
l-66 28l139 202l190 294q108 166 128 204q7 -4 32.5 -15.5t32.5 -15.5q-48 -67 -112 -166l-247 -377zM143 601l-85 -23l-14 72l38.5 10.5t47 14l29.5 9.5l47 15l27 -7q-2 -16 -2 -74v-261q0 -57 2 -71h-94q4 32 4 120v195z" />
    <glyph glyph-name="threequarters" unicode="&#xbe;" horiz-adv-x="934" 
d="M754 0q3 18 3 81v14h-34q-102 0 -159 -3l-10 68l158 203l44 55l84 -6q-2 -17 -2 -69v-180q43 0 58 1q-5 -43 -5 -72q-28 2 -53 2v-29q0 -50 2 -65h-86zM77 292l-10 77q66 -16 107 -16q46 0 72 12.5t26 33.5q0 55 -135 57l-8 54q137 24 137 73q0 16 -18.5 27.5t-53.5 11.5
q-58 0 -106 -28l-19 68q67 36 140 36q65 0 105.5 -27.5t40.5 -69.5q0 -71 -108 -106q116 -21 116 -97q0 -56 -48.5 -88.5t-127.5 -32.5q-60 0 -110 15zM298 -19l-66 28l139 202l190 294q108 166 128 204q7 -4 32.5 -15.5t32.5 -15.5q-48 -67 -112 -166l-247 -377zM762 324
l-127 -165h125z" />
    <glyph glyph-name="questiondown" unicode="&#xbf;" horiz-adv-x="464" 
d="M28 142q0 43 25 75t61 50.5t72.5 33.5t61.5 32.5t25 38.5q0 47 -63 47q-33 0 -71 -12l-16 88q48 13 99 13q76 0 120.5 -36t44.5 -98q0 -40 -24.5 -70.5t-59.5 -48t-70.5 -32.5t-60 -34t-24.5 -42q0 -30 24 -46.5t68 -16.5q93 0 168 55l9 -107q-32 -21 -85 -35t-98 -14
q-95 0 -150.5 43t-55.5 116zM187 645q0 33 22 55.5t56 22.5q32 0 52.5 -21t20.5 -51q0 -34 -21 -56t-55 -22q-32 0 -53.5 21t-21.5 51z" />
    <glyph glyph-name="Agrave" unicode="&#xc0;" horiz-adv-x="721" 
d="M5 0l231 512q58 129 85 198l64 8l234 -514q69 -149 97 -204l-139 -8l-81 187h-283l-1 -3l-71 -176h-136zM354 516l-103 -244h206zM181 923l144 9l87 -154l-82 -5z" />
    <glyph glyph-name="Aacute" unicode="&#xc1;" horiz-adv-x="721" 
d="M5 0l231 512q58 129 85 198l64 8l234 -514q69 -149 97 -204l-139 -8l-81 187h-283l-1 -3l-71 -176h-136zM354 516l-103 -244h206zM387 923l158 9l-163 -154l-84 -5z" />
    <glyph glyph-name="Acircumflex" unicode="&#xc2;" horiz-adv-x="721" 
d="M5 0l231 512q58 129 85 198l64 8l234 -514q69 -149 97 -204l-139 -8l-81 187h-283l-1 -3l-71 -176h-136zM299 933h126l103 -157l-80 -6l-87 89l-81 -82h-91zM354 516l-103 -244h206z" />
    <glyph glyph-name="Atilde" unicode="&#xc3;" horiz-adv-x="721" 
d="M5 0l231 512q58 129 85 198l64 8l234 -514q69 -149 97 -204l-139 -8l-81 187h-283l-1 -3l-71 -176h-136zM173 787q14 81 42 115t71 34q34 0 85.5 -34.5t66.5 -34.5q27 0 39 72l78 -11q-24 -154 -114 -154q-33 0 -85 35t-68 35q-14 0 -22 -14.5t-14 -53.5zM354 516
l-103 -244h206z" />
    <glyph glyph-name="Adieresis" unicode="&#xc4;" horiz-adv-x="721" 
d="M5 0l231 512q58 129 85 198l64 8l234 -514q69 -149 97 -204l-139 -8l-81 187h-283l-1 -3l-71 -176h-136zM354 516l-103 -244h206zM329 861q0 -30 -19.5 -51t-49.5 -21q-28 0 -46.5 19.5t-18.5 46.5q0 31 19 51.5t49 20.5q28 0 47 -19.5t19 -46.5zM522 861
q0 -30 -19.5 -51t-49.5 -21q-28 0 -46.5 19.5t-18.5 46.5q0 31 19 51.5t49 20.5q28 0 47 -19.5t19 -46.5z" />
    <glyph glyph-name="Aring" unicode="&#xc5;" horiz-adv-x="721" 
d="M484 792q0 -39 -21.5 -71t-58.5 -45l215 -472q69 -149 97 -204l-139 -8l-81 187h-283l-1 -3l-71 -176h-136l231 512q45 98 71 162q-37 12 -58 41t-21 65q0 53 36.5 88t94.5 35q56 0 90.5 -32t34.5 -79zM354 516l-103 -244h206zM411 786q0 25 -14.5 40.5t-40.5 15.5
q-25 0 -40 -16t-15 -39q0 -26 15 -42t39 -16q26 0 41 16.5t15 40.5z" />
    <glyph glyph-name="AE" unicode="&#xc6;" horiz-adv-x="909" 
d="M-18 0l311 514q83 133 115 195q110 -5 238 -5q106 0 213 5q-6 -45 -8 -109q-114 2 -183 2q-61 0 -90 -1q-2 -17 -2 -55v-130l236 2q-3 -45 -3 -102l-233 2v-158q0 -39 2 -56q14 0 44.5 -0.5t45.5 -0.5q112 0 211 3q-5 -48 -7 -110q-78 5 -211 5q-141 0 -220 -5
q5 60 7 181h-226l-1 -2l-98 -175h-141zM448 453q0 27 -2 107l-171 -290h173v183z" />
    <glyph glyph-name="Ccedilla" unicode="&#xc7;" horiz-adv-x="678" 
d="M638 186l-6 -130q-103 -74 -228 -74h-6l-12 -46q104 -27 104 -95q0 -38 -31 -63.5t-86 -25.5q-43 0 -91 15l15 63q44 -14 79 -14q37 0 37 24q0 29 -92 48l-4 4q8 27 26 95q-131 20 -213 118t-82 228q0 165 106.5 276t268.5 111q123 0 210 -61l-29 -112q-79 64 -181 64
q-107 0 -176 -73t-69 -184q0 -123 67.5 -192.5t171.5 -69.5q119 0 221 94z" />
    <glyph glyph-name="Egrave" unicode="&#xc8;" horiz-adv-x="558" 
d="M528 105q-5 -46 -7 -109q-77 5 -211 5q-141 0 -220 -5q7 67 7 245v221q0 180 -7 247q105 -5 211 -5q102 0 207 5q-6 -45 -8 -108q-114 2 -183 2q-63 0 -92 -1q-1 -17 -1 -56v-130l237 2q-3 -44 -3 -102l-234 2v-158q0 -40 1 -57q15 0 46 -0.5t46 -0.5q112 0 211 3z
M130 915l144 9l87 -154l-82 -5z" />
    <glyph glyph-name="Eacute" unicode="&#xc9;" horiz-adv-x="558" 
d="M335 915l158 9l-163 -154l-84 -5zM528 105q-5 -46 -7 -109q-77 5 -211 5q-141 0 -220 -5q7 67 7 245v221q0 180 -7 247q105 -5 211 -5q102 0 207 5q-6 -45 -8 -108q-114 2 -183 2q-63 0 -92 -1q-1 -17 -1 -56v-130l237 2q-3 -44 -3 -102l-234 2v-158q0 -40 1 -57
q15 0 46 -0.5t46 -0.5q112 0 211 3z" />
    <glyph glyph-name="Ecircumflex" unicode="&#xca;" horiz-adv-x="558" 
d="M248 925h126l103 -157l-80 -6l-87 89l-81 -82h-91zM528 105q-5 -46 -7 -109q-77 5 -211 5q-141 0 -220 -5q7 67 7 245v221q0 180 -7 247q105 -5 211 -5q102 0 207 5q-6 -45 -8 -108q-114 2 -183 2q-63 0 -92 -1q-1 -17 -1 -56v-130l237 2q-3 -44 -3 -102l-234 2v-158
q0 -40 1 -57q15 0 46 -0.5t46 -0.5q112 0 211 3z" />
    <glyph glyph-name="Edieresis" unicode="&#xcb;" horiz-adv-x="558" 
d="M278 853q0 -30 -19.5 -51t-49.5 -21q-28 0 -46.5 19.5t-18.5 46.5q0 31 19 51.5t49 20.5q28 0 47 -19.5t19 -46.5zM471 853q0 -30 -19.5 -51t-49.5 -21q-28 0 -46.5 19.5t-18.5 46.5q0 31 19 51.5t49 20.5q28 0 47 -19.5t19 -46.5zM528 105q-5 -46 -7 -109q-77 5 -211 5
q-141 0 -220 -5q7 67 7 245v221q0 180 -7 247q105 -5 211 -5q102 0 207 5q-6 -45 -8 -108q-114 2 -183 2q-63 0 -92 -1q-1 -17 -1 -56v-130l237 2q-3 -44 -3 -102l-234 2v-158q0 -40 1 -57q15 0 46 -0.5t46 -0.5q112 0 211 3z" />
    <glyph glyph-name="Igrave" unicode="&#xcc;" horiz-adv-x="328" 
d="M232 0h-139q7 67 7 241v221q0 174 -7 241q98 0 139 5q-4 -39 -4 -148v-416q0 -107 4 -144zM-14 915l144 9l87 -154l-82 -5z" />
    <glyph glyph-name="Iacute" unicode="&#xcd;" horiz-adv-x="328" 
d="M232 0h-139q7 67 7 241v221q0 174 -7 241q98 0 139 5q-4 -39 -4 -148v-416q0 -107 4 -144zM191 915l158 9l-163 -154l-84 -5z" />
    <glyph glyph-name="Icircumflex" unicode="&#xce;" horiz-adv-x="328" 
d="M232 0h-139q7 67 7 241v221q0 174 -7 241q98 0 139 5q-4 -39 -4 -148v-416q0 -107 4 -144zM104 925h126l103 -157l-80 -6l-87 89l-81 -82h-91z" />
    <glyph glyph-name="Idieresis" unicode="&#xcf;" horiz-adv-x="328" 
d="M232 0h-139q7 67 7 241v221q0 174 -7 241q98 0 139 5q-4 -39 -4 -148v-416q0 -107 4 -144zM134 853q0 -30 -19.5 -51t-49.5 -21q-28 0 -46.5 19.5t-18.5 46.5q0 31 19 51.5t49 20.5q28 0 47 -19.5t19 -46.5zM327 853q0 -30 -19.5 -51t-49.5 -21q-28 0 -46.5 19.5
t-18.5 46.5q0 31 19 51.5t49 20.5q28 0 47 -19.5t19 -46.5z" />
    <glyph glyph-name="Eth" unicode="&#xd0;" horiz-adv-x="734" 
d="M686 371q0 -166 -101.5 -268.5t-267.5 -102.5h-227q7 67 7 241v68q-58 -2 -78 -2q3 36 3 96l75 -3v62q0 174 -7 241q10 0 80 2.5t127 2.5q185 0 287 -94t102 -243zM558 360q0 113 -67 178.5t-189 65.5q-40 0 -76 -3q-1 -17 -1 -58v-143q75 0 140 3q-5 -45 -5 -96
q-94 2 -134 2h-1v-148q0 -34 1 -52q43 -5 79 -5q128 0 190.5 71.5t62.5 184.5z" />
    <glyph glyph-name="Ntilde" unicode="&#xd1;" horiz-adv-x="789" 
d="M83 0q8 67 11 241l3 236q2 156 -4 233l60 8l422 -497v241q0 177 -8 241q95 0 138 5q-5 -37 -8 -148l-4 -421q-3 -112 2 -147l-60 -8l-420 491v-331q0 -107 4 -144h-136zM211 779q14 81 42 115t71 34q34 0 85.5 -34.5t66.5 -34.5q27 0 39 72l78 -11q-24 -154 -114 -154
q-33 0 -85 35t-68 35q-14 0 -22 -14.5t-14 -53.5z" />
    <glyph glyph-name="Ograve" unicode="&#xd2;" horiz-adv-x="803" 
d="M400 86q100 0 163.5 77t63.5 187q0 121 -63 193.5t-161 72.5q-100 0 -163.5 -77t-63.5 -187q0 -122 62.5 -194t161.5 -72zM392 -18q-151 0 -247.5 102t-96.5 249q0 166 101.5 276.5t261.5 110.5q151 0 247.5 -102t96.5 -249q0 -166 -101.5 -276.5t-261.5 -110.5zM224 923
l144 9l87 -154l-82 -5z" />
    <glyph glyph-name="Oacute" unicode="&#xd3;" horiz-adv-x="803" 
d="M429 923l158 9l-163 -154l-84 -5zM400 86q100 0 163.5 77t63.5 187q0 121 -63 193.5t-161 72.5q-100 0 -163.5 -77t-63.5 -187q0 -122 62.5 -194t161.5 -72zM392 -18q-151 0 -247.5 102t-96.5 249q0 166 101.5 276.5t261.5 110.5q151 0 247.5 -102t96.5 -249
q0 -166 -101.5 -276.5t-261.5 -110.5z" />
    <glyph glyph-name="Ocircumflex" unicode="&#xd4;" horiz-adv-x="803" 
d="M342 933h126l103 -157l-80 -6l-87 89l-81 -82h-91zM400 86q100 0 163.5 77t63.5 187q0 121 -63 193.5t-161 72.5q-100 0 -163.5 -77t-63.5 -187q0 -122 62.5 -194t161.5 -72zM392 -18q-151 0 -247.5 102t-96.5 249q0 166 101.5 276.5t261.5 110.5q151 0 247.5 -102
t96.5 -249q0 -166 -101.5 -276.5t-261.5 -110.5z" />
    <glyph glyph-name="Otilde" unicode="&#xd5;" horiz-adv-x="803" 
d="M400 86q100 0 163.5 77t63.5 187q0 121 -63 193.5t-161 72.5q-100 0 -163.5 -77t-63.5 -187q0 -122 62.5 -194t161.5 -72zM392 -18q-151 0 -247.5 102t-96.5 249q0 166 101.5 276.5t261.5 110.5q151 0 247.5 -102t96.5 -249q0 -166 -101.5 -276.5t-261.5 -110.5zM216 787
q14 81 42 115t71 34q34 0 85.5 -34.5t66.5 -34.5q27 0 39 72l78 -11q-24 -154 -114 -154q-33 0 -85 35t-68 35q-14 0 -22 -14.5t-14 -53.5z" />
    <glyph glyph-name="Odieresis" unicode="&#xd6;" horiz-adv-x="803" 
d="M372 861q0 -30 -19.5 -51t-49.5 -21q-28 0 -46.5 19.5t-18.5 46.5q0 31 19 51.5t49 20.5q28 0 47 -19.5t19 -46.5zM565 861q0 -30 -19.5 -51t-49.5 -21q-28 0 -46.5 19.5t-18.5 46.5q0 31 19 51.5t49 20.5q28 0 47 -19.5t19 -46.5zM400 86q100 0 163.5 77t63.5 187
q0 121 -63 193.5t-161 72.5q-100 0 -163.5 -77t-63.5 -187q0 -122 62.5 -194t161.5 -72zM392 -18q-151 0 -247.5 102t-96.5 249q0 166 101.5 276.5t261.5 110.5q151 0 247.5 -102t96.5 -249q0 -166 -101.5 -276.5t-261.5 -110.5z" />
    <glyph glyph-name="multiply" unicode="&#xd7;" horiz-adv-x="568" 
d="M497 124l-70 -64l-142 155l-149 -154q-21 24 -64 67l151 148l-151 148q45 36 71 62l142 -149l143 154q9 -11 32 -35.5l31 -33.5l-144 -147z" />
    <glyph glyph-name="Oslash" unicode="&#xd8;" horiz-adv-x="802" 
d="M752 697q-16 -17 -82 -93q84 -100 84 -235q0 -166 -101.5 -276.5t-261.5 -110.5q-114 0 -200 61q-7 -9 -20 -24l-24 -28l-22 -26l-73 41l81 89q-85 99 -85 238q0 166 101.5 276.5t261.5 110.5q114 0 200 -62q51 58 69 84q60 -39 72 -45zM177 352q0 -96 40 -162l318 378
q-57 46 -133 46q-98 0 -161.5 -76.5t-63.5 -185.5zM400 88q99 0 162 76t63 186q0 91 -39 157l-319 -375q55 -44 133 -44z" />
    <glyph glyph-name="Ugrave" unicode="&#xd9;" horiz-adv-x="764" 
d="M682 708q-5 -36 -5 -148v-263q0 -84 -19.5 -138t-61.5 -94q-83 -83 -227 -83q-127 0 -204.5 70.5t-77.5 193.5v216q0 174 -7 241q98 0 139 5q-4 -39 -4 -148v-281q0 -188 171 -188q78 0 120.5 44.5t42.5 124.5v202q0 177 -8 241q99 0 141 5zM204 915l144 9l87 -154
l-82 -5z" />
    <glyph glyph-name="Uacute" unicode="&#xda;" horiz-adv-x="764" 
d="M409 915l158 9l-163 -154l-84 -5zM682 708q-5 -36 -5 -148v-263q0 -84 -19.5 -138t-61.5 -94q-83 -83 -227 -83q-127 0 -204.5 70.5t-77.5 193.5v216q0 174 -7 241q98 0 139 5q-4 -39 -4 -148v-281q0 -188 171 -188q78 0 120.5 44.5t42.5 124.5v202q0 177 -8 241
q99 0 141 5z" />
    <glyph glyph-name="Ucircumflex" unicode="&#xdb;" horiz-adv-x="764" 
d="M322 925h126l103 -157l-80 -6l-87 89l-81 -82h-91zM682 708q-5 -36 -5 -148v-263q0 -84 -19.5 -138t-61.5 -94q-83 -83 -227 -83q-127 0 -204.5 70.5t-77.5 193.5v216q0 174 -7 241q98 0 139 5q-4 -39 -4 -148v-281q0 -188 171 -188q78 0 120.5 44.5t42.5 124.5v202
q0 177 -8 241q99 0 141 5z" />
    <glyph glyph-name="Udieresis" unicode="&#xdc;" horiz-adv-x="764" 
d="M352 853q0 -30 -19.5 -51t-49.5 -21q-28 0 -46.5 19.5t-18.5 46.5q0 31 19 51.5t49 20.5q28 0 47 -19.5t19 -46.5zM545 853q0 -30 -19.5 -51t-49.5 -21q-28 0 -46.5 19.5t-18.5 46.5q0 31 19 51.5t49 20.5q28 0 47 -19.5t19 -46.5zM682 708q-5 -36 -5 -148v-263
q0 -84 -19.5 -138t-61.5 -94q-83 -83 -227 -83q-127 0 -204.5 70.5t-77.5 193.5v216q0 174 -7 241q98 0 139 5q-4 -39 -4 -148v-281q0 -188 171 -188q78 0 120.5 44.5t42.5 124.5v202q0 177 -8 241q99 0 141 5z" />
    <glyph glyph-name="Yacute" unicode="&#xdd;" horiz-adv-x="647" 
d="M2 703l141 8l183 -303l55 87q27 42 126 210h144l-263 -402v-159q0 -102 3 -144h-138q7 67 7 241v58l-105 165zM354 915l158 9l-163 -154l-84 -5z" />
    <glyph glyph-name="Thorn" unicode="&#xde;" horiz-adv-x="609" 
d="M96 462q0 174 -7 241q100 0 141 5q-4 -36 -4 -129q50 2 66 2q132 0 207 -59.5t75 -150.5q0 -110 -76.5 -179.5t-227.5 -69.5q-12 0 -44 2q0 -2 1 -55.5t3 -68.5h-141q7 67 7 241v221zM226 223q26 -3 46 -3q80 0 126.5 33.5t46.5 96.5q0 59 -38.5 92t-110.5 33
q-20 0 -70 -2v-250z" />
    <glyph glyph-name="germandbls" unicode="&#xdf;" horiz-adv-x="530" 
d="M60 0q7 60 7 163v318q0 121 56 183.5t155 62.5q79 0 131 -45t52 -110q0 -37 -14.5 -69t-32.5 -49.5t-32.5 -35t-14.5 -29.5q0 -13 7.5 -23t36.5 -36q46 -40 72 -78.5t26 -89.5q0 -68 -49.5 -117t-132.5 -49q-33 0 -73 8l-8 96q32 -8 60 -8q40 0 63 18.5t23 46.5
q0 23 -15 45.5t-37 42l-44 39t-37 43.5t-15 49q0 19 15.5 41t34 39.5t34 44t15.5 53.5q0 33 -20 53t-51 20q-35 0 -59 -30t-25 -85v-415q0 -64 4 -97h-132z" />
    <glyph glyph-name="agrave" unicode="&#xe0;" horiz-adv-x="503" 
d="M176 -13q-67 0 -106.5 36.5t-39.5 97.5q0 73 63 115.5t181 42.5q13 0 39 -2l1 14q2 47 -20 69.5t-70 22.5q-74 0 -136 -44l-21 95q83 49 179 49q94 0 140 -48.5t44 -136.5l-5 -187q-1 -39 28 -39q13 0 36 7l-9 -76q-39 -15 -69 -15q-35 0 -59.5 19.5t-30.5 58.5
q-21 -36 -60 -57.5t-85 -21.5zM212 69q41 0 68.5 27.5t29.5 72.5l2 45q-26 2 -37 2q-132 0 -132 -83q0 -29 17 -46.5t52 -17.5zM75 690l144 9l87 -154l-82 -5z" />
    <glyph glyph-name="aacute" unicode="&#xe1;" horiz-adv-x="503" 
d="M176 -13q-67 0 -106.5 36.5t-39.5 97.5q0 73 63 115.5t181 42.5q13 0 39 -2l1 14q2 47 -20 69.5t-70 22.5q-74 0 -136 -44l-21 95q83 49 179 49q94 0 140 -48.5t44 -136.5l-5 -187q-1 -39 28 -39q13 0 36 7l-9 -76q-39 -15 -69 -15q-35 0 -59.5 19.5t-30.5 58.5
q-21 -36 -60 -57.5t-85 -21.5zM212 69q41 0 68.5 27.5t29.5 72.5l2 45q-26 2 -37 2q-132 0 -132 -83q0 -29 17 -46.5t52 -17.5zM280 690l158 9l-163 -154l-84 -5z" />
    <glyph glyph-name="acircumflex" unicode="&#xe2;" horiz-adv-x="503" 
d="M176 -13q-67 0 -106.5 36.5t-39.5 97.5q0 73 63 115.5t181 42.5q13 0 39 -2l1 14q2 47 -20 69.5t-70 22.5q-74 0 -136 -44l-21 95q83 49 179 49q94 0 140 -48.5t44 -136.5l-5 -187q-1 -39 28 -39q13 0 36 7l-9 -76q-39 -15 -69 -15q-35 0 -59.5 19.5t-30.5 58.5
q-21 -36 -60 -57.5t-85 -21.5zM193 700h126l103 -157l-80 -6l-87 89l-81 -82h-91zM212 69q41 0 68.5 27.5t29.5 72.5l2 45q-26 2 -37 2q-132 0 -132 -83q0 -29 17 -46.5t52 -17.5z" />
    <glyph glyph-name="atilde" unicode="&#xe3;" horiz-adv-x="503" 
d="M176 -13q-67 0 -106.5 36.5t-39.5 97.5q0 73 63 115.5t181 42.5q13 0 39 -2l1 14q2 47 -20 69.5t-70 22.5q-74 0 -136 -44l-21 95q83 49 179 49q94 0 140 -48.5t44 -136.5l-5 -187q-1 -39 28 -39q13 0 36 7l-9 -76q-39 -15 -69 -15q-35 0 -59.5 19.5t-30.5 58.5
q-21 -36 -60 -57.5t-85 -21.5zM67 554q14 81 42 115t71 34q34 0 85.5 -34.5t66.5 -34.5q27 0 39 72l78 -11q-24 -154 -114 -154q-33 0 -85 35t-68 35q-14 0 -22 -14.5t-14 -53.5zM212 69q41 0 68.5 27.5t29.5 72.5l2 45q-26 2 -37 2q-132 0 -132 -83q0 -29 17 -46.5
t52 -17.5z" />
    <glyph glyph-name="adieresis" unicode="&#xe4;" horiz-adv-x="503" 
d="M176 -13q-67 0 -106.5 36.5t-39.5 97.5q0 73 63 115.5t181 42.5q13 0 39 -2l1 14q2 47 -20 69.5t-70 22.5q-74 0 -136 -44l-21 95q83 49 179 49q94 0 140 -48.5t44 -136.5l-5 -187q-1 -39 28 -39q13 0 36 7l-9 -76q-39 -15 -69 -15q-35 0 -59.5 19.5t-30.5 58.5
q-21 -36 -60 -57.5t-85 -21.5zM212 69q41 0 68.5 27.5t29.5 72.5l2 45q-26 2 -37 2q-132 0 -132 -83q0 -29 17 -46.5t52 -17.5zM223 628q0 -30 -19.5 -51t-49.5 -21q-28 0 -46.5 19.5t-18.5 46.5q0 31 19 51.5t49 20.5q28 0 47 -19.5t19 -46.5zM416 628q0 -30 -19.5 -51
t-49.5 -21q-28 0 -46.5 19.5t-18.5 46.5q0 31 19 51.5t49 20.5q28 0 47 -19.5t19 -46.5z" />
    <glyph glyph-name="aring" unicode="&#xe5;" horiz-adv-x="503" 
d="M176 -13q-67 0 -106.5 36.5t-39.5 97.5q0 73 63 115.5t181 42.5q13 0 39 -2l1 14q2 47 -20 69.5t-70 22.5q-74 0 -136 -44l-21 95q83 49 179 49q94 0 140 -48.5t44 -136.5l-5 -187q-1 -39 28 -39q13 0 36 7l-9 -76q-39 -15 -69 -15q-35 0 -59.5 19.5t-30.5 58.5
q-21 -36 -60 -57.5t-85 -21.5zM380 663q0 -52 -36.5 -88.5t-94.5 -36.5q-56 0 -90.5 33t-34.5 80q0 53 36.5 88t94.5 35q56 0 90.5 -32t34.5 -79zM212 69q41 0 68.5 27.5t29.5 72.5l2 45q-26 2 -37 2q-132 0 -132 -83q0 -29 17 -46.5t52 -17.5zM307 657q0 25 -14.5 40.5
t-40.5 15.5q-25 0 -40 -16t-15 -39q0 -26 15 -42t39 -16q26 0 41 16.5t15 40.5z" />
    <glyph glyph-name="ae" unicode="&#xe6;" horiz-adv-x="785" 
d="M753 251l-53 -37l-272 -8q9 -127 134 -127q84 0 171 63l-3 -104q-88 -56 -183 -56q-132 0 -183 96q-60 -92 -176 -92q-70 0 -114 38t-44 101q0 70 61 111t176 41q7 0 23.5 -0.5t25.5 -0.5l1 14q5 93 -92 93q-75 0 -137 -44l-21 95q82 48 173 48q111 0 148 -78
q61 79 163 79q101 0 151.5 -64.5t50.5 -167.5zM210 69q45 0 73 33.5t30 84.5l1 26q-8 0 -23.5 0.5t-23.5 0.5q-124 0 -124 -80q0 -28 17.5 -46.5t49.5 -18.5zM430 277l215 7q-12 108 -100 108q-44 0 -75.5 -33t-39.5 -82z" />
    <glyph glyph-name="ccedilla" unicode="&#xe7;" horiz-adv-x="480" 
d="M442 438l-27 -97q-52 43 -120 43q-61 0 -100.5 -42.5t-39.5 -105.5q0 -73 43 -114t104 -41q40 0 71 13t66 44l-4 -113q-72 -42 -145 -43l-12 -46q104 -27 104 -95q0 -38 -31 -63.5t-86 -25.5q-43 0 -91 15l15 63q44 -14 79 -14q37 0 37 24q0 29 -92 48l-4 4q7 22 26 94
q-89 15 -144 80t-55 154q0 112 72 187.5t183 75.5q87 0 151 -45z" />
    <glyph glyph-name="egrave" unicode="&#xe8;" horiz-adv-x="514" 
d="M483 251l-54 -37l-276 -8q11 -127 136 -127q88 0 173 63l-3 -104q-86 -56 -183 -56q-116 0 -178 68.5t-62 171.5q0 113 67.5 187t176.5 74q101 0 152 -64.5t51 -167.5zM155 277l219 7q-12 108 -99 108q-49 0 -80.5 -32t-39.5 -83zM96 690l144 9l87 -154l-82 -5z" />
    <glyph glyph-name="eacute" unicode="&#xe9;" horiz-adv-x="514" 
d="M302 690l158 9l-163 -154l-84 -5zM483 251l-54 -37l-276 -8q11 -127 136 -127q88 0 173 63l-3 -104q-86 -56 -183 -56q-116 0 -178 68.5t-62 171.5q0 113 67.5 187t176.5 74q101 0 152 -64.5t51 -167.5zM155 277l219 7q-12 108 -99 108q-49 0 -80.5 -32t-39.5 -83z" />
    <glyph glyph-name="ecircumflex" unicode="&#xea;" horiz-adv-x="514" 
d="M214 700h126l103 -157l-80 -6l-87 89l-81 -82h-91zM483 251l-54 -37l-276 -8q11 -127 136 -127q88 0 173 63l-3 -104q-86 -56 -183 -56q-116 0 -178 68.5t-62 171.5q0 113 67.5 187t176.5 74q101 0 152 -64.5t51 -167.5zM155 277l219 7q-12 108 -99 108q-49 0 -80.5 -32
t-39.5 -83z" />
    <glyph glyph-name="edieresis" unicode="&#xeb;" horiz-adv-x="514" 
d="M244 628q0 -30 -19.5 -51t-49.5 -21q-28 0 -46.5 19.5t-18.5 46.5q0 31 19 51.5t49 20.5q28 0 47 -19.5t19 -46.5zM437 628q0 -30 -19.5 -51t-49.5 -21q-28 0 -46.5 19.5t-18.5 46.5q0 31 19 51.5t49 20.5q28 0 47 -19.5t19 -46.5zM483 251l-54 -37l-276 -8
q11 -127 136 -127q88 0 173 63l-3 -104q-86 -56 -183 -56q-116 0 -178 68.5t-62 171.5q0 113 67.5 187t176.5 74q101 0 152 -64.5t51 -167.5zM155 277l219 7q-12 108 -99 108q-49 0 -80.5 -32t-39.5 -83z" />
    <glyph glyph-name="igrave" unicode="&#xec;" horiz-adv-x="254" 
d="M191 0h-131q7 60 7 164v134q0 110 -7 170q61 0 131 7q-4 -35 -4 -107v-271q0 -62 4 -97zM-51 690l144 9l87 -154l-82 -5z" />
    <glyph glyph-name="iacute" unicode="&#xed;" horiz-adv-x="254" 
d="M153 690l158 9l-163 -154l-84 -5zM191 0h-131q7 60 7 164v134q0 110 -7 170q61 0 131 7q-4 -35 -4 -107v-271q0 -62 4 -97z" />
    <glyph glyph-name="icircumflex" unicode="&#xee;" horiz-adv-x="254" 
d="M67 700h126l103 -157l-80 -6l-87 89l-81 -82h-91zM191 0h-131q7 60 7 164v134q0 110 -7 170q61 0 131 7q-4 -35 -4 -107v-271q0 -62 4 -97z" />
    <glyph glyph-name="idieresis" unicode="&#xef;" horiz-adv-x="254" 
d="M97 628q0 -30 -19.5 -51t-49.5 -21q-28 0 -46.5 19.5t-18.5 46.5q0 31 19 51.5t49 20.5q28 0 47 -19.5t19 -46.5zM290 628q0 -30 -19.5 -51t-49.5 -21q-28 0 -46.5 19.5t-18.5 46.5q0 31 19 51.5t49 20.5q28 0 47 -19.5t19 -46.5zM191 0h-131q7 60 7 164v134
q0 110 -7 170q61 0 131 7q-4 -35 -4 -107v-271q0 -62 4 -97z" />
    <glyph glyph-name="eth" unicode="&#xf0;" horiz-adv-x="549" 
d="M267 -18q-103 0 -167 68.5t-64 167.5q0 112 65.5 184t166.5 72q66 0 115 -38q-31 69 -87 128l-124 -69q-26 31 -64 59l127 65q-56 43 -119 68l105 46q59 -27 106 -64l108 63l61 -64q-70 -34 -109 -55q128 -141 129 -335q1 -136 -67.5 -216t-181.5 -80zM399 234
q0 69 -35 108.5t-86 39.5q-56 0 -90.5 -43t-34.5 -107q0 -70 34 -112t87 -42q55 0 90 44t35 112z" />
    <glyph glyph-name="ntilde" unicode="&#xf1;" horiz-adv-x="565" 
d="M504 0h-131q7 60 7 170v116q0 98 -72 98q-45 0 -83 -36t-38 -78v-167q0 -68 4 -103h-130q6 64 6 170v129q0 103 -6 167q28 0 118 9l7 -95q29 48 75.5 75.5t92.5 27.5q73 0 109.5 -44t36.5 -124v-212q0 -51 4 -103zM103 554q14 81 42 115t71 34q34 0 85.5 -34.5
t66.5 -34.5q27 0 39 72l78 -11q-24 -154 -114 -154q-33 0 -85 35t-68 35q-14 0 -22 -14.5t-14 -53.5z" />
    <glyph glyph-name="ograve" unicode="&#xf2;" horiz-adv-x="549" 
d="M513 244q0 -113 -68 -187.5t-178 -74.5q-103 0 -167 69t-64 169q0 113 67.5 188t176.5 75q104 0 168.5 -69t64.5 -170zM395 231q0 76 -33 116t-86 40q-55 0 -89 -42t-34 -109q0 -78 32 -118t87 -40q57 0 90 42t33 111zM97 690l144 9l87 -154l-82 -5z" />
    <glyph glyph-name="oacute" unicode="&#xf3;" horiz-adv-x="549" 
d="M303 690l158 9l-163 -154l-84 -5zM513 244q0 -113 -68 -187.5t-178 -74.5q-103 0 -167 69t-64 169q0 113 67.5 188t176.5 75q104 0 168.5 -69t64.5 -170zM395 231q0 76 -33 116t-86 40q-55 0 -89 -42t-34 -109q0 -78 32 -118t87 -40q57 0 90 42t33 111z" />
    <glyph glyph-name="ocircumflex" unicode="&#xf4;" horiz-adv-x="549" 
d="M215 700h126l103 -157l-80 -6l-87 89l-81 -82h-91zM513 244q0 -113 -68 -187.5t-178 -74.5q-103 0 -167 69t-64 169q0 113 67.5 188t176.5 75q104 0 168.5 -69t64.5 -170zM395 231q0 76 -33 116t-86 40q-55 0 -89 -42t-34 -109q0 -78 32 -118t87 -40q57 0 90 42t33 111z
" />
    <glyph glyph-name="otilde" unicode="&#xf5;" horiz-adv-x="549" 
d="M513 244q0 -113 -68 -187.5t-178 -74.5q-103 0 -167 69t-64 169q0 113 67.5 188t176.5 75q104 0 168.5 -69t64.5 -170zM395 231q0 76 -33 116t-86 40q-55 0 -89 -42t-34 -109q0 -78 32 -118t87 -40q57 0 90 42t33 111zM89 554q14 81 42 115t71 34q34 0 85.5 -34.5
t66.5 -34.5q27 0 39 72l78 -11q-24 -154 -114 -154q-33 0 -85 35t-68 35q-14 0 -22 -14.5t-14 -53.5z" />
    <glyph glyph-name="odieresis" unicode="&#xf6;" horiz-adv-x="549" 
d="M245 628q0 -30 -19.5 -51t-49.5 -21q-28 0 -46.5 19.5t-18.5 46.5q0 31 19 51.5t49 20.5q28 0 47 -19.5t19 -46.5zM438 628q0 -30 -19.5 -51t-49.5 -21q-28 0 -46.5 19.5t-18.5 46.5q0 31 19 51.5t49 20.5q28 0 47 -19.5t19 -46.5zM513 244q0 -113 -68 -187.5t-178 -74.5
q-103 0 -167 69t-64 169q0 113 67.5 188t176.5 75q104 0 168.5 -69t64.5 -170zM395 231q0 76 -33 116t-86 40q-55 0 -89 -42t-34 -109q0 -78 32 -118t87 -40q57 0 90 42t33 111z" />
    <glyph glyph-name="divide" unicode="&#xf7;" horiz-adv-x="566" 
d="M500 322q-5 -43 -5 -90q-118 2 -178 2h-71q-66 0 -180 -2q3 34 3 90q102 -3 215 -3q112 0 216 3zM346 456q0 -28 -19 -48.5t-48 -20.5t-47 19t-18 44q0 29 19 49.5t49 20.5q28 0 46 -19t18 -45zM346 103q0 -29 -19 -49.5t-48 -20.5t-47 19.5t-18 44.5q0 29 19 49t49 20
q28 0 46 -19t18 -44z" />
    <glyph glyph-name="oslash" unicode="&#xf8;" horiz-adv-x="549" 
d="M522 455q-7 -7 -16 -17l-21 -24t-19 -21q47 -64 47 -149q0 -113 -68 -187.5t-178 -74.5q-73 0 -132 39q-46 -49 -53 -57l-56 44q42 43 58 62q-48 63 -48 150q0 113 67.5 188t176.5 75q77 0 135 -41l52 59q28 -28 55 -46zM150 236q0 -50 12 -83l187 210q-32 26 -73 26
q-57 0 -91.5 -42.5t-34.5 -110.5zM398 231q0 44 -13 78l-185 -210q29 -23 72 -23q59 0 92.5 42.5t33.5 112.5z" />
    <glyph glyph-name="ugrave" unicode="&#xf9;" horiz-adv-x="565" 
d="M505 0h-111l-13 77q-27 -44 -71 -69.5t-85 -25.5q-160 0 -160 181v136q0 102 -6 168q74 0 131 6q-5 -33 -5 -109v-175q0 -55 19 -81.5t65 -26.5q36 0 72.5 31.5t36.5 71.5v115q0 102 -6 168q73 0 132 6q-6 -39 -6 -109v-198q0 -103 7 -166zM105 690l144 9l87 -154l-82 -5
z" />
    <glyph glyph-name="uacute" unicode="&#xfa;" horiz-adv-x="565" 
d="M311 690l158 9l-163 -154l-84 -5zM505 0h-111l-13 77q-27 -44 -71 -69.5t-85 -25.5q-160 0 -160 181v136q0 102 -6 168q74 0 131 6q-5 -33 -5 -109v-175q0 -55 19 -81.5t65 -26.5q36 0 72.5 31.5t36.5 71.5v115q0 102 -6 168q73 0 132 6q-6 -39 -6 -109v-198
q0 -103 7 -166z" />
    <glyph glyph-name="ucircumflex" unicode="&#xfb;" horiz-adv-x="565" 
d="M223 700h126l103 -157l-80 -6l-87 89l-81 -82h-91zM505 0h-111l-13 77q-27 -44 -71 -69.5t-85 -25.5q-160 0 -160 181v136q0 102 -6 168q74 0 131 6q-5 -33 -5 -109v-175q0 -55 19 -81.5t65 -26.5q36 0 72.5 31.5t36.5 71.5v115q0 102 -6 168q73 0 132 6q-6 -39 -6 -109
v-198q0 -103 7 -166z" />
    <glyph glyph-name="udieresis" unicode="&#xfc;" horiz-adv-x="565" 
d="M253 628q0 -30 -19.5 -51t-49.5 -21q-28 0 -46.5 19.5t-18.5 46.5q0 31 19 51.5t49 20.5q28 0 47 -19.5t19 -46.5zM446 628q0 -30 -19.5 -51t-49.5 -21q-28 0 -46.5 19.5t-18.5 46.5q0 31 19 51.5t49 20.5q28 0 47 -19.5t19 -46.5zM505 0h-111l-13 77q-27 -44 -71 -69.5
t-85 -25.5q-160 0 -160 181v136q0 102 -6 168q74 0 131 6q-5 -33 -5 -109v-175q0 -55 19 -81.5t65 -26.5q36 0 72.5 31.5t36.5 71.5v115q0 102 -6 168q73 0 132 6q-6 -39 -6 -109v-198q0 -103 7 -166z" />
    <glyph glyph-name="yacute" unicode="&#xfd;" horiz-adv-x="490" 
d="M78 -214l113 260q-37 94 -45 112l-57 129q-57 129 -82 176q4 0 65 6t64 6l116 -304l48 130q25 63 61 168q76 0 125 4l-216 -517q-4 -11 -18 -45t-26 -66t-19 -54q-83 0 -129 -5zM281 690l158 9l-163 -154l-84 -5z" />
    <glyph glyph-name="thorn" unicode="&#xfe;" horiz-adv-x="566" 
d="M187 338v-222q37 -40 102 -40q55 0 89 48t34 115q0 70 -31 109.5t-88 39.5q-59 0 -106 -50zM67 -49v597q0 103 -7 163q62 3 131 15q-4 -35 -4 -120v-180q66 57 143 57q90 0 146 -65.5t56 -166.5q0 -118 -70.5 -193.5t-159.5 -75.5q-69 0 -115 34v-128q0 -60 4 -93
q-5 0 -65 -5.5t-65 -6.5q6 64 6 168z" />
    <glyph glyph-name="ydieresis" unicode="&#xff;" horiz-adv-x="490" 
d="M78 -214l113 260q-37 94 -45 112l-57 129q-57 129 -82 176q4 0 65 6t64 6l116 -304l48 130q25 63 61 168q76 0 125 4l-216 -517q-4 -11 -18 -45t-26 -66t-19 -54q-83 0 -129 -5zM223 628q0 -30 -19.5 -51t-49.5 -21q-28 0 -46.5 19.5t-18.5 46.5q0 31 19 51.5t49 20.5
q28 0 47 -19.5t19 -46.5zM416 628q0 -30 -19.5 -51t-49.5 -21q-28 0 -46.5 19.5t-18.5 46.5q0 31 19 51.5t49 20.5q28 0 47 -19.5t19 -46.5z" />
    <glyph glyph-name="Amacron" unicode="&#x100;" horiz-adv-x="721" 
d="M5 0l231 512q58 129 85 198l64 8l234 -514q69 -149 97 -204l-139 -8l-81 187h-283l-1 -3l-71 -176h-136zM521 901q-5 -42 -5 -89q-84 2 -116 2h-90q-42 0 -114 -2q4 42 4 89q80 -3 161 -3q82 0 160 3zM354 516l-103 -244h206z" />
    <glyph glyph-name="amacron" unicode="&#x101;" horiz-adv-x="503" 
d="M176 -13q-67 0 -106.5 36.5t-39.5 97.5q0 73 63 115.5t181 42.5q13 0 39 -2l1 14q2 47 -20 69.5t-70 22.5q-74 0 -136 -44l-21 95q83 49 179 49q94 0 140 -48.5t44 -136.5l-5 -187q-1 -39 28 -39q13 0 36 7l-9 -76q-39 -15 -69 -15q-35 0 -59.5 19.5t-30.5 58.5
q-21 -36 -60 -57.5t-85 -21.5zM414 668q-5 -42 -5 -89q-84 2 -116 2h-90q-42 0 -114 -2q4 42 4 89q80 -3 161 -3q82 0 160 3zM212 69q41 0 68.5 27.5t29.5 72.5l2 45q-26 2 -37 2q-132 0 -132 -83q0 -29 17 -46.5t52 -17.5z" />
    <glyph glyph-name="Abreve" unicode="&#x102;" horiz-adv-x="721" 
d="M5 0l231 512q58 129 85 198l64 8l234 -514q69 -149 97 -204l-139 -8l-81 187h-283l-1 -3l-71 -176h-136zM430 935l88 5q2 -78 -42 -123.5t-121 -45.5q-70 0 -114.5 45t-44.5 115l90 12q0 -46 19.5 -69.5t54.5 -23.5t52.5 24t17.5 61zM354 516l-103 -244h206z" />
    <glyph glyph-name="abreve" unicode="&#x103;" horiz-adv-x="503" 
d="M176 -13q-67 0 -106.5 36.5t-39.5 97.5q0 73 63 115.5t181 42.5q13 0 39 -2l1 14q2 47 -20 69.5t-70 22.5q-74 0 -136 -44l-21 95q83 49 179 49q94 0 140 -48.5t44 -136.5l-5 -187q-1 -39 28 -39q13 0 36 7l-9 -76q-39 -15 -69 -15q-35 0 -59.5 19.5t-30.5 58.5
q-21 -36 -60 -57.5t-85 -21.5zM324 702l88 5q2 -78 -42 -123.5t-121 -45.5q-70 0 -114.5 45t-44.5 115l90 12q0 -46 19.5 -69.5t54.5 -23.5t52.5 24t17.5 61zM212 69q41 0 68.5 27.5t29.5 72.5l2 45q-26 2 -37 2q-132 0 -132 -83q0 -29 17 -46.5t52 -17.5z" />
    <glyph glyph-name="Aogonek" unicode="&#x104;" horiz-adv-x="721" 
d="M5 0l231 512q58 129 85 198l64 8l234 -514q73 -158 96 -203l2 -1q-112 -57 -112 -110q0 -18 12 -29.5t34 -11.5q28 0 60 20l-4 -70q-36 -21 -83 -21q-50 0 -80.5 25t-30.5 67q0 64 83 123l-19 -1l-81 187h-283l-1 -3l-71 -176h-136zM354 516l-103 -244h206z" />
    <glyph glyph-name="aogonek" unicode="&#x105;" horiz-adv-x="503" 
d="M176 -13q-67 0 -106.5 36.5t-39.5 97.5q0 73 63 115.5t181 42.5q13 0 39 -2l1 14q2 47 -20 69.5t-70 22.5q-74 0 -136 -44l-21 95q83 49 179 49q94 0 140 -48.5t44 -137.5l-5 -186q-1 -39 28 -39q13 0 36 7l-9 -74q-106 -66 -106 -115q0 -18 12.5 -29.5t33.5 -11.5
q29 0 61 20l-5 -70q-35 -21 -82 -21q-51 0 -81 25t-30 67q0 65 92 124q-47 17 -54 72q-21 -36 -60 -57.5t-85 -21.5zM212 69q41 0 68.5 27.5t29.5 72.5l2 45q-26 2 -37 2q-132 0 -132 -83q0 -29 17 -46.5t52 -17.5z" />
    <glyph glyph-name="Cacute" unicode="&#x106;" horiz-adv-x="678" 
d="M422 923l158 9l-163 -154l-84 -5zM638 186l-6 -130q-103 -74 -228 -74q-155 0 -255.5 102.5t-100.5 248.5q0 165 106.5 276t268.5 111q123 0 210 -61l-29 -112q-79 64 -181 64q-107 0 -176 -73t-69 -184q0 -123 67.5 -192.5t171.5 -69.5q119 0 221 94z" />
    <glyph glyph-name="cacute" unicode="&#x107;" horiz-adv-x="480" 
d="M303 690l158 9l-163 -154l-84 -5zM442 438l-27 -97q-52 43 -120 43q-61 0 -100.5 -42.5t-39.5 -105.5q0 -73 43 -114t104 -41q40 0 71 13t66 44l-4 -113q-72 -43 -153 -43q-108 0 -177 68.5t-69 169.5q0 112 72 187.5t183 75.5q87 0 151 -45z" />
    <glyph glyph-name="Cdotaccent" unicode="&#x10a;" horiz-adv-x="678" 
d="M638 186l-6 -130q-103 -74 -228 -74q-155 0 -255.5 102.5t-100.5 248.5q0 165 106.5 276t268.5 111q123 0 210 -61l-29 -112q-79 64 -181 64q-107 0 -176 -73t-69 -184q0 -123 67.5 -192.5t171.5 -69.5q119 0 221 94zM463 863q0 -30 -20 -50.5t-51 -20.5q-30 0 -49 19
t-19 47q0 30 20 50.5t51 20.5q29 0 48.5 -19.5t19.5 -46.5z" />
    <glyph glyph-name="cdotaccent" unicode="&#x10b;" horiz-adv-x="480" 
d="M442 438l-27 -97q-52 43 -120 43q-61 0 -100.5 -42.5t-39.5 -105.5q0 -73 43 -114t104 -41q40 0 71 13t66 44l-4 -113q-72 -43 -153 -43q-108 0 -177 68.5t-69 169.5q0 112 72 187.5t183 75.5q87 0 151 -45zM344 630q0 -30 -20 -50.5t-51 -20.5q-29 0 -48.5 19.5
t-19.5 46.5q0 30 20 50.5t51 20.5q29 0 48.5 -19.5t19.5 -46.5z" />
    <glyph glyph-name="Ccaron" unicode="&#x10c;" horiz-adv-x="678" 
d="M454 778h-126l-104 155l82 6l86 -88l82 83h89zM638 186l-6 -130q-103 -74 -228 -74q-155 0 -255.5 102.5t-100.5 248.5q0 165 106.5 276t268.5 111q123 0 210 -61l-29 -112q-79 64 -181 64q-107 0 -176 -73t-69 -184q0 -123 67.5 -192.5t171.5 -69.5q119 0 221 94z" />
    <glyph glyph-name="ccaron" unicode="&#x10d;" horiz-adv-x="480" 
d="M336 545h-126l-104 155l82 6l86 -88l82 83h89zM442 438l-27 -97q-52 43 -120 43q-61 0 -100.5 -42.5t-39.5 -105.5q0 -73 43 -114t104 -41q40 0 71 13t66 44l-4 -113q-72 -43 -153 -43q-108 0 -177 68.5t-69 169.5q0 112 72 187.5t183 75.5q87 0 151 -45z" />
    <glyph glyph-name="Dcaron" unicode="&#x10e;" horiz-adv-x="735" 
d="M423 770h-126l-104 155l82 6l86 -88l82 83h89zM686 371q0 -166 -101.5 -268.5t-267.5 -102.5h-227q7 67 7 241v221q0 174 -7 241q10 0 80 2.5t127 2.5q185 0 287 -94t102 -243zM558 360q0 113 -67 178.5t-189 65.5q-40 0 -76 -3q-1 -17 -1 -58v-382q0 -34 1 -52
q43 -5 79 -5q128 0 190.5 71.5t62.5 184.5z" />
    <glyph glyph-name="dcaron" unicode="&#x10f;" horiz-adv-x="566" 
d="M599 547l-49 -9q6 93 6 176q15 2 48 5.5t40 4.5q-28 -121 -45 -177zM273 483q62 0 106 -32l-1 96q0 120 -5 163q94 8 130 15q-4 -35 -4 -109v-450q0 -102 7 -166h-113l-7 50q-22 -30 -60 -49t-79 -19q-96 0 -154 67t-58 166q0 114 68 191t170 77zM286 388
q-60 0 -95.5 -46t-35.5 -114q0 -73 35 -112t88 -39q32 0 59.5 16t41.5 43v216q-36 36 -93 36z" />
    <glyph glyph-name="Dcroat" unicode="&#x110;" horiz-adv-x="734" 
d="M686 371q0 -166 -101.5 -268.5t-267.5 -102.5h-227q7 67 7 241v68q-58 -2 -78 -2q3 36 3 96l75 -3v62q0 174 -7 241q10 0 80 2.5t127 2.5q185 0 287 -94t102 -243zM558 360q0 113 -67 178.5t-189 65.5q-40 0 -76 -3q-1 -17 -1 -58v-143q75 0 140 3q-5 -45 -5 -96
q-94 2 -134 2h-1v-148q0 -34 1 -52q43 -5 79 -5q128 0 190.5 71.5t62.5 184.5z" />
    <glyph glyph-name="dcroat" unicode="&#x111;" horiz-adv-x="566" 
d="M273 483q62 0 106 -32l-1 88h-27q-44 0 -112 -2q3 31 3 84q66 -3 136 -3q-2 65 -5 92q94 8 130 15q-4 -35 -4 -106q27 0 71 2q-5 -38 -5 -84q-12 0 -34 0.5t-32 0.5v-372q0 -102 7 -166h-113l-7 50q-22 -30 -60 -49t-79 -19q-96 0 -154 67t-58 166q0 114 68 191t170 77z
M286 388q-60 0 -95.5 -46t-35.5 -114q0 -73 35 -112t88 -39q32 0 59.5 16t41.5 43v216q-36 36 -93 36z" />
    <glyph glyph-name="Emacron" unicode="&#x112;" horiz-adv-x="558" 
d="M528 105q-5 -46 -7 -109q-77 5 -211 5q-141 0 -220 -5q7 67 7 245v221q0 180 -7 247q105 -5 211 -5q102 0 207 5q-6 -45 -8 -108q-114 2 -183 2q-63 0 -92 -1q-1 -17 -1 -56v-130l237 2q-3 -44 -3 -102l-234 2v-158q0 -40 1 -57q15 0 46 -0.5t46 -0.5q112 0 211 3z
M469 893q-5 -42 -5 -89q-84 2 -116 2h-90q-42 0 -114 -2q4 42 4 89q79 -3 161 -3t160 3z" />
    <glyph glyph-name="emacron" unicode="&#x113;" horiz-adv-x="514" 
d="M483 251l-54 -37l-276 -8q11 -127 136 -127q88 0 173 63l-3 -104q-86 -56 -183 -56q-116 0 -178 68.5t-62 171.5q0 113 67.5 187t176.5 74q101 0 152 -64.5t51 -167.5zM155 277l219 7q-12 108 -99 108q-49 0 -80.5 -32t-39.5 -83zM436 668q-5 -42 -5 -89q-84 2 -116 2
h-90q-42 0 -114 -2q4 42 4 89q79 -3 161 -3t160 3z" />
    <glyph glyph-name="Ebreve" unicode="&#x114;" horiz-adv-x="558" 
d="M528 105q-5 -46 -7 -109q-77 5 -211 5q-141 0 -220 -5q7 67 7 245v221q0 180 -7 247q105 -5 211 -5q102 0 207 5q-6 -45 -8 -108q-114 2 -183 2q-63 0 -92 -1q-1 -17 -1 -56v-130l237 2q-3 -44 -3 -102l-234 2v-158q0 -40 1 -57q15 0 46 -0.5t46 -0.5q112 0 211 3z
M379 927l88 5q2 -78 -42 -123.5t-121 -45.5q-70 0 -114.5 45t-44.5 115l90 12q0 -46 19.5 -69.5t54.5 -23.5t52.5 24t17.5 61z" />
    <glyph glyph-name="ebreve" unicode="&#x115;" horiz-adv-x="514" 
d="M483 251l-54 -37l-276 -8q11 -127 136 -127q88 0 173 63l-3 -104q-86 -56 -183 -56q-116 0 -178 68.5t-62 171.5q0 113 67.5 187t176.5 74q101 0 152 -64.5t51 -167.5zM155 277l219 7q-12 108 -99 108q-49 0 -80.5 -32t-39.5 -83zM345 702l88 5q2 -78 -42 -123.5
t-121 -45.5q-70 0 -114.5 45t-44.5 115l90 12q0 -46 19.5 -69.5t54.5 -23.5t52.5 24t17.5 61z" />
    <glyph glyph-name="Edotaccent" unicode="&#x116;" horiz-adv-x="558" 
d="M528 105q-5 -46 -7 -109q-77 5 -211 5q-141 0 -220 -5q7 67 7 245v221q0 180 -7 247q105 -5 211 -5q102 0 207 5q-6 -45 -8 -108q-114 2 -183 2q-63 0 -92 -1q-1 -17 -1 -56v-130l237 2q-3 -44 -3 -102l-234 2v-158q0 -40 1 -57q15 0 46 -0.5t46 -0.5q112 0 211 3z
M377 855q0 -30 -20 -50.5t-51 -20.5q-30 0 -49 19t-19 47q0 30 20 50.5t51 20.5q29 0 48.5 -19.5t19.5 -46.5z" />
    <glyph glyph-name="edotaccent" unicode="&#x117;" horiz-adv-x="514" 
d="M483 251l-54 -37l-276 -8q11 -127 136 -127q88 0 173 63l-3 -104q-86 -56 -183 -56q-116 0 -178 68.5t-62 171.5q0 113 67.5 187t176.5 74q101 0 152 -64.5t51 -167.5zM155 277l219 7q-12 108 -99 108q-49 0 -80.5 -32t-39.5 -83zM343 630q0 -30 -20 -50.5t-51 -20.5
q-30 0 -49 19.5t-19 46.5q0 30 20 50.5t51 20.5q29 0 48.5 -19.5t19.5 -46.5z" />
    <glyph glyph-name="Eogonek" unicode="&#x118;" horiz-adv-x="558" 
d="M528 105q-5 -46 -7 -109q-112 -56 -112 -106q0 -18 12 -29.5t34 -11.5q28 0 60 20l-4 -70q-36 -21 -83 -21q-50 0 -80.5 25t-30.5 67q1 69 109 130q-38 1 -116 1q-141 0 -220 -5q7 67 7 245v221q0 180 -7 247q105 -5 211 -5q102 0 207 5q-6 -45 -8 -108q-114 2 -183 2
q-63 0 -92 -1q-1 -17 -1 -56v-130l237 2q-3 -44 -3 -102l-234 2v-158q0 -40 1 -57q15 0 46 -0.5t46 -0.5q112 0 211 3z" />
    <glyph glyph-name="eogonek" unicode="&#x119;" horiz-adv-x="514" 
d="M462 142l-3 -104q-148 -86 -148 -148q0 -18 12 -29.5t34 -11.5q28 0 60 20l-4 -70q-36 -21 -83 -21q-50 0 -80.5 25t-30.5 67q0 58 70 112h-13q-116 0 -178 68.5t-62 171.5q0 113 67.5 187t176.5 74q101 0 152 -64.5t51 -167.5l-54 -37l-276 -8q11 -127 136 -127
q88 0 173 63zM155 277l219 7q-12 108 -99 108q-49 0 -80.5 -32t-39.5 -83z" />
    <glyph glyph-name="Ecaron" unicode="&#x11a;" horiz-adv-x="558" 
d="M368 770h-126l-104 155l82 6l86 -88l82 83h89zM528 105q-5 -46 -7 -109q-77 5 -211 5q-141 0 -220 -5q7 67 7 245v221q0 180 -7 247q105 -5 211 -5q102 0 207 5q-6 -45 -8 -108q-114 2 -183 2q-63 0 -92 -1q-1 -17 -1 -56v-130l237 2q-3 -44 -3 -102l-234 2v-158
q0 -40 1 -57q15 0 46 -0.5t46 -0.5q112 0 211 3z" />
    <glyph glyph-name="ecaron" unicode="&#x11b;" horiz-adv-x="514" 
d="M334 545h-126l-104 155l82 6l86 -88l82 83h89zM483 251l-54 -37l-276 -8q11 -127 136 -127q88 0 173 63l-3 -104q-86 -56 -183 -56q-116 0 -178 68.5t-62 171.5q0 113 67.5 187t176.5 74q101 0 152 -64.5t51 -167.5zM155 277l219 7q-12 108 -99 108q-49 0 -80.5 -32
t-39.5 -83z" />
    <glyph glyph-name="Gbreve" unicode="&#x11e;" horiz-adv-x="739" 
d="M671 56q-114 -73 -257 -73q-159 0 -262.5 102.5t-103.5 254.5q0 161 110 270.5t275 109.5q61 0 124 -18.5t105 -46.5l-34 -109q-35 28 -91 45.5t-110 17.5q-113 0 -182 -72.5t-69 -186.5q0 -120 72 -189.5t178 -69.5q72 0 127 26v106q0 42 -2 59q-31 1 -54 1
q-49 0 -122 -3q3 70 1 105q92 -3 136 -3q82 0 166 4q-7 -55 -7 -243v-87zM480 935l88 5q2 -78 -42 -123.5t-121 -45.5q-70 0 -114.5 45t-44.5 115l90 12q0 -46 19.5 -69.5t54.5 -23.5t52.5 24t17.5 61z" />
    <glyph glyph-name="gbreve" unicode="&#x11f;" horiz-adv-x="494" 
d="M450 314q0 -80 -59 -130.5t-149 -50.5q-35 0 -65 9q-31 -19 -31 -37q0 -17 22.5 -24.5t85.5 -7.5h21q211 0 211 -121q0 -74 -76 -127t-193 -53q-98 0 -152 33.5t-54 85.5q0 73 98 115q-57 27 -57 72q0 50 68 89q-70 48 -70 131q0 78 59 131.5t148 53.5q46 0 82 -15
q30 90 141 77l-5 -94q-57 6 -82 -16q57 -51 57 -121zM322 702l88 5q2 -78 -42 -123.5t-121 -45.5q-70 0 -114.5 45t-44.5 115l90 12q0 -46 19.5 -69.5t53.5 -23.5q35 0 53 24t18 61zM249 -19q-27 0 -63 2q-73 -31 -73 -74q0 -24 28.5 -41t83.5 -17q67 0 109.5 23.5
t42.5 56.5q0 49 -112 49zM340 304q0 45 -23.5 70t-63.5 25t-66 -27t-26 -65q0 -46 24 -70.5t64 -24.5q41 0 66 26t25 66z" />
    <glyph glyph-name="Gdotaccent" unicode="&#x120;" horiz-adv-x="739" 
d="M671 56q-114 -73 -257 -73q-159 0 -262.5 102.5t-103.5 254.5q0 161 110 270.5t275 109.5q61 0 124 -18.5t105 -46.5l-34 -109q-35 28 -91 45.5t-110 17.5q-113 0 -182 -72.5t-69 -186.5q0 -120 72 -189.5t178 -69.5q72 0 127 26v106q0 42 -2 59q-31 1 -54 1
q-49 0 -122 -3q3 70 1 105q92 -3 136 -3q82 0 166 4q-7 -55 -7 -243v-87zM478 863q0 -30 -20 -50.5t-51 -20.5q-29 0 -48.5 19t-19.5 47q0 30 20 50.5t51 20.5q29 0 48.5 -19.5t19.5 -46.5z" />
    <glyph glyph-name="gdotaccent" unicode="&#x121;" horiz-adv-x="494" 
d="M450 314q0 -80 -59 -130.5t-149 -50.5q-35 0 -65 9q-31 -19 -31 -37q0 -17 22.5 -24.5t85.5 -7.5h21q211 0 211 -121q0 -74 -76 -127t-193 -53q-98 0 -152 33.5t-54 85.5q0 73 98 115q-57 27 -57 72q0 50 68 89q-70 48 -70 131q0 78 59 131.5t148 53.5q43 0 79 -14
q29 99 144 86l-5 -94q-63 8 -88 -22q63 -51 63 -125zM249 -19q-27 0 -63 2q-73 -31 -73 -74q0 -24 28.5 -41t83.5 -17q67 0 109.5 23.5t42.5 56.5q0 49 -112 49zM340 304q0 45 -23.5 70t-63.5 25t-66 -27t-26 -65q0 -46 24 -70.5t64 -24.5q41 0 66 26t25 66zM327 630
q0 -30 -20 -50.5t-51 -20.5q-30 0 -49 19.5t-19 46.5q0 30 20 50.5t51 20.5q29 0 48.5 -19.5t19.5 -46.5z" />
    <glyph glyph-name="Gcommaaccent" unicode="&#x122;" horiz-adv-x="739" 
d="M671 56q-114 -73 -257 -73q-159 0 -262.5 102.5t-103.5 254.5q0 161 110 270.5t275 109.5q61 0 124 -18.5t105 -46.5l-34 -109q-35 28 -91 45.5t-110 17.5q-113 0 -182 -72.5t-69 -186.5q0 -120 72 -189.5t178 -69.5q72 0 127 26v106q0 42 -2 59q-31 1 -54 1
q-49 0 -122 -3q3 70 1 105q92 -3 136 -3q82 0 166 4q-7 -55 -7 -243v-87zM322 -237l25 17q37 26 37 58q0 23 -32 42l-14 7q7 28 26.5 43t43.5 15q28 0 46.5 -19t18.5 -49q0 -78 -125 -145z" />
    <glyph glyph-name="gcommaaccent" unicode="&#x123;" horiz-adv-x="494" 
d="M450 314q0 -80 -59 -130.5t-149 -50.5q-35 0 -65 9q-31 -19 -31 -37q0 -17 22.5 -24.5t85.5 -7.5h21q211 0 211 -121q0 -74 -76 -127t-193 -53q-98 0 -152 33.5t-54 85.5q0 73 98 115q-57 27 -57 72q0 50 68 89q-70 48 -70 131q0 78 59 131.5t148 53.5q43 0 79 -14
q29 99 144 86l-5 -94q-63 8 -88 -22q63 -51 63 -125zM249 -19q-27 0 -63 2q-73 -31 -73 -74q0 -24 28.5 -41t83.5 -17q67 0 109.5 23.5t42.5 56.5q0 49 -112 49zM340 304q0 45 -23.5 70t-63.5 25t-66 -27t-26 -65q0 -46 24 -70.5t64 -24.5q41 0 66 26t25 66zM338 741
l-24 -16q-37 -27 -37 -58q0 -25 32 -42l13 -8q-7 -28 -26.5 -43t-43.5 -15q-27 0 -45.5 19t-18.5 50q0 78 124 145z" />
    <glyph glyph-name="Hbar" unicode="&#x126;" horiz-adv-x="784" 
d="M693 0h-143q8 61 8 227v74h-332v-163q0 -102 4 -138h-141q7 67 7 241v222v36q-54 -2 -79 -2q3 35 3 86l74 -2q-2 78 -5 122q100 0 141 5q-4 -33 -4 -128h167h163q-2 86 -6 123q100 0 143 5q-6 -37 -6 -127l81 2q-5 -43 -5 -86q-13 0 -38.5 0.5t-37.5 0.5l1 -354
q0 -109 5 -144zM477 504h-251v-107h332v69v37q-14 0 -41.5 0.5t-39.5 0.5z" />
    <glyph glyph-name="hbar" unicode="&#x127;" horiz-adv-x="565" 
d="M504 0h-131q7 60 7 170v116q0 98 -72 98q-46 0 -83 -35.5t-38 -78.5v-172q0 -63 4 -98h-130q6 64 6 165v374q-50 -2 -70 -2q3 31 3 84q44 -2 66 -2q-1 42 -5 91q96 8 130 15q-4 -31 -4 -107q75 0 141 3q-5 -38 -5 -84q-84 2 -120 2h-16v-158q28 47 74.5 74.5t92.5 27.5
q73 0 109.5 -44t36.5 -124v-212q0 -51 4 -103z" />
    <glyph glyph-name="Imacron" unicode="&#x12a;" horiz-adv-x="328" 
d="M232 0h-139q7 67 7 241v221q0 174 -7 241q98 0 139 5q-4 -39 -4 -148v-416q0 -107 4 -144zM326 893q-5 -42 -5 -89q-84 2 -116 2h-90q-42 0 -114 -2q4 42 4 89q79 -3 161 -3t160 3z" />
    <glyph glyph-name="imacron" unicode="&#x12b;" horiz-adv-x="254" 
d="M191 0h-131q7 60 7 164v134q0 110 -7 170q61 0 131 7q-4 -35 -4 -107v-271q0 -62 4 -97zM288 668q-5 -42 -5 -89q-84 2 -116 2h-90q-42 0 -114 -2q4 42 4 89q79 -3 161 -3t160 3z" />
    <glyph glyph-name="Ibreve" unicode="&#x12c;" horiz-adv-x="328" 
d="M232 0h-139q7 67 7 241v221q0 174 -7 241q98 0 139 5q-4 -39 -4 -148v-416q0 -107 4 -144zM235 927l88 5q2 -78 -42 -123.5t-121 -45.5q-70 0 -114.5 45t-44.5 115l90 12q0 -46 19.5 -69.5t54.5 -23.5t52.5 24t17.5 61z" />
    <glyph glyph-name="ibreve" unicode="&#x12d;" horiz-adv-x="254" 
d="M191 0h-131q7 60 7 164v134q0 110 -7 170q61 0 131 7q-4 -35 -4 -107v-271q0 -62 4 -97zM198 702l88 5q2 -78 -42 -123.5t-121 -45.5q-70 0 -114.5 45t-44.5 115l90 12q0 -46 19.5 -69.5t54.5 -23.5t52.5 24t17.5 61z" />
    <glyph glyph-name="Iogonek" unicode="&#x12e;" horiz-adv-x="329" 
d="M47 -130q1 71 94 130h-48q7 67 7 241v221q0 174 -7 241q98 0 139 5q-4 -39 -4 -148v-416q0 -112 3 -142l3 -2q-95 -56 -95 -110q0 -18 12 -29.5t34 -11.5q28 0 60 20l-4 -70q-36 -21 -83 -21q-50 0 -80.5 25t-30.5 67z" />
    <glyph glyph-name="iogonek" unicode="&#x12f;" horiz-adv-x="254" 
d="M191 0q-91 -57 -91 -110q0 -18 12 -29.5t34 -11.5q28 0 60 20l-4 -70q-36 -21 -83 -21q-50 0 -80.5 25t-30.5 67q1 69 89 130h-37q7 60 7 164v134q0 110 -7 170q61 0 131 7q-4 -35 -4 -107v-271q0 -62 4 -97zM205 640q0 -31 -21.5 -52.5t-53.5 -21.5q-31 0 -51.5 20.5
t-20.5 48.5q0 31 21.5 52.5t53.5 21.5q30 0 51 -20.5t21 -48.5z" />
    <glyph glyph-name="Idotaccent" unicode="&#x130;" horiz-adv-x="328" 
d="M232 0h-139q7 67 7 241v221q0 174 -7 241q98 0 139 5q-4 -39 -4 -148v-416q0 -107 4 -144zM232 855q0 -30 -20 -50.5t-51 -20.5q-29 0 -48.5 19t-19.5 47q0 30 20 50.5t51 20.5q29 0 48.5 -19.5t19.5 -46.5z" />
    <glyph glyph-name="dotlessi" unicode="&#x131;" horiz-adv-x="254" 
d="M191 0h-131q7 60 7 164v134q0 110 -7 170q61 0 131 7q-4 -35 -4 -107v-271q0 -62 4 -97z" />
    <glyph glyph-name="Kcommaaccent" unicode="&#x136;" horiz-adv-x="674" 
d="M519 -9l-294 345v-192q0 -107 4 -144h-139q7 67 7 241v221q0 174 -7 241q98 0 139 5q-4 -39 -4 -148v-179l118 137l159 187h156l-308 -337l154 -177l168 -190zM290 -234l25 17q37 26 37 58q0 23 -32 42l-14 7q7 28 26.5 43t43.5 15q28 0 46.5 -19t18.5 -49
q0 -78 -125 -145z" />
    <glyph glyph-name="kcommaaccent" unicode="&#x137;" horiz-adv-x="499" 
d="M372 -12l-185 235v-125q0 -65 4 -98h-131q7 60 7 165v382q0 103 -7 163q96 8 131 15q-4 -35 -4 -121v-337l159 207q89 0 141 4l-189 -224l43 -52q22 -25 81.5 -99t79.5 -95zM181 -234l25 17q37 26 37 58q0 23 -32 42l-14 7q7 28 26.5 43t43.5 15q28 0 46.5 -19t18.5 -49
q0 -78 -125 -145z" />
    <glyph glyph-name="Lacute" unicode="&#x139;" horiz-adv-x="543" 
d="M219 907l158 9l-163 -154l-84 -5zM526 107q-7 -59 -8 -111q-78 5 -212 5q-137 0 -216 -5q7 67 7 245v221q0 174 -7 241q98 0 139 5q-4 -39 -4 -148v-395q0 -41 2 -59q27 -1 86 -1q81 0 213 2z" />
    <glyph glyph-name="lacute" unicode="&#x13a;" horiz-adv-x="254" 
d="M149 920l158 9l-163 -154l-84 -5zM191 0h-131q7 60 7 165v382q0 103 -7 163q96 8 131 15q-4 -35 -4 -120v-507q0 -63 4 -98z" />
    <glyph glyph-name="Lcommaaccent" unicode="&#x13b;" horiz-adv-x="543" 
d="M218 -234l25 17q37 26 37 58q0 23 -32 42l-14 7q7 28 26.5 43t43.5 15q28 0 46.5 -19t18.5 -49q0 -78 -125 -145zM526 107q-7 -59 -8 -111q-78 5 -212 5q-137 0 -216 -5q7 67 7 245v221q0 174 -7 241q98 0 139 5q-4 -39 -4 -148v-395q0 -41 2 -59q27 -1 86 -1q81 0 213 2
z" />
    <glyph glyph-name="lcommaaccent" unicode="&#x13c;" horiz-adv-x="254" 
d="M36 -234l25 17q37 26 37 58q0 23 -32 42l-14 7q7 28 26.5 43t43.5 15q28 0 46.5 -19t18.5 -49q0 -78 -125 -145zM191 0h-131q7 60 7 165v382q0 103 -7 163q96 8 131 15q-4 -35 -4 -120v-507q0 -63 4 -98z" />
    <glyph glyph-name="Lcaron" unicode="&#x13d;" horiz-adv-x="543" 
d="M361 530l-49 -9q6 93 6 176q15 2 48 5.5t40 4.5q-28 -121 -45 -177zM526 107q-7 -59 -8 -111q-78 5 -212 5q-137 0 -216 -5q7 67 7 245v221q0 174 -7 241q98 0 139 5q-4 -39 -4 -148v-395q0 -41 2 -59q27 -1 86 -1q81 0 213 2z" />
    <glyph glyph-name="lcaron" unicode="&#x13e;" horiz-adv-x="254" 
d="M287 547l-49 -9q6 93 6 176q15 2 48 5.5t40 4.5q-28 -121 -45 -177zM191 0h-131q7 60 7 165v382q0 103 -7 163q96 8 131 15q-4 -35 -4 -120v-507q0 -63 4 -98z" />
    <glyph glyph-name="Ldot" unicode="&#x13f;" horiz-adv-x="543" 
d="M526 107q-7 -59 -8 -111q-78 5 -212 5q-137 0 -216 -5q7 67 7 245v221q0 174 -7 241q98 0 139 5q-4 -39 -4 -148v-395q0 -41 2 -59q27 -1 86 -1q81 0 213 2zM498 388q0 -30 -20 -50.5t-51 -20.5q-29 0 -48.5 19.5t-19.5 46.5q0 30 20 50.5t51 20.5q29 0 48.5 -19.5
t19.5 -46.5z" />
    <glyph glyph-name="ldot" unicode="&#x140;" horiz-adv-x="386" 
d="M191 0h-131q7 60 7 165v382q0 103 -7 163q96 8 131 15q-4 -35 -4 -120v-507q0 -63 4 -98zM385 352q0 -30 -20 -50.5t-51 -20.5q-30 0 -49 19.5t-19 46.5q0 30 20 50.5t51 20.5q29 0 48.5 -19.5t19.5 -46.5z" />
    <glyph glyph-name="Lslash" unicode="&#x141;" horiz-adv-x="543" 
d="M526 107q-7 -59 -8 -111q-78 5 -212 5q-137 0 -216 -5q7 67 7 245v40l-59 -36q-8 20 -41 84l100 55v78q0 174 -7 241q98 0 139 5q-4 -39 -4 -148v-111l107 64q14 -37 40 -84l-147 -81v-183q0 -41 2 -59q27 -1 86 -1q81 0 213 2z" />
    <glyph glyph-name="lslash" unicode="&#x142;" horiz-adv-x="263" 
d="M195 0h-131q7 60 7 165v125q-26 -12 -57 -31q-19 47 -36 80l93 46v162q0 103 -7 163q96 8 131 15q-4 -35 -4 -120v-163l61 35q15 -40 35 -81l-96 -50v-248q0 -63 4 -98z" />
    <glyph glyph-name="Nacute" unicode="&#x143;" horiz-adv-x="789" 
d="M83 0q8 67 11 241l3 236q2 156 -4 233l60 8l422 -497v241q0 177 -8 241q95 0 138 5q-5 -37 -8 -148l-4 -421q-3 -112 2 -147l-60 -8l-420 491v-331q0 -107 4 -144h-136zM425 915l158 9l-163 -154l-84 -5z" />
    <glyph glyph-name="nacute" unicode="&#x144;" horiz-adv-x="565" 
d="M317 690l158 9l-163 -154l-84 -5zM504 0h-131q7 60 7 170v116q0 98 -72 98q-45 0 -83 -36t-38 -78v-167q0 -68 4 -103h-130q6 64 6 170v129q0 103 -6 167q28 0 118 9l7 -95q29 48 75.5 75.5t92.5 27.5q73 0 109.5 -44t36.5 -124v-212q0 -51 4 -103z" />
    <glyph glyph-name="Ncommaaccent" unicode="&#x145;" horiz-adv-x="789" 
d="M83 0q8 67 11 241l3 236q2 156 -4 233l60 8l422 -497v241q0 177 -8 241q95 0 138 5q-5 -37 -8 -148l-4 -421q-3 -112 2 -147l-60 -8l-420 491v-331q0 -107 4 -144h-136zM305 -234l25 17q37 26 37 58q0 23 -32 42l-14 7q7 28 26.5 43t43.5 15q28 0 46.5 -19t18.5 -49
q0 -78 -125 -145z" />
    <glyph glyph-name="ncommaaccent" unicode="&#x146;" horiz-adv-x="565" 
d="M198 -234l25 17q37 26 37 58q0 23 -32 42l-14 7q7 28 26.5 43t43.5 15q28 0 46.5 -19t18.5 -49q0 -78 -125 -145zM504 0h-131q7 60 7 170v116q0 98 -72 98q-45 0 -83 -36t-38 -78v-167q0 -68 4 -103h-130q6 64 6 170v129q0 103 -6 167q28 0 118 9l7 -95q29 48 75.5 75.5
t92.5 27.5q73 0 109.5 -44t36.5 -124v-212q0 -51 4 -103z" />
    <glyph glyph-name="Ncaron" unicode="&#x147;" horiz-adv-x="789" 
d="M83 0q8 67 11 241l3 236q2 156 -4 233l60 8l422 -497v241q0 177 -8 241q95 0 138 5q-5 -37 -8 -148l-4 -421q-3 -112 2 -147l-60 -8l-420 491v-331q0 -107 4 -144h-136zM457 770h-126l-104 155l82 6l86 -88l82 83h89z" />
    <glyph glyph-name="ncaron" unicode="&#x148;" horiz-adv-x="565" 
d="M349 545h-126l-104 155l82 6l86 -88l82 83h89zM504 0h-131q7 60 7 170v116q0 98 -72 98q-45 0 -83 -36t-38 -78v-167q0 -68 4 -103h-130q6 64 6 170v129q0 103 -6 167q28 0 118 9l7 -95q29 48 75.5 75.5t92.5 27.5q73 0 109.5 -44t36.5 -124v-212q0 -51 4 -103z" />
    <glyph glyph-name="Omacron" unicode="&#x14c;" horiz-adv-x="803" 
d="M563 901q-5 -42 -5 -89q-84 2 -116 2h-90q-42 0 -114 -2q4 42 4 89q80 -3 161 -3q82 0 160 3zM400 86q100 0 163.5 77t63.5 187q0 121 -63 193.5t-161 72.5q-100 0 -163.5 -77t-63.5 -187q0 -122 62.5 -194t161.5 -72zM392 -18q-151 0 -247.5 102t-96.5 249
q0 166 101.5 276.5t261.5 110.5q151 0 247.5 -102t96.5 -249q0 -166 -101.5 -276.5t-261.5 -110.5z" />
    <glyph glyph-name="omacron" unicode="&#x14d;" horiz-adv-x="549" 
d="M437 668q-5 -42 -5 -89q-84 2 -116 2h-90q-42 0 -114 -2q4 42 4 89q80 -3 161 -3q82 0 160 3zM513 244q0 -113 -68 -187.5t-178 -74.5q-103 0 -167 69t-64 169q0 113 67.5 188t176.5 75q104 0 168.5 -69t64.5 -170zM395 231q0 76 -33 116t-86 40q-55 0 -89 -42t-34 -109
q0 -78 32 -118t87 -40q57 0 90 42t33 111z" />
    <glyph glyph-name="Obreve" unicode="&#x14e;" horiz-adv-x="803" 
d="M400 86q100 0 163.5 77t63.5 187q0 121 -63 193.5t-161 72.5q-100 0 -163.5 -77t-63.5 -187q0 -122 62.5 -194t161.5 -72zM392 -18q-151 0 -247.5 102t-96.5 249q0 166 101.5 276.5t261.5 110.5q151 0 247.5 -102t96.5 -249q0 -166 -101.5 -276.5t-261.5 -110.5zM473 935
l88 5q2 -78 -42 -123.5t-121 -45.5q-70 0 -114.5 45t-44.5 115l90 12q0 -46 19.5 -69.5t54.5 -23.5t52.5 24t17.5 61z" />
    <glyph glyph-name="obreve" unicode="&#x14f;" horiz-adv-x="549" 
d="M513 244q0 -113 -68 -187.5t-178 -74.5q-103 0 -167 69t-64 169q0 113 67.5 188t176.5 75q104 0 168.5 -69t64.5 -170zM395 231q0 76 -33 116t-86 40q-55 0 -89 -42t-34 -109q0 -78 32 -118t87 -40q57 0 90 42t33 111zM346 702l88 5q2 -78 -42 -123.5t-121 -45.5
q-70 0 -114.5 45t-44.5 115l90 12q0 -46 19.5 -69.5t54.5 -23.5t52.5 24t17.5 61z" />
    <glyph glyph-name="Ohungarumlaut" unicode="&#x150;" horiz-adv-x="803" 
d="M320 928l135 8l-97 -159l-82 -3zM499 930l139 10l-111 -161l-82 -3zM400 86q100 0 163.5 77t63.5 187q0 121 -63 193.5t-161 72.5q-100 0 -163.5 -77t-63.5 -187q0 -122 62.5 -194t161.5 -72zM392 -18q-151 0 -247.5 102t-96.5 249q0 166 101.5 276.5t261.5 110.5
q151 0 247.5 -102t96.5 -249q0 -166 -101.5 -276.5t-261.5 -110.5z" />
    <glyph glyph-name="ohungarumlaut" unicode="&#x151;" horiz-adv-x="549" 
d="M194 695l135 8l-97 -159l-82 -3zM373 697l139 10l-111 -161l-82 -3zM513 244q0 -113 -68 -187.5t-178 -74.5q-103 0 -167 69t-64 169q0 113 67.5 188t176.5 75q104 0 168.5 -69t64.5 -170zM395 231q0 76 -33 116t-86 40q-55 0 -89 -42t-34 -109q0 -78 32 -118t87 -40
q57 0 90 42t33 111z" />
    <glyph glyph-name="OE" unicode="&#x152;" horiz-adv-x="949" 
d="M413 -2q-155 0 -260 98.5t-105 245.5q0 162 107.5 263t266.5 101q29 0 130.5 -1t139.5 -1q102 0 207 5q-6 -45 -8 -109q-112 2 -183 2q-61 0 -90 -1q-2 -17 -2 -55v-130l236 2q-3 -45 -3 -102l-233 2v-158q0 -39 2 -56q14 0 44.5 -0.5t45.5 -0.5q114 0 211 3
q-5 -48 -7 -110q-78 5 -212 5q-37 0 -147.5 -1.5t-139.5 -1.5zM414 106q51 0 71 2q3 64 3 124v242q0 78 -2 121q-23 3 -60 3q-113 0 -180.5 -66t-67.5 -170q0 -117 66 -186.5t170 -69.5z" />
    <glyph glyph-name="oe" unicode="&#x153;" horiz-adv-x="873" 
d="M842 251l-54 -37l-275 -8q9 -127 135 -127q87 0 174 63l-4 -104q-86 -56 -182 -56q-127 0 -190 88q-64 -88 -181 -88q-103 0 -166 69t-63 169q0 114 66.5 188.5t175.5 74.5q114 0 177 -90q67 90 184 90q101 0 152 -64.5t51 -167.5zM391 231q0 76 -32.5 116t-84.5 40
q-55 0 -88 -42t-33 -109q0 -78 31 -118t86 -40q57 0 89 42t32 111zM514 277l219 7q-12 108 -99 108q-49 0 -80 -32t-40 -83z" />
    <glyph glyph-name="Racute" unicode="&#x154;" horiz-adv-x="652" 
d="M635 6l-147 -14l-168 270h-96v-118q0 -102 3 -144h-138q7 67 7 241v221q0 174 -7 241q21 0 106 2.5t94 2.5q136 1 212 -58t74 -150q-3 -139 -143 -206l108 -157zM223 359h91q61 0 97.5 35t36.5 88q0 122 -147 122q-42 0 -78 -3v-242zM340 915l158 9l-163 -154l-84 -5z
" />
    <glyph glyph-name="racute" unicode="&#x155;" horiz-adv-x="364" 
d="M233 690l158 9l-163 -154l-84 -5zM352 483l-12 -126q-58 9 -105.5 -16.5t-47.5 -79.5v-158q0 -68 4 -103h-130q6 52 6 170v144q0 85 -9 147q55 2 119 15l9 -100q51 94 166 107z" />
    <glyph glyph-name="Rcommaaccent" unicode="&#x156;" horiz-adv-x="652" 
d="M635 6l-147 -14l-168 270h-96v-118q0 -102 3 -144h-138q7 67 7 241v221q0 174 -7 241q21 0 106 2.5t94 2.5q136 1 212 -58t74 -150q-3 -139 -143 -206l108 -157zM223 359h91q61 0 97.5 35t36.5 88q0 122 -147 122q-42 0 -78 -3v-242zM249 -234l25 17q37 26 37 58
q0 23 -32 42l-14 7q7 28 26.5 43t43.5 15q28 0 46.5 -19t18.5 -49q0 -78 -125 -145z" />
    <glyph glyph-name="rcommaaccent" unicode="&#x157;" horiz-adv-x="364" 
d="M42 -234l25 17q37 26 37 58q0 23 -32 42l-14 7q7 28 26.5 43t43.5 15q28 0 46.5 -19t18.5 -49q0 -78 -125 -145zM352 483l-12 -126q-58 9 -105.5 -16.5t-47.5 -79.5v-158q0 -68 4 -103h-130q6 52 6 170v144q0 85 -9 147q55 2 119 15l9 -100q51 94 166 107z" />
    <glyph glyph-name="Rcaron" unicode="&#x158;" horiz-adv-x="652" 
d="M635 6l-147 -14l-168 270h-96v-118q0 -102 3 -144h-138q7 67 7 241v221q0 174 -7 241q21 0 106 2.5t94 2.5q136 1 212 -58t74 -150q-3 -139 -143 -206l108 -157zM223 359h91q61 0 97.5 35t36.5 88q0 122 -147 122q-42 0 -78 -3v-242zM373 770h-126l-104 155l82 6l86 -88
l82 83h89z" />
    <glyph glyph-name="rcaron" unicode="&#x159;" horiz-adv-x="364" 
d="M266 545h-126l-104 155l82 6l86 -88l82 83h89zM352 483l-12 -126q-58 9 -105.5 -16.5t-47.5 -79.5v-158q0 -68 4 -103h-130q6 52 6 170v144q0 85 -9 147q55 2 119 15l9 -100q51 94 166 107z" />
    <glyph glyph-name="Sacute" unicode="&#x15a;" horiz-adv-x="539" 
d="M324 923l158 9l-163 -154l-84 -5zM494 200q0 -96 -66 -157t-175 -61q-51 0 -109 17t-99 42l6 125q35 -30 93.5 -53t113.5 -23q51 0 81.5 25.5t30.5 72.5q0 34 -31 62.5t-75.5 51.5t-88.5 49.5t-75 67.5t-31 93q0 91 64 149.5t165 58.5q102 0 176 -52l-32 -105
q-69 49 -143 49q-47 0 -76 -24.5t-29 -64.5q0 -31 31 -58t75 -49t88 -48.5t75 -69.5t31 -98z" />
    <glyph glyph-name="sacute" unicode="&#x15b;" horiz-adv-x="430" 
d="M261 690l158 9l-163 -154l-84 -5zM229 483q88 0 151 -36l-31 -93q-54 36 -115 36q-72 0 -72 -49q0 -18 24.5 -32t59 -26t69.5 -28t59.5 -45.5t24.5 -70.5q0 -72 -54.5 -114.5t-138.5 -42.5q-42 0 -91 11.5t-77 29.5l5 106q78 -54 163 -54q36 0 57.5 13t21.5 37
q0 22 -24.5 37.5t-59 27.5t-69 27.5t-59 45.5t-24.5 72q0 63 50 105.5t130 42.5z" />
    <glyph glyph-name="Scedilla" unicode="&#x15e;" horiz-adv-x="539" 
d="M494 200q0 -88 -56 -147t-151 -69l-13 -48q104 -27 104 -95q0 -38 -31 -63.5t-86 -25.5q-43 0 -91 15l15 63q44 -14 79 -14q37 0 37 24q0 29 -92 48l-4 4q4 13 25 91q-107 8 -185 58l6 125q35 -30 93.5 -53t113.5 -23q51 0 81.5 25.5t30.5 72.5q0 34 -31 62.5t-75.5 51.5
t-88.5 49.5t-75 67.5t-31 93q0 91 64 149.5t165 58.5q102 0 176 -52l-32 -105q-69 49 -143 49q-47 0 -76 -24.5t-29 -64.5q0 -31 31 -58t75 -49t88 -48.5t75 -69.5t31 -98z" />
    <glyph glyph-name="scedilla" unicode="&#x15f;" horiz-adv-x="430" 
d="M229 483q88 0 151 -36l-31 -93q-54 36 -115 36q-72 0 -72 -49q0 -18 24.5 -32t59 -26t69.5 -28t59.5 -45.5t24.5 -70.5q0 -64 -43.5 -105t-114.5 -50l-13 -48q104 -27 104 -95q0 -38 -31 -63.5t-86 -25.5q-43 0 -91 15l15 63q44 -14 79 -14q37 0 37 24q0 29 -92 48l-4 4
q4 13 25 91q-93 5 -146 40l5 106q78 -54 163 -54q36 0 57.5 13t21.5 37q0 22 -24.5 37.5t-59 27.5t-69 27.5t-59 45.5t-24.5 72q0 63 50 105.5t130 42.5z" />
    <glyph glyph-name="Scaron" unicode="&#x160;" horiz-adv-x="539" 
d="M356 778h-126l-104 155l82 6l86 -88l82 83h89zM494 200q0 -96 -66 -157t-175 -61q-51 0 -109 17t-99 42l6 125q35 -30 93.5 -53t113.5 -23q51 0 81.5 25.5t30.5 72.5q0 34 -31 62.5t-75.5 51.5t-88.5 49.5t-75 67.5t-31 93q0 91 64 149.5t165 58.5q102 0 176 -52
l-32 -105q-69 49 -143 49q-47 0 -76 -24.5t-29 -64.5q0 -31 31 -58t75 -49t88 -48.5t75 -69.5t31 -98z" />
    <glyph glyph-name="scaron" unicode="&#x161;" horiz-adv-x="430" 
d="M293 545h-126l-104 155l82 6l86 -88l82 83h89zM229 483q88 0 151 -36l-31 -93q-54 36 -115 36q-72 0 -72 -49q0 -18 24.5 -32t59 -26t69.5 -28t59.5 -45.5t24.5 -70.5q0 -72 -54.5 -114.5t-138.5 -42.5q-42 0 -91 11.5t-77 29.5l5 106q78 -54 163 -54q36 0 57.5 13
t21.5 37q0 22 -24.5 37.5t-59 27.5t-69 27.5t-59 45.5t-24.5 72q0 63 50 105.5t130 42.5z" />
    <glyph glyph-name="Tcommaaccent" unicode="&#x162;" horiz-adv-x="651" 
d="M235 -234l25 17q37 26 37 58q0 23 -32 42l-14 7q7 28 26.5 43t43.5 15q28 0 46.5 -19t18.5 -49q0 -78 -125 -145zM623 709q-6 -46 -8 -113q-148 2 -226 2q-1 -21 -1 -64v-390q0 -107 4 -144h-139q7 67 7 241v197q0 106 -2 160q-82 0 -230 -2q4 44 4 113q153 -5 292 -5
q142 0 299 5z" />
    <glyph glyph-name="Tcommaaccent" unicode="&#x21a;" horiz-adv-x="651" 
d="M235 -234l25 17q37 26 37 58q0 23 -32 42l-14 7q7 28 26.5 43t43.5 15q28 0 46.5 -19t18.5 -49q0 -78 -125 -145zM623 709q-6 -46 -8 -113q-148 2 -226 2q-1 -21 -1 -64v-390q0 -107 4 -144h-139q7 67 7 241v197q0 106 -2 160q-82 0 -230 -2q4 44 4 113q153 -5 292 -5
q142 0 299 5z" />
    <glyph glyph-name="tcommaaccent" unicode="&#x163;" horiz-adv-x="368" 
d="M138 -234l25 17q37 26 37 58q0 23 -32 42l-14 7q7 28 26.5 43t43.5 15q28 0 46.5 -19t18.5 -49q0 -78 -125 -145zM340 107l-3 -95q-40 -27 -101 -27q-71 0 -105.5 36.5t-34.5 113.5v244h-83l24 93h60l9 98l110 34v-132h123q-3 -33 -3 -93h-120v-234q0 -34 12.5 -47.5
t38.5 -13.5q38 0 73 23z" />
    <glyph glyph-name="tcommaaccent" unicode="&#x21b;" horiz-adv-x="368" 
d="M138 -234l25 17q37 26 37 58q0 23 -32 42l-14 7q7 28 26.5 43t43.5 15q28 0 46.5 -19t18.5 -49q0 -78 -125 -145zM340 107l-3 -95q-40 -27 -101 -27q-71 0 -105.5 36.5t-34.5 113.5v244h-83l24 93h60l9 98l110 34v-132h123q-3 -33 -3 -93h-120v-234q0 -34 12.5 -47.5
t38.5 -13.5q38 0 73 23z" />
    <glyph glyph-name="Tcaron" unicode="&#x164;" horiz-adv-x="651" 
d="M387 770h-126l-104 155l82 6l86 -88l82 83h89zM623 709q-6 -46 -8 -113q-148 2 -226 2q-1 -21 -1 -64v-390q0 -107 4 -144h-139q7 67 7 241v197q0 106 -2 160q-82 0 -230 -2q4 44 4 113q153 -5 292 -5q142 0 299 5z" />
    <glyph glyph-name="tcaron" unicode="&#x165;" horiz-adv-x="368" 
d="M325 553l-49 -9q6 93 6 176q15 2 48 5.5t40 4.5q-28 -121 -45 -177zM343 107l-3 -95q-40 -27 -101 -27q-71 0 -105.5 36.5t-34.5 113.5v244h-83l24 93h60l9 98l110 34v-132h123q-3 -33 -3 -93h-120v-234q0 -34 12.5 -47.5t38.5 -13.5q38 0 73 23z" />
    <glyph glyph-name="Umacron" unicode="&#x16a;" horiz-adv-x="764" 
d="M682 708q-5 -36 -5 -148v-263q0 -84 -19.5 -138t-61.5 -94q-83 -83 -227 -83q-127 0 -204.5 70.5t-77.5 193.5v216q0 174 -7 241q98 0 139 5q-4 -39 -4 -148v-281q0 -188 171 -188q78 0 120.5 44.5t42.5 124.5v202q0 177 -8 241q99 0 141 5zM543 893q-5 -42 -5 -89
q-84 2 -116 2h-90q-42 0 -114 -2q4 42 4 89q80 -3 161 -3q82 0 160 3z" />
    <glyph glyph-name="umacron" unicode="&#x16b;" horiz-adv-x="565" 
d="M505 0h-111l-13 77q-27 -44 -71 -69.5t-85 -25.5q-160 0 -160 181v136q0 102 -6 168q74 0 131 6q-5 -33 -5 -109v-175q0 -55 19 -81.5t65 -26.5q36 0 72.5 31.5t36.5 71.5v115q0 102 -6 168q73 0 132 6q-6 -39 -6 -109v-198q0 -103 7 -166zM445 668q-5 -42 -5 -89
q-84 2 -116 2h-90q-42 0 -114 -2q4 42 4 89q80 -3 161 -3q82 0 160 3z" />
    <glyph glyph-name="Ubreve" unicode="&#x16c;" horiz-adv-x="764" 
d="M682 708q-5 -36 -5 -148v-263q0 -84 -19.5 -138t-61.5 -94q-83 -83 -227 -83q-127 0 -204.5 70.5t-77.5 193.5v216q0 174 -7 241q98 0 139 5q-4 -39 -4 -148v-281q0 -188 171 -188q78 0 120.5 44.5t42.5 124.5v202q0 177 -8 241q99 0 141 5zM453 927l88 5
q2 -78 -42 -123.5t-121 -45.5q-70 0 -114.5 45t-44.5 115l90 12q0 -46 19.5 -69.5t54.5 -23.5t52.5 24t17.5 61z" />
    <glyph glyph-name="ubreve" unicode="&#x16d;" horiz-adv-x="565" 
d="M505 0h-111l-13 77q-27 -44 -71 -69.5t-85 -25.5q-160 0 -160 181v136q0 102 -6 168q74 0 131 6q-5 -33 -5 -109v-175q0 -55 19 -81.5t65 -26.5q36 0 72.5 31.5t36.5 71.5v115q0 102 -6 168q73 0 132 6q-6 -39 -6 -109v-198q0 -103 7 -166zM354 702l88 5
q2 -78 -42 -123.5t-121 -45.5q-70 0 -114.5 45t-44.5 115l90 12q0 -46 19.5 -69.5t54.5 -23.5t52.5 24t17.5 61z" />
    <glyph glyph-name="Uring" unicode="&#x16e;" horiz-adv-x="764" 
d="M509 888q0 -52 -36.5 -88.5t-94.5 -36.5q-56 0 -90.5 33t-34.5 80q0 53 36.5 88t94.5 35q56 0 90.5 -32t34.5 -79zM436 882q0 25 -14.5 40.5t-40.5 15.5q-25 0 -40 -16t-15 -39q0 -26 15 -42t39 -16q26 0 41 16.5t15 40.5zM682 708q-5 -36 -5 -148v-263q0 -84 -19.5 -138
t-61.5 -94q-83 -83 -227 -83q-127 0 -204.5 70.5t-77.5 193.5v216q0 174 -7 241q98 0 139 5q-4 -39 -4 -148v-281q0 -188 171 -188q78 0 120.5 44.5t42.5 124.5v202q0 177 -8 241q99 0 141 5z" />
    <glyph glyph-name="uring" unicode="&#x16f;" horiz-adv-x="565" 
d="M410 663q0 -52 -36.5 -88.5t-94.5 -36.5q-56 0 -90.5 33t-34.5 80q0 53 36.5 88t94.5 35q56 0 90.5 -32t34.5 -79zM337 657q0 25 -14.5 40.5t-40.5 15.5q-25 0 -40 -16t-15 -39q0 -26 15 -42t39 -16q26 0 41 16.5t15 40.5zM505 0h-111l-13 77q-27 -44 -71 -69.5
t-85 -25.5q-160 0 -160 181v136q0 102 -6 168q74 0 131 6q-5 -33 -5 -109v-175q0 -55 19 -81.5t65 -26.5q36 0 72.5 31.5t36.5 71.5v115q0 102 -6 168q73 0 132 6q-6 -39 -6 -109v-198q0 -103 7 -166z" />
    <glyph glyph-name="Uhungarumlaut" unicode="&#x170;" horiz-adv-x="764" 
d="M682 708q-5 -36 -5 -148v-263q0 -84 -19.5 -138t-61.5 -94q-83 -83 -227 -83q-127 0 -204.5 70.5t-77.5 193.5v216q0 174 -7 241q98 0 139 5q-4 -39 -4 -148v-281q0 -188 171 -188q78 0 120.5 44.5t42.5 124.5v202q0 177 -8 241q99 0 141 5zM300 920l135 8l-97 -159
l-82 -3zM479 922l139 10l-111 -161l-82 -3z" />
    <glyph glyph-name="uhungarumlaut" unicode="&#x171;" horiz-adv-x="565" 
d="M505 0h-111l-13 77q-27 -44 -71 -69.5t-85 -25.5q-160 0 -160 181v136q0 102 -6 168q74 0 131 6q-5 -33 -5 -109v-175q0 -55 19 -81.5t65 -26.5q36 0 72.5 31.5t36.5 71.5v115q0 102 -6 168q73 0 132 6q-6 -39 -6 -109v-198q0 -103 7 -166zM202 695l135 8l-97 -159
l-82 -3zM381 697l139 10l-111 -161l-82 -3z" />
    <glyph glyph-name="Uogonek" unicode="&#x172;" horiz-adv-x="764" 
d="M399 -222q-50 0 -80.5 25t-30.5 67q0 60 81 112q-127 0 -204.5 70.5t-77.5 193.5v216q0 174 -7 241q99 0 140 5q-4 -39 -4 -148v-280q0 -99 43.5 -143t126.5 -44q78 0 120 44t42 123v202q0 177 -8 241q100 0 143 5q-5 -36 -5 -148v-261q0 -85 -19.5 -138.5t-61.5 -95.5
q-45 -43 -101 -64q-117 -47 -117 -111q0 -18 12.5 -29.5t34.5 -11.5q28 0 60 20l-4 -70q-36 -21 -83 -21z" />
    <glyph glyph-name="uogonek" unicode="&#x173;" horiz-adv-x="565" 
d="M505 0q-112 -57 -112 -110q0 -18 12.5 -29.5t33.5 -11.5q29 0 61 20l-5 -70q-35 -21 -82 -21q-50 0 -80.5 25t-30.5 67q0 69 103 130h-11l-13 77q-27 -44 -71 -69.5t-85 -25.5q-160 0 -160 181v136q0 102 -6 168q74 0 131 6q-5 -33 -5 -109v-175q0 -55 19 -81.5t65 -26.5
q36 0 72.5 31.5t36.5 71.5v115q0 102 -6 168q73 0 132 6q-6 -39 -6 -109v-198q0 -103 7 -166z" />
    <glyph glyph-name="Wcircumflex" unicode="&#x174;" horiz-adv-x="1010" 
d="M1005 702l-188 -512q-47 -130 -70 -199l-61 -7l-180 492l-109 -299l-33.5 -88t-38.5 -104h-62l-183 512q-45 130 -75 204l137 8l162 -497l112 318q5 17 17.5 52l27 76t18.5 51l60 8l177 -504l98 311l55 178h136zM452 925h126l103 -157l-80 -6l-87 89l-81 -82h-91z" />
    <glyph glyph-name="wcircumflex" unicode="&#x175;" horiz-adv-x="737" 
d="M180 -9q-11 44 -55 167l-48 129q-48 128 -70 177q4 0 62.5 5.5t62.5 5.5l97 -300l42 120l59 174l83 6l106 -299l38 120q23 67 53 173q69 0 120 4l-173 -476l-81 -6q-23 79 -62 186l-45 122l-107 -302zM313 700h126l103 -157l-80 -6l-87 89l-81 -82h-91z" />
    <glyph glyph-name="Ycircumflex" unicode="&#x176;" horiz-adv-x="647" 
d="M2 703l141 8l183 -303l55 87q27 42 126 210h144l-263 -402v-159q0 -102 3 -144h-138q7 67 7 241v58l-105 165zM267 925h126l103 -157l-80 -6l-87 89l-81 -82h-91z" />
    <glyph glyph-name="ycircumflex" unicode="&#x177;" horiz-adv-x="490" 
d="M78 -214l113 260q-37 94 -45 112l-57 129q-57 129 -82 176q4 0 65 6t64 6l116 -304l48 130q25 63 61 168q76 0 125 4l-216 -517q-4 -11 -18 -45t-26 -66t-19 -54q-83 0 -129 -5zM193 700h126l103 -157l-80 -6l-87 89l-81 -82h-91z" />
    <glyph glyph-name="Ydieresis" unicode="&#x178;" horiz-adv-x="647" 
d="M2 703l141 8l183 -303l55 87q27 42 126 210h144l-263 -402v-159q0 -102 3 -144h-138q7 67 7 241v58l-105 165zM297 853q0 -30 -19.5 -51t-49.5 -21q-28 0 -46.5 19.5t-18.5 46.5q0 31 19 51.5t49 20.5q28 0 47 -19.5t19 -46.5zM490 853q0 -30 -19.5 -51t-49.5 -21
q-28 0 -46.5 19.5t-18.5 46.5q0 31 19 51.5t49 20.5q28 0 47 -19.5t19 -46.5z" />
    <glyph glyph-name="Zacute" unicode="&#x179;" horiz-adv-x="645" 
d="M374 915l158 9l-163 -154l-84 -5zM603 709l16 -44l-404 -562q15 0 63 -0.5t64 -0.5q165 0 259 3q-8 -53 -8 -109q-74 5 -266 5q-196 0 -285 -5l-16 45l404 561q-34 1 -119 1q-105 0 -247 -2q6 55 7 108q157 -5 264 -5q158 0 268 5z" />
    <glyph glyph-name="zacute" unicode="&#x17a;" horiz-adv-x="477" 
d="M281 690l158 9l-163 -154l-84 -5zM441 474l12 -43l-256 -335q159 0 248 3q-7 -46 -8 -104q-95 5 -199 5q-99 0 -199 -5l-13 43l256 336q-97 0 -233 -2q4 43 4 102q93 -4 181 -4q122 0 207 4z" />
    <glyph glyph-name="Zdotaccent" unicode="&#x17b;" horiz-adv-x="645" 
d="M603 709l16 -44l-404 -562q15 0 63 -0.5t64 -0.5q165 0 259 3q-8 -53 -8 -109q-74 5 -266 5q-196 0 -285 -5l-16 45l404 561q-34 1 -119 1q-105 0 -247 -2q6 55 7 108q157 -5 264 -5q158 0 268 5zM415 855q0 -30 -20 -50.5t-51 -20.5q-30 0 -49 19t-19 47q0 30 20 50.5
t51 20.5q29 0 48.5 -19.5t19.5 -46.5z" />
    <glyph glyph-name="zdotaccent" unicode="&#x17c;" horiz-adv-x="477" 
d="M441 474l12 -43l-256 -335q159 0 248 3q-7 -46 -8 -104q-95 5 -199 5q-99 0 -199 -5l-13 43l256 336q-97 0 -233 -2q4 43 4 102q93 -4 181 -4q122 0 207 4zM322 630q0 -30 -20 -50.5t-51 -20.5q-29 0 -48.5 19.5t-19.5 46.5q0 30 20 50.5t51 20.5q29 0 48.5 -19.5
t19.5 -46.5z" />
    <glyph glyph-name="Zcaron" unicode="&#x17d;" horiz-adv-x="645" 
d="M406 770h-126l-104 155l82 6l86 -88l82 83h89zM603 709l16 -44l-404 -562q15 0 63 -0.5t64 -0.5q165 0 259 3q-8 -53 -8 -109q-74 5 -266 5q-196 0 -285 -5l-16 45l404 561q-34 1 -119 1q-105 0 -247 -2q6 55 7 108q157 -5 264 -5q158 0 268 5z" />
    <glyph glyph-name="zcaron" unicode="&#x17e;" horiz-adv-x="477" 
d="M314 545h-126l-104 155l82 6l86 -88l82 83h89zM441 474l12 -43l-256 -335q159 0 248 3q-7 -46 -8 -104q-95 5 -199 5q-99 0 -199 -5l-13 43l256 336q-97 0 -233 -2q4 43 4 102q93 -4 181 -4q122 0 207 4z" />
    <glyph glyph-name="florin" unicode="&#x192;" horiz-adv-x="481" 
d="M392 367h-132l-35 -257q-7 -49 -13 -114h-125q8 38 35 196l25 175h-97l38 93h72l3 21q33 219 205 219q50 0 84 -16l-23 -93q-50 11 -58 11q-42 0 -63 -25.5t-31 -90.5l-4 -26h135q-8 -35 -16 -93z" />
    <glyph glyph-name="Aringacute" unicode="&#x1fa;" horiz-adv-x="721" 
d="M484 792q0 -39 -21.5 -71t-58.5 -45l215 -472q69 -149 97 -204l-139 -8l-81 187h-283l-1 -3l-71 -176h-136l231 512q45 98 71 162q-37 12 -58 41t-21 65q0 53 36.5 88t94.5 35q56 0 90.5 -32t34.5 -79zM354 516l-103 -244h206zM381 1110l158 9l-163 -154l-84 -5zM411 786
q0 25 -14.5 40.5t-40.5 15.5q-25 0 -40 -16t-15 -39q0 -26 15 -42t39 -16q26 0 41 16.5t15 40.5z" />
    <glyph glyph-name="aringacute" unicode="&#x1fb;" horiz-adv-x="503" 
d="M176 -13q-67 0 -106.5 36.5t-39.5 97.5q0 73 63 115.5t181 42.5q13 0 39 -2l1 14q2 47 -20 69.5t-70 22.5q-74 0 -136 -44l-21 95q83 49 179 49q94 0 140 -48.5t44 -136.5l-5 -187q-1 -39 28 -39q13 0 36 7l-9 -76q-39 -15 -69 -15q-35 0 -59.5 19.5t-30.5 58.5
q-21 -36 -60 -57.5t-85 -21.5zM378 663q0 -52 -36.5 -88.5t-94.5 -36.5q-56 0 -90.5 33t-34.5 80q0 53 36.5 88t94.5 35q56 0 90.5 -32t34.5 -79zM212 69q41 0 68.5 27.5t29.5 72.5l2 45q-26 2 -37 2q-132 0 -132 -83q0 -29 17 -46.5t52 -17.5zM275 981l158 9l-163 -154
l-84 -5zM305 657q0 25 -14.5 40.5t-40.5 15.5q-25 0 -40 -16t-15 -39q0 -26 15 -42t39 -16q26 0 41 16.5t15 40.5z" />
    <glyph glyph-name="AEacute" unicode="&#x1fc;" horiz-adv-x="909" 
d="M-18 0l311 514q83 133 115 195q110 -5 238 -5q106 0 213 5q-6 -45 -8 -109q-114 2 -183 2q-61 0 -90 -1q-2 -17 -2 -55v-130l236 2q-3 -45 -3 -102l-233 2v-158q0 -39 2 -56q14 0 44.5 -0.5t45.5 -0.5q112 0 211 3q-5 -48 -7 -110q-78 5 -211 5q-141 0 -220 -5
q5 60 7 181h-226l-1 -2l-98 -175h-141zM448 453q0 27 -2 107l-171 -290h173v183zM564 915l158 9l-163 -154l-84 -5z" />
    <glyph glyph-name="aeacute" unicode="&#x1fd;" horiz-adv-x="785" 
d="M753 251l-53 -37l-272 -8q9 -127 134 -127q84 0 171 63l-3 -104q-88 -56 -183 -56q-132 0 -183 96q-60 -92 -176 -92q-70 0 -114 38t-44 101q0 70 61 111t176 41q7 0 23.5 -0.5t25.5 -0.5l1 14q5 93 -92 93q-75 0 -137 -44l-21 95q82 48 173 48q111 0 148 -78
q61 79 163 79q101 0 151.5 -64.5t50.5 -167.5zM210 69q45 0 73 33.5t30 84.5l1 26q-8 0 -23.5 0.5t-23.5 0.5q-124 0 -124 -80q0 -28 17.5 -46.5t49.5 -18.5zM430 277l215 7q-12 108 -100 108q-44 0 -75.5 -33t-39.5 -82zM420 690l158 9l-163 -154l-84 -5z" />
    <glyph glyph-name="Oslashacute" unicode="&#x1fe;" horiz-adv-x="802" 
d="M752 697q-16 -17 -82 -93q84 -100 84 -235q0 -166 -101.5 -276.5t-261.5 -110.5q-114 0 -200 61q-7 -9 -20 -24l-24 -28l-22 -26l-73 41l81 89q-85 99 -85 238q0 166 101.5 276.5t261.5 110.5q114 0 200 -62q51 58 69 84q60 -39 72 -45zM177 352q0 -96 40 -162l318 378
q-57 46 -133 46q-98 0 -161.5 -76.5t-63.5 -185.5zM400 88q99 0 162 76t63 186q0 91 -39 157l-319 -375q55 -44 133 -44zM430 923l158 9l-163 -154l-84 -5z" />
    <glyph glyph-name="oslashacute" unicode="&#x1ff;" horiz-adv-x="549" 
d="M522 455q-7 -7 -16 -17l-21 -24t-19 -21q47 -64 47 -149q0 -113 -68 -187.5t-178 -74.5q-73 0 -132 39q-46 -49 -53 -57l-56 44q42 43 58 62q-48 63 -48 150q0 113 67.5 188t176.5 75q77 0 135 -41l52 59q28 -28 55 -46zM150 236q0 -50 12 -83l187 210q-32 26 -73 26
q-57 0 -91.5 -42.5t-34.5 -110.5zM398 231q0 44 -13 78l-185 -210q29 -23 72 -23q59 0 92.5 42.5t33.5 112.5zM302 690l158 9l-163 -154l-84 -5z" />
    <glyph glyph-name="Scommaaccent" unicode="&#x218;" horiz-adv-x="539" 
d="M181 -237l25 17q37 26 37 58q0 23 -32 42l-14 7q7 28 26.5 43t43.5 15q28 0 46.5 -19t18.5 -49q0 -78 -125 -145zM494 200q0 -96 -66 -157t-175 -61q-51 0 -109 17t-99 42l6 125q35 -30 93.5 -53t113.5 -23q51 0 81.5 25.5t30.5 72.5q0 34 -31 62.5t-75.5 51.5
t-88.5 49.5t-75 67.5t-31 93q0 91 64 149.5t165 58.5q102 0 176 -52l-32 -105q-69 49 -143 49q-47 0 -76 -24.5t-29 -64.5q0 -31 31 -58t75 -49t88 -48.5t75 -69.5t31 -98z" />
    <glyph glyph-name="scommaaccent" unicode="&#x219;" horiz-adv-x="430" 
d="M124 -234l25 17q37 26 37 58q0 23 -32 42l-14 7q7 28 26.5 43t43.5 15q28 0 46.5 -19t18.5 -49q0 -78 -125 -145zM229 483q88 0 151 -36l-31 -93q-54 36 -115 36q-72 0 -72 -49q0 -18 24.5 -32t59 -26t69.5 -28t59.5 -45.5t24.5 -70.5q0 -72 -54.5 -114.5t-138.5 -42.5
q-42 0 -91 11.5t-77 29.5l5 106q78 -54 163 -54q36 0 57.5 13t21.5 37q0 22 -24.5 37.5t-59 27.5t-69 27.5t-59 45.5t-24.5 72q0 63 50 105.5t130 42.5z" />
    <glyph glyph-name="schwa" unicode="&#x259;" horiz-adv-x="514" 
d="M31 213l54 38l276 8q-11 127 -136 127q-88 0 -173 -63l3 104q87 55 182 55q117 0 179 -68t62 -171q0 -113 -67.5 -187t-176.5 -74q-101 0 -152 64.5t-51 166.5zM359 187l-219 -6q12 -109 99 -109q48 0 79.5 32t40.5 83z" />
    <glyph glyph-name="circumflex" unicode="&#x2c6;" horiz-adv-x="415" 
d="M148 700h126l103 -157l-80 -6l-87 89l-81 -82h-91z" />
    <glyph glyph-name="caron" unicode="&#x2c7;" horiz-adv-x="415" 
d="M268 545h-126l-104 155l82 6l86 -88l82 83h89z" />
    <glyph glyph-name="breve" unicode="&#x2d8;" horiz-adv-x="395" 
d="M270 702l88 5q2 -78 -42 -123.5t-121 -45.5q-70 0 -114.5 45t-44.5 115l90 12q0 -46 19.5 -69.5t54.5 -23.5t52.5 24t17.5 61z" />
    <glyph glyph-name="dotaccent" unicode="&#x2d9;" horiz-adv-x="249" 
d="M194 630q0 -30 -20 -50.5t-51 -20.5q-29 0 -48.5 19.5t-19.5 46.5q0 30 20 50.5t51 20.5q29 0 48.5 -19.5t19.5 -46.5z" />
    <glyph glyph-name="ring" unicode="&#x2da;" horiz-adv-x="307" 
d="M285 663q0 -52 -36.5 -88.5t-94.5 -36.5q-56 0 -90.5 33t-34.5 80q0 53 36.5 88t94.5 35q56 0 90.5 -32t34.5 -79zM212 657q0 25 -14.5 40.5t-40.5 15.5q-25 0 -40 -16t-15 -39q0 -26 15 -42t39 -16q26 0 41 16.5t15 40.5z" />
    <glyph glyph-name="ogonek" unicode="&#x2db;" horiz-adv-x="298" 
d="M228 50l12 -35q-109 -71 -109 -125q0 -18 12 -29.5t34 -11.5q28 0 60 20l-4 -70q-36 -21 -83 -21q-50 0 -80.5 25t-30.5 67q0 93 189 180z" />
    <glyph glyph-name="tilde" unicode="&#x2dc;" horiz-adv-x="426" 
d="M22 554q14 81 42 115t71 34q34 0 85.5 -34.5t66.5 -34.5q27 0 39 72l78 -11q-24 -154 -114 -154q-33 0 -85 35t-68 35q-14 0 -22 -14.5t-14 -53.5z" />
    <glyph glyph-name="hungarumlaut" unicode="&#x2dd;" horiz-adv-x="457" 
d="M108 695l135 8l-97 -159l-82 -3zM287 697l139 10l-111 -161l-82 -3z" />
    <glyph glyph-name="commaaccent" unicode="&#x326;" horiz-adv-x="231" 
d="M47 -234l25 17q37 26 37 58q0 23 -32 42l-14 7q7 28 26.5 43t43.5 15q28 0 46.5 -19t18.5 -49q0 -78 -125 -145z" />
    <glyph glyph-name="baht" unicode="&#xe3f;" horiz-adv-x="639" 
d="M323 -1h-144l-71 -135q-42 26 -81 39q34 65 64 116q5 71 5 217v215q0 171 -7 235q13 0 95.5 3t120.5 3q79 0 137 -25l76 141q70 -41 77 -44q-12 -23 -41 -74.5l-41 -73.5q39 -45 39 -102q0 -51 -29.5 -89.5t-79.5 -57.5q69 -21 105 -64t36 -103q0 -86 -68 -143.5
t-193 -57.5zM220 104q45 -5 91 -5q69 0 109 27t40 80q0 49 -42.5 78.5t-124.5 29.5q-47 0 -74 -5v-160q0 -27 1 -45zM220 401q17 -1 68 -1q66 0 104 27t38 72q0 92 -137 92q-19 0 -73 -3q-1 -13 -1 -48v-90q0 -38 1 -49z" />
    <glyph glyph-name="Wgrave" unicode="&#x1e80;" horiz-adv-x="1010" 
d="M1005 702l-188 -512q-47 -130 -70 -199l-61 -7l-180 492l-109 -299l-33.5 -88t-38.5 -104h-62l-183 512q-45 130 -75 204l137 8l162 -497l112 318q5 17 17.5 52l27 76t18.5 51l60 8l177 -504l98 311l55 178h136zM334 915l144 9l87 -154l-82 -5z" />
    <glyph glyph-name="wgrave" unicode="&#x1e81;" horiz-adv-x="737" 
d="M180 -9q-11 44 -55 167l-48 129q-48 128 -70 177q4 0 62.5 5.5t62.5 5.5l97 -300l42 120l59 174l83 6l106 -299l38 120q23 67 53 173q69 0 120 4l-173 -476l-81 -6q-23 79 -62 186l-45 122l-107 -302zM195 690l144 9l87 -154l-82 -5z" />
    <glyph glyph-name="Wacute" unicode="&#x1e82;" horiz-adv-x="1010" 
d="M1005 702l-188 -512q-47 -130 -70 -199l-61 -7l-180 492l-109 -299l-33.5 -88t-38.5 -104h-62l-183 512q-45 130 -75 204l137 8l162 -497l112 318q5 17 17.5 52l27 76t18.5 51l60 8l177 -504l98 311l55 178h136zM540 915l158 9l-163 -154l-84 -5z" />
    <glyph glyph-name="wacute" unicode="&#x1e83;" horiz-adv-x="737" 
d="M180 -9q-11 44 -55 167l-48 129q-48 128 -70 177q4 0 62.5 5.5t62.5 5.5l97 -300l42 120l59 174l83 6l106 -299l38 120q23 67 53 173q69 0 120 4l-173 -476l-81 -6q-23 79 -62 186l-45 122l-107 -302zM400 690l158 9l-163 -154l-84 -5z" />
    <glyph glyph-name="Wdieresis" unicode="&#x1e84;" horiz-adv-x="1010" 
d="M1005 702l-188 -512q-47 -130 -70 -199l-61 -7l-180 492l-109 -299l-33.5 -88t-38.5 -104h-62l-183 512q-45 130 -75 204l137 8l162 -497l112 318q5 17 17.5 52l27 76t18.5 51l60 8l177 -504l98 311l55 178h136zM482 853q0 -30 -19.5 -51t-49.5 -21q-28 0 -46.5 19.5
t-18.5 46.5q0 31 19 51.5t49 20.5q28 0 47 -19.5t19 -46.5zM675 853q0 -30 -19.5 -51t-49.5 -21q-28 0 -46.5 19.5t-18.5 46.5q0 31 19 51.5t49 20.5q28 0 47 -19.5t19 -46.5z" />
    <glyph glyph-name="wdieresis" unicode="&#x1e85;" horiz-adv-x="737" 
d="M180 -9q-11 44 -55 167l-48 129q-48 128 -70 177q4 0 62.5 5.5t62.5 5.5l97 -300l42 120l59 174l83 6l106 -299l38 120q23 67 53 173q69 0 120 4l-173 -476l-81 -6q-23 79 -62 186l-45 122l-107 -302zM343 628q0 -30 -19.5 -51t-49.5 -21q-28 0 -46.5 19.5t-18.5 46.5
q0 31 19 51.5t49 20.5q28 0 47 -19.5t19 -46.5zM536 628q0 -30 -19.5 -51t-49.5 -21q-28 0 -46.5 19.5t-18.5 46.5q0 31 19 51.5t49 20.5q28 0 47 -19.5t19 -46.5z" />
    <glyph glyph-name="Ygrave" unicode="&#x1ef2;" horiz-adv-x="647" 
d="M2 703l141 8l183 -303l55 87q27 42 126 210h144l-263 -402v-159q0 -102 3 -144h-138q7 67 7 241v58l-105 165zM148 915l144 9l87 -154l-82 -5z" />
    <glyph glyph-name="ygrave" unicode="&#x1ef3;" horiz-adv-x="490" 
d="M78 -214l113 260q-37 94 -45 112l-57 129q-57 129 -82 176q4 0 65 6t64 6l116 -304l48 130q25 63 61 168q76 0 125 4l-216 -517q-4 -11 -18 -45t-26 -66t-19 -54q-83 0 -129 -5zM75 690l144 9l87 -154l-82 -5z" />
    <glyph glyph-name="enspace" unicode="&#x2002;" horiz-adv-x="500" 
 />
    <glyph glyph-name="emspace" unicode="&#x2003;" horiz-adv-x="1000" 
 />
    <glyph glyph-name="threeperemspace" unicode="&#x2004;" horiz-adv-x="333" 
 />
    <glyph glyph-name="fourperemspace" unicode="&#x2005;" horiz-adv-x="250" 
 />
    <glyph glyph-name="figurespace" unicode="&#x2007;" horiz-adv-x="560" 
 />
    <glyph glyph-name="thinspace" unicode="&#x2009;" horiz-adv-x="133" 
 />
    <glyph glyph-name="hairspace" unicode="&#x200a;" horiz-adv-x="75" 
 />
    <glyph glyph-name="endash" unicode="&#x2013;" horiz-adv-x="534" 
d="M476 325q-5 -40 -5 -90q-114 2 -161 2h-87q-55 0 -163 -2q3 33 3 90q100 -3 208 -3q107 0 205 3z" />
    <glyph glyph-name="emdash" unicode="&#x2014;" horiz-adv-x="1007" 
d="M947 325q-5 -40 -5 -90q-142 2 -221 2h-437q-96 0 -224 -2q3 33 3 90q126 -3 440 -3q319 0 444 3z" />
    <glyph glyph-name="quoteleft" unicode="&#x2018;" horiz-adv-x="242" 
d="M188 731l32 -48l-7 -6q-91 -60 -91 -117q0 -41 54 -69l20 -11q-11 -40 -34 -60.5t-51 -20.5q-37 0 -62.5 28.5t-25.5 75.5q0 119 165 228z" />
    <glyph glyph-name="quoteright" unicode="&#x2019;" horiz-adv-x="242" 
d="M53 391l-31 49l7 6q91 59 91 116q0 42 -55 69l-19 11q10 40 33.5 60.5t51.5 20.5q37 0 62.5 -28.5t25.5 -75.5q0 -119 -166 -228z" />
    <glyph glyph-name="quotesinglbase" unicode="&#x201a;" horiz-adv-x="241" 
d="M50 -199l-32 48l7 6q91 60 91 117q0 41 -54 69l-20 11q11 40 34.5 60.5t51.5 20.5q36 0 61.5 -28.5t25.5 -75.5q0 -119 -165 -228z" />
    <glyph glyph-name="quotedblleft" unicode="&#x201c;" horiz-adv-x="467" 
d="M414 731l32 -48l-7 -6q-91 -60 -91 -117q0 -41 54 -69l20 -11q-11 -40 -34.5 -60.5t-51.5 -20.5q-37 0 -62 28.5t-25 75.5q0 119 165 228zM188 731l32 -48l-7 -6q-91 -60 -91 -117q0 -41 54 -69l20 -11q-11 -40 -34 -60.5t-51 -20.5q-37 0 -62.5 28.5t-25.5 75.5
q0 119 165 228z" />
    <glyph glyph-name="quotedblright" unicode="&#x201d;" horiz-adv-x="467" 
d="M53 391l-31 49l7 6q91 59 91 116q0 42 -55 69l-19 11q10 40 33.5 60.5t51.5 20.5q37 0 62.5 -28.5t25.5 -75.5q0 -119 -166 -228zM279 391l-32 49l7 6q91 59 91 116q0 41 -54 69l-20 11q11 40 34.5 60.5t51.5 20.5q37 0 62 -28.5t25 -75.5q0 -119 -165 -228z" />
    <glyph glyph-name="quotedblbase" unicode="&#x201e;" horiz-adv-x="467" 
d="M50 -199l-32 48l7 6q91 60 91 117q0 41 -54 69l-20 11q11 40 34.5 60.5t51.5 20.5q36 0 61.5 -28.5t25.5 -75.5q0 -119 -165 -228zM276 -199l-32 48l7 6q91 60 91 117q0 42 -55 69l-19 11q10 40 33.5 60.5t51.5 20.5q37 0 62.5 -28.5t25.5 -75.5q0 -119 -165 -228z" />
    <glyph glyph-name="dagger" unicode="&#x2020;" horiz-adv-x="526" 
d="M499 540l-3 -103q-23 3 -64 4l-59 3q-20 1 -64 1l3 -316q0 -110 4 -153h-110q5 68 7 241l3 228q-39 0 -73 -1l-48 -2q-23 -1 -68 -5l3 103q23 -4 44 -5l93 -6q18 -1 49 -1q0 115 -10 203q44 0 116 5q-3 -31 -9 -153l-2 -55q14 0 50 2l92 5q26 1 46 5z" />
    <glyph glyph-name="daggerdbl" unicode="&#x2021;" horiz-adv-x="526" 
d="M313 591l-2 -59q66 0 126 6q41 2 62 5q0 -5 -1.5 -48t-1.5 -49q-41 4 -80 5q-42 3 -107 3l1 -208q27 0 127 5q33 1 62 6q0 -5 -1.5 -49t-1.5 -49q-33 5 -80 6q-42 3 -105 3l1 -51q2 -118 4 -141h-110q5 56 7 192q-62 0 -94 -2q-62 -2 -92 -6q3 33 3 97q29 -4 60 -5
q7 0 39 -2t58 -3t27 -1l2 208q-65 0 -97 -2q-62 -2 -92 -6q3 33 3 97q29 -4 60 -5q7 0 39.5 -2t58.5 -3t27 -1v50q-2 86 -9 149q44 0 116 5q-3 -29 -9 -145z" />
    <glyph glyph-name="bullet" unicode="&#x2022;" horiz-adv-x="450" 
d="M377 354q0 -64 -43 -109t-108 -45t-109 46t-44 112q0 64 43.5 108.5t107.5 44.5q65 0 109 -46t44 -111z" />
    <glyph glyph-name="ellipsis" unicode="&#x2026;" horiz-adv-x="773" 
d="M198 59q0 -33 -21.5 -55t-53.5 -22t-52 20.5t-20 50.5q0 34 21 55.5t54 21.5q31 0 51.5 -20.5t20.5 -50.5zM460 59q0 -33 -21.5 -55t-53.5 -22t-52 20.5t-20 50.5q0 34 21 55.5t54 21.5q31 0 51.5 -20.5t20.5 -50.5zM722 59q0 -33 -21.5 -55t-53.5 -22t-52 20.5t-20 50.5
q0 34 21 55.5t54 21.5q31 0 51.5 -20.5t20.5 -50.5z" />
    <glyph glyph-name="guilsinglleft" unicode="&#x2039;" horiz-adv-x="384" 
d="M240 463q45 1 102 9l-163 -238q47 -76 152 -227l-76 -24q-134 144 -207 238l3 15z" />
    <glyph glyph-name="guilsinglright" unicode="&#x203a;" horiz-adv-x="384" 
d="M144 -8q-45 -1 -102 -9l163 238q-47 76 -152 227l76 24q126 -135 207 -238l-3 -15z" />
    <glyph glyph-name="fraction" unicode="&#x2044;" horiz-adv-x="186" 
d="M-102 -19l-66 28l139 202l190 294q108 166 128 204q7 -4 32.5 -15.5t32.5 -15.5q-48 -67 -112 -166l-247 -377z" />
    <glyph glyph-name="zero.sup" unicode="&#x2070;" 
d="M190 845q77 0 117.5 -57t40.5 -148q0 -101 -43 -160t-123 -59q-77 0 -117 57t-40 148q0 101 43 160t122 59zM186 495q36 0 56 36.5t20 98.5q0 141 -75 141q-36 0 -56 -36.5t-20 -98.5q0 -141 75 -141z" />
    <glyph glyph-name="four.sup" unicode="&#x2074;" 
d="M216 431q3 18 3 81v14h-34q-102 0 -159 -3l-10 68l158 203l44 55l84 -6q-2 -17 -2 -69v-180q43 0 58 1q-5 -43 -5 -72q-28 2 -53 2v-29q0 -50 2 -65h-86zM224 755l-127 -165h125z" />
    <glyph glyph-name="five.sup" unicode="&#x2075;" 
d="M48 439l-6 78q64 -18 111 -18q45 0 68.5 15.5t23.5 39.5q0 57 -120 57q-27 0 -59 -3l-8 5q0 11 1.5 35t1.5 30l3 77v72l9 8q108 -2 124 -2q24 0 124 2q-8 -76 -8 -81q-39 1 -107 1h-63l-3 -78h18q80 0 127.5 -32t47.5 -92t-44.5 -95.5t-123.5 -35.5q-62 0 -117 17z" />
    <glyph glyph-name="six.sup" unicode="&#x2076;" 
d="M309 773q-161 -16 -194 -122q38 40 101 40q56 0 93.5 -36.5t37.5 -89.5q0 -62 -45 -103t-115 -41q-73 0 -114.5 45t-41.5 126q0 105 67.5 174t195.5 81zM262 561q0 36 -19 53.5t-52 17.5q-32 0 -53 -19.5t-21 -49.5q0 -34 20.5 -53.5t52.5 -19.5t52 19.5t20 51.5z" />
    <glyph glyph-name="seven.sup" unicode="&#x2077;" 
d="M38 835q110 -2 144 -2q51 0 151 2l12 -48q-4 -7 -10.5 -19.5l-14.5 -28.5t-12 -23l-113 -213q-27 -51 -37 -78l-96 11q7 10 17 27.5l21.5 39.5t17.5 32l118 219h-78q-45 0 -125 -2q5 45 5 83z" />
    <glyph glyph-name="eight.sup" unicode="&#x2078;" 
d="M185 421q-71 0 -113.5 31t-42.5 82q0 72 92 104q-78 31 -78 94q0 50 42 81.5t106 31.5t104.5 -31t41.5 -77q0 -64 -81 -97q89 -37 89 -101q0 -53 -44.5 -85.5t-115.5 -32.5zM261 541q0 43 -78 68q-71 -23 -71 -68q0 -24 21.5 -39t55.5 -15q33 0 52.5 15.5t19.5 38.5z
M123 732q0 -41 74 -64q60 20 60 61q0 23 -18.5 37t-48.5 14t-48.5 -14t-18.5 -34z" />
    <glyph glyph-name="nine.sup" unicode="&#x2079;" 
d="M80 421l-15 75q161 16 194 120q-38 -38 -101 -38q-56 0 -93.5 36t-37.5 89q0 62 45 103t115 41q73 0 114.5 -45t41.5 -126q0 -105 -67.5 -174t-195.5 -81zM112 707q0 -35 19 -53t52 -18q32 0 53 19.5t21 50.5q0 33 -20.5 52.5t-52.5 19.5t-52 -19.5t-20 -51.5z" />
    <glyph glyph-name="zero.inf" unicode="&#x2080;" 
d="M190 208q77 0 117.5 -57t40.5 -148q0 -101 -43 -160t-123 -59q-77 0 -117 57t-40 148q0 101 43 160t122 59zM186 -142q36 0 56 36.5t20 98.5q0 141 -75 141q-36 0 -56 -36.5t-20 -98.5q0 -141 75 -141z" />
    <glyph glyph-name="one.inf" unicode="&#x2081;" horiz-adv-x="280" 
d="M119 110l-85 -24l-14 72q44 11 115 35l47 14l27 -6q-2 -17 -2 -75v-261q0 -57 2 -71h-94q4 32 4 120v196z" />
    <glyph glyph-name="two.inf" unicode="&#x2082;" 
d="M75 82l-30 72q66 53 144 53q62 0 100.5 -31t38.5 -85q0 -41 -20.5 -73.5t-61.5 -71.5q-30 -30 -89 -76q35 0 105 2t75 2q0 -11 -1.5 -38l-2.5 -44q-94 2 -141 2q-56 0 -148 -2l-9 64q119 97 147 125q57 55 57 94q0 23 -16.5 36.5t-44.5 13.5q-51 0 -103 -43z" />
    <glyph glyph-name="three.inf" unicode="&#x2083;" 
d="M51 -200l-10 78q63 -17 107 -17q46 0 72 12.5t26 34.5q0 54 -135 57l-8 53q137 25 137 73q0 17 -18.5 28t-53.5 11q-58 0 -106 -28l-19 69q70 36 140 36q65 0 105.5 -27.5t40.5 -70.5q0 -72 -108 -105q116 -21 116 -98q0 -56 -48.5 -88.5t-127.5 -32.5q-60 0 -110 15z
" />
    <glyph glyph-name="four.inf" unicode="&#x2084;" 
d="M216 -206q3 18 3 81v14h-34q-102 0 -159 -3l-10 68l158 203l44 55l84 -6q-2 -17 -2 -69v-180q12 0 32 0.5t26 0.5q-5 -43 -5 -72l-53 3v-30q0 -50 2 -65h-86zM224 118l-127 -165q89 0 125 1z" />
    <glyph glyph-name="five.inf" unicode="&#x2085;" 
d="M48 -198l-6 78q64 -18 111 -18q45 0 68.5 15.5t23.5 39.5q0 57 -120 57q-27 0 -59 -3l-8 5q0 11 1.5 35t1.5 30l3 77v72l9 8q108 -2 124 -2q24 0 124 2q-8 -76 -8 -81q-39 1 -107 1h-63l-3 -78h18q80 0 127.5 -32t47.5 -92t-44.5 -95.5t-123.5 -35.5q-62 0 -117 17z" />
    <glyph glyph-name="six.inf" unicode="&#x2086;" 
d="M309 136q-161 -16 -194 -122q38 40 101 40q56 0 93.5 -36.5t37.5 -89.5q0 -62 -45 -103t-115 -41q-73 0 -114.5 45t-41.5 126q0 105 67.5 174t195.5 81zM262 -76q0 36 -19 53.5t-52 17.5q-32 0 -53 -19.5t-21 -49.5q0 -34 20.5 -53.5t52.5 -19.5t52 19.5t20 51.5z" />
    <glyph glyph-name="seven.inf" unicode="&#x2087;" 
d="M38 198q110 -2 144 -2q51 0 151 2l12 -48q-4 -7 -10.5 -19.5l-14.5 -28.5t-12 -23l-113 -213q-27 -51 -37 -78l-96 11q7 10 17 27.5l21.5 39.5t17.5 32l118 219h-78q-45 0 -125 -2q5 45 5 83z" />
    <glyph glyph-name="eight.inf" unicode="&#x2088;" 
d="M185 -216q-71 0 -113.5 31t-42.5 82q0 72 92 104q-78 31 -78 94q0 50 42 81.5t106 31.5t104.5 -31t41.5 -77q0 -64 -81 -97q89 -37 89 -101q0 -53 -44.5 -85.5t-115.5 -32.5zM261 -96q0 44 -78 69q-71 -23 -71 -69q0 -24 21.5 -39t55.5 -15q33 0 52.5 15.5t19.5 38.5z
M123 95q0 -41 74 -64q60 20 60 61q0 23 -18.5 37t-48.5 14t-48.5 -14t-18.5 -34z" />
    <glyph glyph-name="nine.inf" unicode="&#x2089;" 
d="M80 -216l-15 75q161 16 194 121q-37 -39 -101 -39q-56 0 -93.5 36t-37.5 89q0 62 45 103t115 41q73 0 114.5 -45t41.5 -126q0 -105 -67.5 -174t-195.5 -81zM112 70q0 -35 19 -53t52 -18q32 0 53 19.5t21 50.5q0 33 -20.5 52.5t-52.5 19.5t-52 -19.5t-20 -51.5z" />
    <glyph glyph-name="colonmonetary" unicode="&#x20a1;" horiz-adv-x="746" 
d="M205 -105q-38 23 -83 43l51 120q-59 48 -92 118t-33 149q0 161 105 269t266 108h15q22 60 47 119q59 -31 84 -39l-41 -95q47 -13 86 -35q5 15 12 32.5l17 44l18 46.5q29 -15 83 -37l-177 -432l-85 -211q75 18 155 91l-8 -129q-85 -66 -192 -75l-52 -132q-37 25 -81 41
l39 95q-50 8 -88 25zM294 118q43 -23 93 -29q3 8 31 73l142 353l14 33q-42 28 -91 40l-96 -238zM178 331q0 -95 50 -157q4 8 14 32l141 351l16 38q-99 -8 -160 -80.5t-61 -183.5z" />
    <glyph glyph-name="naira" unicode="&#x20a6;" horiz-adv-x="889" 
d="M836 478q-5 -25 -5 -88q-31 0 -95 2l-1 -104q75 0 101 1q-6 -32 -6 -89q-18 0 -49 1t-47 1l-1 -67q-1 -26 -0.5 -75.5t2.5 -68.5l-63 -6l-182 218h-180h-41v-63q0 -105 4 -141h-135q8 65 10 203q-17 0 -48.5 -1t-47.5 -1q3 20 3 89q42 -2 95 -2l1 105q-15 0 -48 -0.5
t-52 -0.5q5 23 5 87q21 -1 97 -1q2 137 -5 217l63 8l189 -227h126h92q-3 167 -9 211q95 0 136 5q-4 -39 -7 -144l-1 -70q23 0 56.5 0.5t42.5 0.5zM269 278h158l-158 188v-188zM618 401h-157l157 -189v189z" />
    <glyph glyph-name="rupee" unicode="&#x20a8;" horiz-adv-x="1060" 
d="M622 6l-144 -14l-164 263h-92v-115q0 -100 3 -141h-136q7 66 7 236v216q0 169 -7 235q16 0 196 4q133 2 207 -55.5t72 -146.5q-3 -137 -139 -202l105 -153zM834 483q88 0 152 -36l-32 -93q-52 36 -115 36q-71 0 -71 -49q0 -18 24.5 -32t59 -26t69 -28t59 -45.5
t24.5 -70.5q0 -72 -54.5 -114.5t-138.5 -42.5q-41 0 -90.5 11.5t-77.5 29.5l5 106q78 -54 164 -54q36 0 57 13t21 37q0 22 -24 37.5t-59 27.5t-69.5 27.5t-58.5 45.5t-24 72q0 63 50 105.5t129 42.5zM222 350h87q60 0 95.5 35t35.5 86q0 117 -143 117q-15 0 -40 -0.5
t-35 -0.5v-237z" />
    <glyph glyph-name="won" unicode="&#x20a9;" horiz-adv-x="1148" 
d="M1089 480q-5 -42 -5 -89l-130 2l-39 -107q60 0 174 3q-6 -40 -6 -88q-67 0 -199 2l-6 -18q-44 -117 -68 -194l-58 -7l-79 219h-195l-11 -30l-33 -87.5l-38 -100.5h-58l-78 218q-66 -1 -200 -1q3 51 1 88q20 -1 80 -1.5t88 -0.5l-37 105q-46 -1 -132 -1q3 33 3 88
q50 -2 98 -2l-2 7q-53 150 -73 199l131 8l69 -215h188l14 40q11 34 62 176l56 8l77 -224h184l11 34l53 175h130l-77 -209q62 0 105 3zM575 475l-70 -197h141zM448 401h-137l66 -204zM709 402l71 -205l64 205h-135z" />
    <glyph glyph-name="sheqel" unicode="&#x20aa;" horiz-adv-x="705" 
d="M272 122q-40 140 -54 195l76 -6l48 -148q17 -57 75 -57h122l-1 253q0 121 -3 160h96q-7 -50 -7 -224v-295h-210q-65 0 -94.5 28.5t-47.5 93.5zM384 211v138q0 64 -65 64h-151v-300q0 -87 2 -113h-96q8 69 8 180v339h235q70 0 108.5 -30.5t40.5 -84.5q1 -14 1.5 -46
t0.5 -43q2 -69 5 -100z" />
    <glyph glyph-name="Euro" unicode="&#x20ac;" horiz-adv-x="660" 
d="M321 284q126 0 206 4q-8 -68 -9 -82q-62 1 -197 1h-75q28 -60 80.5 -92.5t115.5 -32.5q107 0 185 71l-6 -117q-84 -54 -197 -54q-104 0 -184.5 59.5t-112.5 158.5q-21 0 -58.5 -0.5t-53.5 -0.5q3 30 3 89q42 -3 93 -3q-1 8 -1 26q0 29 3 58q-16 0 -47.5 -0.5t-45.5 -0.5
q4 40 4 88q96 -3 109 -3q35 100 115.5 159.5t190.5 59.5q109 0 183 -55l-26 -96q-68 52 -158 52q-63 0 -114.5 -33.5t-78.5 -92.5h76q133 0 223 3q-8 -63 -9 -82q-63 1 -214 1h-98q-2 -26 -2 -40q0 -24 3 -45h97z" />
    <glyph glyph-name="peso" unicode="&#x20b1;" horiz-adv-x="742" 
d="M39 484q64 -2 99 -2q-2 144 -8 205q14 0 92.5 2.5t114.5 2.5q121 0 191 -58.5t79 -151.5q33 0 95 2q-4 -38 -4 -90q-21 0 -51.5 0.5t-44.5 0.5q-18 -95 -90 -151.5t-202 -56.5q-30 0 -44 2v-54q0 -96 3 -135h-139q8 74 8 232v163q-13 0 -46 -0.5t-56 -0.5q3 29 3 90z
M265 475h97h117q-17 116 -149 116q-26 0 -65 -3v-113zM312 285q68 0 111.5 30.5t53.5 87.5h-212v-115q23 -3 47 -3z" />
    <glyph glyph-name="numero" unicode="&#x2116;" horiz-adv-x="1209" 
d="M82 1q7 66 10 224l3 220q2 145 -4 217l60 7l392 -446v207q0 165 -8 225q98 0 138 5q-4 -26 -7 -138l-5 -392q-3 -97 3 -137l-60 -7l-390 440l-1 -291q0 -99 4 -134h-135zM1156 487q0 -88 -55.5 -146t-143.5 -58q-83 0 -135.5 54t-52.5 132q0 88 55.5 146t143.5 58
q84 0 136 -53.5t52 -132.5zM1158 211q-4 -46 -4 -90q-63 1 -197 1q-128 0 -192 -1q3 19 3 90q116 -3 190 -3q88 0 200 3zM965 589q-39 0 -63 -30t-24 -78q0 -55 23 -85t60 -30q39 0 63 30.5t24 78.5q0 55 -23.5 84.5t-59.5 29.5z" />
    <glyph glyph-name="published" unicode="&#x2117;" horiz-adv-x="866" 
d="M804 351q0 -154 -108.5 -262.5t-262.5 -108.5t-262.5 108.5t-108.5 262.5t108.5 262.5t262.5 108.5t262.5 -108.5t108.5 -262.5zM743 351q0 131 -90 223t-220 92t-220.5 -92.5t-90.5 -222.5t90.5 -222.5t220.5 -92.5t220 92t90 223zM409 245q0 -61 2 -75h-94q3 25 3 126
v116q0 102 -3 127q8 0 54.5 1.5t62.5 1.5q78 0 121.5 -33.5t43.5 -86.5q0 -61 -44 -98.5t-124 -38.5h-22v-40zM409 471v-119q8 -1 21 -1q37 0 57.5 15.5t20.5 45.5q0 61 -69 61q-2 0 -30 -2z" />
    <glyph glyph-name="servicemark" unicode="&#x2120;" horiz-adv-x="831" 
d="M784 348l-90 -4q0 16 -6 70l-13 126q-90 -178 -98 -196l-33 -4l-96 194l-15 -122q-6 -51 -6 -64h-86q5 22 20 121l18 111q11 78 17 126l46 3l34 -68l87 -164l85 165q4 6 10.5 19.5l13.5 28.5t9 19h45l10 -68t9 -61l18 -111q12 -79 21 -121zM294 453q0 -51 -35 -82.5
t-93 -31.5q-63 0 -113 28l2 78q49 -38 109 -38q48 0 48 39q0 17 -23.5 32.5t-51.5 27t-51.5 37t-23.5 59.5q0 49 34.5 79t87.5 30q54 0 99 -26l-17 -65q-39 23 -78 23q-45 0 -45 -36q0 -16 23.5 -31t52 -26t52 -36.5t23.5 -60.5z" />
    <glyph glyph-name="trademark" unicode="&#x2122;" horiz-adv-x="876" 
d="M829 348l-90 -4q0 16 -6 70l-13 126l-98 -196l-33 -4l-95 194l-15 -122q-7 -60 -7 -64h-86q5 22 20 121l18 111q7 40 17 126l47 3q20 -44 34 -68l86 -164l85 165q4 7 17.5 34.5t16.5 32.5h45l18 -129l18 -111l9.5 -57t11.5 -64zM362 705q-1 -13 -4 -79q-39 1 -109 1
q-1 -10 -1 -32v-174q0 -52 3 -73h-99q4 31 4 121v79q0 53 -1 79q-73 0 -112 -1q2 38 2 79q50 -2 157 -2q111 0 160 2z" />
    <glyph glyph-name="onethird" unicode="&#x2153;" horiz-adv-x="840" 
d="M505 6l-10 78q63 -17 107 -17q46 0 72 12.5t26 34.5q0 54 -135 57l-8 53q137 25 137 73q0 17 -18.5 28t-53.5 11q-58 0 -106 -28l-19 69q70 36 140 36q65 0 105.5 -27.5t40.5 -70.5q0 -72 -108 -105q116 -21 116 -98q0 -56 -48.5 -88.5t-127.5 -32.5q-60 0 -110 15z
M177 -19l-66 28l139 202l190 294q108 166 128 204q7 -4 32.5 -15.5t32.5 -15.5q-48 -67 -112 -166l-247 -377zM143 601l-85 -23l-14 72l38.5 10.5t47 14l29.5 9.5l47 15l27 -7q-2 -16 -2 -74v-261q0 -57 2 -71h-94q4 32 4 120v195z" />
    <glyph glyph-name="twothirds" unicode="&#x2154;" horiz-adv-x="934" 
d="M599 6l-10 78q63 -17 107 -17q46 0 72 12.5t26 34.5q0 54 -135 57l-8 53q137 25 137 73q0 17 -18.5 28t-53.5 11q-58 0 -106 -28l-19 69q70 36 140 36q65 0 105.5 -27.5t40.5 -70.5q0 -72 -108 -105q116 -21 116 -98q0 -56 -48.5 -88.5t-127.5 -32.5q-60 0 -110 15z
M103 573l-30 72q65 54 144 54q62 0 100.5 -31.5t38.5 -84.5q0 -41 -20.5 -74t-61.5 -71q-39 -39 -89 -76q80 0 180 4l-4 -82q-94 2 -141 2q-56 0 -148 -2l-9 64q109 87 147 124q57 57 57 94q0 24 -16 37.5t-45 13.5q-50 0 -103 -44zM291 -19l-66 28l139 202l190 294
q108 166 128 204q7 -4 32.5 -15.5t32.5 -15.5q-48 -67 -112 -166l-247 -377z" />
    <glyph glyph-name="onefifth" unicode="&#x2155;" horiz-adv-x="840" 
d="M504 8l-6 78q64 -18 111 -18q45 0 68.5 15.5t23.5 39.5q0 57 -120 57q-27 0 -59 -3l-8 5q0 11 1.5 35t1.5 30l3 77v72l9 8q108 -2 124 -2q24 0 124 2q-8 -76 -8 -81q-39 1 -107 1h-63l-3 -78h18q80 0 127.5 -32t47.5 -92t-44.5 -95.5t-123.5 -35.5q-62 0 -117 17z
M186 -19l-66 28l139 202l190 294q108 166 128 204q7 -4 32.5 -15.5t32.5 -15.5q-48 -67 -112 -166l-247 -377zM143 601l-85 -23l-14 72l38.5 10.5t47 14l29.5 9.5l47 15l27 -7q-2 -16 -2 -74v-261q0 -57 2 -71h-94q4 32 4 120v195z" />
    <glyph glyph-name="twofifths" unicode="&#x2156;" horiz-adv-x="934" 
d="M598 8l-6 78q64 -18 111 -18q45 0 68.5 15.5t23.5 39.5q0 57 -120 57q-27 0 -59 -3l-8 5q0 11 1.5 35t1.5 30l3 77v72l9 8q108 -2 124 -2q24 0 124 2q-8 -76 -8 -81q-39 1 -107 1h-63l-3 -78h18q80 0 127.5 -32t47.5 -92t-44.5 -95.5t-123.5 -35.5q-62 0 -117 17z
M103 573l-30 72q65 54 144 54q62 0 100.5 -31.5t38.5 -84.5q0 -41 -20.5 -74t-61.5 -71q-39 -39 -89 -76q80 0 180 4l-4 -82q-94 2 -141 2q-56 0 -148 -2l-9 64q109 87 147 124q57 57 57 94q0 24 -16 37.5t-45 13.5q-50 0 -103 -44zM295 -19l-66 28l139 202l190 294
q108 166 128 204q7 -4 32.5 -15.5t32.5 -15.5q-48 -67 -112 -166l-247 -377z" />
    <glyph glyph-name="threefifths" unicode="&#x2157;" horiz-adv-x="934" 
d="M598 8l-6 78q64 -18 111 -18q45 0 68.5 15.5t23.5 39.5q0 57 -120 57q-27 0 -59 -3l-8 5q0 11 1.5 35t1.5 30l3 77v72l9 8q108 -2 124 -2q24 0 124 2q-8 -76 -8 -81q-39 1 -107 1h-63l-3 -78h18q80 0 127.5 -32t47.5 -92t-44.5 -95.5t-123.5 -35.5q-62 0 -117 17zM77 292
l-10 77q66 -16 107 -16q46 0 72 12.5t26 33.5q0 55 -135 57l-8 54q137 24 137 73q0 16 -18.5 27.5t-53.5 11.5q-58 0 -106 -28l-19 68q67 36 140 36q65 0 105.5 -27.5t40.5 -69.5q0 -71 -108 -106q116 -21 116 -97q0 -56 -48.5 -88.5t-127.5 -32.5q-60 0 -110 15zM277 -19
l-66 28l139 202l190 294q108 166 128 204q7 -4 32.5 -15.5t32.5 -15.5q-48 -67 -112 -166l-247 -377z" />
    <glyph glyph-name="fourfifths" unicode="&#x2158;" horiz-adv-x="934" 
d="M237 286q3 17 3 81v13h-34q-121 0 -159 -2l-10 68l158 203q20 23 44 55l84 -6q-2 -18 -2 -70v-179q43 0 58 1q-5 -43 -5 -72q-6 0 -24 0.5t-29 0.5v-28q0 -51 2 -65h-86zM598 8l-6 78q64 -18 111 -18q45 0 68.5 15.5t23.5 39.5q0 57 -120 57q-27 0 -59 -3l-8 5
q0 11 1.5 35t1.5 30l3 77v72l9 8q108 -2 124 -2q24 0 124 2q-8 -76 -8 -81q-39 1 -107 1h-63l-3 -78h18q80 0 127.5 -32t47.5 -92t-44.5 -95.5t-123.5 -35.5q-62 0 -117 17zM285 -19l-66 28l139 202l190 294q108 166 128 204q7 -4 32.5 -15.5t32.5 -15.5q-48 -67 -112 -166
l-247 -377zM245 610l-127 -165h125z" />
    <glyph glyph-name="onesixth" unicode="&#x2159;" horiz-adv-x="840" 
d="M759 342q-161 -16 -194 -122q38 40 101 40q56 0 93.5 -36.5t37.5 -89.5q0 -62 -45 -103t-115 -41q-73 0 -114.5 45t-41.5 126q0 105 67.5 174t195.5 81zM200 -19l-66 28l139 202l190 294q108 166 128 204q7 -4 32.5 -15.5t32.5 -15.5q-48 -67 -112 -166l-247 -377z
M143 601l-85 -23l-14 72l38.5 10.5t47 14l29.5 9.5l47 15l27 -7q-2 -16 -2 -74v-261q0 -57 2 -71h-94q4 32 4 120v195zM712 130q0 36 -19 53.5t-52 17.5q-32 0 -53 -19.5t-21 -49.5q0 -34 20.5 -53.5t52.5 -19.5t52 19.5t20 51.5z" />
    <glyph glyph-name="fivesixths" unicode="&#x215a;" horiz-adv-x="934" 
d="M853 342q-161 -16 -194 -122q38 40 101 40q56 0 93.5 -36.5t37.5 -89.5q0 -62 -45 -103t-115 -41q-73 0 -114.5 45t-41.5 126q0 105 67.5 174t195.5 81zM65 294l-6 77q60 -17 111 -17q45 0 68.5 15t23.5 39q0 58 -120 58q-28 0 -59 -3l-8 5q0 10 1.5 34t1.5 31l3 76v73
l9 8q108 -2 124 -2q24 0 124 2q-8 -76 -8 -81q-39 1 -107 1h-63l-3 -78h18q80 0 127.5 -32.5t47.5 -92.5q0 -59 -44.5 -94.5t-123.5 -35.5q-62 0 -117 17zM282 -19l-66 28l139 202l190 294q108 166 128 204q7 -4 32.5 -15.5t32.5 -15.5q-48 -67 -112 -166l-247 -377z
M806 130q0 36 -19 53.5t-52 17.5q-32 0 -53 -19.5t-21 -49.5q0 -34 20.5 -53.5t52.5 -19.5t52 19.5t20 51.5z" />
    <glyph glyph-name="oneeighth" unicode="&#x215b;" horiz-adv-x="840" 
d="M637 -10q-71 0 -113.5 31t-42.5 82q0 72 92 104q-78 31 -78 94q0 50 42 81.5t106 31.5t104.5 -31t41.5 -77q0 -64 -81 -97q89 -37 89 -101q0 -53 -44.5 -85.5t-115.5 -32.5zM190 -19l-66 28l139 202l190 294q108 166 128 204q7 -4 32.5 -15.5t32.5 -15.5
q-48 -67 -112 -166l-247 -377zM143 601l-85 -23l-14 72l38.5 10.5t47 14l29.5 9.5l47 15l27 -7q-2 -16 -2 -74v-261q0 -57 2 -71h-94q4 32 4 120v195zM713 110q0 43 -78 68q-71 -23 -71 -68q0 -24 21.5 -39t55.5 -15q33 0 52.5 15.5t19.5 38.5zM575 301q0 -41 74 -64
q60 20 60 61q0 23 -18.5 37t-48.5 14t-48.5 -14t-18.5 -34z" />
    <glyph glyph-name="threeeighths" unicode="&#x215c;" horiz-adv-x="934" 
d="M731 -10q-71 0 -113.5 31t-42.5 82q0 72 92 104q-78 31 -78 94q0 50 42 81.5t106 31.5t104.5 -31t41.5 -77q0 -64 -81 -97q89 -37 89 -101q0 -53 -44.5 -85.5t-115.5 -32.5zM77 292l-10 77q66 -16 107 -16q46 0 72 12.5t26 33.5q0 55 -135 57l-8 54q137 24 137 73
q0 16 -18.5 27.5t-53.5 11.5q-58 0 -106 -28l-19 68q67 36 140 36q65 0 105.5 -27.5t40.5 -69.5q0 -71 -108 -106q116 -21 116 -97q0 -56 -48.5 -88.5t-127.5 -32.5q-60 0 -110 15zM277 -19l-66 28l139 202l190 294q108 166 128 204q7 -4 32.5 -15.5t32.5 -15.5
q-48 -67 -112 -166l-247 -377zM807 110q0 43 -78 68q-71 -23 -71 -68q0 -24 21.5 -39t55.5 -15q33 0 52.5 15.5t19.5 38.5zM669 301q0 -41 74 -64q60 20 60 61q0 23 -18.5 37t-48.5 14t-48.5 -14t-18.5 -34z" />
    <glyph glyph-name="fiveeighths" unicode="&#x215d;" horiz-adv-x="934" 
d="M731 -10q-71 0 -113.5 31t-42.5 82q0 72 92 104q-78 31 -78 94q0 50 42 81.5t106 31.5t104.5 -31t41.5 -77q0 -64 -81 -97q89 -37 89 -101q0 -53 -44.5 -85.5t-115.5 -32.5zM66 294l-6 77q60 -17 111 -17q45 0 68.5 15t23.5 39q0 58 -120 58q-27 0 -59 -3l-8 5
q0 10 1.5 34t1.5 31l3 76v73l9 8q108 -2 124 -2q24 0 124 2q-8 -76 -8 -81q-39 1 -107 1h-63l-3 -78h18q80 0 127.5 -32.5t47.5 -92.5q0 -59 -44.5 -94.5t-123.5 -35.5q-62 0 -117 17zM274 -19l-66 28l139 202l190 294q108 166 128 204q7 -4 32.5 -15.5t32.5 -15.5
q-48 -67 -112 -166l-247 -377zM807 110q0 43 -78 68q-71 -23 -71 -68q0 -24 21.5 -39t55.5 -15q33 0 52.5 15.5t19.5 38.5zM669 301q0 -41 74 -64q60 20 60 61q0 23 -18.5 37t-48.5 14t-48.5 -14t-18.5 -34z" />
    <glyph glyph-name="seveneighths" unicode="&#x215e;" horiz-adv-x="934" 
d="M731 -10q-71 0 -113.5 31t-42.5 82q0 72 92 104q-78 31 -78 94q0 50 42 81.5t106 31.5t104.5 -31t41.5 -77q0 -64 -81 -97q89 -37 89 -101q0 -53 -44.5 -85.5t-115.5 -32.5zM82 689q110 -2 144 -2q51 0 151 2l12 -48q-4 -7 -10.5 -19.5l-14.5 -28.5t-12 -23l-113 -213
q-27 -51 -37 -78l-96 10q9 14 30 52l26 47l118 219h-78q-85 0 -125 -1q5 42 5 83zM241 -19l-66 28l139 202l190 294q108 166 128 204q7 -4 32.5 -15.5t32.5 -15.5q-48 -67 -112 -166l-247 -377zM807 110q0 43 -78 68q-71 -23 -71 -68q0 -24 21.5 -39t55.5 -15
q33 0 52.5 15.5t19.5 38.5zM669 301q0 -41 74 -64q60 20 60 61q0 23 -18.5 37t-48.5 14t-48.5 -14t-18.5 -34z" />
    <glyph glyph-name="minus" unicode="&#x2212;" horiz-adv-x="568" 
d="M476 323q-5 -43 -5 -92q-118 2 -168 2h-41q-56 0 -170 -2q3 35 3 92q104 -3 190 -3q87 0 191 3z" />
    <glyph glyph-name="box.1" unicode="&#xe000;" horiz-adv-x="795" 
d="M715 13l-13 -13h-611l-13 6q6 48 6 201v246q0 144 -6 191l14 13h611l12 -6q-3 -36 -3 -123v-404q0 -75 3 -111z" />
    <glyph glyph-name="box.2" unicode="&#xe001;" horiz-adv-x="795" 
d="M715 13l-13 -13h-611l-13 6q6 49 6 193v260q0 136 -6 185l14 13h611l12 -6q-3 -24 -3 -128v-401q0 -85 3 -109zM196 99h405q1 6 1 114v171q0 145 -5 174h-403l-1 -118v-221q0 -83 3 -120z" />
    <glyph glyph-name="arrow.1_W" unicode="&#xe01d;" horiz-adv-x="790" 
d="M30 239l-1 17l285 257q53 -60 60 -69q-16 -12 -40 -32.5l-54.5 -46.5t-42.5 -37l-43 -35h305q127 0 239 2q-3 -35 -3 -91q-99 3 -299 3q-164 0 -241 -1l42 -35l140 -114l-61 -71z" />
    <glyph glyph-name="arrow.1_E" unicode="&#xe01f;" horiz-adv-x="790" 
d="M53 204q3 33 3 91q100 -3 299 -3q164 0 242 1l-43 34q-115 95 -140 114l61 72l286 -254l1 -17l-285 -256q-1 1 -24.5 26t-36.5 42l139 116l43 36h-306q-125 0 -239 -2z" />
    <glyph glyph-name="G.alt" horiz-adv-x="739" 
d="M671 142v-86q-114 -73 -257 -73q-159 0 -262.5 102.5t-103.5 254.5q0 161 110 270.5t275 109.5q61 0 124 -18.5t105 -46.5l-34 -109q-35 28 -91 45.5t-109 17.5q-113 0 -181.5 -72.5t-68.5 -186.5q0 -119 71.5 -188t176.5 -69q71 0 124 25v112q0 102 -4 130h131
q-1 -6 -3.5 -91t-2.5 -127z" />
    <glyph glyph-name="J.alt" horiz-adv-x="329" 
d="M112 19v443q0 174 -7 241q98 0 138 5q-3 -43 -3 -148v-542q0 -120 -46.5 -176.5t-150.5 -56.5q-37 0 -66 8l-14 112q32 -6 54 -6q55 0 75 25t20 95z" />
    <glyph glyph-name="a.sc" horiz-adv-x="565" 
d="M12 0l169 376q50 114 60 142l73 8l167 -375q36 -81 71 -151l-128 -6l-51 118h-193l-24 -59t-21 -53h-123zM276 359l-65 -165h131z" />
    <glyph glyph-name="b.sc" horiz-adv-x="509" 
d="M269 0h-200q5 45 5 177v162q0 132 -5 176q7 0 77 2t109 2q97 0 144.5 -38.5t47.5 -94.5q0 -40 -23 -68.5t-61 -42.5q108 -30 108 -124q0 -67 -52 -109t-150 -42zM190 94q27 -3 64 -3q99 0 99 69t-111 69q-32 0 -53 -3v-103q0 -18 1 -29zM189 303q11 -1 51 -1q94 0 94 64
q0 62 -92 62q-30 0 -52 -2q-1 -11 -1 -34v-89z" />
    <glyph glyph-name="c.sc" horiz-adv-x="519" 
d="M481 153l-6 -116q-76 -51 -167 -51q-116 0 -191.5 75.5t-75.5 182.5q0 121 80 202.5t202 81.5q89 0 155 -42l-22 -102q-58 45 -124 45q-74 0 -121.5 -48.5t-47.5 -120.5q0 -80 47 -126.5t118 -46.5q76 0 153 66z" />
    <glyph glyph-name="d.sc" horiz-adv-x="566" 
d="M525 271q0 -122 -75.5 -196.5t-199.5 -74.5h-181q5 45 5 177v162q0 132 -5 176q7 0 63 2t101 2q139 0 215.5 -67.5t76.5 -180.5zM406 263q0 74 -43.5 118t-120.5 44q-13 0 -47 -2q-1 -11 -1 -39v-251q0 -23 1 -35q4 0 20.5 -1.5t28.5 -1.5q82 0 122 47t40 121z" />
    <glyph glyph-name="e.sc" horiz-adv-x="452" 
d="M418 98q-3 -33 -5 -101q-64 4 -170 4t-174 -4q5 45 5 178v166q0 135 -5 179q100 -4 165 -4q72 0 170 4q-6 -46 -6 -100q-41 1 -137 1h-67q-1 -12 -1 -35v-76l179 1q-2 -27 -2 -88h-177v-92q0 -24 1 -35q11 0 34 -0.5t33 -0.5q87 0 157 3z" />
    <glyph glyph-name="f.sc" horiz-adv-x="432" 
d="M399 520q-5 -53 -5 -102q-40 1 -131 1h-67q-1 -13 -1 -42v-76l164 1q-2 -54 -2 -90h-162v-106q0 -86 3 -106h-129q5 45 5 177v164q0 135 -5 179q100 -4 167 -4t163 4z" />
    <glyph glyph-name="g.sc" horiz-adv-x="567" 
d="M504 480l-32 -97q-65 44 -135 44q-78 0 -127 -48t-49 -120q0 -81 46 -127t117 -46q43 0 79 15v61q0 28 -1 39q-18 1 -37 1q-46 0 -79 -2q3 45 1 89q65 -3 98 -3q57 0 130 3q-5 -35 -5 -175v-73q-90 -55 -203 -55q-116 0 -191 75.5t-75 183.5q0 121 82 202t209 81
q102 0 172 -48z" />
    <glyph glyph-name="g.sc_alt" horiz-adv-x="567" 
d="M504 479l-32 -98q-65 46 -136 46q-77 0 -126 -48.5t-49 -120.5q0 -80 46.5 -125.5t116.5 -45.5q39 0 76 13v72q0 73 -4 95h119q-5 -25 -5 -155v-69q-90 -57 -203 -57q-116 0 -191 75.5t-75 183.5q0 121 82 202t207 81q103 0 174 -49z" />
    <glyph glyph-name="h.sc" horiz-adv-x="601" 
d="M531 0h-129q6 43 6 171v47h-214v-112q0 -86 3 -106h-128q5 45 5 177v162q0 133 -5 176q96 0 128 4q-3 -21 -3 -108v-99h214v29q0 133 -6 174q96 0 129 4q-4 -28 -4 -108v-305q0 -79 4 -106z" />
    <glyph glyph-name="i.sc" horiz-adv-x="272" 
d="M200 0h-128q5 45 5 177v162q0 133 -5 176q95 0 128 4q-3 -21 -3 -108v-305q0 -86 3 -106z" />
    <glyph glyph-name="j.sc" horiz-adv-x="368" 
d="M178 339q0 133 -5 176q96 0 128 4q-3 -21 -3 -108v-241q0 -96 -36.5 -139.5t-122.5 -43.5q-60 0 -115 21l6 106q48 -20 88 -20q60 0 60 69v176z" />
    <glyph glyph-name="k.sc" horiz-adv-x="538" 
d="M529 2l-138 -9l-196 248v-135q0 -86 3 -106h-129q6 54 6 177v162q0 125 -6 176q96 0 129 4q-3 -21 -3 -108v-127l79 100l103 133h140l-208 -247l113 -142q63 -78 107 -126z" />
    <glyph glyph-name="l.sc" horiz-adv-x="430" 
d="M69 -3q5 45 5 179v163q0 133 -5 176q96 0 129 4q-3 -21 -3 -108v-272q0 -28 1 -40q9 0 29 -0.5t30 -0.5q56 0 152 2q-5 -43 -7 -103q-64 4 -163 4q-101 0 -168 -4z" />
    <glyph glyph-name="m.sc" horiz-adv-x="695" 
d="M655 0l-119 -6q-1 27 -13 112l-25 188l-44 -105l-53.5 -126.5l-28.5 -67.5l-53 -5l-127 299l-23 -184q-2 -15 -8 -73l-3 -32h-118q12 53 31 177l23 164q18 138 21 182l70 7l49 -108l116 -254l113 254q6 13 24.5 56.5t21.5 49.5h68l24 -187l23 -163q13 -90 31 -178z" />
    <glyph glyph-name="n.sc" horiz-adv-x="608" 
d="M66 0q7 84 7 177l1 170q3 122 -3 171l66 8l285 -328v141q0 135 -6 176q92 0 125 4q-2 -11 -5 -108l-3 -310q0 -75 3 -105l-65 -8l-285 327v-209q0 -76 3 -106h-123z" />
    <glyph glyph-name="o.sc" horiz-adv-x="607" 
d="M311 528q113 0 184 -74t71 -184q0 -123 -75 -203.5t-195 -80.5q-113 0 -184 74t-71 184q0 124 75 204t195 80zM302 83q64 0 104 49.5t40 123.5q0 82 -39.5 129t-101.5 47q-64 0 -104 -49.5t-40 -123.5q0 -82 39.5 -129t101.5 -47z" />
    <glyph glyph-name="p.sc" horiz-adv-x="483" 
d="M69 515q11 0 78 2t91 2q107 0 164.5 -46t57.5 -120q0 -86 -57.5 -137t-174.5 -51q-24 0 -33 1v-60q0 -76 3 -106h-129q5 45 5 177v162q0 133 -5 176zM344 340q0 84 -104 84q-28 0 -46 -1q-1 -15 -1 -37v-130q11 -2 35 -2q116 0 116 86z" />
    <glyph glyph-name="q.sc" horiz-adv-x="609" 
d="M311 528q113 0 184 -74t71 -184q0 -84 -37 -150.5t-101 -101.5l83 -23q25 -7 117 -31l-72 -85l-287 109q-103 9 -165.5 81t-62.5 175q0 124 75 204t195 80zM305 432q-64 0 -104 -49.5t-40 -123.5q0 -82 39.5 -129t101.5 -47q64 0 104 49.5t40 123.5q0 82 -39.5 129
t-101.5 47z" />
    <glyph glyph-name="r.sc" horiz-adv-x="520" 
d="M192 264h59q42 0 67 23t25 58q0 80 -101 80q-17 0 -49 -2q-1 -16 -1 -41v-118zM503 4l-134 -11l-113 187h-11l-52 -1v-73q0 -86 3 -106h-127q5 45 5 177v162q0 133 -5 176q13 0 79 2t83 2q110 1 170 -42t59 -115q-1 -99 -101 -151l81 -119q14 -21 63 -88z" />
    <glyph glyph-name="s.sc" horiz-adv-x="434" 
d="M394 150q0 -75 -52 -119.5t-137 -44.5q-91 0 -163 43l4 108q30 -21 74 -37.5t86 -16.5q34 0 53.5 14.5t19.5 41.5q0 22 -23 40.5t-55.5 34.5t-65.5 35t-56 50t-23 71q0 72 50.5 115t131.5 43q85 0 141 -37l-25 -96q-57 37 -111 37q-33 0 -51.5 -15t-18.5 -38
q0 -20 23 -37.5t55.5 -33t64.5 -34t55 -50.5t23 -74z" />
    <glyph glyph-name="t.sc" horiz-adv-x="506" 
d="M476 520q-6 -66 -6 -107q-106 2 -156 2q-1 -15 -1 -46v-263q0 -86 3 -106h-129q6 54 6 177v128q0 51 -3 110q-56 0 -160 -2q2 31 2 107q140 -4 220 -4q84 0 224 4z" />
    <glyph glyph-name="u.sc" horiz-adv-x="587" 
d="M523 519q-4 -28 -4 -108v-188q0 -115 -61 -174q-65 -63 -173 -63q-98 0 -157 52.5t-59 146.5v154q0 125 -6 176q96 0 128 4q-3 -31 -3 -108v-200q0 -123 109 -123q49 0 76 29t27 82v140q0 125 -6 176q96 0 129 4z" />
    <glyph glyph-name="v.sc" horiz-adv-x="537" 
d="M12 514l127 6l134 -349l84 224l43 120h125l-160 -376l-58 -142l-69 -7l-160 373z" />
    <glyph glyph-name="w.sc" horiz-adv-x="777" 
d="M762 515l-135 -373q-16 -44 -50 -145l-68 -8l-120 336l-69 -193l-50 -140l-69 -2l-131 374q-33 93 -56 149l126 6l107 -337l69 207l12 35.5l19 56.5t13 36l63 7l119 -338l59 200q7 19 20.5 67.5t17.5 61.5h123z" />
    <glyph glyph-name="x.sc" horiz-adv-x="560" 
d="M158 0h-132l183 261l-73 105l-102 149l130 6l118 -183l40 63q35 59 75 115h131l-176 -253l70 -102l110 -161l-131 -6l-123 191l-39 -62z" />
    <glyph glyph-name="y.sc" horiz-adv-x="516" 
d="M10 515l128 6l122 -209l36 60l43.5 73.5l41.5 70.5h128l-194 -300v-110q0 -79 4 -106h-127q6 54 6 177v38l-76 122z" />
    <glyph glyph-name="z.sc" horiz-adv-x="505" 
d="M462 520l17 -44l-281 -380q18 -1 90 -1q90 0 174 2q-4 -45 -6 -100q-59 4 -200 4q-140 0 -212 -4l-17 45l281 380q-19 1 -82 1q-68 0 -170 -2q3 25 5 99q96 -4 201 -4q133 0 200 4z" />
    <glyph glyph-name="aacute.sc" horiz-adv-x="565" 
d="M12 0l169 376q50 114 60 142l73 8l167 -375q36 -81 71 -151l-128 -6l-51 118h-193l-24 -59t-21 -53h-123zM310 735l158 9l-163 -154l-84 -5zM276 359l-65 -165h131z" />
    <glyph glyph-name="abreve.sc" horiz-adv-x="565" 
d="M12 0l169 376q50 114 60 142l73 8l167 -375q36 -81 71 -151l-128 -6l-51 118h-193l-24 -59t-21 -53h-123zM353 747l88 5q2 -78 -42 -123.5t-121 -45.5q-70 0 -114.5 45t-44.5 115l90 12q0 -46 19.5 -69.5t54.5 -23.5t52.5 24t17.5 61zM276 359l-65 -165h131z" />
    <glyph glyph-name="acircumflex.sc" horiz-adv-x="565" 
d="M12 0l169 376q50 114 60 142l73 8l167 -375q36 -81 71 -151l-128 -6l-51 118h-193l-24 -59t-21 -53h-123zM221 739h126l103 -157l-80 -6l-87 89l-81 -82h-91zM276 359l-65 -165h131z" />
    <glyph glyph-name="adieresis.sc" horiz-adv-x="565" 
d="M12 0l169 376q50 114 60 142l73 8l167 -375q36 -81 71 -151l-128 -6l-51 118h-193l-24 -59t-21 -53h-123zM252 673q0 -30 -19.5 -51t-49.5 -21q-28 0 -46.5 19.5t-18.5 46.5q0 31 19 51.5t49 20.5q28 0 47 -19.5t19 -46.5zM445 673q0 -30 -19.5 -51t-49.5 -21
q-28 0 -46.5 19.5t-18.5 46.5q0 31 19 51.5t49 20.5q28 0 47 -19.5t19 -46.5zM276 359l-65 -165h131z" />
    <glyph glyph-name="agrave.sc" horiz-adv-x="565" 
d="M12 0l169 376q50 114 60 142l73 8l167 -375q36 -81 71 -151l-128 -6l-51 118h-193l-24 -59t-21 -53h-123zM104 735l144 9l87 -154l-82 -5zM276 359l-65 -165h131z" />
    <glyph glyph-name="amacron.sc" horiz-adv-x="565" 
d="M12 0l169 376q50 114 60 142l73 8l167 -375q36 -81 71 -151l-128 -6l-51 118h-193l-24 -59t-21 -53h-123zM444 713q-5 -42 -5 -89q-84 2 -116 2h-90q-42 0 -114 -2q4 42 4 89q79 -3 161 -3t160 3zM276 359l-65 -165h131z" />
    <glyph glyph-name="aogonek.sc" horiz-adv-x="565" 
d="M12 0l169 376q50 114 60 142l73 8l167 -375q36 -81 71 -151q-112 -57 -112 -110q0 -18 12.5 -29.5t33.5 -11.5q29 0 61 20l-5 -70q-36 -21 -83 -21q-50 0 -80.5 25t-29.5 67q0 65 90 125l-15 -1l-51 118h-193l-24 -59t-21 -53h-123zM276 359l-65 -165h131z" />
    <glyph glyph-name="aring.sc" horiz-adv-x="565" 
d="M12 0l169 376q45 102 47 107q-35 13 -55.5 41.5t-20.5 63.5q0 53 36.5 88t94.5 35q56 0 90.5 -32t34.5 -79q0 -38 -20.5 -69t-55.5 -46l149 -334q36 -81 71 -151l-128 -6l-51 118h-193l-24 -59t-21 -53h-123zM276 359l-65 -165h131zM335 594q0 25 -14.5 40.5t-40.5 15.5
q-25 0 -40 -16t-15 -39q0 -26 15 -42t39 -16q26 0 41 16.5t15 40.5z" />
    <glyph glyph-name="aringacute.sc" horiz-adv-x="565" 
d="M12 0l169 376q45 102 47 107q-35 13 -55.5 41.5t-20.5 63.5q0 53 36.5 88t94.5 35q56 0 90.5 -32t34.5 -79q0 -38 -20.5 -69t-55.5 -46l149 -334q36 -81 71 -151l-128 -6l-51 118h-193l-24 -59t-21 -53h-123zM311 917l158 9l-163 -154l-84 -5zM276 359l-65 -165h131z
M335 594q0 25 -14.5 40.5t-40.5 15.5q-25 0 -40 -16t-15 -39q0 -26 15 -42t39 -16q26 0 41 16.5t15 40.5z" />
    <glyph glyph-name="atilde.sc" horiz-adv-x="565" 
d="M12 0l169 376q50 114 60 142l73 8l167 -375q36 -81 71 -151l-128 -6l-51 118h-193l-24 -59t-21 -53h-123zM96 599q14 81 42 115t71 34q34 0 85.5 -34.5t66.5 -34.5q27 0 39 72l78 -11q-24 -154 -114 -154q-33 0 -85 35t-68 35q-14 0 -22 -14.5t-14 -53.5zM276 359
l-65 -165h131z" />
    <glyph glyph-name="cacute.sc" horiz-adv-x="519" 
d="M330 735l158 9l-163 -154l-84 -5zM481 153l-6 -116q-76 -51 -167 -51q-116 0 -191.5 75.5t-75.5 182.5q0 121 80 202.5t202 81.5q89 0 155 -42l-22 -102q-58 45 -124 45q-74 0 -121.5 -48.5t-47.5 -120.5q0 -80 47 -126.5t118 -46.5q76 0 153 66z" />
    <glyph glyph-name="ccaron.sc" horiz-adv-x="519" 
d="M363 590h-126l-104 155l82 6l86 -88l82 83h89zM481 153l-6 -116q-76 -51 -167 -51q-116 0 -191.5 75.5t-75.5 182.5q0 121 80 202.5t202 81.5q89 0 155 -42l-22 -102q-58 45 -124 45q-74 0 -121.5 -48.5t-47.5 -120.5q0 -80 47 -126.5t118 -46.5q76 0 153 66z" />
    <glyph glyph-name="ccedilla.sc" horiz-adv-x="519" 
d="M481 153l-6 -116q-74 -50 -161 -51l-13 -47q104 -27 104 -95q0 -38 -31 -63.5t-86 -25.5q-43 0 -91 15l15 63q44 -14 79 -14q37 0 37 24q0 29 -92 48l-4 4q7 22 26 96q-97 16 -157 87t-60 166q0 121 80 202.5t202 81.5q89 0 155 -42l-22 -102q-58 45 -124 45
q-74 0 -121.5 -48.5t-47.5 -120.5q0 -80 47 -126.5t118 -46.5q76 0 153 66z" />
    <glyph glyph-name="cdotaccent.sc" horiz-adv-x="519" 
d="M481 153l-6 -116q-76 -51 -167 -51q-116 0 -191.5 75.5t-75.5 182.5q0 121 80 202.5t202 81.5q89 0 155 -42l-22 -102q-58 45 -124 45q-74 0 -121.5 -48.5t-47.5 -120.5q0 -80 47 -126.5t118 -46.5q76 0 153 66zM371 675q0 -30 -20 -50.5t-51 -20.5q-30 0 -49 19t-19 47
q0 30 20 50.5t51 20.5q29 0 48.5 -19.5t19.5 -46.5z" />
    <glyph glyph-name="dcaron.sc" horiz-adv-x="566" 
d="M525 271q0 -122 -75.5 -196.5t-199.5 -74.5h-181q5 45 5 177v162q0 132 -5 176q7 0 63 2t101 2q139 0 215.5 -67.5t76.5 -180.5zM406 263q0 74 -43.5 118t-120.5 44q-13 0 -47 -2q-1 -11 -1 -39v-251q0 -23 1 -35q4 0 20.5 -1.5t28.5 -1.5q82 0 122 47t40 121zM342 590
h-126l-104 155l82 6l86 -88l82 83h89z" />
    <glyph glyph-name="dcroat.sc" horiz-adv-x="566" 
d="M525 271q0 -122 -75.5 -196.5t-199.5 -74.5h-181q5 45 5 177v43q-48 -2 -66 -2q3 32 3 85l63 -3v39q0 132 -5 176q7 0 63 2t101 2q139 0 215.5 -67.5t76.5 -180.5zM406 263q0 74 -43.5 118t-120.5 44q-13 0 -47 -2q-1 -11 -1 -39v-84q51 0 96 3q-5 -38 -5 -85
q-64 2 -91 2v-87q0 -23 1 -35q4 0 20.5 -1.5t28.5 -1.5q82 0 122 47t40 121z" />
    <glyph glyph-name="eacute.sc" horiz-adv-x="452" 
d="M418 98q-3 -33 -5 -101q-64 4 -170 4t-174 -4q5 45 5 178v166q0 135 -5 179q100 -4 165 -4q72 0 170 4q-6 -46 -6 -100q-41 1 -137 1h-67q-1 -12 -1 -35v-76l179 1q-2 -27 -2 -88h-177v-92q0 -24 1 -35q11 0 34 -0.5t33 -0.5q87 0 157 3zM270 735l158 9l-163 -154l-84 -5
z" />
    <glyph glyph-name="ebreve.sc" horiz-adv-x="452" 
d="M418 98q-3 -33 -5 -101q-64 4 -170 4t-174 -4q5 45 5 178v166q0 135 -5 179q100 -4 165 -4q72 0 170 4q-6 -46 -6 -100q-41 1 -137 1h-67q-1 -12 -1 -35v-76l179 1q-2 -27 -2 -88h-177v-92q0 -24 1 -35q11 0 34 -0.5t33 -0.5q87 0 157 3zM314 747l88 5q2 -78 -42 -123.5
t-121 -45.5q-70 0 -114.5 45t-44.5 115l90 12q0 -46 19.5 -69.5t54.5 -23.5t52.5 24t17.5 61z" />
    <glyph glyph-name="ecaron.sc" horiz-adv-x="452" 
d="M418 98q-3 -33 -5 -101q-64 4 -170 4t-174 -4q5 45 5 178v166q0 135 -5 179q100 -4 165 -4q72 0 170 4q-6 -46 -6 -100q-41 1 -137 1h-67q-1 -12 -1 -35v-76l179 1q-2 -27 -2 -88h-177v-92q0 -24 1 -35q11 0 34 -0.5t33 -0.5q87 0 157 3zM303 590h-126l-104 155l82 6
l86 -88l82 83h89z" />
    <glyph glyph-name="ecircumflex.sc" horiz-adv-x="452" 
d="M418 98q-3 -33 -5 -101q-64 4 -170 4t-174 -4q5 45 5 178v166q0 135 -5 179q100 -4 165 -4q72 0 170 4q-6 -46 -6 -100q-41 1 -137 1h-67q-1 -12 -1 -35v-76l179 1q-2 -27 -2 -88h-177v-92q0 -24 1 -35q11 0 34 -0.5t33 -0.5q87 0 157 3zM183 745h126l103 -157l-80 -6
l-87 89l-81 -82h-91z" />
    <glyph glyph-name="edieresis.sc" horiz-adv-x="452" 
d="M418 98q-3 -33 -5 -101q-64 4 -170 4t-174 -4q5 45 5 178v166q0 135 -5 179q100 -4 165 -4q72 0 170 4q-6 -46 -6 -100q-41 1 -137 1h-67q-1 -12 -1 -35v-76l179 1q-2 -27 -2 -88h-177v-92q0 -24 1 -35q11 0 34 -0.5t33 -0.5q87 0 157 3zM213 673q0 -30 -19.5 -51
t-49.5 -21q-28 0 -46.5 19.5t-18.5 46.5q0 31 19 51.5t49 20.5q28 0 47 -19.5t19 -46.5zM406 673q0 -30 -19.5 -51t-49.5 -21q-28 0 -46.5 19.5t-18.5 46.5q0 31 19 51.5t49 20.5q28 0 47 -19.5t19 -46.5z" />
    <glyph glyph-name="edotaccent.sc" horiz-adv-x="452" 
d="M418 98q-3 -33 -5 -101q-64 4 -170 4t-174 -4q5 45 5 178v166q0 135 -5 179q100 -4 165 -4q72 0 170 4q-6 -46 -6 -100q-41 1 -137 1h-67q-1 -12 -1 -35v-76l179 1q-2 -27 -2 -88h-177v-92q0 -24 1 -35q11 0 34 -0.5t33 -0.5q87 0 157 3zM312 675q0 -30 -20 -50.5
t-51 -20.5q-29 0 -48.5 19t-19.5 47q0 30 20 50.5t51 20.5q29 0 48.5 -19.5t19.5 -46.5z" />
    <glyph glyph-name="egrave.sc" horiz-adv-x="452" 
d="M418 98q-3 -33 -5 -101q-64 4 -170 4t-174 -4q5 45 5 178v166q0 135 -5 179q100 -4 165 -4q72 0 170 4q-6 -46 -6 -100q-41 1 -137 1h-67q-1 -12 -1 -35v-76l179 1q-2 -27 -2 -88h-177v-92q0 -24 1 -35q11 0 34 -0.5t33 -0.5q87 0 157 3zM65 735l144 9l87 -154l-82 -5z
" />
    <glyph glyph-name="emacron.sc" horiz-adv-x="452" 
d="M418 98q-3 -33 -5 -101q-64 4 -170 4t-174 -4q5 45 5 178v166q0 135 -5 179q100 -4 165 -4q72 0 170 4q-6 -46 -6 -100q-41 1 -137 1h-67q-1 -12 -1 -35v-76l179 1q-2 -27 -2 -88h-177v-92q0 -24 1 -35q11 0 34 -0.5t33 -0.5q87 0 157 3zM404 713q-5 -42 -5 -89
q-84 2 -116 2h-90q-42 0 -114 -2q4 42 4 89q80 -3 161 -3q82 0 160 3z" />
    <glyph glyph-name="eogonek.sc" horiz-adv-x="452" 
d="M418 98q-3 -33 -5 -101q-1 0 -3 1h-2v-1q-112 -55 -112 -107q0 -18 12.5 -29.5t33.5 -11.5q29 0 61 20l-5 -70q-34 -21 -82 -21q-51 0 -81 25t-30 67q0 70 109 130q-24 1 -71 1q-106 0 -174 -4q5 45 5 178v166q0 135 -5 179q100 -4 165 -4q72 0 170 4q-6 -46 -6 -100
q-41 1 -137 1h-67q-1 -12 -1 -35v-76l179 1q-2 -27 -2 -88h-177v-92q0 -24 1 -35q11 0 34 -0.5t33 -0.5q87 0 157 3z" />
    <glyph glyph-name="gbreve.sc" horiz-adv-x="567" 
d="M504 480l-32 -97q-65 44 -135 44q-78 0 -127 -48t-49 -120q0 -81 46 -127t117 -46q43 0 79 15v61q0 28 -1 39q-18 1 -37 1q-46 0 -79 -2q3 45 1 89q65 -3 98 -3q57 0 130 3q-5 -35 -5 -175v-73q-90 -55 -203 -55q-116 0 -191 75.5t-75 183.5q0 121 82 202t209 81
q102 0 172 -48zM381 747l88 5q2 -78 -42 -123.5t-121 -45.5q-70 0 -114.5 45t-44.5 115l90 12q0 -46 19.5 -69.5t54.5 -23.5t52.5 24t17.5 61z" />
    <glyph glyph-name="Gbreve.alt" horiz-adv-x="739" 
d="M671 142v-86q-114 -73 -257 -73q-159 0 -262.5 102.5t-103.5 254.5q0 161 110 270.5t275 109.5q61 0 124 -18.5t105 -46.5l-34 -109q-35 28 -91 45.5t-109 17.5q-113 0 -181.5 -72.5t-68.5 -186.5q0 -119 71.5 -188t176.5 -69q71 0 124 25v112q0 102 -4 130h131
q-1 -6 -3.5 -91t-2.5 -127zM482 935l88 5q2 -78 -42 -123.5t-121 -45.5q-70 0 -114.5 45t-44.5 115l90 12q0 -46 19.5 -69.5t54.5 -23.5t52.5 24t17.5 61z" />
    <glyph glyph-name="gbreve.sc_alt" horiz-adv-x="567" 
d="M504 479l-32 -98q-65 46 -136 46q-77 0 -126 -48.5t-49 -120.5q0 -80 46.5 -125.5t116.5 -45.5q39 0 76 13v72q0 73 -4 95h119q-5 -25 -5 -155v-69q-90 -57 -203 -57q-116 0 -191 75.5t-75 183.5q0 121 82 202t207 81q103 0 174 -49zM385 749l88 5q2 -78 -42 -123.5
t-121 -45.5q-70 0 -114.5 45t-44.5 115l90 12q0 -46 19.5 -69.5t54.5 -23.5t52.5 24t17.5 61z" />
    <glyph glyph-name="gcommaaccent.sc" horiz-adv-x="567" 
d="M504 480l-32 -97q-65 44 -135 44q-78 0 -127 -48t-49 -120q0 -81 46 -127t117 -46q43 0 79 15v61q0 28 -1 39q-18 1 -37 1q-46 0 -79 -2q3 45 1 89q65 -3 98 -3q57 0 130 3q-5 -35 -5 -175v-73q-90 -55 -203 -55q-116 0 -191 75.5t-75 183.5q0 121 82 202t209 81
q102 0 172 -48zM222 -237l25 17q37 26 37 58q0 23 -32 42l-14 7q7 28 26.5 43t43.5 15q28 0 46.5 -19t18.5 -49q0 -78 -125 -145z" />
    <glyph glyph-name="Gcommaaccent.alt" horiz-adv-x="739" 
d="M671 142v-86q-114 -73 -257 -73q-159 0 -262.5 102.5t-103.5 254.5q0 161 110 270.5t275 109.5q61 0 124 -18.5t105 -46.5l-34 -109q-35 28 -91 45.5t-109 17.5q-113 0 -181.5 -72.5t-68.5 -186.5q0 -119 71.5 -188t176.5 -69q71 0 124 25v112q0 102 -4 130h131
q-1 -6 -3.5 -91t-2.5 -127zM320 -237l25 17q37 26 37 58q0 23 -32 42l-14 7q7 28 26.5 43t43.5 15q28 0 46.5 -19t18.5 -49q0 -78 -125 -145z" />
    <glyph glyph-name="gcommaaccent.sc_alt" horiz-adv-x="567" 
d="M504 479l-32 -98q-65 46 -136 46q-77 0 -126 -48.5t-49 -120.5q0 -80 46.5 -125.5t116.5 -45.5q39 0 76 13v72q0 73 -4 95h119q-5 -25 -5 -155v-69q-90 -57 -203 -57q-116 0 -191 75.5t-75 183.5q0 121 82 202t207 81q103 0 174 -49zM220 -238l25 17q37 26 37 58
q0 23 -32 42l-14 7q7 28 26.5 43t43.5 15q28 0 46.5 -19t18.5 -49q0 -78 -125 -145z" />
    <glyph glyph-name="gdotaccent.sc" horiz-adv-x="567" 
d="M504 480l-32 -97q-65 44 -135 44q-78 0 -127 -48t-49 -120q0 -81 46 -127t117 -46q43 0 79 15v61q0 28 -1 39q-18 1 -37 1q-46 0 -79 -2q3 45 1 89q65 -3 98 -3q57 0 130 3q-5 -35 -5 -175v-73q-90 -55 -203 -55q-116 0 -191 75.5t-75 183.5q0 121 82 202t209 81
q102 0 172 -48zM379 675q0 -30 -20 -50.5t-51 -20.5q-30 0 -49 19t-19 47q0 30 20 50.5t51 20.5q29 0 48.5 -19.5t19.5 -46.5z" />
    <glyph glyph-name="Gdotaccent.alt" horiz-adv-x="739" 
d="M671 142v-86q-114 -73 -257 -73q-159 0 -262.5 102.5t-103.5 254.5q0 161 110 270.5t275 109.5q61 0 124 -18.5t105 -46.5l-34 -109q-35 28 -91 45.5t-109 17.5q-113 0 -181.5 -72.5t-68.5 -186.5q0 -119 71.5 -188t176.5 -69q71 0 124 25v112q0 102 -4 130h131
q-1 -6 -3.5 -91t-2.5 -127zM480 863q0 -30 -20 -50.5t-51 -20.5q-29 0 -48.5 19t-19.5 47q0 30 20 50.5t51 20.5q29 0 48.5 -19.5t19.5 -46.5z" />
    <glyph glyph-name="gdotaccent.sc_alt" horiz-adv-x="567" 
d="M504 479l-32 -98q-65 46 -136 46q-77 0 -126 -48.5t-49 -120.5q0 -80 46.5 -125.5t116.5 -45.5q39 0 76 13v72q0 73 -4 95h119q-5 -25 -5 -155v-69q-90 -57 -203 -57q-116 0 -191 75.5t-75 183.5q0 121 82 202t207 81q103 0 174 -49zM383 677q0 -30 -20 -50.5t-51 -20.5
q-30 0 -49 19t-19 47q0 30 20 50.5t51 20.5q29 0 48.5 -19.5t19.5 -46.5z" />
    <glyph glyph-name="hbar.sc" horiz-adv-x="601" 
d="M594 436q-4 -33 -4 -77q-11 0 -32 0.5t-31 0.5v-254q0 -79 4 -106h-129q6 41 6 155v52h-214v-107q0 -81 3 -100h-128q5 45 5 180v162v19q-44 -2 -65 -2q3 33 3 77l61 -2q-2 63 -4 81q96 0 128 4q-3 -17 -3 -87h108h105q-2 54 -5 83q96 0 129 4q-4 -23 -4 -85zM408 299v30
v35q-7 0 -20 0.5t-19 0.5h-175v-66h214z" />
    <glyph glyph-name="iacute.sc" horiz-adv-x="272" 
d="M164 735l158 9l-163 -154l-84 -5zM200 0h-128q5 45 5 177v162q0 133 -5 176q95 0 128 4q-3 -21 -3 -108v-305q0 -86 3 -106z" />
    <glyph glyph-name="ibreve.sc" horiz-adv-x="272" 
d="M200 0h-128q5 45 5 177v162q0 133 -5 176q95 0 128 4q-3 -21 -3 -108v-305q0 -86 3 -106zM209 747l88 5q2 -78 -42 -123.5t-121 -45.5q-70 0 -114.5 45t-44.5 115l90 12q0 -46 19.5 -69.5t54.5 -23.5t52.5 24t17.5 61z" />
    <glyph glyph-name="icircumflex.sc" horiz-adv-x="272" 
d="M78 745h126l103 -157l-80 -6l-87 89l-81 -82h-91zM200 0h-128q5 45 5 177v162q0 133 -5 176q95 0 128 4q-3 -21 -3 -108v-305q0 -86 3 -106z" />
    <glyph glyph-name="idieresis.sc" horiz-adv-x="272" 
d="M108 673q0 -30 -19.5 -51t-49.5 -21q-28 0 -46.5 19.5t-18.5 46.5q0 31 19 51.5t49 20.5q28 0 47 -19.5t19 -46.5zM301 673q0 -30 -19.5 -51t-49.5 -21q-28 0 -46.5 19.5t-18.5 46.5q0 31 19 51.5t49 20.5q28 0 47 -19.5t19 -46.5zM200 0h-128q5 45 5 177v162
q0 133 -5 176q95 0 128 4q-3 -21 -3 -108v-305q0 -86 3 -106z" />
    <glyph glyph-name="idotaccent.sc" horiz-adv-x="272" 
d="M200 0h-128q5 45 5 177v162q0 133 -5 176q95 0 128 4q-3 -21 -3 -108v-305q0 -86 3 -106zM206 675q0 -30 -20 -50.5t-51 -20.5q-29 0 -48.5 19t-19.5 47q0 30 20 50.5t51 20.5q29 0 48.5 -19.5t19.5 -46.5z" />
    <glyph glyph-name="dotlessi.sc" horiz-adv-x="272" 
d="M200 0h-128q5 45 5 177v162q0 133 -5 176q95 0 128 4q-3 -21 -3 -108v-305q0 -86 3 -106z" />
    <glyph glyph-name="igrave.sc" horiz-adv-x="272" 
d="M200 0h-128q5 45 5 177v162q0 133 -5 176q95 0 128 4q-3 -21 -3 -108v-305q0 -86 3 -106zM-40 735l144 9l87 -154l-82 -5z" />
    <glyph glyph-name="imacron.sc" horiz-adv-x="272" 
d="M200 0h-128q5 45 5 177v162q0 133 -5 176q95 0 128 4q-3 -21 -3 -108v-305q0 -86 3 -106zM299 713q-5 -42 -5 -89q-84 2 -116 2h-90q-42 0 -114 -2q4 42 4 89q79 -3 161 -3t160 3z" />
    <glyph glyph-name="iogonek.sc" horiz-adv-x="272" 
d="M200 0q-91 -57 -91 -110q0 -18 12.5 -29.5t33.5 -11.5q29 0 61 20l-5 -70q-34 -21 -83 -21q-50 0 -80 25t-30 67q0 69 88 130h-34q5 45 5 177v162q0 133 -5 176q95 0 128 4q-3 -21 -3 -108v-305q0 -86 3 -106z" />
    <glyph glyph-name="kcommaaccent.sc" horiz-adv-x="538" 
d="M529 2l-138 -9l-196 248v-135q0 -86 3 -106h-129q6 54 6 177v162q0 125 -6 176q96 0 129 4q-3 -21 -3 -108v-127l79 100l103 133h140l-208 -247l113 -142q63 -78 107 -126zM208 -237l25 17q37 26 37 58q0 23 -32 42l-14 7q7 28 26.5 43t43.5 15q28 0 46.5 -19t18.5 -49
q0 -78 -125 -145z" />
    <glyph glyph-name="lacute.sc" horiz-adv-x="430" 
d="M69 -3q5 45 5 179v163q0 133 -5 176q96 0 129 4q-3 -21 -3 -108v-272q0 -28 1 -40q9 0 29 -0.5t30 -0.5q56 0 152 2q-5 -43 -7 -103q-64 4 -163 4q-101 0 -168 -4zM190 738l158 9l-163 -154l-84 -5z" />
    <glyph glyph-name="lcaron.sc" horiz-adv-x="430" 
d="M69 -3q5 45 5 179v163q0 133 -5 176q96 0 129 4q-3 -21 -3 -108v-272q0 -28 1 -40q9 0 29 -0.5t30 -0.5q56 0 152 2q-5 -43 -7 -103q-64 4 -163 4q-101 0 -168 -4zM315 350l-49 -9q6 93 6 176q15 2 48 5.5t40 4.5q-28 -121 -45 -177z" />
    <glyph glyph-name="lcommaaccent.sc" horiz-adv-x="430" 
d="M69 -3q5 45 5 179v163q0 133 -5 176q96 0 129 4q-3 -21 -3 -108v-272q0 -28 1 -40q9 0 29 -0.5t30 -0.5q56 0 152 2q-5 -43 -7 -103q-64 4 -163 4q-101 0 -168 -4zM146 -237l25 17q37 26 37 58q0 23 -32 42l-14 7q7 28 26.5 43t43.5 15q28 0 46.5 -19t18.5 -49
q0 -78 -125 -145z" />
    <glyph glyph-name="ldot.sc" horiz-adv-x="434" 
d="M69 -3q5 45 5 179v163q0 133 -5 176q96 0 129 4q-3 -21 -3 -108v-272q0 -28 1 -40q9 0 29 -0.5t30 -0.5q56 0 152 2q-5 -43 -7 -103q-64 4 -163 4q-101 0 -168 -4zM415 298q0 -30 -20 -50.5t-51 -20.5q-30 0 -49 19.5t-19 46.5q0 30 20 50.5t51 20.5q29 0 48.5 -19.5
t19.5 -46.5z" />
    <glyph glyph-name="lslash.sc" horiz-adv-x="430" 
d="M69 -3q5 45 5 179v19l-45 -25q-13 34 -34 77l79 39v53q0 133 -5 176q96 0 129 4q-3 -21 -3 -108v-67l66 39q13 -34 34 -78q-46 -23 -100 -53v-113q0 -28 1 -40q9 0 29 -0.5t30 -0.5q56 0 152 2q-5 -43 -7 -103q-64 4 -163 4q-101 0 -168 -4z" />
    <glyph glyph-name="nacute.sc" horiz-adv-x="608" 
d="M66 0q7 84 7 177l1 170q3 122 -3 171l66 8l285 -328v141q0 135 -6 176q92 0 125 4q-2 -11 -5 -108l-3 -310q0 -75 3 -105l-65 -8l-285 327v-209q0 -76 3 -106h-123zM332 735l158 9l-163 -154l-84 -5z" />
    <glyph glyph-name="ncaron.sc" horiz-adv-x="608" 
d="M66 0q7 84 7 177l1 170q3 122 -3 171l66 8l285 -328v141q0 135 -6 176q92 0 125 4q-2 -11 -5 -108l-3 -310q0 -75 3 -105l-65 -8l-285 327v-209q0 -76 3 -106h-123zM364 590h-126l-104 155l82 6l86 -88l82 83h89z" />
    <glyph glyph-name="ncommaaccent.sc" horiz-adv-x="608" 
d="M66 0q7 84 7 177l1 170q3 122 -3 171l66 8l285 -328v141q0 135 -6 176q92 0 125 4q-2 -11 -5 -108l-3 -310q0 -75 3 -105l-65 -8l-285 327v-209q0 -76 3 -106h-123zM213 -237l25 17q37 26 37 58q0 23 -32 42l-14 7q7 28 26.5 43t43.5 15q28 0 46.5 -19t18.5 -49
q0 -78 -125 -145z" />
    <glyph glyph-name="ntilde.sc" horiz-adv-x="608" 
d="M66 0q7 84 7 177l1 170q3 122 -3 171l66 8l285 -328v141q0 135 -6 176q92 0 125 4q-2 -11 -5 -108l-3 -310q0 -75 3 -105l-65 -8l-285 327v-209q0 -76 3 -106h-123zM118 599q14 81 42 115t71 34q34 0 85.5 -34.5t66.5 -34.5q27 0 39 72l78 -11q-24 -154 -114 -154
q-33 0 -85 35t-68 35q-14 0 -22 -14.5t-14 -53.5z" />
    <glyph glyph-name="oacute.sc" horiz-adv-x="607" 
d="M311 528q113 0 184 -74t71 -184q0 -123 -75 -203.5t-195 -80.5q-113 0 -184 74t-71 184q0 124 75 204t195 80zM302 83q64 0 104 49.5t40 123.5q0 82 -39.5 129t-101.5 47q-64 0 -104 -49.5t-40 -123.5q0 -82 39.5 -129t101.5 -47zM332 735l158 9l-163 -154l-84 -5z" />
    <glyph glyph-name="obreve.sc" horiz-adv-x="607" 
d="M311 528q113 0 184 -74t71 -184q0 -123 -75 -203.5t-195 -80.5q-113 0 -184 74t-71 184q0 124 75 204t195 80zM302 83q64 0 104 49.5t40 123.5q0 82 -39.5 129t-101.5 47q-64 0 -104 -49.5t-40 -123.5q0 -82 39.5 -129t101.5 -47zM375 747l88 5q2 -78 -42 -123.5
t-121 -45.5q-70 0 -114.5 45t-44.5 115l90 12q0 -46 19.5 -69.5t54.5 -23.5t52.5 24t17.5 61z" />
    <glyph glyph-name="ocircumflex.sc" horiz-adv-x="607" 
d="M244 745h126l103 -157l-80 -6l-87 89l-81 -82h-91zM311 528q113 0 184 -74t71 -184q0 -123 -75 -203.5t-195 -80.5q-113 0 -184 74t-71 184q0 124 75 204t195 80zM302 83q64 0 104 49.5t40 123.5q0 82 -39.5 129t-101.5 47q-64 0 -104 -49.5t-40 -123.5q0 -82 39.5 -129
t101.5 -47z" />
    <glyph glyph-name="odieresis.sc" horiz-adv-x="607" 
d="M274 673q0 -30 -19.5 -51t-49.5 -21q-28 0 -46.5 19.5t-18.5 46.5q0 31 19 51.5t49 20.5q28 0 47 -19.5t19 -46.5zM467 673q0 -30 -19.5 -51t-49.5 -21q-28 0 -46.5 19.5t-18.5 46.5q0 31 19 51.5t49 20.5q28 0 47 -19.5t19 -46.5zM311 528q113 0 184 -74t71 -184
q0 -123 -75 -203.5t-195 -80.5q-113 0 -184 74t-71 184q0 124 75 204t195 80zM302 83q64 0 104 49.5t40 123.5q0 82 -39.5 129t-101.5 47q-64 0 -104 -49.5t-40 -123.5q0 -82 39.5 -129t101.5 -47z" />
    <glyph glyph-name="ograve.sc" horiz-adv-x="607" 
d="M311 528q113 0 184 -74t71 -184q0 -123 -75 -203.5t-195 -80.5q-113 0 -184 74t-71 184q0 124 75 204t195 80zM302 83q64 0 104 49.5t40 123.5q0 82 -39.5 129t-101.5 47q-64 0 -104 -49.5t-40 -123.5q0 -82 39.5 -129t101.5 -47zM126 735l144 9l87 -154l-82 -5z" />
    <glyph glyph-name="ohungarumlaut.sc" horiz-adv-x="607" 
d="M311 528q113 0 184 -74t71 -184q0 -123 -75 -203.5t-195 -80.5q-113 0 -184 74t-71 184q0 124 75 204t195 80zM302 83q64 0 104 49.5t40 123.5q0 82 -39.5 129t-101.5 47q-64 0 -104 -49.5t-40 -123.5q0 -82 39.5 -129t101.5 -47zM223 740l135 8l-97 -159l-82 -3z
M402 742l139 10l-111 -161l-82 -3z" />
    <glyph glyph-name="omacron.sc" horiz-adv-x="607" 
d="M311 528q113 0 184 -74t71 -184q0 -123 -75 -203.5t-195 -80.5q-113 0 -184 74t-71 184q0 124 75 204t195 80zM302 83q64 0 104 49.5t40 123.5q0 82 -39.5 129t-101.5 47q-64 0 -104 -49.5t-40 -123.5q0 -82 39.5 -129t101.5 -47zM466 713q-5 -42 -5 -89q-84 2 -116 2
h-90q-42 0 -114 -2q4 42 4 89q79 -3 161 -3t160 3z" />
    <glyph glyph-name="oslash.sc" horiz-adv-x="607" 
d="M98 -34l-56 40l60 65q-61 70 -61 173q0 124 75 204t195 80q83 0 145 -42l53 62q31 -28 55 -43q-13 -13 -57 -65q59 -72 59 -170q0 -123 -75 -203.5t-195 -80.5q-81 0 -144 41zM161 259q0 -58 20 -98l207 243q-36 28 -83 28q-64 0 -104 -49.5t-40 -123.5zM302 83
q64 0 104 49.5t40 123.5q0 54 -19 95l-206 -241q35 -27 81 -27z" />
    <glyph glyph-name="oslashacute.sc" horiz-adv-x="607" 
d="M98 -34l-56 40l60 65q-61 70 -61 173q0 124 75 204t195 80q83 0 145 -42l53 62q31 -28 55 -43q-13 -13 -57 -65q59 -72 59 -170q0 -123 -75 -203.5t-195 -80.5q-81 0 -144 41zM161 259q0 -58 20 -98l207 243q-36 28 -83 28q-64 0 -104 -49.5t-40 -123.5zM302 83
q64 0 104 49.5t40 123.5q0 54 -19 95l-206 -241q35 -27 81 -27zM332 735l158 9l-163 -154l-84 -5z" />
    <glyph glyph-name="otilde.sc" horiz-adv-x="607" 
d="M311 528q113 0 184 -74t71 -184q0 -123 -75 -203.5t-195 -80.5q-113 0 -184 74t-71 184q0 124 75 204t195 80zM302 83q64 0 104 49.5t40 123.5q0 82 -39.5 129t-101.5 47q-64 0 -104 -49.5t-40 -123.5q0 -82 39.5 -129t101.5 -47zM118 599q14 81 42 115t71 34
q34 0 85.5 -34.5t66.5 -34.5q27 0 39 72l78 -11q-24 -154 -114 -154q-33 0 -85 35t-68 35q-14 0 -22 -14.5t-14 -53.5z" />
    <glyph glyph-name="racute.sc" horiz-adv-x="520" 
d="M280 735l158 9l-163 -154l-84 -5zM192 264h59q42 0 67 23t25 58q0 80 -101 80q-17 0 -49 -2q-1 -16 -1 -41v-118zM503 4l-134 -11l-113 187h-11l-52 -1v-73q0 -86 3 -106h-127q5 45 5 177v162q0 133 -5 176q13 0 79 2t83 2q110 1 170 -42t59 -115q-1 -99 -101 -151
l81 -119q14 -21 63 -88z" />
    <glyph glyph-name="rcaron.sc" horiz-adv-x="520" 
d="M313 590h-126l-104 155l82 6l86 -88l82 83h89zM192 264h59q42 0 67 23t25 58q0 80 -101 80q-17 0 -49 -2q-1 -16 -1 -41v-118zM503 4l-134 -11l-113 187h-11l-52 -1v-73q0 -86 3 -106h-127q5 45 5 177v162q0 133 -5 176q13 0 79 2t83 2q110 1 170 -42t59 -115
q-1 -99 -101 -151l81 -119q14 -21 63 -88z" />
    <glyph glyph-name="rcommaaccent.sc" horiz-adv-x="520" 
d="M181 -237l25 17q37 26 37 58q0 23 -32 42l-14 7q7 28 26.5 43t43.5 15q28 0 46.5 -19t18.5 -49q0 -78 -125 -145zM192 264h59q42 0 67 23t25 58q0 80 -101 80q-17 0 -49 -2q-1 -16 -1 -41v-118zM503 4l-134 -11l-113 187h-11l-52 -1v-73q0 -86 3 -106h-127q5 45 5 177
v162q0 133 -5 176q13 0 79 2t83 2q110 1 170 -42t59 -115q-1 -99 -101 -151l81 -119q14 -21 63 -88z" />
    <glyph glyph-name="sacute.sc" horiz-adv-x="434" 
d="M259 735l158 9l-163 -154l-84 -5zM394 150q0 -75 -52 -119.5t-137 -44.5q-91 0 -163 43l4 108q30 -21 74 -37.5t86 -16.5q34 0 53.5 14.5t19.5 41.5q0 22 -23 40.5t-55.5 34.5t-65.5 35t-56 50t-23 71q0 72 50.5 115t131.5 43q85 0 141 -37l-25 -96q-57 37 -111 37
q-33 0 -51.5 -15t-18.5 -38q0 -20 23 -37.5t55.5 -33t64.5 -34t55 -50.5t23 -74z" />
    <glyph glyph-name="scaron.sc" horiz-adv-x="434" 
d="M291 590h-126l-104 155l82 6l86 -88l82 83h89zM394 150q0 -75 -52 -119.5t-137 -44.5q-91 0 -163 43l4 108q30 -21 74 -37.5t86 -16.5q34 0 53.5 14.5t19.5 41.5q0 22 -23 40.5t-55.5 34.5t-65.5 35t-56 50t-23 71q0 72 50.5 115t131.5 43q85 0 141 -37l-25 -96
q-57 37 -111 37q-33 0 -51.5 -15t-18.5 -38q0 -20 23 -37.5t55.5 -33t64.5 -34t55 -50.5t23 -74z" />
    <glyph glyph-name="scedilla.sc" horiz-adv-x="434" 
d="M394 150q0 -66 -42 -109.5t-112 -51.5l-13 -50q104 -27 104 -95q0 -38 -31 -63.5t-86 -25.5q-43 0 -91 15l15 63q44 -14 79 -14q37 0 37 24q0 29 -92 48l-4 4q11 34 25 92q-82 6 -141 42l4 108q30 -21 74 -37.5t86 -16.5q34 0 53.5 14.5t19.5 41.5q0 22 -23 40.5
t-55.5 34.5t-65.5 35t-56 50t-23 71q0 72 50.5 115t131.5 43q85 0 141 -37l-25 -96q-57 37 -111 37q-33 0 -51.5 -15t-18.5 -38q0 -20 23 -37.5t55.5 -33t64.5 -34t55 -50.5t23 -74z" />
    <glyph glyph-name="scommaaccent.sc" horiz-adv-x="434" 
d="M119 -237l25 17q37 26 37 58q0 23 -32 42l-14 7q7 28 26.5 43t43.5 15q28 0 46.5 -19t18.5 -49q0 -78 -125 -145zM394 150q0 -75 -52 -119.5t-137 -44.5q-91 0 -163 43l4 108q30 -21 74 -37.5t86 -16.5q34 0 53.5 14.5t19.5 41.5q0 22 -23 40.5t-55.5 34.5t-65.5 35
t-56 50t-23 71q0 72 50.5 115t131.5 43q85 0 141 -37l-25 -96q-57 37 -111 37q-33 0 -51.5 -15t-18.5 -38q0 -20 23 -37.5t55.5 -33t64.5 -34t55 -50.5t23 -74z" />
    <glyph glyph-name="tcaron.sc" horiz-adv-x="506" 
d="M476 520q-6 -66 -6 -107q-106 2 -156 2q-1 -15 -1 -46v-263q0 -86 3 -106h-129q6 54 6 177v128q0 51 -3 110q-56 0 -160 -2q2 31 2 107q140 -4 220 -4q84 0 224 4zM314 590h-126l-104 155l82 6l86 -88l82 83h89z" />
    <glyph glyph-name="tcommaaccent.sc" horiz-adv-x="506" 
d="M476 520q-6 -66 -6 -107q-106 2 -156 2q-1 -15 -1 -46v-263q0 -86 3 -106h-129q6 54 6 177v128q0 51 -3 110q-56 0 -160 -2q2 31 2 107q140 -4 220 -4q84 0 224 4zM163 -237l25 17q37 26 37 58q0 23 -32 42l-14 7q7 28 26.5 43t43.5 15q28 0 46.5 -19t18.5 -49
q0 -78 -125 -145z" />
    <glyph glyph-name="uacute.sc" horiz-adv-x="587" 
d="M321 735l158 9l-163 -154l-84 -5zM523 519q-4 -28 -4 -108v-188q0 -115 -61 -174q-65 -63 -173 -63q-98 0 -157 52.5t-59 146.5v154q0 125 -6 176q96 0 128 4q-3 -31 -3 -108v-200q0 -123 109 -123q49 0 76 29t27 82v140q0 125 -6 176q96 0 129 4z" />
    <glyph glyph-name="ubreve.sc" horiz-adv-x="587" 
d="M523 519q-4 -28 -4 -108v-188q0 -115 -61 -174q-65 -63 -173 -63q-98 0 -157 52.5t-59 146.5v154q0 125 -6 176q96 0 128 4q-3 -31 -3 -108v-200q0 -123 109 -123q49 0 76 29t27 82v140q0 125 -6 176q96 0 129 4zM364 747l88 5q2 -78 -42 -123.5t-121 -45.5
q-70 0 -114.5 45t-44.5 115l90 12q0 -46 19.5 -69.5t54.5 -23.5t52.5 24t17.5 61z" />
    <glyph glyph-name="ucircumflex.sc" horiz-adv-x="587" 
d="M233 745h126l103 -157l-80 -6l-87 89l-81 -82h-91zM523 519q-4 -28 -4 -108v-188q0 -115 -61 -174q-65 -63 -173 -63q-98 0 -157 52.5t-59 146.5v154q0 125 -6 176q96 0 128 4q-3 -31 -3 -108v-200q0 -123 109 -123q49 0 76 29t27 82v140q0 125 -6 176q96 0 129 4z" />
    <glyph glyph-name="udieresis.sc" horiz-adv-x="587" 
d="M263 673q0 -30 -19.5 -51t-49.5 -21q-28 0 -46.5 19.5t-18.5 46.5q0 31 19 51.5t49 20.5q28 0 47 -19.5t19 -46.5zM456 673q0 -30 -19.5 -51t-49.5 -21q-28 0 -46.5 19.5t-18.5 46.5q0 31 19 51.5t49 20.5q28 0 47 -19.5t19 -46.5zM523 519q-4 -28 -4 -108v-188
q0 -115 -61 -174q-65 -63 -173 -63q-98 0 -157 52.5t-59 146.5v154q0 125 -6 176q96 0 128 4q-3 -31 -3 -108v-200q0 -123 109 -123q49 0 76 29t27 82v140q0 125 -6 176q96 0 129 4z" />
    <glyph glyph-name="ugrave.sc" horiz-adv-x="587" 
d="M115 735l144 9l87 -154l-82 -5zM523 519q-4 -28 -4 -108v-188q0 -115 -61 -174q-65 -63 -173 -63q-98 0 -157 52.5t-59 146.5v154q0 125 -6 176q96 0 128 4q-3 -31 -3 -108v-200q0 -123 109 -123q49 0 76 29t27 82v140q0 125 -6 176q96 0 129 4z" />
    <glyph glyph-name="uhungarumlaut.sc" horiz-adv-x="587" 
d="M212 740l135 8l-97 -159l-82 -3zM391 742l139 10l-111 -161l-82 -3zM523 519q-4 -28 -4 -108v-188q0 -115 -61 -174q-65 -63 -173 -63q-98 0 -157 52.5t-59 146.5v154q0 125 -6 176q96 0 128 4q-3 -31 -3 -108v-200q0 -123 109 -123q49 0 76 29t27 82v140q0 125 -6 176
q96 0 129 4z" />
    <glyph glyph-name="umacron.sc" horiz-adv-x="587" 
d="M455 713q-5 -42 -5 -89q-84 2 -116 2h-90q-42 0 -114 -2q4 42 4 89q79 -3 161 -3t160 3zM523 519q-4 -28 -4 -108v-188q0 -115 -61 -174q-65 -63 -173 -63q-98 0 -157 52.5t-59 146.5v154q0 125 -6 176q96 0 128 4q-3 -31 -3 -108v-200q0 -123 109 -123q49 0 76 29t27 82
v140q0 125 -6 176q96 0 129 4z" />
    <glyph glyph-name="uogonek.sc" horiz-adv-x="587" 
d="M200 -130q0 62 79 116q-96 2 -153 54t-57 145v154q0 125 -6 176q96 0 128 4q-3 -31 -3 -108v-200q0 -123 109 -123q49 0 76 29t27 82v140q0 125 -6 176q96 0 129 4q-4 -28 -4 -108v-188q0 -62 -14.5 -101.5t-46.5 -70.5q-26 -26 -83 -57q-34 -18 -59 -44.5t-25 -58.5
q0 -19 12 -30.5t34 -11.5q29 0 61 20l-5 -70q-35 -21 -82 -21q-50 0 -80.5 25t-30.5 67z" />
    <glyph glyph-name="uring.sc" horiz-adv-x="587" 
d="M420 708q0 -52 -36.5 -88.5t-94.5 -36.5q-56 0 -90.5 33t-34.5 80q0 53 36.5 88t94.5 35q56 0 90.5 -32t34.5 -79zM347 702q0 25 -14.5 40.5t-40.5 15.5q-25 0 -40 -16t-15 -39q0 -26 15 -42t39 -16q26 0 41 16.5t15 40.5zM523 519q-4 -28 -4 -108v-188q0 -115 -61 -174
q-65 -63 -173 -63q-98 0 -157 52.5t-59 146.5v154q0 125 -6 176q96 0 128 4q-3 -31 -3 -108v-200q0 -123 109 -123q49 0 76 29t27 82v140q0 125 -6 176q96 0 129 4z" />
    <glyph glyph-name="wacute.sc" horiz-adv-x="777" 
d="M762 515l-135 -373q-16 -44 -50 -145l-68 -8l-120 336l-69 -193l-50 -140l-69 -2l-131 374q-33 93 -56 149l126 6l107 -337l69 207l12 35.5l19 56.5t13 36l63 7l119 -338l59 200q7 19 20.5 67.5t17.5 61.5h123zM417 735l158 9l-163 -154l-84 -5z" />
    <glyph glyph-name="wcircumflex.sc" horiz-adv-x="777" 
d="M762 515l-135 -373q-16 -44 -50 -145l-68 -8l-120 336l-69 -193l-50 -140l-69 -2l-131 374q-33 93 -56 149l126 6l107 -337l69 207l12 35.5l19 56.5t13 36l63 7l119 -338l59 200q7 19 20.5 67.5t17.5 61.5h123zM330 745h126l103 -157l-80 -6l-87 89l-81 -82h-91z" />
    <glyph glyph-name="wdieresis.sc" horiz-adv-x="777" 
d="M762 515l-135 -373q-16 -44 -50 -145l-68 -8l-120 336l-69 -193l-50 -140l-69 -2l-131 374q-33 93 -56 149l126 6l107 -337l69 207l12 35.5l19 56.5t13 36l63 7l119 -338l59 200q7 19 20.5 67.5t17.5 61.5h123zM360 673q0 -30 -19.5 -51t-49.5 -21q-28 0 -46.5 19.5
t-18.5 46.5q0 31 19 51.5t49 20.5q28 0 47 -19.5t19 -46.5zM553 673q0 -30 -19.5 -51t-49.5 -21q-28 0 -46.5 19.5t-18.5 46.5q0 31 19 51.5t49 20.5q28 0 47 -19.5t19 -46.5z" />
    <glyph glyph-name="wgrave.sc" horiz-adv-x="777" 
d="M762 515l-135 -373q-16 -44 -50 -145l-68 -8l-120 336l-69 -193l-50 -140l-69 -2l-131 374q-33 93 -56 149l126 6l107 -337l69 207l12 35.5l19 56.5t13 36l63 7l119 -338l59 200q7 19 20.5 67.5t17.5 61.5h123zM212 735l144 9l87 -154l-82 -5z" />
    <glyph glyph-name="yacute.sc" horiz-adv-x="516" 
d="M10 515l128 6l122 -209l36 60l43.5 73.5l41.5 70.5h128l-194 -300v-110q0 -79 4 -106h-127q6 54 6 177v38l-76 122zM288 735l158 9l-163 -154l-84 -5z" />
    <glyph glyph-name="ycircumflex.sc" horiz-adv-x="516" 
d="M10 515l128 6l122 -209l36 60l43.5 73.5l41.5 70.5h128l-194 -300v-110q0 -79 4 -106h-127q6 54 6 177v38l-76 122zM200 745h126l103 -157l-80 -6l-87 89l-81 -82h-91z" />
    <glyph glyph-name="ydieresis.sc" horiz-adv-x="516" 
d="M10 515l128 6l122 -209l36 60l43.5 73.5l41.5 70.5h128l-194 -300v-110q0 -79 4 -106h-127q6 54 6 177v38l-76 122zM230 673q0 -30 -19.5 -51t-49.5 -21q-28 0 -46.5 19.5t-18.5 46.5q0 31 19 51.5t49 20.5q28 0 47 -19.5t19 -46.5zM423 673q0 -30 -19.5 -51t-49.5 -21
q-28 0 -46.5 19.5t-18.5 46.5q0 31 19 51.5t49 20.5q28 0 47 -19.5t19 -46.5z" />
    <glyph glyph-name="ygrave.sc" horiz-adv-x="516" 
d="M10 515l128 6l122 -209l36 60l43.5 73.5l41.5 70.5h128l-194 -300v-110q0 -79 4 -106h-127q6 54 6 177v38l-76 122zM82 735l144 9l87 -154l-82 -5z" />
    <glyph glyph-name="zacute.sc" horiz-adv-x="505" 
d="M294 735l158 9l-163 -154l-84 -5zM462 520l17 -44l-281 -380q18 -1 90 -1q90 0 174 2q-4 -45 -6 -100q-59 4 -200 4q-140 0 -212 -4l-17 45l281 380q-19 1 -82 1q-68 0 -170 -2q3 25 5 99q96 -4 201 -4q133 0 200 4z" />
    <glyph glyph-name="zcaron.sc" horiz-adv-x="505" 
d="M326 590h-126l-104 155l82 6l86 -88l82 83h89zM462 520l17 -44l-281 -380q18 -1 90 -1q90 0 174 2q-4 -45 -6 -100q-59 4 -200 4q-140 0 -212 -4l-17 45l281 380q-19 1 -82 1q-68 0 -170 -2q3 25 5 99q96 -4 201 -4q133 0 200 4z" />
    <glyph glyph-name="zdotaccent.sc" horiz-adv-x="505" 
d="M462 520l17 -44l-281 -380q18 -1 90 -1q90 0 174 2q-4 -45 -6 -100q-59 4 -200 4q-140 0 -212 -4l-17 45l281 380q-19 1 -82 1q-68 0 -170 -2q3 25 5 99q96 -4 201 -4q133 0 200 4zM335 675q0 -30 -20 -50.5t-51 -20.5q-30 0 -49 19t-19 47q0 30 20 50.5t51 20.5
q29 0 48.5 -19.5t19.5 -46.5z" />
    <glyph glyph-name="ae.sc" horiz-adv-x="713" 
d="M116 0h-125l232 383q49 81 80 137q112 -4 176 -4q75 0 185 4q-6 -62 -6 -100q-40 1 -131 1h-67q-1 -12 -1 -35v-76l171 2q-2 -27 -2 -89l-169 1v-93q0 -24 1 -35q10 0 33 -0.5t34 -0.5q81 0 152 3q-5 -39 -5 -101q-65 4 -166 4q-106 0 -173 -4q4 46 4 115h-160zM340 341
q0 31 -1 50l-116 -199h117v149z" />
    <glyph glyph-name="aeacute.sc" horiz-adv-x="713" 
d="M116 0h-125l232 383q49 81 80 137q112 -4 176 -4q75 0 185 4q-6 -62 -6 -100q-40 1 -131 1h-67q-1 -12 -1 -35v-76l171 2q-2 -27 -2 -89l-169 1v-93q0 -24 1 -35q10 0 33 -0.5t34 -0.5q81 0 152 3q-5 -39 -5 -101q-65 4 -166 4q-106 0 -173 -4q4 46 4 115h-160zM464 735
l158 9l-163 -154l-84 -5zM340 341q0 31 -1 50l-116 -199h117v149z" />
    <glyph glyph-name="oe.sc" horiz-adv-x="745" 
d="M315 519q24 0 100.5 -1.5t108.5 -1.5q69 0 173 4q-6 -46 -6 -100q-41 1 -132 1h-67q-1 -12 -1 -35v-76l171 2q-2 -27 -2 -89l-169 1v-93q0 -24 1 -35q10 0 33 -0.5t34 -0.5q81 0 152 3q-3 -33 -5 -101q-65 4 -166 4q-28 0 -106.5 -0.5t-101.5 -0.5q-138 0 -214.5 68
t-76.5 181q0 122 75 196t199 74zM160 256q0 -74 43.5 -117.5t120.5 -43.5q12 0 46 2q1 11 1 39v251q0 22 -1 34q-36 4 -48 4q-82 0 -122 -47.5t-40 -121.5z" />
    <glyph glyph-name="eth.sc" horiz-adv-x="566" 
d="M525 271q0 -122 -75.5 -196.5t-199.5 -74.5h-181q5 45 5 177v43q-48 -2 -66 -2q3 32 3 85l63 -3v39q0 132 -5 176q7 0 63 2t101 2q139 0 215.5 -67.5t76.5 -180.5zM406 263q0 74 -43.5 118t-120.5 44q-13 0 -47 -2q-1 -11 -1 -39v-84q51 0 96 3q-5 -38 -5 -85
q-64 2 -91 2v-87q0 -23 1 -35q4 0 20.5 -1.5t28.5 -1.5q82 0 122 47t40 121z" />
    <glyph glyph-name="thorn.sc" horiz-adv-x="501" 
d="M194 436h55q104 0 161.5 -47t57.5 -123q0 -82 -60.5 -133t-175.5 -51q-29 0 -38 1q0 -51 3 -83h-128q5 45 5 177v162q0 133 -5 176q78 0 128 4q-3 -19 -3 -83zM194 340q-1 -15 -1 -37v-130q11 -2 40 -2q54 0 86.5 22t32.5 64q0 84 -109 84q-31 0 -49 -1z" />
    <glyph glyph-name="one.alt" horiz-adv-x="317" 
d="M224 0h-132q7 62 7 168v165q0 111 -7 174q70 0 132 6q-4 -36 -4 -109v-305q0 -63 4 -99z" />
    <glyph glyph-name="zero.lin" horiz-adv-x="626" 
d="M318 703q121 0 189.5 -98.5t68.5 -250.5q0 -165 -72.5 -268.5t-197.5 -103.5q-121 0 -188.5 98.5t-67.5 250.5q0 165 72.5 268.5t195.5 103.5zM313 84q64 0 101.5 72.5t37.5 181.5q0 127 -37.5 195t-101.5 68t-102 -72.5t-38 -181.5q0 -127 38.5 -195t101.5 -68z" />
    <glyph glyph-name="one.lin" horiz-adv-x="410" 
d="M274 702l30 -9q-4 -28 -4 -116v-467q0 -79 4 -110h-131q5 45 5 185v379l-139 -43l-21 100q63 18 182 57z" />
    <glyph glyph-name="two.lin" horiz-adv-x="563" 
d="M211 104q89 0 299 5q-4 -45 -7 -113q-95 4 -220 4q-137 0 -233 -4l-14 85q189 177 227 218q94 99 104 167q2 11 2 22q0 47 -31 75t-84 28q-80 0 -162 -65l-32 101q101 73 217 73q96 0 155.5 -51.5t59.5 -139.5q0 -67 -33 -124t-99 -131q-69 -80 -149 -150z" />
    <glyph glyph-name="three.lin" horiz-adv-x="530" 
d="M53 12l-16 110q91 -31 169 -31q68 0 107.5 24.5t39.5 65.5q0 53 -56 83.5t-166 33.5l-12 78q109 22 166.5 60t57.5 83q0 31 -29 53t-81 22q-84 0 -151 -51l-32 96q97 61 200 61q96 0 156.5 -46.5t60.5 -115.5q0 -122 -165 -181q178 -38 178 -170q0 -91 -72 -147t-187 -56
q-95 0 -168 28z" />
    <glyph glyph-name="four.lin" horiz-adv-x="595" 
d="M342 0q5 40 5 155v22h-50q-167 0 -258 -4l-19 83l278 349l74 96l97 -8q-3 -44 -3 -117v-303q84 0 108 2q-8 -61 -8 -102l-100 3v-61q0 -81 3 -115h-127zM151 270h198l2 249z" />
    <glyph glyph-name="five.lin" horiz-adv-x="539" 
d="M490 202q0 -97 -69 -157.5t-184 -60.5q-98 0 -174 28l-13 109q97 -30 172 -30q66 0 105 32t39 78q0 56 -48 86t-140 30q-27 0 -85 -6l-14 7q4 50 6 113l3 129q2 90 0 111l16 15q123 -3 183 -3q63 0 185 3q-10 -54 -12 -114q-114 2 -165 2h-91l-6 -161h36
q125 -3 190.5 -61t65.5 -150z" />
    <glyph glyph-name="six.lin" horiz-adv-x="570" 
d="M472 605q-247 -39 -304 -231q62 67 156 67q87 0 147.5 -62.5t60.5 -154.5q0 -103 -69 -172.5t-177 -69.5q-112 0 -176.5 75t-64.5 206q0 179 102.5 298t301.5 147zM410 219q0 60 -34 95t-88 35q-49 0 -84 -37t-35 -95q0 -60 34.5 -98t87.5 -38t86 38.5t33 99.5z" />
    <glyph glyph-name="seven.lin" horiz-adv-x="540" 
d="M42 686q124 -3 220 -3q114 0 228 3l21 -61q-15 -26 -59 -121l-185 -379q-40 -77 -61 -134l-133 15q40 69 89 170l193 396h-127q-130 0 -193 -1q7 95 7 115z" />
    <glyph glyph-name="eight.lin" horiz-adv-x="579" 
d="M47 171q0 64 39.5 110t107.5 70q-54 24 -88.5 66t-34.5 96q0 80 65 135t163 55q97 0 158.5 -53t61.5 -128q0 -105 -124 -165q136 -62 136 -175q0 -87 -67.5 -143.5t-176.5 -56.5q-107 0 -173.5 54t-66.5 135zM409 177q0 44 -30.5 75.5t-91.5 55.5q-118 -45 -118 -130
q0 -46 36 -73.5t90 -27.5q51 0 82.5 28.5t31.5 71.5zM189 516q0 -73 115 -116q45 18 71 49t26 66q0 42 -30 68t-76 26q-47 0 -76.5 -26.5t-29.5 -66.5z" />
    <glyph glyph-name="nine.lin" horiz-adv-x="570" 
d="M98 79q248 39 303 231q-61 -66 -154 -66q-88 0 -148.5 62t-60.5 154q0 103 69 172.5t177 69.5q112 0 177 -75t65 -205q0 -117 -43.5 -209t-135.5 -154.5t-226 -81.5zM160 466q0 -61 34 -96t88 -35q49 0 84 37.5t35 94.5q0 61 -34.5 99t-87.5 38t-86 -39t-33 -99z" />
    <glyph glyph-name="hyphen.lin" horiz-adv-x="425" 
d="M367 393q-5 -40 -5 -91q-78 2 -111 2h-83q-42 0 -108 -2q3 33 3 91q72 -3 152 -3t152 3z" />
    <glyph glyph-name="endash.lin" horiz-adv-x="534" 
d="M476 393q-5 -40 -5 -91q-114 2 -161 2h-87q-55 0 -163 -2q3 33 3 91q100 -3 208 -3q107 0 205 3z" />
    <glyph glyph-name="emdash.lin" horiz-adv-x="1007" 
d="M947 393q-5 -40 -5 -91q-142 2 -221 2h-437q-96 0 -224 -2q3 33 3 91q126 -3 440 -3q319 0 444 3z" />
    <glyph glyph-name="parenleft.lin" horiz-adv-x="413" 
d="M366 -136q-132 73 -215.5 198.5t-83.5 278.5q0 156 83 283.5t216 201.5l46 -65q-101 -66 -166 -170.5t-65 -245.5t65 -245t166 -171z" />
    <glyph glyph-name="parenright.lin" horiz-adv-x="413" 
d="M47 -136l-46 66q101 65 166 169.5t65 245.5t-65.5 245t-166.5 171l47 65q132 -73 215.5 -198t83.5 -279q0 -155 -83 -283t-216 -202z" />
    <glyph glyph-name="bracketleft.lin" horiz-adv-x="389" 
d="M383 -40q-7 -61 -8 -93q-45 4 -125 4q-98 0 -153 -4l-12 7q6 58 6 200v546q0 136 -6 195l13 14q68 -5 148 -5q71 0 132 4q-3 -36 -5 -94q-82 2 -114 2q-40 0 -60 -1v-648q0 -96 4 -128q10 0 29.5 -0.5t30.5 -0.5q36 0 120 2z" />
    <glyph glyph-name="bracketright.lin" horiz-adv-x="389" 
d="M6 734q7 47 8 94q45 -4 125 -4q98 0 153 4l12 -7q-6 -58 -6 -200v-546q0 -137 6 -195l-13 -14q-68 5 -148 5q-71 0 -132 -4q3 34 5 93q82 -2 114 -2q40 0 60 1v646q0 98 -4 130q-10 0 -29.5 0.5t-30.5 0.5q-36 0 -120 -2z" />
    <glyph glyph-name="braceleft.lin" horiz-adv-x="406" 
d="M59 320v54q78 19 106.5 35t28.5 34q0 14 -34.5 76t-34.5 105q0 151 218 199l20 -70q-129 -37 -129 -111q0 -28 32.5 -89.5t32.5 -90.5q0 -74 -108 -115q108 -37 108 -115q0 -28 -32.5 -89t-32.5 -90q0 -72 129 -111l-20 -70q-218 48 -218 199q0 43 34.5 105t34.5 76
q0 35 -135 68z" />
    <glyph glyph-name="braceright.lin" horiz-adv-x="406" 
d="M346 375v-54q-134 -33 -134 -68q0 -14 34 -76.5t34 -105.5q0 -151 -217 -199l-20 70q129 39 129 111q0 28 -32.5 89.5t-32.5 90.5q0 74 107 115q-107 36 -107 115q0 29 32.5 90t32.5 89q0 74 -129 111l20 70q217 -48 217 -199q0 -43 -34 -105t-34 -76q0 -35 134 -68z" />
    <glyph glyph-name="at.cap" horiz-adv-x="824" 
d="M552 164q-50 0 -68 33t-5 83q-26 -53 -66 -84.5t-74 -31.5q-45 0 -69 34.5t-24 90.5q0 89 61 169t141 80q55 0 78 -25l59 30l12 -8l-40 -250q-6 -27 -1.5 -45t25.5 -18q50 0 92.5 54.5t42.5 142.5q0 100 -64 171.5t-196 71.5t-226 -100.5t-94 -236.5q0 -135 78.5 -210
t204.5 -75q59 0 123.5 17t110.5 45l19 -48q-118 -72 -265 -72q-145 0 -239 96.5t-94 231.5q0 121 58.5 216.5t148.5 144.5t191 49q73 0 132.5 -24.5t96.5 -65t57 -91t20 -104.5q0 -111 -64.5 -191t-161.5 -80zM499 452q-18 17 -52 17q-43 0 -78 -50.5t-35 -110.5
q0 -72 42 -72q31 0 67.5 46.5t46.5 114.5z" />
    <glyph glyph-name="registered.alt" horiz-adv-x="866" 
d="M804 351q0 -154 -108.5 -262.5t-262.5 -108.5t-262.5 108.5t-108.5 262.5t108.5 262.5t262.5 108.5t262.5 -108.5t108.5 -262.5zM743 351q0 131 -90 223t-220 92t-220.5 -92.5t-90.5 -222.5t90.5 -222.5t220.5 -92.5t220 92t90 223zM301 539q9 0 58 1.5t62 1.5
q79 1 122.5 -30.5t42.5 -82.5q-1 -75 -73 -111l63 -90q30 -45 40 -55l-99 -7l-83 128h-41v-68q0 -26 2 -56h-94q3 38 3 127v116q0 89 -3 126zM393 359h34q33 0 51 16t18 42q0 56 -66 56q-15 0 -37 -2v-112z" />
    <glyph glyph-name="dollar.lin" horiz-adv-x="566" 
d="M299 -127h-92q4 29 12 112q-105 13 -185 56l6 120q76 -57 190 -72l3 32q1 4 4 35.5l7.5 80l6.5 70.5q-45 17 -71.5 30t-58.5 35.5t-47.5 54t-15.5 71.5q0 83 62 139t162 64l7 101q59 0 88 3q-2 -12 -12 -107q81 -12 142 -48l-34 -102q-54 33 -120 45l-19 -200
q43 -16 70.5 -29.5t59 -37t47 -56.5t15.5 -75q0 -86 -61 -144.5t-162 -67.5q-1 -24 -2.5 -65t-1.5 -45zM411 181q0 57 -87 97l-15 -190q48 6 75 30t27 63zM173 510q0 -54 88 -90q11 125 14 142l3 35q-49 -5 -77 -28t-28 -59z" />
    <glyph glyph-name="sterling.lin" horiz-adv-x="550" 
d="M43 298q3 33 3 94h81q-22 49 -22 101q0 88 66 148.5t168 60.5q93 0 159 -35l-25 -103q-58 33 -130 33q-51 0 -84.5 -27t-33.5 -76q0 -40 29 -100q108 1 196 8q-2 -19 -5 -95q-69 1 -154 0q6 -28 6 -45q0 -91 -74 -159q119 1 299 8q-7 -55 -7 -115q-73 4 -217 4
q-166 0 -249 -6l-15 85q75 35 112 73.5t37 90.5q0 26 -12 57z" />
    <glyph glyph-name="Euro.lin" horiz-adv-x="685" 
d="M333 298q132 0 215 4q-10 -84 -10 -88q-64 1 -205 1h-76q29 -61 83 -93.5t120 -32.5q114 0 193 71l-6 -122q-88 -56 -206 -56q-109 0 -193 61.5t-117 164.5q-21 0 -60.5 -0.5t-55.5 -0.5q3 30 3 95q44 -3 96 -3q-1 9 -1 27q0 30 3 59q-17 0 -49 -0.5t-47 -0.5q5 52 5 93
q96 -3 112 -3q37 105 121.5 166.5t198.5 61.5q115 0 191 -56l-28 -102q-69 52 -164 52q-66 0 -118.5 -34t-80.5 -94h76q140 0 233 3q-8 -61 -9 -86q-66 1 -224 1h-99q-3 -21 -3 -44q0 -30 2 -44h100z" />
    <glyph glyph-name="yen.lin" horiz-adv-x="664" 
d="M263 0q4 55 6 144q-156 0 -219 -2q3 32 3 92q90 -3 216 -3l1 57l-16 27q-142 0 -201 -1q3 30 3 90q82 -4 146 -4l-36 61l-142 224l139 7l170 -295l47 81q18 28 61.5 109t54.5 100h146l-183 -287q65 0 151 4q-2 -10 -8 -90q-59 1 -197 1l-15 -24v-60q126 0 219 3
q-2 -10 -8 -92q-62 2 -211 2v-3q0 -104 4 -141h-131z" />
    <glyph glyph-name="cent.lin" horiz-adv-x="504" 
d="M336 479l-14 -228q-4 -45 -5 -62q79 6 144 61l-4 -115q-69 -41 -144 -45q-3 -65 -2 -90h-88l8 96q-86 18 -138.5 83t-52.5 151q0 103 62 177t160 88q2 78 2 88q43 0 90 5q-2 -14 -9 -94q69 -13 118 -46l-27 -97q-41 32 -99 44q-1 -6 -1 -16zM158 346q0 -114 83 -146l3 56
l15 225v12q-48 -13 -74.5 -52t-26.5 -95z" />
    <glyph glyph-name="R_p" horiz-adv-x="1177" 
d="M622 6l-144 -14l-164 263h-92v-115q0 -100 3 -141h-136q7 66 7 236v216q0 169 -7 235q16 0 196 4q133 2 207 -55.5t72 -146.5q-3 -137 -139 -202l105 -153zM1121 251q0 -118 -70 -193.5t-159 -75.5q-70 0 -114 34v-128q0 -60 4 -93q-6 0 -66 -5.5t-65 -6.5q6 65 6 168
v346q0 107 -7 169q57 0 117 8l5 -62q62 71 147 71q92 0 147 -67t55 -165zM1004 239q0 74 -35 111.5t-88 37.5q-63 0 -103 -59v-213q37 -40 101 -40q55 0 90 48t35 115zM222 350h87q60 0 95.5 35t35.5 86q0 117 -143 117q-15 0 -40 -0.5t-35 -0.5v-237z" />
    <glyph glyph-name="numbersign.lin" horiz-adv-x="738" 
d="M560 519l-1 -6q111 0 159 2q-12 -46 -17 -98q-5 0 -59.5 0.5t-94.5 0.5l-19 -156q111 0 159 2q-14 -55 -17 -99q-5 0 -60 1t-94 1v-1q-17 -153 -17 -166h-108q13 50 29 167h-150v-1q-15 -115 -17 -166h-109q13 49 29 168q-123 0 -153 -3q1 7 7.5 44.5t8.5 54.5
q46 -2 150 -2l20 158q-86 0 -155 -3q1 3 7.5 42t8.5 56q46 -2 151 -2q12 98 14 173q56 0 107 5q-16 -86 -25 -172l-1 -6h151q13 109 15 173q55 0 107 5q-3 -15 -7.5 -46.5l-10.5 -71t-8 -54.5zM301 419l-19 -157h150l20 156z" />
    <glyph glyph-name="paragraph.lin" horiz-adv-x="688" 
d="M290 690q29 0 70.5 -1t63.5 -1q-5 -48 -5 -141v-408q0 -85 4 -139h-107q7 79 7 225v21q-147 0 -216.5 62t-69.5 168q0 88 67 151t186 63zM601 0h-108q7 55 7 234v216q0 189 -7 235q53 0 108 5q-5 -48 -5 -143v-408q0 -94 5 -139z" />
    <glyph glyph-name="section.lin" horiz-adv-x="497" 
d="M44 269q0 94 94 137q-74 47 -74 122q0 71 55.5 122.5t147.5 51.5q98 0 168 -42l-29 -100q-69 43 -140 43q-38 0 -61 -18t-23 -48q0 -26 28.5 -47t69 -38.5t81.5 -38t69.5 -55t28.5 -79.5q0 -91 -89 -136q77 -47 77 -120q0 -78 -58.5 -128.5t-162.5 -50.5q-96 0 -178 46
l5 112q89 -59 181 -59q43 0 69 19.5t26 51.5q0 25 -29.5 46t-71 37.5t-83.5 36.5t-71.5 54.5t-29.5 80.5zM158 283q0 -26 28 -46t94 -47q30 10 48 29.5t18 44.5q0 21 -19 39.5t-39.5 28.5t-59.5 27q-70 -22 -70 -76z" />
    <glyph glyph-name="ordfeminine.lin" horiz-adv-x="355" 
d="M163 673q-55 0 -95 -28l-14 72q64 34 128 34q66 0 97.5 -31t29.5 -93l-4 -116q0 -27 20 -27q6 0 16 2l9 -49q-30 -19 -63 -19q-54 0 -65 51q-13 -23 -39.5 -37t-55.5 -14q-43 0 -69 24t-26 65q0 48 41 76.5t117 28.5q8 0 28 -2l1 13q1 25 -13.5 37.5t-42.5 12.5zM161 482
q22 0 38 14.5t17 38.5l1 29q-8 1 -24 1q-72 0 -72 -45q0 -17 10.5 -27.5t29.5 -10.5z" />
    <glyph glyph-name="ordmasculine.lin" horiz-adv-x="384" 
d="M359 592q0 -75 -46.5 -125t-121.5 -50q-71 0 -115 46.5t-44 113.5q0 75 46.5 124.5t121.5 49.5q71 0 115 -46.5t44 -112.5zM265 582q0 48 -19 72.5t-49 24.5q-32 0 -51.5 -25.5t-19.5 -66.5q0 -48 18.5 -72.5t49.5 -24.5q32 0 51.5 25.5t19.5 66.5z" />
    <glyph glyph-name="degree.lin" horiz-adv-x="376" 
d="M350 603q0 -72 -45.5 -120t-117.5 -48q-68 0 -110.5 44.5t-42.5 108.5q0 70 45 117.5t116 47.5q69 0 112 -44t43 -106zM268 594q0 40 -20 63.5t-56 23.5q-35 0 -56 -24.5t-21 -60.5q0 -40 20.5 -64t55.5 -24q36 0 56.5 24.5t20.5 61.5z" />
    <glyph glyph-name="percent.lin" horiz-adv-x="765" 
d="M233 699q58 0 90.5 -38t32.5 -98q0 -91 -60.5 -170.5t-139.5 -79.5q-58 0 -90.5 38t-32.5 98q0 92 60.5 171t139.5 79zM161 390q40 0 73 58t33 118q0 57 -39 57q-40 0 -73 -58.5t-33 -118.5q0 -56 39 -56zM141 -33l-70 38l132 167l292 381q95 124 123 164
q1 -1 31.5 -18.5l39.5 -22.5q-26 -31 -95 -121l-373 -486zM608 370q58 0 91 -37.5t33 -97.5q0 -92 -61 -171t-140 -79q-57 0 -90 38t-33 98q0 91 60.5 170t139.5 79zM536 61q40 0 73 58.5t33 118.5q0 56 -39 56q-40 0 -72.5 -58t-32.5 -118q0 -57 38 -57z" />
    <glyph glyph-name="quotedbl.lin" horiz-adv-x="380" 
d="M283 486l-58 -12q8 167 7 271q11 1 37.5 4.5t48.5 6t36 3.5q-32 -154 -71 -273zM101 480l-58 -11q8 130 8 271q110 13 121 14q-31 -151 -71 -274z" />
    <glyph glyph-name="quotesingle.lin" horiz-adv-x="198" 
d="M101 480l-58 -11q8 130 8 271q110 13 121 14q-31 -151 -71 -274z" />
    <glyph glyph-name="plus.lin" horiz-adv-x="568" 
d="M496 380q-4 -32 -6 -94l-144 2h-16v-28q0 -113 4 -149h-103q5 45 7 177h-25l-142 -2q3 33 3 94q48 -2 164 -4q-2 130 -7 175q23 0 103 5q-4 -39 -4 -154v-26q131 2 166 4z" />
    <glyph glyph-name="minus.lin" horiz-adv-x="568" 
d="M476 381q-5 -43 -5 -95q-116 2 -168 2h-41q-55 0 -171 -2q3 33 3 95q104 -3 191 -3t191 3z" />
    <glyph glyph-name="divide.lin" horiz-adv-x="566" 
d="M508 379q-5 -42 -5 -92q-118 2 -178 2h-71q-65 0 -181 -2q3 33 3 92q104 -3 216 -3t216 3zM356 513q0 -29 -19 -49.5t-50 -20.5q-30 0 -48.5 19.5t-18.5 44.5q0 29 19.5 49.5t50.5 20.5q29 0 47.5 -19.5t18.5 -44.5zM356 158q0 -29 -19 -49.5t-50 -20.5q-30 0 -48.5 19.5
t-18.5 44.5q0 30 19.5 50.5t50.5 20.5q29 0 47.5 -19.5t18.5 -45.5z" />
    <glyph glyph-name="equal.lin" horiz-adv-x="568" 
d="M487 288q-4 -31 -6 -94l-141 2h-118l-140 -2q3 31 3 94q118 -4 200 -4t202 4zM487 469q-4 -29 -6 -93l-141 2h-118l-140 -2q3 32 3 93q118 -4 200 -4t202 4z" />
    <glyph glyph-name="multiply.lin" horiz-adv-x="568" 
d="M498 180l-71 -66l-142 155l-149 -153q-21 24 -65 68l151 148l-151 148q36 29 72 63l142 -148l143 154q9 -12 32.5 -37l31.5 -34l-144 -147z" />
    <glyph glyph-name="less.lin" horiz-adv-x="570" 
d="M397 83l-283 220l-2 48q90 69 284 230l56 -75q-81 -60 -133 -102l-92 -74l97 -76q86 -67 130 -95z" />
    <glyph glyph-name="greater.lin" horiz-adv-x="570" 
d="M173 581l283 -220l2 -47l-144.5 -116l-139.5 -115l-56 75l133 102l91 75l-96 75q-86 67 -130 95z" />
    <glyph glyph-name="plusminus.lin" horiz-adv-x="568" 
d="M489 466q-4 -31 -6 -95l-144 2h-9v-12q0 -108 4 -143h-104q7 53 7 155h-17l-141 -2q3 33 3 95q53 -2 155 -4q-2 107 -7 154q26 0 104 5q-4 -36 -4 -148v-11q117 2 159 4zM489 146q-5 -42 -5 -94q-120 2 -173 2h-57q-57 0 -175 -2q3 34 3 94q107 -3 203 -3q97 0 204 3z
" />
    <glyph glyph-name="onehalf.alt" horiz-adv-x="934" 
d="M617 288l-30 72q66 53 144 53q62 0 100.5 -31t38.5 -85q0 -41 -20.5 -73.5t-61.5 -71.5q-31 -30 -89 -76q35 0 105 2t75 2q0 -11 -1.5 -38l-2.5 -44q-94 2 -141 2q-56 0 -148 -2l-9 64q119 97 147 125q57 56 57 94q0 23 -16.5 36.5t-44.5 13.5q-51 0 -103 -43zM346 363
q-1 -13 -1 -78q-27 1 -89 1h-100q-57 0 -92 -1q0 56 -2 78q36 -3 77 -3h25q1 17 1 46v196l-91 -25l-12 72q20 5 66 19.5t51 15.5l47 15l27 -7q-2 -16 -2 -74v-258h19q46 0 76 3zM283 -19l-66 28l139 202l190 294q108 166 128 204q7 -4 32.5 -15.5t32.5 -15.5
q-48 -67 -112 -166l-247 -377z" />
    <glyph glyph-name="onethird.alt" horiz-adv-x="934" 
d="M599 6l-10 78q63 -17 107 -17q46 0 72 12.5t26 34.5q0 54 -135 57l-8 53q137 25 137 73q0 17 -18.5 28t-53.5 11q-58 0 -106 -28l-19 69q70 36 140 36q65 0 105.5 -27.5t40.5 -70.5q0 -72 -108 -105q116 -21 116 -98q0 -56 -48.5 -88.5t-127.5 -32.5q-60 0 -110 15z
M346 363q-1 -13 -1 -78q-27 1 -89 1h-100q-57 0 -92 -1q0 56 -2 78q36 -3 77 -3h25q1 17 1 46v196l-91 -25l-12 72q20 5 66 19.5t51 15.5l47 15l27 -7q-2 -16 -2 -74v-258h19q46 0 76 3zM285 -19l-66 28l139 202l190 294q108 166 128 204q7 -4 32.5 -15.5t32.5 -15.5
q-48 -67 -112 -166l-247 -377z" />
    <glyph glyph-name="onequarter.alt" horiz-adv-x="934" 
d="M754 0q3 18 3 81v14h-34q-102 0 -159 -3l-10 68l158 203l44 55l84 -6q-2 -17 -2 -69v-180q43 0 58 1q-5 -43 -5 -72q-28 2 -53 2v-29q0 -50 2 -65h-86zM346 363q-1 -13 -1 -78q-27 1 -89 1h-100q-57 0 -92 -1q0 56 -2 78q36 -3 77 -3h25q1 17 1 46v196l-91 -25l-12 72
q20 5 66 19.5t51 15.5l47 15l27 -7q-2 -16 -2 -74v-258h19q46 0 76 3zM307 -19l-66 28l139 202l190 294q108 166 128 204q7 -4 32.5 -15.5t32.5 -15.5q-48 -67 -112 -166l-247 -377zM762 324l-127 -165h125z" />
    <glyph glyph-name="onefifth.alt" horiz-adv-x="934" 
d="M598 8l-6 78q64 -18 111 -18q45 0 68.5 15.5t23.5 39.5q0 57 -120 57q-27 0 -59 -3l-8 5q0 11 1.5 35t1.5 30l3 77v72l9 8q108 -2 124 -2q24 0 124 2q-8 -76 -8 -81q-39 1 -107 1h-63l-3 -78h18q80 0 127.5 -32t47.5 -92t-44.5 -95.5t-123.5 -35.5q-62 0 -117 17z
M346 363q-1 -13 -1 -78q-27 1 -89 1h-100q-57 0 -92 -1q0 56 -2 78q36 -3 77 -3h25q1 17 1 46v196l-91 -25l-12 72q20 5 66 19.5t51 15.5l47 15l27 -7q-2 -16 -2 -74v-258h19q46 0 76 3zM290 -19l-66 28l139 202l190 294q108 166 128 204q7 -4 32.5 -15.5t32.5 -15.5
q-48 -67 -112 -166l-247 -377z" />
    <glyph glyph-name="onesixth.alt" horiz-adv-x="934" 
d="M853 342q-161 -16 -194 -122q38 40 101 40q56 0 93.5 -36.5t37.5 -89.5q0 -62 -45 -103t-115 -41q-73 0 -114.5 45t-41.5 126q0 105 67.5 174t195.5 81zM346 363q-1 -13 -1 -78q-27 1 -89 1h-100q-57 0 -92 -1q0 56 -2 78q36 -3 77 -3h25q1 17 1 46v196l-91 -25l-12 72
q20 5 66 19.5t51 15.5l47 15l27 -7q-2 -16 -2 -74v-258h19q46 0 76 3zM295 -19l-66 28l139 202l190 294q108 166 128 204q7 -4 32.5 -15.5t32.5 -15.5q-48 -67 -112 -166l-247 -377zM806 130q0 36 -19 53.5t-52 17.5q-32 0 -53 -19.5t-21 -49.5q0 -34 20.5 -53.5t52.5 -19.5
t52 19.5t20 51.5z" />
    <glyph glyph-name="oneeighth.alt" horiz-adv-x="934" 
d="M731 -10q-71 0 -113.5 31t-42.5 82q0 72 92 104q-78 31 -78 94q0 50 42 81.5t106 31.5t104.5 -31t41.5 -77q0 -64 -81 -97q89 -37 89 -101q0 -53 -44.5 -85.5t-115.5 -32.5zM346 363q-1 -13 -1 -78q-27 1 -89 1h-100q-57 0 -92 -1q0 56 -2 78q36 -3 77 -3h25q1 17 1 46
v196l-91 -25l-12 72q20 5 66 19.5t51 15.5l47 15l27 -7q-2 -16 -2 -74v-258h19q46 0 76 3zM289 -19l-66 28l139 202l190 294q108 166 128 204q7 -4 32.5 -15.5t32.5 -15.5q-48 -67 -112 -166l-247 -377zM807 110q0 43 -78 68q-71 -23 -71 -68q0 -24 21.5 -39t55.5 -15
q33 0 52.5 15.5t19.5 38.5zM669 301q0 -41 74 -64q60 20 60 61q0 23 -18.5 37t-48.5 14t-48.5 -14t-18.5 -34z" />
    <glyph glyph-name="one.sup_alt" 
d="M346 508q-1 -13 -1 -78q-27 1 -89 1h-100q-57 0 -92 -1q0 56 -2 78q24 -2 77 -2h25q1 17 1 45v197l-91 -26l-12 72q44 12 117 36l47 14l27 -6q-2 -17 -2 -75v-258h19q46 0 76 3z" />
    <glyph glyph-name="one.inf_alt" 
d="M346 -129q-1 -13 -1 -78q-27 1 -89 1h-100q-57 0 -92 -1q0 56 -2 78q24 -2 77 -2h25q1 17 1 45v197l-91 -26l-12 72q44 12 117 36l47 14l27 -6q-2 -17 -2 -75v-258h19q46 0 76 3z" />
    <glyph glyph-name="zero.tab" horiz-adv-x="560" 
d="M285 703q117 0 179 -97t62 -252q0 -168 -66.5 -270t-186.5 -102q-116 0 -177.5 97t-61.5 252q0 168 66 270t185 102zM279 84q60 0 94.5 72.5t34.5 181.5q0 128 -34.5 195.5t-93.5 67.5t-93.5 -72.5t-34.5 -181.5q0 -128 34.5 -195.5t92.5 -67.5z" />
    <glyph glyph-name="one.tab" horiz-adv-x="560" 
d="M521 106q-1 -11 -1.5 -53t-0.5 -56q-73 3 -190 3h-114q-53 0 -149 -3q0 6 -1 51.5t-2 57.5q43 -2 124 -2h49q1 30 1 81v379l-151 -48l-19 101l189 61l74 24l30 -9q-3 -28 -3 -116v-467v-6h38q90 0 126 2z" />
    <glyph glyph-name="two.tab" horiz-adv-x="560" 
d="M209 104q87 0 302 5q-6 -72 -7 -113q-97 4 -223 4q-137 0 -234 -4l-13 85q192 178 239 229q90 98 96 168v11q0 46 -30.5 73.5t-84.5 27.5q-81 0 -167 -73l-33 102q105 81 221 81q97 0 157.5 -51.5t60.5 -139.5q0 -70 -35 -128t-107 -135q-72 -80 -142 -142z" />
    <glyph glyph-name="three.tab" horiz-adv-x="560" 
d="M57 11l-16 110q97 -30 177 -30q77 0 121.5 24.5t44.5 66.5q0 52 -57 82.5t-168 33.5l-12 79q113 22 170 59.5t57 81.5q0 32 -31 54t-89 22q-94 0 -171 -51l-32 96q107 61 219 61q101 0 164.5 -46.5t63.5 -115.5q0 -122 -176 -181q188 -37 188 -170q0 -91 -77 -147
t-200 -56q-99 0 -176 27z" />
    <glyph glyph-name="four.tab" horiz-adv-x="560" 
d="M331 0q6 38 6 155v19h-50q-165 0 -250 -4l-18 85l265 349q65 85 74 96l97 -8q-3 -44 -3 -116v-306q40 0 86 2q-8 -59 -8 -102l-78 3v-58q0 -81 3 -115h-124zM144 267h195l2 264z" />
    <glyph glyph-name="five.tab" horiz-adv-x="560" 
d="M60 12l-14 109q105 -30 186 -30q72 0 115.5 32t43.5 78q0 56 -53.5 86t-155.5 30q-29 0 -93 -6l-14 7q0 13 3 52t3 61l3 129v111l16 15q132 -3 197 -3q69 0 199 3q-1 -8 -4.5 -32.5t-6 -46t-2.5 -35.5q-120 2 -178 2h-105l-6 -161h16h19.5h15.5q132 -3 200.5 -61
t68.5 -150q0 -96 -73 -157t-194 -61q-106 0 -187 28z" />
    <glyph glyph-name="six.tab" horiz-adv-x="560" 
d="M467 605q-251 -40 -304 -233q59 69 155 69q88 0 148 -62t60 -155q0 -103 -69 -172.5t-176 -69.5q-111 0 -174.5 75.5t-63.5 207.5q0 177 101.5 295t298.5 148zM407 219q0 60 -35 95t-90 35q-49 0 -83 -37t-34 -95q0 -60 34 -98t87 -38t87 38.5t34 99.5z" />
    <glyph glyph-name="seven.tab" horiz-adv-x="560" 
d="M43 686q128 -3 225 -3q122 0 240 3l21 -61q-15 -26 -59 -121l-192 -379q-43 -84 -62 -134l-132 15q32 54 89 170l201 396h-139q-134 0 -199 -1q7 95 7 115z" />
    <glyph glyph-name="eight.tab" horiz-adv-x="560" 
d="M39 171q0 64 39.5 110t108.5 70q-55 24 -89.5 66t-34.5 96q0 80 64.5 135t161.5 55q96 0 157.5 -53t61.5 -128q0 -105 -125 -165q138 -63 138 -175q0 -87 -68 -143.5t-175 -56.5q-106 0 -172.5 54t-66.5 135zM401 177q0 44 -30.5 75t-92.5 56q-119 -45 -119 -130
q0 -46 36 -74t90 -28q52 0 84 29t32 72zM179 516q0 -73 115 -116q46 18 72.5 49t26.5 66q0 42 -30 68.5t-77 26.5q-48 0 -77.5 -27t-29.5 -67z" />
    <glyph glyph-name="nine.tab" horiz-adv-x="560" 
d="M93 79q251 39 304 233q-60 -68 -155 -68q-88 0 -148 62t-60 154q0 103 69 172.5t176 69.5q111 0 174.5 -75t63.5 -207q0 -177 -101.5 -295.5t-298.5 -147.5zM153 465q0 -60 35 -95t90 -35q48 0 82.5 37.5t34.5 94.5q0 61 -34 99t-87 38t-87 -39t-34 -100z" />
    <glyph glyph-name="dollar.tab" horiz-adv-x="560" 
d="M296 -127h-91q2 11 11 112q-103 14 -185 60l6 120q82 -62 193 -76q11 110 20 218q-35 14 -57 24t-51.5 28.5t-46 37t-28.5 46t-12 59.5q0 86 61.5 140t162.5 59q6 84 7 101q59 0 88 3l-11 -108q84 -12 142 -51l-33 -102q-55 36 -123 48l-18 -200q43 -16 71 -30.5
t59.5 -38.5t47 -57t15.5 -75q0 -89 -60 -145.5t-163 -63.5q-5 -100 -5 -109zM410 181q0 31 -23 53.5t-67 42.5l-15 -190q105 8 105 94zM168 510q0 -30 23.5 -50t68.5 -40q4 53 15 177q-107 -7 -107 -87z" />
    <glyph glyph-name="sterling.tab" horiz-adv-x="560" 
d="M46 298q3 33 3 94h84q-21 49 -21 97q0 90 64 151.5t164 61.5q99 0 169 -41l-25 -103q-62 39 -140 39q-49 0 -80.5 -28t-31.5 -79q0 -42 27 -96q89 1 202 8q-5 -26 -5 -95q-75 1 -159 0q6 -28 6 -45q0 -90 -72 -159q120 1 302 8q-7 -68 -7 -115q-75 4 -224 4
q-164 0 -246 -6l-14 85q74 35 110.5 73.5t36.5 90.5q0 27 -13 58q-29 -1 -76.5 -2t-53.5 -1z" />
    </font>
</defs>
</svg>
